<svg xmlns="http://www.w3.org/2000/svg" width="60" height="60" viewBox="0 0 60 60">
  <g id="Grupo_1179597" data-name="Grupo 1179597" transform="translate(-624.4 -2942.266)">
    <g id="Grupo_1179092" data-name="Grupo 1179092" transform="translate(444.732 -2578.734)">
      <rect id="Rectángulo_402006" data-name="Rectángulo 402006" width="60" height="60" rx="10" transform="translate(179.668 5521)" fill="#6c4826"/>
      <g id="Grupo_1179246" data-name="Grupo 1179246" transform="translate(130.744 5528.548)">
        <g id="Page-1_53_" transform="translate(60.962 0)">
          <g id="_x30_54---Satisfaction-Survey" transform="translate(0 0)">
            <path id="Shape_163_" d="M93.892,44.9a2.994,2.994,0,0,0,2.994-2.994V5.987a2.994,2.994,0,0,0-2.994-2.994H86.2a1.491,1.491,0,0,0-1.289-.748h-.748A2.245,2.245,0,0,0,81.917,0H75.93a2.245,2.245,0,0,0-2.245,2.245h-.748a1.492,1.492,0,0,0-1.289.748H63.956a2.994,2.994,0,0,0-2.994,2.994V41.911A2.994,2.994,0,0,0,63.956,44.9H93.892ZM72.936,3.742h1.5a.748.748,0,0,0,.748-.748V2.245A.748.748,0,0,1,75.93,1.5h5.987a.748.748,0,0,1,.748.748v.748a.748.748,0,0,0,.748.748h1.5v1.5a.748.748,0,0,1-.748.748H73.685a.748.748,0,0,1-.748-.748v-1.5Zm.748,3.742h18.71v32.93H65.452V7.484ZM62.459,41.911V5.987a1.5,1.5,0,0,1,1.5-1.5H71.44v.748a2.219,2.219,0,0,0,.138.748H65.452a1.5,1.5,0,0,0-1.5,1.5v32.93a1.5,1.5,0,0,0,1.5,1.5H92.395a1.5,1.5,0,0,0,1.5-1.5V7.484a1.5,1.5,0,0,0-1.5-1.5H86.27a2.219,2.219,0,0,0,.138-.748V4.49h7.484a1.5,1.5,0,0,1,1.5,1.5V41.911a1.5,1.5,0,0,1-1.5,1.5H63.956a1.5,1.5,0,0,1-1.5-1.5Z" transform="translate(-60.962 0)" fill="#ffac04"/>
            <g id="Grupo_1179245" data-name="Grupo 1179245" transform="translate(10.478 12.723)">
              <circle id="Oval_47_" cx="0.748" cy="0.748" r="0.748" transform="translate(0 8.981)" fill="#ffac04"/>
              <circle id="Oval_46_" cx="0.748" cy="0.748" r="0.748" transform="translate(2.994 8.981)" fill="#ffac04"/>
              <circle id="Oval_45_" cx="0.748" cy="0.748" r="0.748" fill="#ffac04"/>
              <circle id="Oval_44_" cx="0.748" cy="0.748" r="0.748" transform="translate(2.994)" fill="#ffac04"/>
              <circle id="Oval_43_" cx="0.748" cy="0.748" r="0.748" transform="translate(0 17.962)" fill="#ffac04"/>
              <circle id="Oval_42_" cx="0.748" cy="0.748" r="0.748" transform="translate(2.994 17.962)" fill="#ffac04"/>
              <path id="Path_130_" d="M213.368,336.041a.748.748,0,0,0,.748.748h1.5a.748.748,0,1,0,0-1.5h-1.5A.748.748,0,0,0,213.368,336.041Z" transform="translate(-212.62 -323.319)" fill="#ffac04" fill-rule="evenodd"/>
            </g>
            <path id="Shape_162_" d="M162.56,155.181a5.239,5.239,0,1,0,7.923-4.49,5.224,5.224,0,0,0,0-8.981,5.239,5.239,0,1,0-5.369,0,5.224,5.224,0,0,0,0,8.981A5.239,5.239,0,0,0,162.56,155.181Zm1.5-17.962a3.742,3.742,0,1,1,3.742,3.742A3.742,3.742,0,0,1,164.057,137.219Zm0,8.981a3.742,3.742,0,1,1,3.742,3.742A3.742,3.742,0,0,1,164.057,146.2Zm3.742,5.239a3.742,3.742,0,1,1-3.742,3.742A3.742,3.742,0,0,1,167.8,151.439Z" transform="translate(-155.076 -122.251)" fill="#ffac04"/>
            <path id="Shape_161_" d="M346.951,150.474h4.49a1.5,1.5,0,0,0,1.5-1.5v-3.92l1.323-1.587a.749.749,0,1,0-1.15-.959l-.7.844a1.486,1.486,0,0,0-.968-.364h-4.49a1.5,1.5,0,0,0-1.5,1.5v4.49A1.5,1.5,0,0,0,346.951,150.474Zm0-5.987h4.49v.028l-1.547,1.857-.169-.169a.748.748,0,0,0-1.058,1.058l.748.748a.748.748,0,0,0,.529.219h.034a.748.748,0,0,0,.541-.268l.922-1.108v2.125h-4.49v-4.49Z" transform="translate(-324.499 -131.764)" fill="#ffac04"/>
            <path id="Shape_160_" d="M346.951,272.4h4.49a1.5,1.5,0,0,0,1.5-1.5v-3.92l1.323-1.587a.749.749,0,0,0-1.15-.959l-.7.844a1.486,1.486,0,0,0-.968-.364h-4.49a1.5,1.5,0,0,0-1.5,1.5v4.49A1.5,1.5,0,0,0,346.951,272.4Zm0-5.987h4.49v.028l-1.547,1.857-.169-.169a.748.748,0,0,0-1.058,1.058l.748.748a.748.748,0,0,0,.529.219h.034a.748.748,0,0,0,.541-.268l.922-1.108V270.9h-4.49v-4.49Z" transform="translate(-324.499 -244.708)" fill="#ffac04"/>
            <path id="Shape_159_" d="M346.951,394.324h4.49a1.5,1.5,0,0,0,1.5-1.5v-3.92l1.323-1.587a.749.749,0,0,0-1.15-.959l-.7.844a1.486,1.486,0,0,0-.968-.364h-4.49a1.5,1.5,0,0,0-1.5,1.5v4.49A1.5,1.5,0,0,0,346.951,394.324Zm0-5.987h4.49v.028l-1.547,1.857-.169-.169a.748.748,0,0,0-1.058,1.058l.748.748a.748.748,0,0,0,.529.219h.034a.748.748,0,0,0,.541-.268l.922-1.108v2.125h-4.49v-4.49Z" transform="translate(-324.499 -357.652)" fill="#ffac04"/>
            <path id="Path_129_" d="M206.146,448.148a.748.748,0,0,0,1.3.748.781.781,0,0,1,1.3,0,.748.748,0,0,0,1.3-.748,2.245,2.245,0,0,0-3.892,0Z" transform="translate(-195.369 -414.096)" fill="#ffac04" fill-rule="evenodd"/>
            <path id="Path_128_" d="M206.287,203.3a.748.748,0,0,0-.274,1.022,2.245,2.245,0,0,0,3.892,0,.748.748,0,0,0-1.3-.748.781.781,0,0,1-1.3,0,.748.748,0,0,0-1.025-.273Z" transform="translate(-195.236 -188.234)" fill="#ffac04" fill-rule="evenodd"/>
          </g>
        </g>
      </g>
    </g>
  </g>
</svg>
