<svg xmlns="http://www.w3.org/2000/svg" width="85.046" height="85.049" viewBox="0 0 85.046 85.049">
  <g id="Grupo_1179599" data-name="Grupo 1179599" transform="translate(-705 -1162.749)">
    <g id="Grupo_1179243" data-name="Grupo 1179243" transform="translate(705 1162.749)">
      <path id="Trazado_998317" data-name="Trazado 998317" d="M193.661,452a1.662,1.662,0,1,0,1.174.487A1.674,1.674,0,0,0,193.661,452Zm0,0" transform="translate(-160.107 -376.918)" fill="#384c27"/>
      <path id="Trazado_998318" data-name="Trazado 998318" d="M83.276,22.644a6.061,6.061,0,0,0-8.562,0l-7.6,7.6V5.648A5.655,5.655,0,0,0,61.461,0H5.648A5.655,5.655,0,0,0,0,5.648V79.4a5.655,5.655,0,0,0,5.648,5.648H61.461A5.655,5.655,0,0,0,67.109,79.4V47.374L83.276,31.206A6.061,6.061,0,0,0,83.276,22.644Zm-19.489-17V33.571l-3.322,3.322V8.306A1.661,1.661,0,0,0,58.8,6.644H47.7V3.322H61.461A2.328,2.328,0,0,1,63.787,5.648ZM54.717,51.2l2.243-5.038,2.8,2.8ZM44.38,3.322v6.769a1.871,1.871,0,0,1-1.869,1.869H24.6a1.871,1.871,0,0,1-1.869-1.869V3.322Zm17.082,78.4H5.648A2.328,2.328,0,0,1,3.322,79.4V5.648A2.328,2.328,0,0,1,5.648,3.322H19.407V6.644H8.306A1.661,1.661,0,0,0,6.644,8.306V76.743A1.661,1.661,0,0,0,8.306,78.4h18.6a1.661,1.661,0,0,0,0-3.322H9.967V9.967h9.44v.125A5.2,5.2,0,0,0,24.6,15.282H42.511A5.2,5.2,0,0,0,47.7,10.091V9.967h9.44V40.216L55.25,42.107a1.681,1.681,0,0,0-.343.5l-4.986,11.2A1.662,1.662,0,0,0,52.115,56l5.027-2.239V75.082H40.2a1.661,1.661,0,1,0,0,3.322H58.8a1.661,1.661,0,0,0,1.661-1.661V52.281l2.849-1.269a1.656,1.656,0,0,0,.473-.319V79.4A2.328,2.328,0,0,1,61.461,81.727ZM74.735,35.048l-12.1,12.1-3.864-3.864L73.752,28.3l3.864,3.864Zm6.192-6.191-.962.961L76.1,25.955l.961-.961a2.732,2.732,0,0,1,3.864,3.863Zm0,0" fill="#384c27"/>
      <path id="Trazado_998319" data-name="Trazado 998319" d="M100.292,120H89.661A1.661,1.661,0,0,0,88,121.661v10.631a1.661,1.661,0,0,0,1.661,1.661h10.631a1.661,1.661,0,0,0,1.661-1.661V121.661A1.661,1.661,0,0,0,100.292,120Zm-1.661,10.631H91.322v-7.309h7.309Zm0,0" transform="translate(-73.382 -100.067)" fill="#384c27"/>
      <path id="Trazado_998320" data-name="Trazado 998320" d="M100.292,230H89.661A1.661,1.661,0,0,0,88,231.661v10.631a1.661,1.661,0,0,0,1.661,1.661h10.631a1.661,1.661,0,0,0,1.661-1.661V231.661A1.661,1.661,0,0,0,100.292,230Zm-1.661,10.631H91.322v-7.309h7.309Zm0,0" transform="translate(-73.382 -191.794)" fill="#384c27"/>
      <path id="Trazado_998321" data-name="Trazado 998321" d="M100.292,340H89.661A1.661,1.661,0,0,0,88,341.661v10.631a1.661,1.661,0,0,0,1.661,1.661h10.631a1.661,1.661,0,0,0,1.661-1.661V341.661A1.661,1.661,0,0,0,100.292,340Zm-1.661,10.631H91.322v-7.309h7.309Zm0,0" transform="translate(-73.382 -283.522)" fill="#384c27"/>
      <path id="Trazado_998322" data-name="Trazado 998322" d="M212.583,139.761a1.661,1.661,0,0,0,2.349,0l7.5-7.5a1.661,1.661,0,0,0-2.35-2.349l-6.325,6.325-2.521-2.521a1.661,1.661,0,1,0-2.35,2.349Zm0,0" transform="translate(-173.783 -107.927)" fill="#384c27"/>
      <path id="Trazado_998323" data-name="Trazado 998323" d="M212.583,249.763a1.66,1.66,0,0,0,2.349,0l7.5-7.5a1.661,1.661,0,0,0-2.35-2.35l-6.325,6.325-2.521-2.521a1.661,1.661,0,1,0-2.35,2.349Zm0,0" transform="translate(-173.783 -199.657)" fill="#384c27"/>
      <path id="Trazado_998324" data-name="Trazado 998324" d="M224.937,357.186l2.575,2.575a1.661,1.661,0,1,0,2.349-2.349l-2.575-2.575,2.575-2.575a1.661,1.661,0,1,0-2.349-2.349l-2.575,2.575-2.575-2.575a1.661,1.661,0,1,0-2.35,2.349l2.575,2.575-2.575,2.575a1.661,1.661,0,0,0,2.35,2.349Zm0,0" transform="translate(-183.061 -291.382)" fill="#384c27"/>
    </g>
  </g>
</svg>
