<svg xmlns="http://www.w3.org/2000/svg" width="82.078" height="82.078" viewBox="0 0 82.078 82.078">
  <g id="Grupo_1179597" data-name="Grupo 1179597" transform="translate(-737.957 -1962.961)">
    <g id="Grupo_1179244" data-name="Grupo 1179244" transform="translate(736.957 1961.961)">
      <path id="Trazado_998325" data-name="Trazado 998325" d="M76.459,14.238H75.135V4.972A3.972,3.972,0,0,0,71.164,1H12.915A3.972,3.972,0,0,0,8.943,4.972v9.267H7.619A6.627,6.627,0,0,0,1,20.858V60.573a6.627,6.627,0,0,0,6.619,6.619H32.772v5.3H30.124a5.3,5.3,0,0,0-5.3,5.3v3.972a1.324,1.324,0,0,0,1.324,1.324H57.925a1.324,1.324,0,0,0,1.324-1.324V77.783a5.3,5.3,0,0,0-5.3-5.3H51.306v-5.3H76.459a6.627,6.627,0,0,0,6.619-6.619V20.858A6.627,6.627,0,0,0,76.459,14.238Zm-64.868,0h14.35a1.313,1.313,0,0,0-.064,1.274l1.139,2.277A16.976,16.976,0,0,0,25.5,21.445l-2.412.8a1.324,1.324,0,0,0-.906,1.256v5.3a1.324,1.324,0,0,0,.906,1.256l2.412.8a16.976,16.976,0,0,0,1.517,3.656l-1.139,2.277a1.324,1.324,0,0,0,.248,1.528l3.745,3.745a1.324,1.324,0,0,0,1.528.248l2.277-1.137a17.084,17.084,0,0,0,3.655,1.516l.806,2.412a1.324,1.324,0,0,0,1.255.906h5.3a1.324,1.324,0,0,0,1.255-.906l.806-2.412A17.084,17.084,0,0,0,50.4,41.177l2.277,1.137a1.324,1.324,0,0,0,1.528-.248l3.745-3.745a1.324,1.324,0,0,0,.248-1.528l-1.139-2.277a16.975,16.975,0,0,0,1.517-3.656l2.412-.8A1.324,1.324,0,0,0,61.9,28.8v-5.3a1.324,1.324,0,0,0-.906-1.256l-2.412-.8a16.975,16.975,0,0,0-1.517-3.656L58.2,15.512a1.313,1.313,0,0,0-.064-1.274h14.35v33.1a1.324,1.324,0,0,1-1.324,1.324H12.915a1.324,1.324,0,0,1-1.324-1.324Zm43.819.943-1.034,2.065a1.324,1.324,0,0,0,.058,1.288A14.39,14.39,0,0,1,56.2,22.781a1.324,1.324,0,0,0,.87.949l2.183.729v3.386l-2.187.729a1.324,1.324,0,0,0-.87.949,14.39,14.39,0,0,1-1.762,4.247,1.324,1.324,0,0,0-.058,1.288l1.034,2.065-2.395,2.4-2.065-1.033a1.324,1.324,0,0,0-1.287.057,14.43,14.43,0,0,1-4.247,1.761,1.324,1.324,0,0,0-.949.87l-.731,2.184H40.346l-.731-2.188a1.324,1.324,0,0,0-.949-.87,14.43,14.43,0,0,1-4.247-1.761,1.324,1.324,0,0,0-1.287-.057L31.067,39.52l-2.4-2.395L29.7,35.06a1.324,1.324,0,0,0-.058-1.288,14.39,14.39,0,0,1-1.762-4.247,1.324,1.324,0,0,0-.87-.949l-2.183-.729V24.46l2.187-.729a1.324,1.324,0,0,0,.87-.949,14.39,14.39,0,0,1,1.762-4.247,1.324,1.324,0,0,0,.058-1.288l-1.034-2.065,2.395-2.4,2.065,1.033a1.324,1.324,0,0,0,1.287-.057A14.43,14.43,0,0,1,38.666,12a1.324,1.324,0,0,0,.949-.87l.731-2.184h3.386l.731,2.188a1.324,1.324,0,0,0,.949.87,14.43,14.43,0,0,1,4.247,1.761,1.324,1.324,0,0,0,1.287.057l2.065-1.033ZM12.915,3.648H71.164a1.324,1.324,0,0,1,1.324,1.324v6.619H55.559l-1.352-1.352a1.324,1.324,0,0,0-1.528-.248L50.4,11.129a17.084,17.084,0,0,0-3.655-1.516L45.942,7.2A1.324,1.324,0,0,0,44.687,6.3h-5.3a1.324,1.324,0,0,0-1.255.906L37.33,9.613a17.084,17.084,0,0,0-3.655,1.516L31.4,9.992a1.324,1.324,0,0,0-1.528.248l-1.352,1.352H11.591V4.972a1.324,1.324,0,0,1,1.324-1.324Zm-5.3,13.238H8.943V47.334a3.972,3.972,0,0,0,3.972,3.972H71.164a3.972,3.972,0,0,0,3.972-3.972V16.886h1.324a3.972,3.972,0,0,1,3.972,3.972v33.1H3.648v-33.1a3.972,3.972,0,0,1,3.972-3.972ZM56.6,77.783V80.43H27.477V77.783a2.648,2.648,0,0,1,2.648-2.648H53.954A2.648,2.648,0,0,1,56.6,77.783Zm-7.943-5.3H35.42v-5.3H48.658Zm27.8-7.943H7.619a3.972,3.972,0,0,1-3.972-3.972V56.6H80.43v3.972A3.972,3.972,0,0,1,76.459,64.544Z" fill="#384c27"/>
      <path id="Trazado_998326" data-name="Trazado 998326" d="M27,45H40.238v2.648H27Z" transform="translate(8.42 14.249)" fill="#384c27"/>
      <path id="Trazado_998327" data-name="Trazado 998327" d="M34.267,13a9.267,9.267,0,1,0,9.267,9.267A9.267,9.267,0,0,0,34.267,13Zm0,15.886a6.619,6.619,0,1,1,6.619-6.619A6.619,6.619,0,0,1,34.267,28.886Z" transform="translate(7.772 3.886)" fill="#384c27"/>
      <path id="Trazado_998328" data-name="Trazado 998328" d="M51,5h2.648V7.648H51Z" transform="translate(16.192 1.295)" fill="#384c27"/>
      <path id="Trazado_998329" data-name="Trazado 998329" d="M47,5h2.648V7.648H47Z" transform="translate(14.897 1.295)" fill="#384c27"/>
      <path id="Trazado_998330" data-name="Trazado 998330" d="M43,5h2.648V7.648H43Z" transform="translate(13.601 1.295)" fill="#384c27"/>
      <path id="Trazado_998331" data-name="Trazado 998331" d="M19,5h2.648V7.648H19Z" transform="translate(5.829 1.295)" fill="#384c27"/>
      <path id="Trazado_998332" data-name="Trazado 998332" d="M15,5h2.648V7.648H15Z" transform="translate(4.534 1.295)" fill="#384c27"/>
      <path id="Trazado_998333" data-name="Trazado 998333" d="M11,5h2.648V7.648H11Z" transform="translate(3.238 1.295)" fill="#384c27"/>
    </g>
  </g>
</svg>
