<svg xmlns="http://www.w3.org/2000/svg" width="69.138" height="68.605" viewBox="0 0 69.138 68.605">
  <g id="Grupo_1179594" data-name="Grupo 1179594" transform="translate(-733.577 -853.722)">
    <g id="Grupo_1179107" data-name="Grupo 1179107" transform="translate(733.577 851.746)">
      <g id="Grupo_1179096" data-name="Grupo 1179096" transform="translate(0 15.87)">
        <g id="Grupo_1179095" data-name="Grupo 1179095">
          <path id="Trazado_997573" data-name="Trazado 997573" d="M15.125,144.911a5.725,5.725,0,0,0-6.6-1.074A32.069,32.069,0,0,1,8.588,107a1.35,1.35,0,0,0-2.2-1.567,34.594,34.594,0,0,0,.067,40.152,5.721,5.721,0,1,0,8.671-.678Zm-1.91,6.181a3.021,3.021,0,1,1,0-4.272A3.024,3.024,0,0,1,13.216,151.092Z" transform="translate(0 -104.869)" fill="#384c27"/>
        </g>
      </g>
      <g id="Grupo_1179098" data-name="Grupo 1179098" transform="translate(18.635 8.92)">
        <g id="Grupo_1179097" data-name="Grupo 1179097" transform="translate(0 0)">
          <path id="Trazado_997574" data-name="Trazado 997574" d="M174.455,107.113a1.35,1.35,0,0,0-1.885-.3,31.475,31.475,0,0,1-12.9,5.493,3.7,3.7,0,0,1-4.369-3.628v-9.9h.118a2.839,2.839,0,0,0,2.836-2.836V93.66A12.173,12.173,0,0,0,166.087,82.3V75.908a5.13,5.13,0,0,0-.675-10.035V57.455a4.051,4.051,0,1,0-8.1,0v8.372h-6.752V57.455a4.051,4.051,0,1,0-8.1,0v8.418a5.13,5.13,0,0,0-.675,10.035V82.3a12.173,12.173,0,0,0,7.832,11.359v2.28a2.839,2.839,0,0,0,2.836,2.836h.152v9.9a6.4,6.4,0,0,0,6.4,6.39,6.461,6.461,0,0,0,1.158-.1,34.154,34.154,0,0,0,14-5.961A1.35,1.35,0,0,0,174.455,107.113ZM160.011,57.455a1.35,1.35,0,0,1,2.7,0v8.372h-2.7Zm-14.854,0a1.35,1.35,0,0,1,2.7,0v8.372h-2.7Zm-4.456,13.5a2.433,2.433,0,0,1,2.431-2.431h21.606a2.431,2.431,0,1,1,0,4.861H143.131A2.433,2.433,0,0,1,140.7,70.959ZM144.482,82.3V76.09h18.905V82.3a9.453,9.453,0,1,1-18.905,0Zm9.5,13.774-.034,0-.034,0h-1.469a.135.135,0,0,1-.135-.135V94.347a12.177,12.177,0,0,0,3.241,0V95.94a.135.135,0,0,1-.135.135Z" transform="translate(-138 -53.404)" fill="#384c27"/>
        </g>
      </g>
      <g id="Grupo_1179100" data-name="Grupo 1179100" transform="translate(56.705 58.607)">
        <g id="Grupo_1179099" data-name="Grupo 1179099">
          <path id="Trazado_997575" data-name="Trazado 997575" d="M422.2,421.715a1.35,1.35,0,0,0-1.881.037l-.031.032a1.35,1.35,0,0,0,1.947,1.872l.031-.032A1.35,1.35,0,0,0,422.2,421.715Z" transform="translate(-419.927 -421.352)" fill="#384c27"/>
        </g>
      </g>
      <g id="Grupo_1179102" data-name="Grupo 1179102" transform="translate(13.985 1.976)">
        <g id="Grupo_1179101" data-name="Grupo 1179101" transform="translate(0 0)">
          <path id="Trazado_997576" data-name="Trazado 997576" d="M158.625,33.944A34.645,34.645,0,0,0,104.134,8.288a1.35,1.35,0,1,0,1.559,2.205,32.237,32.237,0,0,1,40.99,3.44A31.682,31.682,0,0,1,149.9,55.249a1.35,1.35,0,1,0,2.18,1.594A34.572,34.572,0,0,0,158.625,33.944Z" transform="translate(-103.563 -1.976)" fill="#384c27"/>
        </g>
      </g>
      <g id="Grupo_1179104" data-name="Grupo 1179104" transform="translate(9.548 11.789)">
        <g id="Grupo_1179103" data-name="Grupo 1179103">
          <path id="Trazado_997577" data-name="Trazado 997577" d="M73.029,75.039a1.35,1.35,0,0,0-1.91.009l-.022.022a1.35,1.35,0,0,0,1.918,1.9l.022-.022A1.35,1.35,0,0,0,73.029,75.039Z" transform="translate(-70.706 -74.647)" fill="#384c27"/>
        </g>
      </g>
      <g id="Grupo_1179106" data-name="Grupo 1179106" transform="translate(31.34 32.214)">
        <g id="Grupo_1179105" data-name="Grupo 1179105">
          <path id="Trazado_997578" data-name="Trazado 997578" d="M238.364,231.008a1.35,1.35,0,0,0-1.167-.67h-.965l1.777-2.245a1.35,1.35,0,0,0-2.118-1.676l-3.51,4.434a1.35,1.35,0,0,0,1.059,2.189h1.439l-1.654,2.92a1.35,1.35,0,1,0,2.35,1.331l2.8-4.936A1.35,1.35,0,0,0,238.364,231.008Z" transform="translate(-232.091 -225.904)" fill="#384c27"/>
        </g>
      </g>
    </g>
  </g>
</svg>
