<svg xmlns="http://www.w3.org/2000/svg" width="60" height="60" viewBox="0 0 60 60">
  <g id="Grupo_1179598" data-name="Grupo 1179598" transform="translate(-180.543 -7444.334)">
    <g id="Grupo_1102311" data-name="Grupo 1102311" transform="translate(0.875 1923.334)">
      <rect id="Rectángulo_402006" data-name="Rectángulo 402006" width="60" height="60" rx="10" transform="translate(179.668 5521)" fill="#6c4826"/>
      <g id="Grupo_1179212" data-name="Grupo 1179212" transform="translate(149.7 5526.395)">
        <path id="Trazado_998300" data-name="Trazado 998300" d="M75.813,21.973h-.425V19.267a8.317,8.317,0,0,1,1.94-5.351A9,9,0,0,0,79.62,7.91,9.143,9.143,0,0,0,75.447.259a1.655,1.655,0,0,0-2.539,1.4V7.338a2.3,2.3,0,0,1-4.606,0V1.659A1.655,1.655,0,0,0,65.762.26,9.142,9.142,0,0,0,61.589,7.91a9,9,0,0,0,2.291,6.005,8.291,8.291,0,0,1,1.905,4.6A6.924,6.924,0,0,0,60.9,21.039L59.671,22.6a3.209,3.209,0,0,1-2.536,1.231H56.043a2.812,2.812,0,0,0-5.529-.648H39.965A2.322,2.322,0,0,0,37.646,25.5V37.627a2.322,2.322,0,0,0,2.319,2.319H50.747A2.812,2.812,0,0,0,56,39.106h2.75a3.213,3.213,0,0,1,1.194.229c2.162.787,3.231,1.507,5.872,1.973v3.118a4.784,4.784,0,1,0,9.567,0V40.256a2.97,2.97,0,0,0,.49-1.79,2.936,2.936,0,0,0-.572-1.6A2.892,2.892,0,0,0,77.2,34.177a3.159,3.159,0,0,0-.855-2.206,2.953,2.953,0,0,0,.7-4.271,2.994,2.994,0,0,0-1.229-5.726ZM54.6,38.63a1.371,1.371,0,1,1-2.742,0V36.872a.721.721,0,0,0-1.442,0V38.5H39.965a.878.878,0,0,1-.877-.877V25.5a.878.878,0,0,1,.877-.877H50.42V33.5a.721.721,0,1,0,1.442,0V23.907a1.371,1.371,0,0,1,2.742,0V38.63ZM64.956,12.955A7.56,7.56,0,0,1,63.031,7.91a7.688,7.688,0,0,1,3.507-6.435.212.212,0,0,1,.322.184V7.339a3.745,3.745,0,0,0,7.49,0V1.659a.212.212,0,0,1,.322-.184A7.688,7.688,0,0,1,78.178,7.91a7.56,7.56,0,0,1-1.925,5.045,9.756,9.756,0,0,0-2.307,6.312v2.7H72.683V20.483a.721.721,0,1,0-1.442,0v1.486H69.967V16.6a.637.637,0,0,1,1.274,0v.513a.721.721,0,0,0,1.442,0V16.6a2.079,2.079,0,0,0-4.158,0v5.37H68a.734.734,0,0,1-.735-.788C67.263,19.47,67.585,15.9,64.956,12.955Zm8.991,31.472a3.342,3.342,0,1,1-6.684,0V41.5q.629.057,1.263.068v2.647a2.079,2.079,0,1,0,4.158,0V41.6a3.271,3.271,0,0,0,1.263-.19Zm-3.979-.211V41.581l1.274.01v2.625a.637.637,0,0,1-1.274,0ZM75.812,26.52h-.887a.721.721,0,0,0-.721.721v.015a.721.721,0,0,0,.64.716,1.56,1.56,0,0,1,1.375,1.6,1.6,1.6,0,0,1-1.612,1.5H74.3a.722.722,0,0,0-.028,1.444,1.567,1.567,0,0,1,1.485,1.663,1.47,1.47,0,0,1-1.492,1.44h-.485a.817.817,0,0,0-.316,1.571,1.542,1.542,0,0,1-.571,2.976,51.893,51.893,0,0,1-6.264-.185l-.016,0c-2.812-.4-4.146-1.27-6.13-1.979a4.65,4.65,0,0,0-1.728-.331H56.045V25.273h1.091a4.642,4.642,0,0,0,3.668-1.78l1.23-1.562a5.471,5.471,0,0,1,3.786-1.969v1.218A2.173,2.173,0,0,0,68,23.409l6.67.005h1.145a1.553,1.553,0,1,1,0,3.105Z" transform="translate(0 0)" fill="#ffac04"/>
      </g>
    </g>
  </g>
</svg>
