<svg xmlns="http://www.w3.org/2000/svg" width="60" height="60" viewBox="0 0 60 60">
  <g id="Grupo_1179599" data-name="Grupo 1179599" transform="translate(-205.02 -667.561)">
    <g id="Grupo_1102709" data-name="Grupo 1102709" transform="translate(25.352 -4853.439)">
      <rect id="Rectángulo_402006" data-name="Rectángulo 402006" width="60" height="60" rx="10" transform="translate(179.668 5521)" fill="#6c4826"/>
      <g id="_x30_2_Team_Work" transform="translate(175.515 5514.634)">
        <g id="Grupo_1179228" data-name="Grupo 1179228" transform="translate(8.237 10.708)">
          <path id="Trazado_998305" data-name="Trazado 998305" d="M57.9,21.3h-.544a2.145,2.145,0,0,0,.2-.9,2.171,2.171,0,0,0-2.168-2.168h-6.6l1.784-.97a2.445,2.445,0,1,0-2.355-4.286c-5.683,3.11-7.841,4.2-9.638,6.322H36.462a2.317,2.317,0,0,0-2.255-1.806H28.958V16.7A2.32,2.32,0,0,0,25.6,14.736v-.6a2.171,2.171,0,0,0-2.169-2.169,2.14,2.14,0,0,0-1.015.264,2.162,2.162,0,0,0-4.226.65v.544a2.142,2.142,0,0,0-.9-.2,2.171,2.171,0,0,0-2.168,2.168v6.6l-.97-1.785a2.445,2.445,0,1,0-4.286,2.355S11.472,25.443,12,26.412l.1.19a18.993,18.993,0,0,0,4.082,5.592v2.122a2.317,2.317,0,0,0-1.806,2.255v7.653H12.914a2.171,2.171,0,0,0-2.168,2.168,2.145,2.145,0,0,0,.2.9h-.544a2.171,2.171,0,0,0-2.168,2.168,2.139,2.139,0,0,0,1.518,2.059,2.142,2.142,0,0,0-.263,1.014,2.171,2.171,0,0,0,2.169,2.168h.605a2.318,2.318,0,0,0,1.963,3.361h11.25a5.6,5.6,0,0,0,3.591-1.3,4.339,4.339,0,0,1,2.78-1.01h.026A2.313,2.313,0,0,0,34.1,57.465h6.6A2.511,2.511,0,0,0,43.508,58V58.6a2.171,2.171,0,0,0,2.169,2.168,2.14,2.14,0,0,0,1.015-.264,2.162,2.162,0,0,0,4.226-.65v-.544a2.142,2.142,0,0,0,.9.2,2.171,2.171,0,0,0,2.168-2.168v-6.6l.97,1.785a2.445,2.445,0,1,0,4.286-2.355s-1.612-2.886-2.137-3.855l-.1-.189a19,19,0,0,0-4.082-5.593V38.416a2.317,2.317,0,0,0,1.806-2.255V31.956a2.364,2.364,0,0,0,1.311-3.25h.605a2.171,2.171,0,0,0,2.168-2.168,2.14,2.14,0,0,0-.264-1.015A2.162,2.162,0,0,0,57.9,21.3ZM42.461,38.387v.025a4.34,4.34,0,0,1-1.01,2.78,5.6,5.6,0,0,0-1.146,2.291H34.1a2.317,2.317,0,0,0-2.255,1.806H29.724a11.856,11.856,0,0,0-1.367-1.355V36.571a2.313,2.313,0,0,0-1.712-2.226V34.32a4.341,4.341,0,0,1,1.009-2.78c.02-.024.038-.051.058-.076h6.5a2.289,2.289,0,0,0,2.226-1.712,4.45,4.45,0,0,1,2.8,1.01,5.6,5.6,0,0,0,1.511.9v4.5a2.313,2.313,0,0,0,1.712,2.226Zm-8.254-19.64A1.053,1.053,0,0,1,35.258,19.8v9.35A1.051,1.051,0,0,1,34.207,30.2H28.481a5.6,5.6,0,0,0,.478-2.251v-9.2ZM13.211,26l-.1-.191c-.527-.972-2.144-3.868-2.144-3.868a1.181,1.181,0,1,1,2.071-1.137l2.157,3.97a.632.632,0,0,0,1.187-.3v-9.09a.9.9,0,0,1,1.808,0v6.378a.632.632,0,1,0,1.264,0V12.876a.9.9,0,1,1,1.808,0v8.886a.632.632,0,1,0,1.264,0V14.131a.9.9,0,1,1,1.809,0v7.632a.634.634,0,1,0,1.267,0V16.7c0-1.221,2.094-1.221,2.094,0v11.25a4.338,4.338,0,0,1-1.01,2.78,5.606,5.606,0,0,0-1.3,3.527H17.445V31.9a.631.631,0,0,0-.238-.494,17.326,17.326,0,0,1-4-5.4Zm2.428,10.57a1.053,1.053,0,0,1,1.052-1.051h9.35a1.053,1.053,0,0,1,1.052,1.051v6.4c-1.358-.94-7.061-4.036-7.008-4.007a2.445,2.445,0,1,0-2.353,4.287l1.784.97H15.639ZM31.784,54.489a5.606,5.606,0,0,0-3.527,1.3,4.338,4.338,0,0,1-2.78,1.01H14.228c-1.221,0-1.221-2.094,0-2.094h5.067a.634.634,0,0,0,0-1.267H11.66a.9.9,0,1,1,0-1.809h7.632a.632.632,0,1,0,0-1.264H10.4a.9.9,0,0,1,0-1.808h8.886a.632.632,0,1,0,0-1.264H12.913a.9.9,0,0,1,0-1.808H22a.632.632,0,0,0,.3-1.187l-3.97-2.157a1.181,1.181,0,1,1,1.135-2.072c5.562,3.044,7.81,4.172,9.461,6.244a.632.632,0,0,0,.494.238h2.359ZM34.1,56.2a1.052,1.052,0,0,1-1.051-1.051V45.8A1.053,1.053,0,0,1,34.1,44.748h6.049c0,.012,0,.024,0,.036v11.25c0,.058.013.112.017.168H34.1Zm21.795-9.47.1.19c.527.972,2.144,3.868,2.144,3.868a1.181,1.181,0,1,1-2.071,1.137l-2.157-3.97a.632.632,0,0,0-1.187.3v9.089a.9.9,0,1,1-1.808,0V50.969a.632.632,0,0,0-1.264,0v8.886a.9.9,0,1,1-1.808,0V50.969a.632.632,0,0,0-1.264,0V58.6a.9.9,0,0,1-1.809,0V50.969a.634.634,0,1,0-1.267,0v5.067c0,1.221-2.094,1.221-2.094,0V44.783A4.339,4.339,0,0,1,42.421,42a5.606,5.606,0,0,0,1.3-3.527H51.66v2.359a.632.632,0,0,0,.238.494,17.34,17.34,0,0,1,4,5.4Zm-3.48-9.519h-9.35a1.053,1.053,0,0,1-1.052-1.052V32a5.586,5.586,0,0,0,.816.065H53.466v4.094a1.053,1.053,0,0,1-1.052,1.052ZM57.9,24.369H49.015a.632.632,0,1,0,0,1.264h7.634a.9.9,0,0,1,0,1.808H49.015a.634.634,0,0,0,0,1.267h5.067c1.221,0,1.221,2.094,0,2.094H42.829a4.34,4.34,0,0,1-2.78-1.01,5.606,5.606,0,0,0-3.527-1.3V20.553h2.359a.632.632,0,0,0,.494-.238c1.559-1.956,3.37-2.911,9.459-6.243a1.181,1.181,0,1,1,1.137,2.071L46,18.3a.632.632,0,0,0,.3,1.187h9.09a.9.9,0,0,1,0,1.808H49.015a.632.632,0,1,0,0,1.264H57.9a.9.9,0,0,1,0,1.809Z" transform="translate(-8.237 -10.708)" fill="#ffac04"/>
        </g>
      </g>
    </g>
  </g>
</svg>
