<svg xmlns="http://www.w3.org/2000/svg" width="105" height="105" viewBox="0 0 105 105">
  <g id="Grupo_1179596" data-name="Grupo 1179596" transform="translate(-285.711 -4116.295)">
    <g id="Grupo_1102228" data-name="Grupo 1102228" transform="translate(106.043 3374.295)">
      <rect id="Rectángulo_402006" data-name="Rectángulo 402006" width="105" height="105" rx="10" transform="translate(179.668 742)" fill="#6c4826"/>
      <g id="Grupo_1179110" data-name="Grupo 1179110" transform="translate(-92.941 42)">
        <g id="Grupo_1179109" data-name="Grupo 1179109" transform="translate(289.79 716.8)">
          <path id="Trazado_997595" data-name="Trazado 997595" d="M390,45.171V33.2a1.2,1.2,0,0,0-1.2-1.2h-4.786V34.4h3.59V45.171Zm0,0" transform="translate(-326.585 -27.214)" fill="#ffac04"/>
          <path id="Trazado_997596" data-name="Trazado 997596" d="M56.016,240.008v29.915a1.2,1.2,0,0,0,1.2,1.2h47.864a1.2,1.2,0,0,0,1.2-1.2v-8.376H103.88v7.18H58.409V240.008Zm0,0" transform="translate(-47.646 -204.102)" fill="#ffac04"/>
          <path id="Trazado_997597" data-name="Trazado 997597" d="M94.8.128C94.765.111,94.73.1,94.691.088a1.189,1.189,0,0,0-.31-.062.457.457,0,0,0-.074-.018H57.212a1.2,1.2,0,0,0-1.2,1.2V3.6h2.393V2.4h34.7v9.573a1.2,1.2,0,0,0,1.2,1.2h9.573v5.983h2.393v-7.18c0-.025-.013-.048-.015-.074a1.166,1.166,0,0,0-.062-.31c-.013-.039-.023-.074-.04-.112a1.189,1.189,0,0,0-.239-.351L95.148.358A1.2,1.2,0,0,0,94.8.128Zm7.385,10.65H95.5V4.093Zm0,0" transform="translate(-47.646 0)" fill="#ffac04"/>
          <path id="Trazado_997598" data-name="Trazado 997598" d="M184.016,329.2v9.573a1.2,1.2,0,0,0,1.2,1.2h15.556v-2.393H186.409V330.4h5.983v-2.393h-7.18A1.2,1.2,0,0,0,184.016,329.2Zm0,0" transform="translate(-156.5 -278.939)" fill="#ffac04"/>
          <path id="Trazado_997599" data-name="Trazado 997599" d="M216.016,360.008h7.18V362.4h-7.18Zm0,0" transform="translate(-183.714 -306.153)" fill="#ffac04"/>
          <path id="Trazado_997600" data-name="Trazado 997600" d="M145.077,136.008a8.387,8.387,0,0,0-8.376,8.376v.12l-6.1,6.442-3.821-3.821a1.2,1.2,0,0,0-1.692,0l-10.769,10.769a1.2,1.2,0,0,0,0,1.692l16.753,16.753a1.2,1.2,0,0,0,1.692,0l3.59-3.59,6.334-6.331v18.65H96.016v2.393H143.88a1.2,1.2,0,0,0,1.2-1.2V157.547h-2.393v5.488l-4.171-4.171,6.445-6.1h.12a8.376,8.376,0,1,0,0-16.753Zm-13.163,37.8-15.06-15.06,1.9-1.9,15.06,15.06Zm9.077-9.077-5.488,5.488-15.06-15.06,5.488-5.488,3.02,3.02-2.692,2.841a1.2,1.2,0,0,0,.023,1.675l5.983,5.983a1.2,1.2,0,0,0,1.668.023l2.842-2.692Zm4.085-14.359h-.6a1.2,1.2,0,0,0-.823.328l-10.522,9.963-4.331-4.331,9.968-10.522a1.2,1.2,0,0,0,.323-.823v-.6a5.983,5.983,0,1,1,5.983,5.983Zm0,0" transform="translate(-81.663 -115.658)" fill="#ffac04"/>
          <path id="Trazado_997601" data-name="Trazado 997601" d="M152.016,232.008h11.966V234.4H152.016Zm0,0" transform="translate(-129.286 -197.298)" fill="#ffac04"/>
          <path id="Trazado_997602" data-name="Trazado 997602" d="M104.016,264.008h14.359V266.4H104.016Zm0,0" transform="translate(-88.466 -224.512)" fill="#ffac04"/>
          <path id="Trazado_997603" data-name="Trazado 997603" d="M176.016,200.008h14.359V202.4H176.016Zm0,0" transform="translate(-149.697 -170.085)" fill="#ffac04"/>
          <path id="Trazado_997604" data-name="Trazado 997604" d="M104.016,296.008h7.18V298.4h-7.18Zm0,0" transform="translate(-88.466 -251.725)" fill="#ffac04"/>
          <path id="Trazado_997605" data-name="Trazado 997605" d="M104.016,328.008h9.573V330.4h-9.573Zm0,0" transform="translate(-88.466 -278.939)" fill="#ffac04"/>
          <path id="Trazado_997606" data-name="Trazado 997606" d="M104.016,360.008h9.573V362.4h-9.573Zm0,0" transform="translate(-88.466 -306.153)" fill="#ffac04"/>
          <path id="Trazado_997607" data-name="Trazado 997607" d="M104.016,392.008h9.573V394.4h-9.573Zm0,0" transform="translate(-88.466 -333.366)" fill="#ffac04"/>
          <path id="Trazado_997608" data-name="Trazado 997608" d="M104.016,232.008H108.8V234.4h-4.786Zm0,0" transform="translate(-88.466 -197.298)" fill="#ffac04"/>
          <path id="Trazado_997609" data-name="Trazado 997609" d="M168.016,296.008H172.8V298.4h-4.786Zm0,0" transform="translate(-142.893 -251.725)" fill="#ffac04"/>
          <path id="Trazado_997610" data-name="Trazado 997610" d="M200.016,160.008h11.966V162.4H200.016Zm0,0" transform="translate(-170.107 -136.068)" fill="#ffac04"/>
          <path id="Trazado_997611" data-name="Trazado 997611" d="M14.353,60.715A14.36,14.36,0,0,0,28.687,46.858a3.163,3.163,0,0,0,2.32.725,3.245,3.245,0,0,0,4.983,0,3.246,3.246,0,0,0,3.523-3.523,3.245,3.245,0,0,0,0-4.983,3.246,3.246,0,0,0-3.523-3.523,3.245,3.245,0,0,0-4.983,0,3.246,3.246,0,0,0-3.523,3.523,3.106,3.106,0,0,0-.479.493A14.359,14.359,0,1,0,14.353,60.715ZM29.27,40.779a1.2,1.2,0,0,0,.68-1.64.837.837,0,0,1,1.119-1.119,1.2,1.2,0,0,0,1.64-.68.838.838,0,0,1,1.58,0,1.2,1.2,0,0,0,1.641.68.837.837,0,0,1,1.118,1.119,1.2,1.2,0,0,0,.68,1.64.838.838,0,0,1,0,1.58A1.2,1.2,0,0,0,37.048,44a.805.805,0,0,1-.165.957.815.815,0,0,1-.958.165,1.2,1.2,0,0,0-1.64.68.838.838,0,0,1-1.58,0,1.194,1.194,0,0,0-.67-.7,1.22,1.22,0,0,0-.458-.091,1.172,1.172,0,0,0-.512.12.837.837,0,0,1-1.118-1.119,1.2,1.2,0,0,0-.68-1.641.837.837,0,0,1,0-1.579Zm-14.917-6.39A11.966,11.966,0,1,1,2.387,46.355,11.966,11.966,0,0,1,14.353,34.389Zm0,0" transform="translate(0 -27.202)" fill="#ffac04"/>
          <path id="Trazado_997612" data-name="Trazado 997612" d="M37.949,96.01a1.2,1.2,0,0,0,1.692,0L51.607,84.044l-1.692-1.692L38.8,93.472l-2.744-2.744L34.359,92.42Zm0,0" transform="translate(-29.229 -70.027)" fill="#ffac04"/>
        </g>
      </g>
    </g>
  </g>
</svg>
