<svg xmlns="http://www.w3.org/2000/svg" xmlns:xlink="http://www.w3.org/1999/xlink" width="469.423" height="480" viewBox="0 0 469.423 480">
  <defs>
    <clipPath id="clip-path">
      <rect id="Rectángulo_455541" data-name="Rectángulo 455541" width="469.423" height="480" fill="none"/>
    </clipPath>
    <clipPath id="clip-path-2">
      <rect id="Rectángulo_455540" data-name="Rectángulo 455540" width="469.422" height="479.999" fill="none"/>
    </clipPath>
    <clipPath id="clip-path-3">
      <rect id="Rectángulo_455532" data-name="Rectángulo 455532" width="15.994" height="236.019" fill="none"/>
    </clipPath>
    <clipPath id="clip-path-4">
      <rect id="Rectángulo_455533" data-name="Rectángulo 455533" width="13.618" height="217.052" fill="none"/>
    </clipPath>
    <clipPath id="clip-path-5">
      <rect id="Rectángulo_455534" data-name="Rectángulo 455534" width="88.982" height="46.483" fill="none"/>
    </clipPath>
    <clipPath id="clip-path-6">
      <rect id="Rectángulo_455535" data-name="Rectángulo 455535" width="29.625" height="14.444" fill="none"/>
    </clipPath>
    <clipPath id="clip-path-7">
      <rect id="Rectángulo_455536" data-name="Rectángulo 455536" width="71.819" height="4.449" fill="none"/>
    </clipPath>
    <clipPath id="clip-path-9">
      <rect id="Rectángulo_455538" data-name="Rectángulo 455538" width="71.818" height="4.449" fill="none"/>
    </clipPath>
  </defs>
  <g id="Grupo_1179597" data-name="Grupo 1179597" transform="translate(-950.576 -3766.383)">
    <g id="Grupo_1179140" data-name="Grupo 1179140" transform="translate(950.576 3766.383)">
      <g id="Grupo_1179139" data-name="Grupo 1179139" clip-path="url(#clip-path)">
        <g id="Grupo_1179138" data-name="Grupo 1179138" transform="translate(0 0.001)">
          <g id="Grupo_1179137" data-name="Grupo 1179137" clip-path="url(#clip-path-2)">
            <path id="Trazado_997629" data-name="Trazado 997629" d="M1178.782,242.433a17.489,17.489,0,0,0-8.087-3.63c-.028-.007-.057-.013-.085-.018-6.448-1.211-12.865.356-13.176,1.118-.454,1.1.089,14.412,1.139,15.751s5.727,1.143,5.727,1.143v.028l-.068,3.488c0,.009,0,.019,0,.028l-.119,6.017-.1,4.927-1.841,201.258a8.95,8.95,0,0,0,2.816,1.6c3.388,1.22,7.681.828,10.14-1.445,0,0-3.55-215.614-2.535-215.163a16.418,16.418,0,0,0,4.252.35h0c.54,0,.9-.014.9-.014s.682-2.011,1.3-4.608c.929-3.92,1.7-9.17-.266-10.83" transform="translate(-894.471 -182.498)" fill="#c4c4c4"/>
            <g id="Grupo_1179115" data-name="Grupo 1179115" transform="translate(269.543 56.304)" opacity="0.44" style="mix-blend-mode: multiply;isolation: isolate">
              <g id="Grupo_1179114" data-name="Grupo 1179114">
                <g id="Grupo_1179113" data-name="Grupo 1179113" clip-path="url(#clip-path-3)">
                  <path id="Trazado_997630" data-name="Trazado 997630" d="M1201.728,243.943a17.491,17.491,0,0,0-8.087-3.63c1.658.418,2.035,4.866,2.537,6.569a12.486,12.486,0,0,1,.078,5.379,8.4,8.4,0,0,1-1.359,3.934,5.815,5.815,0,0,1-3.541,2.012,16.9,16.9,0,0,1-4.112.124h-.006s0,0,.006,0a28.485,28.485,0,0,1-.068,3.488c0,.009,0,.019,0,.028-.068,1.369-.142,2.66-.15,2.843-.041,1.054-.006,2.113.031,3.174a29.265,29.265,0,0,1-.1,4.927c1.481-.927,2.6-1.852,4.146-2.661-.826,19.847-2.229,179.574-3.171,205.518,3.388,1.221,7.681.829,10.14-1.444,0,0-3.55-215.614-2.535-215.163a16.415,16.415,0,0,0,4.252.35h0c.5-.989,1.324-2.668,2.2-4.622.929-3.92,1.7-9.17-.266-10.83" transform="translate(-1186.96 -240.312)" fill="#64756c"/>
                </g>
              </g>
            </g>
            <path id="Trazado_997631" data-name="Trazado 997631" d="M1177.332,252.569a5.245,5.245,0,0,0-6.908,3.078,5.634,5.634,0,0,0,2.643,7.328,5.244,5.244,0,0,0,6.908-3.078,5.634,5.634,0,0,0-2.643-7.328" transform="translate(-904.284 -193.071)" fill="#8a8a8a"/>
            <path id="Trazado_997632" data-name="Trazado 997632" d="M1171,.562c-.37-.364-.889-.727-1.35-.475a1.464,1.464,0,0,0-.546.759c-2.636,6.2-3.167,13.108-3.466,19.845a155.017,155.017,0,0,0,.443,23.872c.122,1.105,1.273,11.643,1.273,11.643a38.9,38.9,0,0,1,9.528.085c.351-3.128.53-4.809.875-7.938q.545-4.943.729-9.919a134.784,134.784,0,0,0-.687-19.513c-.73-6.731-2.2-13.842-6.8-18.359" transform="translate(-900.748 -0.004)" fill="#ededed"/>
            <path id="Trazado_997633" data-name="Trazado 997633" d="M1172.959.562c-.37-.364-.889-.727-1.35-.475a1.463,1.463,0,0,0-.545.759c-1.995,4.693-2.494,9.547-3.141,14.557a60.124,60.124,0,0,1,4.289-13.639c.851,6.844,1.032,13.755,1.212,20.653q.211,8.118.4,16.237c.08,3.776.148,7.558-.109,11.325a26.6,26.6,0,0,1-.969,6.013,31.627,31.627,0,0,1,6.1.3c.351-3.128.53-4.809.875-7.938q.545-4.943.729-9.919a134.784,134.784,0,0,0-.687-19.513c-.73-6.731-2.2-13.842-6.8-18.359" transform="translate(-902.703 -0.004)" fill="#c4c4c4"/>
            <path id="Trazado_997634" data-name="Trazado 997634" d="M1017.2,283.23a6.053,6.053,0,0,1-.437-2.166c-.151-1.964-.352-3.932-.442-5.9,0,.024-2.939.66-3.221.743-1.293.381-2.563.843-3.814,1.348-2.588,1.046-5.1,2.281-7.593,3.543-1.134.574-2.264,1.16-3.4,1.728a66.058,66.058,0,0,0-16.518,11.446,28.229,28.229,0,0,0-6.687,9.233,4.222,4.222,0,0,0-.431,2.266c.234,1.3,1.527,1.785,2.669,1.973,5.182.852,10.711-.557,15.8-3.086a79.325,79.325,0,0,0,14.385-9.884q5.236-4.273,10.319-8.81a3.516,3.516,0,0,0,.935-1.087,2.359,2.359,0,0,1-1.564-1.348" transform="translate(-753.299 -210.694)" fill="#ededed"/>
            <path id="Trazado_997635" data-name="Trazado 997635" d="M1017.2,291.173a6.053,6.053,0,0,1-.437-2.166c-.089-1.158-.207-2.311-.3-3.469a5.6,5.6,0,0,1-2.006,2.786c-7.431,6.615-16.153,11.456-24.47,16.83-3.822,2.47-7.6,5.076-11.773,6.84-.545.23-1.223.428-1.677.041a1.678,1.678,0,0,1-.3-1.6,10.452,10.452,0,0,1,1.956-4.4,22.425,22.425,0,0,0-3.1,5.114,4.222,4.222,0,0,0-.431,2.265c.234,1.3,1.527,1.785,2.669,1.973,5.182.852,10.711-.557,15.8-3.086a79.325,79.325,0,0,0,14.385-9.884q5.236-4.273,10.319-8.811a3.517,3.517,0,0,0,.935-1.087,2.359,2.359,0,0,1-1.564-1.348" transform="translate(-753.299 -218.637)" fill="#c4c4c4"/>
            <path id="Trazado_997636" data-name="Trazado 997636" d="M1246.829,292.907c-3.4-2.882-6.816-5.769-10.481-8.294-1.721-1.186-3.5-2.048-5.287-3.067q-2.971-1.692-6.022-3.226-2.928-1.473-5.923-2.8-.016.16-.032.32-.144,1.376-.344,2.745a13.555,13.555,0,0,1-.914,3.595,5.725,5.725,0,0,1-.974,1.531c-.315.346-.994,1.053-1.488,1.018.816.8,1.575,1.658,2.368,2.476q1.238,1.276,2.514,2.512a113.225,113.225,0,0,0,9.194,8.053,84.3,84.3,0,0,0,10.015,6.764,65.867,65.867,0,0,0,10.82,4.982c2.478.87,5.13,1.58,7.718.97a2.205,2.205,0,0,0,1.183-.6c.679-.758.364-1.983-.053-2.9-2.655-5.855-7.548-10.065-12.295-14.085" transform="translate(-939.371 -210.969)" fill="#ededed"/>
            <path id="Trazado_997637" data-name="Trazado 997637" d="M1253.341,313.113a44.79,44.79,0,0,1,4.412,8.318c-7.277-3.383-13.979-7.931-20.646-12.459a145.944,145.944,0,0,1-15.5-11.566,11.133,11.133,0,0,1-3.147-3.913,12.066,12.066,0,0,1-.631,2.45,5.735,5.735,0,0,1-.974,1.531c-.315.346-.994,1.053-1.488,1.018.816.8,1.575,1.658,2.368,2.477q1.237,1.276,2.514,2.512a113.323,113.323,0,0,0,9.195,8.053,84.3,84.3,0,0,0,10.015,6.765,65.86,65.86,0,0,0,10.82,4.982c2.478.87,5.13,1.58,7.718.97a2.2,2.2,0,0,0,1.183-.6c.679-.758.364-1.983-.053-2.9a21.022,21.022,0,0,0-5.782-7.638" transform="translate(-939.371 -224.727)" fill="#c4c4c4"/>
            <path id="Trazado_997638" data-name="Trazado 997638" d="M1479.191,449.356a14.9,14.9,0,0,0-6.887-3.091l-.072-.015c-5.491-1.031-10.956.3-11.221.952-.387.94.076,12.273.97,13.414s4.877.974,4.877.974v.024l-.058,2.97c0,.008,0,.016,0,.024l-.1,5.124-.083,4.2-1.568,187.449a7.616,7.616,0,0,0,2.4,1.362c2.885,1.039,6.541.706,8.635-1.23,0,0-3.023-199.675-2.159-199.291a13.983,13.983,0,0,0,3.622.3h0c.46,0,.77-.012.77-.012s.582-1.713,1.1-3.924c.791-3.338,1.448-7.809-.226-9.223" transform="translate(-1129.128 -341.403)" fill="#c4c4c4"/>
            <g id="Grupo_1179118" data-name="Grupo 1179118" transform="translate(337.488 104.861)" opacity="0.44" style="mix-blend-mode: multiply;isolation: isolate">
              <g id="Grupo_1179117" data-name="Grupo 1179117">
                <g id="Grupo_1179116" data-name="Grupo 1179116" clip-path="url(#clip-path-4)">
                  <path id="Trazado_997639" data-name="Trazado 997639" d="M1498.731,450.642a14.9,14.9,0,0,0-6.887-3.091c1.411.356,1.732,4.145,2.161,5.594a10.634,10.634,0,0,1,.066,4.581,7.153,7.153,0,0,1-1.157,3.351,4.951,4.951,0,0,1-3.015,1.714,14.388,14.388,0,0,1-3.5.106h0s0,0,0,0a24.3,24.3,0,0,1-.058,2.97c0,.008,0,.016,0,.024-.058,1.166-.121,2.265-.128,2.421-.035.9,0,1.8.027,2.7a24.894,24.894,0,0,1-.083,4.2c1.262-.79,2.214-1.577,3.531-2.267-.7,16.9-1.9,168.983-2.7,191.078,2.885,1.039,6.541.706,8.635-1.23,0,0-3.023-199.675-2.159-199.29a13.978,13.978,0,0,0,3.622.3h0c.424-.842,1.127-2.272,1.874-3.936.791-3.338,1.448-7.809-.226-9.223" transform="translate(-1486.156 -447.551)" fill="#64756c"/>
                </g>
              </g>
            </g>
            <path id="Trazado_997640" data-name="Trazado 997640" d="M1477.956,457.988a4.466,4.466,0,0,0-5.883,2.621,4.8,4.8,0,0,0,2.251,6.24,4.467,4.467,0,0,0,5.883-2.621,4.8,4.8,0,0,0-2.251-6.24" transform="translate(-1137.485 -350.408)" fill="#8a8a8a"/>
            <path id="Trazado_997641" data-name="Trazado 997641" d="M1472.568,243.378c-.315-.31-.758-.619-1.15-.4a1.246,1.246,0,0,0-.464.646c-2.245,5.282-2.7,11.163-2.951,16.9a132.045,132.045,0,0,0,.377,20.33c.1.941,1.084,9.915,1.084,9.915a33.136,33.136,0,0,1,8.115.073c.3-2.664.451-4.1.745-6.76q.464-4.209.621-8.447a114.769,114.769,0,0,0-.585-16.617c-.622-5.732-1.875-11.788-5.791-15.635" transform="translate(-1134.474 -185.991)" fill="#ededed"/>
            <path id="Trazado_997642" data-name="Trazado 997642" d="M1474.232,243.378c-.316-.31-.758-.619-1.15-.4a1.246,1.246,0,0,0-.464.646c-1.7,4-2.124,8.13-2.675,12.4A51.221,51.221,0,0,1,1473.6,244.4c.725,5.828.879,11.714,1.032,17.588q.18,6.913.338,13.827c.068,3.215.126,6.436-.093,9.644a22.673,22.673,0,0,1-.825,5.121,26.923,26.923,0,0,1,5.194.256c.3-2.664.451-4.1.745-6.76q.464-4.209.621-8.447a114.735,114.735,0,0,0-.585-16.617c-.622-5.732-1.875-11.788-5.79-15.635" transform="translate(-1136.138 -185.991)" fill="#c4c4c4"/>
            <path id="Trazado_997643" data-name="Trazado 997643" d="M1341.588,484.1a5.155,5.155,0,0,1-.372-1.844c-.128-1.672-.3-3.348-.377-5.024,0,.02-2.5.562-2.743.633-1.1.324-2.182.718-3.248,1.148-2.2.891-4.343,1.943-6.466,3.018-.966.489-1.928.987-2.9,1.472a56.247,56.247,0,0,0-14.067,9.748,24.036,24.036,0,0,0-5.695,7.863,3.6,3.6,0,0,0-.367,1.929c.2,1.1,1.3,1.52,2.273,1.68,4.413.725,9.122-.474,13.455-2.628a67.552,67.552,0,0,0,12.251-8.417q4.459-3.638,8.788-7.5a2.992,2.992,0,0,0,.8-.926,2.009,2.009,0,0,1-1.332-1.148" transform="translate(-1008.905 -365.415)" fill="#ededed"/>
            <path id="Trazado_997644" data-name="Trazado 997644" d="M1341.588,490.864a5.154,5.154,0,0,1-.372-1.844c-.075-.986-.176-1.969-.258-2.954a4.769,4.769,0,0,1-1.708,2.373c-6.328,5.633-13.755,9.756-20.839,14.333a67.044,67.044,0,0,1-10.026,5.825c-.464.2-1.042.365-1.428.035a1.429,1.429,0,0,1-.254-1.36,8.9,8.9,0,0,1,1.665-3.75,19.106,19.106,0,0,0-2.643,4.356,3.6,3.6,0,0,0-.367,1.929c.2,1.105,1.3,1.52,2.273,1.68,4.413.725,9.122-.474,13.455-2.628a67.55,67.55,0,0,0,12.251-8.417q4.459-3.638,8.788-7.5a2.993,2.993,0,0,0,.8-.926,2.01,2.01,0,0,1-1.332-1.148" transform="translate(-1008.905 -372.18)" fill="#c4c4c4"/>
            <path id="Trazado_997645" data-name="Trazado 997645" d="M1537.138,492.341c-2.9-2.454-5.8-4.913-8.926-7.063-1.466-1.01-2.979-1.744-4.5-2.612q-2.53-1.44-5.128-2.747-2.494-1.254-5.044-2.382c-.009.091-.019.182-.028.272q-.123,1.172-.293,2.338a11.564,11.564,0,0,1-.778,3.062,4.888,4.888,0,0,1-.829,1.3c-.268.295-.846.9-1.267.867.695.683,1.342,1.412,2.017,2.109q1.054,1.087,2.141,2.139a96.444,96.444,0,0,0,7.83,6.858,71.815,71.815,0,0,0,8.529,5.761,56.061,56.061,0,0,0,9.214,4.243,11.817,11.817,0,0,0,6.572.826,1.876,1.876,0,0,0,1.008-.508c.578-.646.31-1.689-.045-2.472-2.261-4.986-6.428-8.571-10.47-11.995" transform="translate(-1167.364 -365.65)" fill="#ededed"/>
            <path id="Trazado_997646" data-name="Trazado 997646" d="M1542.684,509.548a38.126,38.126,0,0,1,3.758,7.083c-6.2-2.881-11.9-6.754-17.582-10.61a124.266,124.266,0,0,1-13.2-9.85,9.481,9.481,0,0,1-2.68-3.332,10.287,10.287,0,0,1-.537,2.086,4.88,4.88,0,0,1-.829,1.3c-.268.295-.846.9-1.267.867.695.683,1.342,1.412,2.017,2.109q1.054,1.087,2.141,2.139a96.461,96.461,0,0,0,7.83,6.858,71.817,71.817,0,0,0,8.529,5.761,56.066,56.066,0,0,0,9.214,4.243,11.818,11.818,0,0,0,6.572.826,1.879,1.879,0,0,0,1.008-.508c.578-.646.31-1.689-.045-2.472a17.9,17.9,0,0,0-4.924-6.5" transform="translate(-1167.364 -377.366)" fill="#c4c4c4"/>
            <path id="Trazado_997647" data-name="Trazado 997647" d="M913.627,999.653c-33.59-1.512-26.378,39.3-3.32,72.043,21.4,30.387,31.33,126.922,30.664,150.678a5.709,5.709,0,0,0,3.772,5.579l14.333,4.985.826-3.986s38.834-121.912,26.528-158.174-39.214-69.614-72.8-71.126" transform="translate(-688.433 -765.401)" fill="#6ba027"/>
            <path id="Trazado_997648" data-name="Trazado 997648" d="M1024.018,1139.133a56.965,56.965,0,0,1-2.6-13.011,61.391,61.391,0,0,1,.458-11.443c1.027-10.2,2.192-21.759-9.079-34.192a148.636,148.636,0,0,1-16-21.746c-4.1-6.477-7.344-11.593-11.956-14.834a58.39,58.39,0,0,1-13.036-12.554,1.837,1.837,0,0,0-2.133-.593,1.1,1.1,0,0,0-.52,1.712,60.662,60.662,0,0,0,13.809,13.319c4.086,2.871,7.187,7.766,11.112,13.964a151.048,151.048,0,0,0,16.3,22.14c10.5,11.58,9.435,22.131,8.408,32.335a62.87,62.87,0,0,0-.46,11.838,58.874,58.874,0,0,0,2.681,13.454,68.812,68.812,0,0,1,3.12,17.162c1.191,16.358-7.492,38.837-7.58,39.062a1.355,1.355,0,0,0,1.021,1.676,1.976,1.976,0,0,0,.222.06,1.478,1.478,0,0,0,1.722-.747c.366-.937,8.941-23.132,7.715-39.963a70.735,70.735,0,0,0-3.209-17.638" transform="translate(-748.898 -789.152)" fill="#92b62b"/>
            <path id="Trazado_997649" data-name="Trazado 997649" d="M686.515,1515.068c-23.058-13.731-52.715-18.86-71.6-3.518s3.467,33.99,30.762,40.641c25.332,6.172,74.344,53.711,84.719,66.906a3.883,3.883,0,0,0,4.566,1.209l10.021-4.195-1.354-2.557s-34.054-84.755-57.112-98.485" transform="translate(-469.859 -1150.208)" fill="#1f8519"/>
            <path id="Trazado_997650" data-name="Trazado 997650" d="M764.659,1638.939a53.773,53.773,0,0,0-10.194-9.69,43.259,43.259,0,0,1-7.666-7.036,47.5,47.5,0,0,1-4.991-7.536c-4.053-7.021-8.647-14.978-21.587-17.379a112.374,112.374,0,0,1-20.263-6.027c-5.612-2.121-10.045-3.8-14.488-3.6a44.493,44.493,0,0,1-14.124-1.612,1.473,1.473,0,0,0-1.636.67.877.877,0,0,0,.458,1.35,46.251,46.251,0,0,0,14.971,1.721c3.936-.174,8.177,1.429,13.546,3.458a114.2,114.2,0,0,0,20.637,6.131c12.053,2.237,16.246,9.5,20.3,16.523a48.668,48.668,0,0,0,5.172,7.789,44.726,44.726,0,0,0,7.925,7.277,52.316,52.316,0,0,1,9.918,9.43c8.314,9.865,13.146,28.492,13.193,28.679a1.033,1.033,0,0,0,1.426.57,1.58,1.58,0,0,0,.169-.071,1.235,1.235,0,0,0,.755-1.324c-.2-.778-4.969-19.172-13.524-29.322" transform="translate(-517.508 -1214.398)" fill="#6ba027"/>
            <path id="Trazado_997651" data-name="Trazado 997651" d="M1244.514,1006.592c-52.41,46.059-61.948,202.7-61.948,202.7l4.217,1.228a42.027,42.027,0,0,0,24.972-.45s38.234-100.6,52.564-113.993,36.99-2.291,52.265-34.695,77.208-49.472,65.364-77.169-85.024-23.685-137.434,22.375" transform="translate(-914.021 -740.317)" fill="#92b62b"/>
            <path id="Trazado_997652" data-name="Trazado 997652" d="M1412.648,1048.2c-.468.085-47.1,8.743-76.078,31.795a126.919,126.919,0,0,1-24.695,15.4c-11.618,5.808-18.631,9.313-25.373,30.439-5.265,16.5-13.151,34.414-20.109,50.22-6.444,14.64-12.009,27.282-13.594,34.656-3.219,14.97-2.349,45.991-2.31,47.3a1.6,1.6,0,0,0,1.254,1.533,1.517,1.517,0,0,0,.357.031,1.593,1.593,0,0,0,1.516-1.662c-.009-.318-.9-31.93,2.237-46.507,1.515-7.044,7.017-19.545,13.389-34.02,6.99-15.88,14.913-33.88,20.232-50.545,6.328-19.827,12.521-22.923,23.766-28.544a129.664,129.664,0,0,0,25.24-15.748c28.378-22.572,74.249-31.089,74.709-31.173a1.609,1.609,0,0,0,1.27-1.869,1.568,1.568,0,0,0-1.811-1.31" transform="translate(-966.415 -802.588)" fill="#6ba027"/>
            <path id="Trazado_997653" data-name="Trazado 997653" d="M1340.146,1637.362c-21.831,12.158-55.409,76.549-55.409,76.549l5.928,1.229a7.505,7.505,0,0,0,8.3-4.255c2.72-5.789,7.251-14.525,11.174-17.748,6.078-4.995,14.668-6.506,19.886-10.362s14.545-5.873,20.887-10.589,2.69-12.176,10.175-12.928,18.774-1.375,18.774-1.375,23.81-7.573,22.486-22.073-40.37-10.6-62.2,1.553" transform="translate(-992.99 -1245.396)" fill="#196d14"/>
            <path id="Trazado_997654" data-name="Trazado 997654" d="M822.622,434.245l6.025,12.882c12.806-2.2,20.815-19.049,20.815-19.049l-1.894-8.338s-15.9,13.3-24.947,14.5" transform="translate(-635.815 -321.395)" fill="#fff"/>
            <path id="Trazado_997655" data-name="Trazado 997655" d="M758.673,431.044l-3.594,7.745s.964,10.228,7.523,15.814l7.815-11.7s-7.663-4.326-11.744-11.856" transform="translate(-583.61 -330.05)" fill="#fff"/>
            <path id="Trazado_997656" data-name="Trazado 997656" d="M673.446,69.1c-20.379-2.952-16.965-18.977-22.979-27.927-9.138-13.6-26.931-17.777-42.023-15.2a40.648,40.648,0,0,0-22.295,11.739,41.477,41.477,0,0,0-9.468,15.4c-2.645,7.646-1.728,16.668-5.554,23.822-3.642,6.808-14.023,11-10.393,20.394,2.455,6.351,5.959,9.088,2.542,16.363-1.311,2.793-3.006,5.59-2.951,8.692.061,3.451,2.354,6.515,5.15,8.409,5.036,3.41,11.426,3.656,17.449,3.638a312.447,312.447,0,0,0,33.756-1.706c10.45-1.17,19.961-.836,30.6-.045a89.441,89.441,0,0,0,13.421-.208c5.486-.418,11.078,11.772,19.034-2.069,2.146-3.733-3.549-11.734-4.726-15.892-1.669-5.9,3.717-14.985,5.893-20.692s3.817-12.631.524-17.692c-1.976-3.038-4.5-6.522-7.98-7.026" transform="translate(-432.812 -19.335)" fill="#611223"/>
            <path id="Trazado_997657" data-name="Trazado 997657" d="M475.034,1331.817l-39.98-2.219s-29.564,34.242-49.7,152.312q-1.332,7.83-2.612,16.159h108.4q1.5-7.487,3.207-16.159c2.976-15.081,6.481-32.957,10.733-54.091,16.026-42.326,24.088-58.282,16.6-93.413Z" transform="translate(-295.829 -1018.071)" fill="#384c27"/>
            <path id="Trazado_997658" data-name="Trazado 997658" d="M699.461,1322.4s0,1.425-.021,3.906c-.1,12.136-.69,49.512-4.174,68.71-3.067,13.668-13.685,46.736-19.74,81.383-.938,5.37-1.767,10.779-2.443,16.159h97.836l3.916-16.159,14.252-58.8s25.164-46.39,1.683-93.514Z" transform="translate(-520.235 -1012.556)" fill="#384c27"/>
            <path id="Trazado_997659" data-name="Trazado 997659" d="M693.9,1479.19c-.939,4.181-2.56,10.083-4.611,17.553-4.934,17.973-12.391,45.133-16.462,71.972l2.359.381c1.612-10.629,4.048-26.692,16.4-71.681,2.064-7.516,3.694-13.453,4.646-17.694l.01-.051a303.842,303.842,0,0,0,4.215-47.006h-2.387a301.1,301.1,0,0,1-4.17,46.527" transform="translate(-520.034 -1096.987)" fill="#081828"/>
            <path id="Trazado_997660" data-name="Trazado 997660" d="M620.875,1099.1l-7.789,34.607c49.6,18.283,131.312,0,131.312,0l-25.816-59.945Z" transform="translate(-473.862 -822.174)" fill="#f69e8c"/>
            <path id="Trazado_997661" data-name="Trazado 997661" d="M1061.962,1363.468c2.493,8.454,3.152,24.115,1.808,42.97-1.193,16.725-3.724,31.865-6.3,37.673a42.288,42.288,0,0,0-2.9,9.255l-11.683,61.773,2.343.472,11.683-61.773a39.758,39.758,0,0,1,2.732-8.7c2.681-6.049,5.3-21.528,6.508-38.517,1.365-19.145.671-35.134-1.9-43.868Z" transform="translate(-806.059 -1043.455)" fill="#081828"/>
            <path id="Trazado_997662" data-name="Trazado 997662" d="M1016.245,1401.576a63.52,63.52,0,0,1-5.932-16.188l-1.172.231-1.172.231a64.813,64.813,0,0,0,6.151,16.849c6.139,11.549,14.919,18.847,25.392,21.107l.489-2.411a31.136,31.136,0,0,1-14.647-7.718,45.235,45.235,0,0,1-9.109-12.1" transform="translate(-779.072 -1060.788)" fill="#081828"/>
            <path id="Trazado_997663" data-name="Trazado 997663" d="M1013.131,1385.618l1.172-.231h0Z" transform="translate(-783.063 -1060.787)" fill="#081828"/>
            <path id="Trazado_997664" data-name="Trazado 997664" d="M732.215,1473.309c0-4.393,2.324-41.651,2.348-42.027l-2.382-.158c-.1,1.538-2.353,37.713-2.353,42.185,0,6.282,7.777,9.258,8.108,9.382l.814-2.315c-.065-.025-6.535-2.514-6.535-7.066" transform="translate(-564.094 -1095.808)" fill="#081828"/>
            <path id="Trazado_997665" data-name="Trazado 997665" d="M542.577,1389.976a55.507,55.507,0,0,1-12.489,5.211l.277,1.2-.277-1.2.277,1.2.277,1.2a56.756,56.756,0,0,0,13.028-5.416c9.12-5.16,15.392-12.125,18.138-20.144l-2.251-.821c-3.212,9.377-11.007,15.385-16.981,18.774" transform="translate(-409.712 -1049.926)" fill="#081828"/>
            <path id="Trazado_997666" data-name="Trazado 997666" d="M266.649,667.107l-26.944-49.421-24.028,11.857s39.446,124.422,69.114,99.311c13.776-11.686,25.3-22.22,29.452-28.083,13.109-18.459,46.814-114.9,46.814-114.9l-68.443,2.7Z" transform="translate(-166.7 -448.601)" fill="#faba97"/>
            <path id="Trazado_997667" data-name="Trazado 997667" d="M452.784,657.62l15.27,27.462v43.772c13.776-11.686,25.3-22.22,29.452-28.083,13.109-18.459,46.814-114.9,46.814-114.9l-61.1.344Z" transform="translate(-349.963 -448.601)" fill="#f5927e"/>
            <path id="Trazado_997668" data-name="Trazado 997668" d="M460.191,459.855c-16.985,23.068-26.266,75.523-26.266,75.523l35.422,27.456,30.214-52.255,12.582-80.02s-32.833,3.331-51.952,29.3" transform="translate(-335.386 -329.678)" fill="#ffac04"/>
            <path id="Trazado_997669" data-name="Trazado 997669" d="M659.964,433.227l-40.036-2.219-24.116,18.205-7.456,24c-24.887,39.55-5.867,172.4-5.867,172.4s36.482,27.083,134.859.147c0,0-11.074-139.015-20.8-148.72-4.949-4.941-36.588-63.813-36.588-63.813" transform="translate(-444.841 -330.023)" fill="#ffac04"/>
            <path id="Trazado_997670" data-name="Trazado 997670" d="M1107.188,741.664c-8.25-18.942-30.823-67-30.823-67l-47.656,27.093s21.066,33.844,34.742,54.2c3.548,5.3,6.6,9.664,8.662,12.312,1.971,2.538-20.208,26.607-20.208,26.607l22.545,26.545s51.186-33.781,40.97-59.245c-.509-1.255-7.369-18.511-8.231-20.513" transform="translate(-795.103 -516.587)" fill="#faba97"/>
            <path id="Trazado_997671" data-name="Trazado 997671" d="M1028.71,701.756s21.065,33.845,34.743,54.205l43.737-14.294c-8.25-18.944-30.823-67-30.823-67Z" transform="translate(-795.103 -516.589)" fill="#f5927e"/>
            <path id="Trazado_997672" data-name="Trazado 997672" d="M912.01,452.705c-26.743-20.163-75.772-22.146-75.772-22.146l27.635,74.324,27.635,61.8,69.164-30.9s-21.917-62.916-48.66-83.079" transform="translate(-646.339 -329.679)" fill="#ffac04"/>
            <path id="Trazado_997673" data-name="Trazado 997673" d="M999.1,787.125c-12.234-.631-41.169-39.351-41.169-39.351l27.635,61.8,69.164-30.9s-43.395,9.081-55.629,8.45" transform="translate(-740.396 -572.569)" fill="#996702"/>
            <path id="Trazado_997674" data-name="Trazado 997674" d="M447.875,699.414c-5.335,10.852-13.951,22.755-13.951,22.755L466.2,747.186c-28.241-39.914,6.833-72.632,6.833-72.632-12.572-.985-19.823,14.008-25.158,24.86" transform="translate(-335.385 -516.47)" fill="#996702"/>
            <path id="Trazado_997675" data-name="Trazado 997675" d="M766.655,301.872v22.139s-6.993,6.567,11.72,7.134c14.442.425,26.628-6.3,26.628-6.3l-8.151-39.749Z" transform="translate(-591.569 -218.294)" fill="#faba97"/>
            <path id="Trazado_997676" data-name="Trazado 997676" d="M686.935,75.69c-2.351,8.593-4.84,21.9-4.076,34.108a50.662,50.662,0,0,0,2.332,12.717c2.019,5.883,5.408,10.776,10.778,13.647,4.291,2.3,10.66,1.678,17.087-1.294,13.932-6.45,22.633-18.217,24.788-28.507,2.723-12.94-31.471-59-50.909-30.671" transform="translate(-527.682 -51.028)" fill="#faba97"/>
            <path id="Trazado_997677" data-name="Trazado 997677" d="M761.649,70.726c-1.934-.793-4.026-1.377-5.573-2.812-2.74-2.541-.665-3.463.266-7.14s-13.56,0-11.057-20.143a19.552,19.552,0,0,0-2.115-11.482,26.282,26.282,0,0,0-8.63-9.548c-7.25-4.851-15.761-6.819-24.156-6.932-9.091-.122-16.08,5.931-23.834,6.678-14.144,1.364-21.59,17.778-14.389,29.5,4-5.239,14.4-11.131,20.031-14.407,1.328,4.227,8.7,13.2,20.911,17.285,1.056.353,9.552,24.772,9.552,24.772l6.89,33.577c1.258,6.173,1.079,8.924,2.6,9.926,3.946.837,10.8,2.724,16.053-3.4,11.548-13.468,20.857-42.837,13.454-45.874" transform="translate(-517.368 -9.699)" fill="#611223"/>
            <path id="Trazado_997678" data-name="Trazado 997678" d="M787.568,329.311a29.1,29.1,0,0,1-16.068,4.65h-.49v14.456c17.44-1.5,22.809-23.878,23.123-25.273a22.723,22.723,0,0,1-6.564,6.167" transform="translate(-595.924 -247.431)" fill="#f5927e"/>
            <path id="Trazado_997679" data-name="Trazado 997679" d="M877.943,226.344c-1.715-1.279-8.042-2.27-9.316,4.109l-1.73,8.295c.1,3.3,2.561,6.167,6.237,5.01a7.763,7.763,0,0,0,3.348-2.359,14.182,14.182,0,0,0,3.4-10.928,5.89,5.89,0,0,0-1.944-4.126" transform="translate(-670.036 -172.588)" fill="#faba97"/>
            <path id="Trazado_997680" data-name="Trazado 997680" d="M732.26,197.765a.748.748,0,0,0-.634.84c.01.085.973,8.266-.376,13.35a28.39,28.39,0,0,0-2.9.3c-2.655.431-3.988,1.168-4.194,2.318-.381,2.127,4.068,6.152,5.441,7.335a.714.714,0,0,0,1.027-.1.769.769,0,0,0-.092-1.06c-2.769-2.387-5.078-5.146-4.942-5.906.03-.165.64-.723,2.974-1.1a27.635,27.635,0,0,1,3.258-.31.733.733,0,0,0,.677-.523c1.655-5.344.622-14.124.577-14.495a.734.734,0,0,0-.814-.654m-.458,14.919h0Z" transform="translate(-559.69 -151.425)" fill="#de7360"/>
            <path id="Trazado_997681" data-name="Trazado 997681" d="M800.306,224.13a2.242,2.242,0,0,0-2.372,2.093,2.294,2.294,0,0,0,1.629,2.746,2.241,2.241,0,0,0,2.372-2.092,2.294,2.294,0,0,0-1.629-2.747" transform="translate(-616.707 -171.6)" fill="#0f1231"/>
            <path id="Trazado_997682" data-name="Trazado 997682" d="M710.74,223.218a2.241,2.241,0,0,0-2.372,2.093A2.294,2.294,0,0,0,710,228.057a2.242,2.242,0,0,0,2.372-2.093,2.3,2.3,0,0,0-1.629-2.747" transform="translate(-547.48 -170.901)" fill="#0f1231"/>
            <path id="Trazado_997683" data-name="Trazado 997683" d="M753.661,308.239a7.936,7.936,0,0,1-10.013,1.136.717.717,0,0,0-.991.293.765.765,0,0,0,.284,1.023,10.124,10.124,0,0,0,5.072,1.449,9.761,9.761,0,0,0,6.719-2.88.768.768,0,0,0-.041-1.061.714.714,0,0,0-1.03.039" transform="translate(-573.938 -235.835)" fill="#de7360"/>
            <path id="Trazado_997684" data-name="Trazado 997684" d="M805.59,246.737c-4.643-.076-8.454,3.019-8.514,6.912s3.655,7.111,8.3,7.187,8.454-3.019,8.514-6.912-3.656-7.111-8.3-7.187" transform="translate(-616.069 -188.925)" fill="#f08372"/>
            <path id="Trazado_997685" data-name="Trazado 997685" d="M683.338,250.833a50.65,50.65,0,0,0,2.332,12.717,6.754,6.754,0,0,0,3.861-5.8c.059-3.275-2.587-6.086-6.192-6.915" transform="translate(-528.161 -192.063)" fill="#f08372"/>
            <path id="Trazado_997686" data-name="Trazado 997686" d="M787.569,181.989a.766.766,0,0,0-.253,1.03.718.718,0,0,0,1,.263c.268-.164,6.6-3.93,10.466,2.449a.724.724,0,0,0,.619.354.709.709,0,0,0,.386-.115.766.766,0,0,0,.231-1.037c-4.628-7.637-12.371-2.992-12.448-2.944" transform="translate(-608.448 -138.244)" fill="#59261b"/>
            <path id="Trazado_997687" data-name="Trazado 997687" d="M701.417,183.383c-.077-.048-7.82-4.693-12.448,2.944a.766.766,0,0,0,.231,1.037.71.71,0,0,0,.386.115.724.724,0,0,0,.619-.354c3.866-6.378,10.2-2.613,10.465-2.449a.717.717,0,0,0,1-.261.766.766,0,0,0-.253-1.032" transform="translate(-532.427 -139.312)" fill="#59261b"/>
            <path id="Trazado_997688" data-name="Trazado 997688" d="M883.654,214.5c-3.7-.122-6.838,4.178-7.005,9.6s2.7,9.923,6.4,10.044,6.838-4.178,7.005-9.6-2.7-9.922-6.4-10.044" transform="translate(-677.568 -164.241)" fill="#f5927e"/>
            <path id="Trazado_997689" data-name="Trazado 997689" d="M878.393,229.184a12.719,12.719,0,0,0-1.744,6.165c-.168,5.426,2.7,9.922,6.4,10.044.121,0,.234-.035.354-.041a15.048,15.048,0,0,0,1.051-5.153c.17-5.506-2.47-10.139-6.059-11.016" transform="translate(-677.568 -175.486)" fill="#faba97"/>
            <path id="Trazado_997690" data-name="Trazado 997690" d="M650.841,1087.387c-38.433,0-69.609,32.161-69.609,71.837a73.03,73.03,0,0,0,13.9,43.08c11.715,16.258,11.176,18.378,10.764,31.036-.006.5-.031,1.007-.031,1.518a45.11,45.11,0,0,0,10.827,29.466h64.585a45.039,45.039,0,0,0,10.815-28.745c.209-12.7-.216-14.831,12.408-30.606a73.016,73.016,0,0,0,15.952-45.75c0-39.675-31.169-71.837-69.614-71.837" transform="translate(-449.242 -832.61)" fill="#faba3c"/>
            <path id="Trazado_997691" data-name="Trazado 997691" d="M643.593,1093.173c-34.379,9.594-55.476,43.223-47.136,75.122,4.808,18.313,13.346,28.55,27.668,39.467,5.569,4.227.609,11.415.609,18.784.025,17.921,15.718,32.451,35.057,32.424s35.007-14.57,34.989-32.516c-.013-8.534-4-14.033,2.708-18.692,19.8-13.746,30.872-46.025,23.5-74.182-8.348-31.914-43-50-77.4-40.408" transform="translate(-459.602 -835.071)" fill="#ffe03c"/>
            <g id="Grupo_1179121" data-name="Grupo 1179121" transform="translate(160.035 261.805)" opacity="0.8">
              <g id="Grupo_1179120" data-name="Grupo 1179120">
                <g id="Grupo_1179119" data-name="Grupo 1179119" clip-path="url(#clip-path-5)">
                  <path id="Trazado_997692" data-name="Trazado 997692" d="M787.675,1136.233c-5.768-5.732-13.228-7.387-17.033-3.932-3.039-12.291-20.088-18.032-38.154-13.229-18.059,4.827-30.282,18.365-27.318,30.258s20.035,17.648,38.1,12.833c12.629-3.368,22.379-11.01,26.108-19.346a21.709,21.709,0,0,0,5.03,7.631c5.961,5.919,13.758,7.542,17.423,3.621s1.8-11.914-4.158-17.834" transform="translate(-704.728 -1117.38)" fill="#ffffb4"/>
                </g>
              </g>
            </g>
            <path id="Trazado_997693" data-name="Trazado 997693" d="M785.525,1298.718a19.4,19.4,0,0,0-10.4-4.085,19.142,19.142,0,0,0-19.354,11.3c-3.745,8.309-2.026,19.18,4.277,27.052,4.6,5.743,12.113,10.319,20.883,12.778v73.85a3.293,3.293,0,1,0,6.582,0v-79.242l-2.585-.586c-8.461-1.918-15.68-5.972-19.806-11.125-4.721-5.9-6.081-13.878-3.383-19.863a12.848,12.848,0,0,1,24.033,1.949c.744,2.811.442,6.566-.646,8.036a1.014,1.014,0,0,1-.939.493,3.4,3.4,0,0,0,0,6.791,7.535,7.535,0,0,0,6.17-3.162,14,14,0,0,0,2.335-7.091,21.374,21.374,0,0,0-.571-6.854,19.148,19.148,0,0,0-6.6-10.236" transform="translate(-582.632 -991.238)" fill="#f8a039"/>
            <path id="Trazado_997694" data-name="Trazado 997694" d="M867.226,1294.631a19.4,19.4,0,0,0-10.4,4.086,19.145,19.145,0,0,0-6.6,10.236c-.393,1.488-2.178,9.15,1.351,13.919a7.785,7.785,0,0,0,6.515,3.189,3.4,3.4,0,0,0,0-6.791c-.83,0-1.1-.268-1.283-.519-.956-1.291-1.06-4.884-.233-8.009a12.848,12.848,0,0,1,24.034-1.949c2.7,5.984,1.338,13.967-3.383,19.863-4.126,5.152-11.345,9.207-19.806,11.125a3.4,3.4,0,0,0-2.508,4.045,3.317,3.317,0,0,0,3.211,2.668,3.2,3.2,0,0,0,.709-.08c9.87-2.237,18.424-7.133,23.467-13.432,6.3-7.872,8.022-18.744,4.277-27.052a19.136,19.136,0,0,0-19.354-11.3" transform="translate(-656.535 -991.237)" fill="#f8a039"/>
            <path id="Trazado_997695" data-name="Trazado 997695" d="M912.28,1528.431c-9.3,5.356-11.21,20.12-11.21,20.12s13.178,6.08,22.482.723,11.21-20.12,11.21-20.12-13.178-6.079-22.482-.723" transform="translate(-696.449 -1168.626)" fill="#abc83e"/>
            <path id="Trazado_997696" data-name="Trazado 997696" d="M923.551,1558.848c9.3-5.356,11.211-20.12,11.211-20.12l-33.692,19.4s13.178,6.079,22.482.723" transform="translate(-696.448 -1178.2)" fill="#3a9228"/>
            <path id="Trazado_997697" data-name="Trazado 997697" d="M748.593,1528.431c-9.3-5.356-22.482.723-22.482.723s1.906,14.764,11.21,20.12,22.482-.723,22.482-.723-1.907-14.763-11.21-20.12" transform="translate(-561.221 -1168.626)" fill="#abc83e"/>
            <path id="Trazado_997698" data-name="Trazado 997698" d="M737.32,1558.848c9.3,5.356,22.482-.723,22.482-.723l-33.692-19.4s1.907,14.764,11.21,20.12" transform="translate(-561.22 -1178.2)" fill="#3a9228"/>
            <path id="Trazado_997699" data-name="Trazado 997699" d="M791.665,1938.744l-58.178-.391a7.162,7.162,0,1,0-.09,14.3l58.178.391a7.162,7.162,0,1,0,.09-14.3" transform="translate(-561.012 -1484.192)" fill="#e6e7e8"/>
            <g id="Grupo_1179124" data-name="Grupo 1179124" transform="translate(164.829 454.161)" opacity="0.5" style="mix-blend-mode: multiply;isolation: isolate">
              <g id="Grupo_1179123" data-name="Grupo 1179123">
                <g id="Grupo_1179122" data-name="Grupo 1179122" clip-path="url(#clip-path-6)">
                  <path id="Trazado_997700" data-name="Trazado 997700" d="M755.466,1938.5l-21.979-.148a7.162,7.162,0,1,0-.09,14.3l21.979.148a8.1,8.1,0,0,1,.09-14.3" transform="translate(-725.841 -1938.353)" fill="#a3a6a8"/>
                </g>
              </g>
            </g>
            <g id="Grupo_1179127" data-name="Grupo 1179127" transform="translate(165.628 454.161)" opacity="0.5" style="mix-blend-mode: multiply;isolation: isolate">
              <g id="Grupo_1179126" data-name="Grupo 1179126">
                <g id="Grupo_1179125" data-name="Grupo 1179125" clip-path="url(#clip-path-7)">
                  <path id="Trazado_997701" data-name="Trazado 997701" d="M794.387,1938.744l-58.188-.391a7.66,7.66,0,0,0-6.84,3.967l71.818.482a7.05,7.05,0,0,0-1.435-1.925,7.89,7.89,0,0,0-5.355-2.134" transform="translate(-729.359 -1938.353)" fill="#a3a6a8"/>
                </g>
              </g>
            </g>
            <path id="Trazado_997702" data-name="Trazado 997702" d="M797.366,1885.426a7.89,7.89,0,0,0-5.355-2.134l-58.188-.391a7.661,7.661,0,0,0-6.84,3.967,6.723,6.723,0,0,0-.8,3.128,6.97,6.97,0,0,0,2.2,5.063,7.831,7.831,0,0,0,5.354,2.134l58.188.391a7.406,7.406,0,0,0,7.645-7.095,6.74,6.74,0,0,0-.764-3.139,7.053,7.053,0,0,0-1.436-1.924" transform="translate(-561.274 -1441.732)" fill="#e6e7e8"/>
            <g id="Grupo_1179130" data-name="Grupo 1179130" transform="translate(164.911 441.164)" opacity="0.5" style="mix-blend-mode: multiply;isolation: isolate">
              <g id="Grupo_1179129" data-name="Grupo 1179129">
                <g id="Grupo_1179128" data-name="Grupo 1179128" clip-path="url(#clip-path-6)">
                  <path id="Trazado_997703" data-name="Trazado 997703" d="M755.827,1883.029l-21.979-.147a7.162,7.162,0,1,0-.09,14.3l21.979.148a8.1,8.1,0,0,1,.09-14.3" transform="translate(-726.203 -1882.881)" fill="#a3a6a8"/>
                </g>
              </g>
            </g>
            <g id="Grupo_1179133" data-name="Grupo 1179133" transform="translate(165.71 441.168)" opacity="0.5" style="mix-blend-mode: multiply;isolation: isolate">
              <g id="Grupo_1179132" data-name="Grupo 1179132">
                <g id="Grupo_1179131" data-name="Grupo 1179131" clip-path="url(#clip-path-9)">
                  <path id="Trazado_997704" data-name="Trazado 997704" d="M794.749,1883.292l-58.188-.391a7.66,7.66,0,0,0-6.84,3.967l71.818.482a7.048,7.048,0,0,0-1.435-1.924,7.889,7.889,0,0,0-5.355-2.134" transform="translate(-729.721 -1882.901)" fill="#a3a6a8"/>
                </g>
              </g>
            </g>
            <path id="Trazado_997705" data-name="Trazado 997705" d="M792.388,1827.8l-58.178-.391a7.162,7.162,0,1,0-.09,14.3l58.178.391a7.162,7.162,0,1,0,.09-14.3" transform="translate(-561.57 -1399.245)" fill="#e6e7e8"/>
            <g id="Grupo_1179136" data-name="Grupo 1179136" transform="translate(164.993 428.167)" opacity="0.5" style="mix-blend-mode: multiply;isolation: isolate">
              <g id="Grupo_1179135" data-name="Grupo 1179135">
                <g id="Grupo_1179134" data-name="Grupo 1179134" clip-path="url(#clip-path-6)">
                  <path id="Trazado_997706" data-name="Trazado 997706" d="M756.188,1827.56l-21.979-.148a7.162,7.162,0,1,0-.09,14.3l21.979.147a8.311,8.311,0,0,1-4.24-7.177h0a8.3,8.3,0,0,1,4.331-7.119" transform="translate(-726.563 -1827.412)" fill="#a3a6a8"/>
                </g>
              </g>
            </g>
            <path id="Trazado_997707" data-name="Trazado 997707" d="M182.807,648.586c-1.5.362-3.048,1.413-3.2,2.992l8.991,8.228,9.98-1.708.259-2.869c-2.263-1.387-6.017-4.182-8.386-5.365a11.394,11.394,0,0,0-7.643-1.277" transform="translate(-138.82 -496.447)" fill="#f5927e"/>
            <path id="Trazado_997708" data-name="Trazado 997708" d="M68.806,622.38c-4.09-2.41-7.812-6.933-13.024-5.3l-10.995-.7s-16.985-5.542-19.7-7.351S7.943,597.95,5.432,597.708s-4.742.257-5.432,2.8l3.058,2.961.3,1.391,5.362,3.57.855,2.052L23.2,619.77s14.349,9.336,16.817,10.048,10.686,14.117,13,20.633l24.874-15.306s-4.5-10.063-9.082-12.765" transform="translate(0 -457.623)" fill="#faba97"/>
            <path id="Trazado_997709" data-name="Trazado 997709" d="M63.622,642.554a23.411,23.411,0,0,1-2.641-1.58c-1.085-.725-2.341-1.648-3.741-2.672-.7-.511-1.437-1.049-2.224-1.58s-1.657-1-2.521-1.494a33.845,33.845,0,0,0-5.091-2.44,15.685,15.685,0,0,0-2.379-.669,4.778,4.778,0,0,0-2.182.012,3.132,3.132,0,0,0-1.533.988,5.05,5.05,0,0,0-.748,1.157,5.706,5.706,0,0,0-.322.8c-.061.188-.086.29-.071.3a10.651,10.651,0,0,0,.553-1.01,3.674,3.674,0,0,1,2.2-1.9,8.245,8.245,0,0,1,4.334.746,36.493,36.493,0,0,1,5.012,2.445c.867.5,1.726.948,2.5,1.467s1.518,1.048,2.226,1.548c1.413,1,2.7,1.9,3.812,2.6a17.945,17.945,0,0,0,2.747,1.463,4.681,4.681,0,0,0,.809.25c.19.04.29.053.293.036.01-.047-.381-.14-1.031-.46" transform="translate(-31.044 -483.921)" fill="#ff9b6c"/>
            <path id="Trazado_997710" data-name="Trazado 997710" d="M27.043,616.492a34.474,34.474,0,0,0-5.481-3.05,8.568,8.568,0,0,0-3.431-.6,4.5,4.5,0,0,0-1.525.294,3.027,3.027,0,0,0-1.122.81,3.765,3.765,0,0,0-.768,1.825,1.988,1.988,0,0,0-.014.722,2.293,2.293,0,0,0,.193-.683,3.99,3.99,0,0,1,.833-1.632,3.186,3.186,0,0,1,2.413-.889,8.614,8.614,0,0,1,3.251.6,47.574,47.574,0,0,1,5.484,2.894,9.933,9.933,0,0,0,2.349,1.1,22.852,22.852,0,0,0-2.181-1.4" transform="translate(-11.346 -469.252)" fill="#ff9b6c"/>
            <path id="Trazado_997711" data-name="Trazado 997711" d="M1105.763,1187.745a56.181,56.181,0,0,1-7.372,9.085l18.751,30.008s6.882-6.427,16.283-16.507c-6.933-16.135-21.269-20.9-27.662-22.586" transform="translate(-848.961 -909.454)" fill="#f5927e"/>
            <path id="Trazado_997712" data-name="Trazado 997712" d="M1074,1204.748c-3.648-3.038-6.4-4.091-8.492-3.885a5.172,5.172,0,0,0-3.667,2.214q-.09.119-.18.244c-.556.659-2.556,2.432-8.12,2.633-6.852.248-4.5,5.312-4.5,5.312,3.034,5.128,8.892,4.792,8.892,4.792a115.559,115.559,0,0,1-6.771,9.88c-2.576,3.077-.442,7.928,2.559,6.131,2.948-1.764,8.521-5.99,8.72-6.141-.118.165-3.995,5.5-8.274,10.627-.247.295-.465.582-.662.862-3.272,4.686.148,7.389,2.378,5.62,2.318-1.839,10.978-7.922,11.3-8.145-.005,0-.012.013-.023.024-.477.572-7.361,8.741-9.784,11.672a4.446,4.446,0,0,0-.358.5,2.885,2.885,0,0,0,4.4,3.668c2.8-2.276,9.834-7.681,10.106-7.888v0c-.193.243-3.324,4.2-7.231,8.77a0,0,0,0,0,0,0c-4.027,4.715.744,8.445,3.551,6.3.3-.231.657-.506,1.052-.821.059-.047.118-.093.179-.143s.122-.1.185-.15c.144-.113.294-.234.447-.358l.316-.258c.231-.187.469-.384.713-.587l.562-.468a.105.105,0,0,0,.023-.02l.558-.47c.034-.027.066-.054.1-.083.075-.063.148-.126.223-.191.9-.771,1.856-1.605,2.806-2.468.125-.114.251-.228.375-.343.141-.127.279-.256.417-.385.558-.516,1.109-1.039,1.643-1.56q.4-.391.782-.776s0,0,.005,0q.383-.39.75-.771t.716-.764l0,0h0v0c.6-.651,1.14-1.283,1.607-1.883,3.366-4.316,11.555-24.99-7.3-40.69" transform="translate(-810.517 -919.479)" fill="#faba97"/>
            <path id="Trazado_997713" data-name="Trazado 997713" d="M1056.928,1301.657c-1.5-.92-1.143-3.588-1.143-3.588-2.576,3.078-.442,7.928,2.559,6.131,2.947-1.764,8.522-5.99,8.72-6.141l.005,0,1.221-3.012s-9.863,7.533-11.362,6.614" transform="translate(-815.139 -991.612)" fill="#f5927e"/>
            <path id="Trazado_997714" data-name="Trazado 997714" d="M1066.79,1344.386c-.915-.4-1.25-2.366-1.367-3.446-3.272,4.686.148,7.389,2.379,5.619,2.318-1.839,10.978-7.922,11.3-8.145a.04.04,0,0,1,.009-.009l.7-2.367c-.173.13-11.756,8.889-13.019,8.347" transform="translate(-822.435 -1023.002)" fill="#f5927e"/>
            <path id="Trazado_997715" data-name="Trazado 997715" d="M1085.925,1379.526a3.084,3.084,0,0,1-2.06-2.2,2.885,2.885,0,0,0,4.4,3.668c2.8-2.276,9.834-7.681,10.106-7.888a0,0,0,0,0,0,0v0l.005,0,1.438-2.171c-.165.135-11.387,9.416-13.892,8.6" transform="translate(-837.367 -1049.715)" fill="#f5927e"/>
            <path id="Trazado_997716" data-name="Trazado 997716" d="M1114.653,1407.939c-2.3-.954-2.427-4.392-2.427-4.392a.005.005,0,0,0,0,0c-4.027,4.714.745,8.445,3.551,6.3a107.235,107.235,0,0,0,11.856-10.627s-10.678,9.666-12.976,8.713" transform="translate(-858.453 -1071.384)" fill="#f5927e"/>
          </g>
        </g>
      </g>
    </g>
  </g>
</svg>
