<svg xmlns="http://www.w3.org/2000/svg" width="122.457" height="108.336" viewBox="0 0 122.457 108.336">
  <g id="Grupo_1179596" data-name="Grupo 1179596" transform="translate(-1160.424 -4396.442)">
    <g id="Grupo_1102264" data-name="Grupo 1102264" transform="translate(782.424 -2042.558)">
      <path id="Trazado_878350" data-name="Trazado 878350" d="M6.524,55.555C11.7,47.9,17.363,43.089,23.251,36.326c10.573-12.143,18-31,34.391-35.322C85.81-6.431,90.976,29.871,91.078,30.168c1.48,4.311,4.306,11.876,4.306,11.876a81.446,81.446,0,0,0,5.491,9.7c4.982,6.837,11.83,12.066,16.529,19.16,4.654,7.024,7.549,15.5,2.074,24.065-13.148,20.565-40.244-6.753-66.012,7.409C15.662,123.158-13.54,85.205,6.524,55.555" transform="translate(378 6439)" fill="#8cbf62"/>
      <g id="Grupo_1179154" data-name="Grupo 1179154" transform="translate(397.302 6447.631)">
        <path id="Trazado_997775" data-name="Trazado 997775" d="M54,6h5.471V18.544H54Z" transform="translate(18.015 0.368)" fill="#263238"/>
        <path id="Trazado_997776" data-name="Trazado 997776" d="M6,6h5.471V18.544H6Z" transform="translate(0.368 0.368)" fill="#263238"/>
        <path id="Trazado_997777" data-name="Trazado 997777" d="M7.8,14H74V69.21H7.8Z" transform="translate(1.029 3.309)" fill="#c2ced3"/>
        <path id="Trazado_997778" data-name="Trazado 997778" d="M11.471,69.21,6,64.242V14h5.471Z" transform="translate(0.368 3.309)" fill="#37474f"/>
        <path id="Trazado_997779" data-name="Trazado 997779" d="M54,69.21l5.471-4.967V14H54Z" transform="translate(18.015 3.309)" fill="#37474f"/>
        <circle id="Elipse_11839" data-name="Elipse 11839" cx="8.5" cy="8.5" r="8.5" transform="translate(20.927 27.927)" fill="#eceff1"/>
        <circle id="Elipse_11840" data-name="Elipse 11840" cx="8.5" cy="8.5" r="8.5" transform="translate(45.927 27.927)" fill="#eceff1"/>
        <path id="Trazado_997780" data-name="Trazado 997780" d="M33.37,63.258,37.112,33.92a2.6,2.6,0,0,0-.332-1.686A8.082,8.082,0,0,1,35.6,28H52.011a8.082,8.082,0,0,1-1.18,4.234A2.6,2.6,0,0,0,50.5,33.92L54.24,63.258Z" transform="translate(10.43 8.456)" fill="#64b5f6"/>
        <path id="Trazado_997781" data-name="Trazado 997781" d="M15.37,63.258,19.112,33.92a2.6,2.6,0,0,0-.332-1.686A8.082,8.082,0,0,1,17.6,28H34.011a8.082,8.082,0,0,1-1.18,4.234A2.6,2.6,0,0,0,32.5,33.92L36.24,63.258Z" transform="translate(3.813 8.456)" fill="#64b5f6"/>
        <path id="Trazado_997782" data-name="Trazado 997782" d="M77.118,50.736l-.024.026a6.919,6.919,0,0,1-10.131,0l-.024-.026-.011.012a6.919,6.919,0,0,1-10.14,0l-.011-.011-.01.01a6.919,6.919,0,0,1-10.14,0l-.01-.011-.011.012a6.919,6.919,0,0,1-10.14,0l-.011-.012-.007.007a6.919,6.919,0,0,1-10.142,0l-.006-.006-.006.007a6.919,6.919,0,0,1-10.142,0l-.005-.005,0,0A6.919,6.919,0,0,1,6,50.736v7.7a6.919,6.919,0,0,0,10.146,0l0,0,0,0a6.919,6.919,0,0,0,10.144,0l.005-.005.005.006a6.919,6.919,0,0,0,10.143,0l.006-.006.011.012a6.919,6.919,0,0,0,10.14,0l.011-.012.01.011a6.919,6.919,0,0,0,10.14,0l.01-.011.011.011a6.919,6.919,0,0,0,10.14,0l.011-.012.024.026a6.919,6.919,0,0,0,10.131,0l.024-.025Z" transform="translate(0.368 16.815)" fill="#fff"/>
        <path id="Trazado_997783" data-name="Trazado 997783" d="M77.118,50.736l-.024.026a6.919,6.919,0,0,1-10.131,0l-.024-.026-.011.012a6.919,6.919,0,0,1-10.14,0l-.011-.011-.01.01a6.919,6.919,0,0,1-10.14,0l-.01-.011-.011.012a6.919,6.919,0,0,1-10.14,0l-.011-.012-.007.007a6.919,6.919,0,0,1-10.142,0l-.006-.006-.006.007a6.919,6.919,0,0,1-10.142,0l-.005-.005,0,0A6.919,6.919,0,0,1,6,50.736v7.7a6.919,6.919,0,0,0,10.146,0l0,0,0,0a6.919,6.919,0,0,0,10.144,0l.005-.005.005.006a6.919,6.919,0,0,0,10.143,0l.006-.006.011.012a6.919,6.919,0,0,0,10.14,0l.011-.012.01.011a6.919,6.919,0,0,0,10.14,0l.01-.011.011.011a6.919,6.919,0,0,0,10.14,0l.011-.012.024.026a6.919,6.919,0,0,0,10.131,0l.024-.025Z" transform="translate(0.368 16.815)" fill="#2196f3"/>
        <path id="Trazado_997784" data-name="Trazado 997784" d="M10,14H70.177v5.471H10Z" transform="translate(1.838 3.309)" fill="#819ba5"/>
        <g id="Grupo_1179153" data-name="Grupo 1179153" transform="translate(5 5)">
          <path id="Trazado_997785" data-name="Trazado 997785" d="M77.486,5H72.015a1.368,1.368,0,0,0-1.368,1.368v4.1H13.206v-4.1A1.368,1.368,0,0,0,11.838,5H6.368A1.368,1.368,0,0,0,5,6.368V67.552a1.367,1.367,0,0,0,.365.93,8.314,8.314,0,0,0,6.075,2.653h0A8.311,8.311,0,0,0,16.516,69.4a8.317,8.317,0,0,0,5.075,1.737h0A8.312,8.312,0,0,0,26.667,69.4a8.316,8.316,0,0,0,5.077,1.74h0A8.328,8.328,0,0,0,36.825,69.4a8.315,8.315,0,0,0,5.08,1.74,8.222,8.222,0,0,0,2.17-.319h.015a1.338,1.338,0,0,0,.7-.219,8.316,8.316,0,0,0,2.194-1.2,8.493,8.493,0,0,0,10.155,0,8.313,8.313,0,0,0,5.085,1.744h0a8.208,8.208,0,0,0,2.315-.356h.012c.017,0,.03-.013.046-.016A8.334,8.334,0,0,0,67.3,69.4a8.284,8.284,0,0,0,11.177-.907,1.368,1.368,0,0,0,.375-.938V40.029a1.368,1.368,0,1,0-2.735,0V66.984a5.464,5.464,0,0,1-2.735,1.342V18.677h2.735V31.269a1.368,1.368,0,1,0,2.735,0V6.368A1.368,1.368,0,0,0,77.486,5ZM62.442,15.941V13.206h2.735v2.735Zm-43.765,0V13.206h2.735v2.735Zm5.471-2.735h2.735v2.735H24.147Zm5.471,0h2.735v2.735H29.618Zm5.471,0h2.735v2.735H35.088Zm5.471,0h2.735v2.735H40.559Zm5.471,0h2.735v2.735H46.03Zm5.471,0h2.735v2.735H51.5Zm5.471,0h2.735v2.735H56.971Zm-43.765,0h2.735v2.735H13.206ZM7.735,7.735h2.735v8.206H7.735ZM37.846,66.643a1.371,1.371,0,0,0-1.011-.455,1.477,1.477,0,0,0-1.02.439A5.493,5.493,0,0,1,31.747,68.4h0a5.531,5.531,0,0,1-4.109-1.818,1.4,1.4,0,0,0-1-.4,1.376,1.376,0,0,0-.98.439A5.492,5.492,0,0,1,21.593,68.4h0a5.584,5.584,0,0,1-.6-.061l3.289-25.791a3.988,3.988,0,0,0-.522-2.572,6.646,6.646,0,0,1-.843-2.153h13.4a6.681,6.681,0,0,1-.843,2.154,3.984,3.984,0,0,0-.522,2.572l3.1,24.271c-.065-.064-.141-.111-.2-.178ZM22.918,35.088a6.838,6.838,0,0,1,13.4,0ZM62.226,68.406h0a5.483,5.483,0,0,1-4.058-1.763,1.373,1.373,0,0,0-1.012-.454,1.7,1.7,0,0,0-1.022.442,5.553,5.553,0,0,1-8.151-.015,1.372,1.372,0,0,0-1-.427h0a1.381,1.381,0,0,0-1.005.442c-.05.054-.111.091-.162.143L48.9,42.549a3.988,3.988,0,0,0-.522-2.572,6.646,6.646,0,0,1-.842-2.153h13.4a6.681,6.681,0,0,1-.843,2.154,3.984,3.984,0,0,0-.522,2.572l3.289,25.791A5.56,5.56,0,0,1,62.226,68.406ZM47.536,35.088a6.838,6.838,0,0,1,13.4,0ZM70.648,68.106A5.586,5.586,0,0,1,68.3,66.611a1.376,1.376,0,0,0-1-.422h-.007a1.386,1.386,0,0,0-1,.442,5.635,5.635,0,0,1-.8.7L62.286,42.2a1.24,1.24,0,0,1,.143-.8,9.574,9.574,0,1,0-16.386,0,1.243,1.243,0,0,1,.143.8L42.856,68.31a4.626,4.626,0,0,1-1.857,0L37.668,42.2a1.24,1.24,0,0,1,.143-.8,9.574,9.574,0,1,0-16.386,0,1.243,1.243,0,0,1,.143.8L18.359,67.359a5.936,5.936,0,0,1-.875-.774,1.372,1.372,0,0,0-1.824-.1,1.4,1.4,0,0,0-.148.139A5.486,5.486,0,0,1,13.178,68.1a1.278,1.278,0,0,0,.028-.143V50.576a1.368,1.368,0,0,0-2.735,0V67.953a1.328,1.328,0,0,0,.074.365,5.457,5.457,0,0,1-2.809-1.337v-48.3h2.735V45.17a1.368,1.368,0,0,0,2.735,0V24.147H70.648Zm0-46.694H13.206V18.677H70.648Zm0-5.471H67.912V13.206h2.735Zm5.471,0H73.383V7.735h2.735Z" transform="translate(-5 -5)" fill="#231f20"/>
          <path id="Trazado_997786" data-name="Trazado 997786" d="M43.307,41.145a1.369,1.369,0,0,0-1.184,1.531l.632,4.958a1.368,1.368,0,0,0,1.355,1.194,1.576,1.576,0,0,0,.175-.011,1.369,1.369,0,0,0,1.184-1.531l-.632-4.958a1.377,1.377,0,0,0-1.53-1.183Z" transform="translate(8.645 8.285)" fill="#231f20"/>
          <path id="Trazado_997787" data-name="Trazado 997787" d="M40.37,36.1a1.379,1.379,0,0,0-1.53,1.183l-1.108,8.677a1.369,1.369,0,0,0,1.184,1.531,1.575,1.575,0,0,0,.175.011,1.368,1.368,0,0,0,1.355-1.194l1.107-8.677A1.369,1.369,0,0,0,40.37,36.1Z" transform="translate(7.03 6.431)" fill="#231f20"/>
          <path id="Trazado_997788" data-name="Trazado 997788" d="M25.307,41.145a1.369,1.369,0,0,0-1.184,1.531l.632,4.958a1.368,1.368,0,0,0,1.355,1.194,1.576,1.576,0,0,0,.175-.011,1.369,1.369,0,0,0,1.184-1.531l-.632-4.958a1.38,1.38,0,0,0-1.53-1.183Z" transform="translate(2.027 8.285)" fill="#231f20"/>
          <path id="Trazado_997789" data-name="Trazado 997789" d="M22.37,36.1a1.376,1.376,0,0,0-1.53,1.183l-1.108,8.677a1.369,1.369,0,0,0,1.184,1.531,1.575,1.575,0,0,0,.175.011,1.368,1.368,0,0,0,1.355-1.194l1.107-8.677A1.369,1.369,0,0,0,22.37,36.1Z" transform="translate(0.412 6.431)" fill="#231f20"/>
          <path id="Trazado_997790" data-name="Trazado 997790" d="M72.4,57.6a5.525,5.525,0,0,1-4.1-1.8,1.5,1.5,0,0,0-1.005-.421,1.386,1.386,0,0,0-1,.442,5.551,5.551,0,0,1-8.126.011,1.373,1.373,0,0,0-1.012-.454,1.722,1.722,0,0,0-1.022.442,5.553,5.553,0,0,1-8.151-.015,1.37,1.37,0,0,0-1-.426h0a1.382,1.382,0,0,0-1.005.442,5.551,5.551,0,0,1-8.125.011,1.371,1.371,0,0,0-1.011-.455,1.5,1.5,0,0,0-1.02.439,5.494,5.494,0,0,1-4.068,1.775h0a5.531,5.531,0,0,1-4.109-1.818,1.355,1.355,0,0,0-1-.4,1.376,1.376,0,0,0-.98.439,5.492,5.492,0,0,1-4.068,1.774h0a5.531,5.531,0,0,1-4.108-1.817,1.366,1.366,0,0,0-1.973.04,5.494,5.494,0,0,1-4.069,1.775h0a5.492,5.492,0,0,1-4.07-1.778,1.368,1.368,0,1,0-2.006,1.859,8.314,8.314,0,0,0,6.075,2.653h0a8.312,8.312,0,0,0,5.074-1.737,8.317,8.317,0,0,0,5.075,1.737h0a8.313,8.313,0,0,0,5.074-1.739,8.316,8.316,0,0,0,5.078,1.742h0a8.328,8.328,0,0,0,5.079-1.737,8.282,8.282,0,0,0,10.16,0,8.495,8.495,0,0,0,10.156,0,8.51,8.51,0,0,0,10.161,0,8.284,8.284,0,0,0,11.177-.907L76.46,55.829A5.5,5.5,0,0,1,72.4,57.6Z" transform="translate(-5 13.518)" fill="#231f20"/>
          <path id="Trazado_997791" data-name="Trazado 997791" d="M58.368,25.859A1.368,1.368,0,0,0,57,27.227v1.448a1.368,1.368,0,1,0,2.735,0V27.227A1.368,1.368,0,0,0,58.368,25.859Z" transform="translate(14.118 2.669)" fill="#231f20"/>
        </g>
      </g>
    </g>
  </g>
</svg>
