<svg xmlns="http://www.w3.org/2000/svg" width="122.457" height="108.336" viewBox="0 0 122.457 108.336">
  <g id="Grupo_1179597" data-name="Grupo 1179597" transform="translate(-625.983 -4824.442)">
    <g id="Grupo_1102266" data-name="Grupo 1102266" transform="translate(247.982 -1614.558)">
      <path id="Trazado_878350" data-name="Trazado 878350" d="M6.524,55.555C11.7,47.9,17.363,43.089,23.251,36.326c10.573-12.143,18-31,34.391-35.322C85.81-6.431,90.976,29.871,91.078,30.168c1.48,4.311,4.306,11.876,4.306,11.876a81.446,81.446,0,0,0,5.491,9.7c4.982,6.837,11.83,12.066,16.529,19.16,4.654,7.024,7.549,15.5,2.074,24.065-13.148,20.565-40.244-6.753-66.012,7.409C15.662,123.158-13.54,85.205,6.524,55.555" transform="translate(378 6439)" fill="#8cbf62"/>
      <g id="Filled_outline" data-name="Filled outline" transform="translate(396.764 6447.593)">
        <path id="Trazado_997792" data-name="Trazado 997792" d="M5.731,15H79.468A2.731,2.731,0,0,1,82.2,17.731V64.158H3V17.731A2.731,2.731,0,0,1,5.731,15Z" transform="translate(0.365 4.751)" fill="#92cfd9"/>
        <path id="Trazado_997793" data-name="Trazado 997793" d="M3,51H82.2v8.193H3Z" transform="translate(0.365 17.909)" fill="#394d5c"/>
        <path id="Trazado_997794" data-name="Trazado 997794" d="M8,57H21.655v5.462H8Z" transform="translate(2.193 20.102)" fill="#7d8d9c"/>
        <path id="Trazado_997795" data-name="Trazado 997795" d="M46,57H59.655v5.462H46Z" transform="translate(16.082 20.102)" fill="#7d8d9c"/>
        <path id="Trazado_997796" data-name="Trazado 997796" d="M12,19H33.848V62.7H12Z" transform="translate(3.655 6.213)" fill="#92cfd9"/>
        <path id="Trazado_997797" data-name="Trazado 997797" d="M16,23H26.924V33.924H16Z" transform="translate(5.117 7.675)" fill="#f4f4e6"/>
        <path id="Trazado_997798" data-name="Trazado 997798" d="M28,19h8.193V62.7H28Z" transform="translate(9.503 6.213)" fill="#8cbf62"/>
        <path id="Trazado_997799" data-name="Trazado 997799" d="M34,19H61.31V62.7H34Z" transform="translate(11.696 6.213)" fill="#92cfd9"/>
        <path id="Trazado_997800" data-name="Trazado 997800" d="M8,22h5.462v5.462H8Z" transform="translate(2.193 7.31)" fill="#388e75"/>
        <path id="Trazado_997801" data-name="Trazado 997801" d="M8,42h5.462v5.462H8Z" transform="translate(2.193 14.62)" fill="#388e75"/>
        <g id="Grupo_1179155" data-name="Grupo 1179155" transform="translate(19.751 30.675)">
          <path id="Trazado_997802" data-name="Trazado 997802" d="M44.827,23h6.827l-4.1,6.827h6.827L44.827,42.117V35.289H38Z" transform="translate(-6.594 -23)" fill="#fcf05a"/>
          <path id="Trazado_997803" data-name="Trazado 997803" d="M15,34H28.655v2.731H15Z" transform="translate(-15 -18.98)" fill="#fcf05a"/>
          <path id="Trazado_997804" data-name="Trazado 997804" d="M15,38h5.462v2.731H15Z" transform="translate(-15 -17.518)" fill="#fcf05a"/>
          <path id="Trazado_997805" data-name="Trazado 997805" d="M21,38h5.462v2.731H21Z" transform="translate(-12.807 -17.518)" fill="#fcf05a"/>
        </g>
        <path id="Trazado_997806" data-name="Trazado 997806" d="M35,7H59.579v5.462H35Z" transform="translate(12.061 1.827)" fill="#7d8d9c"/>
        <path id="Trazado_997807" data-name="Trazado 997807" d="M37,11h5.462v5.462H37Z" transform="translate(12.792 3.289)" fill="#394d5c"/>
        <path id="Trazado_997808" data-name="Trazado 997808" d="M47,11h5.462v5.462H47Z" transform="translate(16.447 3.289)" fill="#394d5c"/>
        <path id="Trazado_997809" data-name="Trazado 997809" d="M79.833,18.386H70.275V15.655H71.64a1.366,1.366,0,0,0,1.366-1.365V12.924h1.365a4.1,4.1,0,0,0,4.1-4.1V2H75.737V8.827a1.365,1.365,0,0,1-1.365,1.365H73.006V8.827A1.365,1.365,0,0,0,71.64,7.462H47.061A1.365,1.365,0,0,0,45.7,8.827v5.462a1.365,1.365,0,0,0,1.365,1.365h1.365v2.731H6.1a4.1,4.1,0,0,0-4.1,4.1V77.1a1.365,1.365,0,0,0,1.365,1.365H8.827v4.1a1.365,1.365,0,0,0,1.365,1.365H23.848a1.365,1.365,0,0,0,1.365-1.365v-4.1h35.5v4.1a1.365,1.365,0,0,0,1.365,1.365H75.737A1.365,1.365,0,0,0,77.1,82.564v-4.1h5.462A1.365,1.365,0,0,0,83.93,77.1V22.482a4.1,4.1,0,0,0-4.1-4.1ZM48.427,10.193H70.275v2.731H48.427Zm19.117,5.462v2.731H64.813V15.655Zm-5.462,0v2.731H56.62V15.655Zm-8.193,0v2.731H51.158V15.655ZM22.482,81.2H11.558V78.468H22.482Zm51.889,0H63.447V78.468H74.371ZM81.2,75.737H4.731V70.275H81.2ZM14.289,60.716H11.558V57.985h2.731Zm0-27.31H11.558V30.675h2.731ZM17.02,67.544V26.579H36.137V67.544Zm21.848,0V26.579H44.33V67.544Zm8.193,0V26.579H71.64V67.544Zm34.137,0H74.371V25.213a1.365,1.365,0,0,0-1.365-1.365H15.655a1.365,1.365,0,0,0-1.365,1.365v2.731h-4.1A1.365,1.365,0,0,0,8.827,29.31v5.462a1.365,1.365,0,0,0,1.365,1.365h4.1V55.254h-4.1A1.365,1.365,0,0,0,8.827,56.62v5.462a1.365,1.365,0,0,0,1.365,1.365h4.1v4.1H4.731V22.482A1.365,1.365,0,0,1,6.1,21.117H79.833A1.365,1.365,0,0,1,81.2,22.482Z"/>
        <path id="Trazado_997810" data-name="Trazado 997810" d="M27.289,22H16.365A1.365,1.365,0,0,0,15,23.365V34.289a1.365,1.365,0,0,0,1.365,1.365H27.289a1.365,1.365,0,0,0,1.365-1.365V23.365A1.365,1.365,0,0,0,27.289,22ZM25.924,32.924H17.731V24.731h8.193Z" transform="translate(4.751 7.31)"/>
        <path id="Trazado_997811" data-name="Trazado 997811" d="M46.27,43.321l9.558-12.289a1.365,1.365,0,0,0-1.077-2.2H50.337l2.854-4.759A1.365,1.365,0,0,0,52.02,22H45.193A1.366,1.366,0,0,0,44,22.7L37.172,34.991a1.365,1.365,0,0,0,1.193,2.029h5.462v5.462a1.365,1.365,0,0,0,2.443.838Zm-5.584-9.031L46,24.731h3.61L46.755,29.49a1.365,1.365,0,0,0,1.169,2.069h4.035l-5.4,6.944V35.655a1.365,1.365,0,0,0-1.365-1.365Z" transform="translate(12.792 7.31)"/>
        <path id="Trazado_997812" data-name="Trazado 997812" d="M15,34H28.655v2.731H15Z" transform="translate(4.751 11.696)"/>
        <path id="Trazado_997813" data-name="Trazado 997813" d="M15,38h5.462v2.731H15Z" transform="translate(4.751 13.158)"/>
        <path id="Trazado_997814" data-name="Trazado 997814" d="M21,38h5.462v2.731H21Z" transform="translate(6.944 13.158)"/>
        <path id="Trazado_997815" data-name="Trazado 997815" d="M49.731,47.827H47v2.731h4.1a1.365,1.365,0,0,0,1.365-1.365V41H49.731Z" transform="translate(16.447 14.254)"/>
        <path id="Trazado_997816" data-name="Trazado 997816" d="M43,46h2.731v2.731H43Z" transform="translate(14.985 16.082)"/>
        <path id="Trazado_997817" data-name="Trazado 997817" d="M39,46h2.731v2.731H39Z" transform="translate(13.523 16.082)"/>
      </g>
    </g>
  </g>
</svg>
