<svg xmlns="http://www.w3.org/2000/svg" xmlns:xlink="http://www.w3.org/1999/xlink" width="420" height="318.232" viewBox="0 0 420 318.232">
  <defs>
    <clipPath id="clip-path">
      <rect id="Rectángulo_403458" data-name="Rectángulo 403458" width="420" height="318.233" transform="translate(180.145 2659.089)" fill="#92cfd9"/>
    </clipPath>
    <clipPath id="clip-path-2">
      <rect id="Rectángulo_455556" data-name="Rectángulo 455556" width="392.294" height="242.603" fill="none"/>
    </clipPath>
    <clipPath id="clip-path-4">
      <rect id="Rectángulo_455554" data-name="Rectángulo 455554" width="25.757" height="73.146" fill="none"/>
    </clipPath>
  </defs>
  <g id="Grupo_1179598" data-name="Grupo 1179598" transform="translate(-180.263 -9184.469)">
    <g id="Enmascarar_grupo_1098801" data-name="Enmascarar grupo 1098801" transform="translate(0.118 6525.38)" clip-path="url(#clip-path)">
      <g id="Grupo_1102700" data-name="Grupo 1102700" transform="translate(180 2590.336)">
        <rect id="Rectángulo_403456" data-name="Rectángulo 403456" width="420" height="420" transform="translate(-0.336 -0.336)" fill="#5e7c8c"/>
        <g id="Grupo_1179208" data-name="Grupo 1179208" transform="translate(13.517 112.983)">
          <g id="Grupo_1179207" data-name="Grupo 1179207" clip-path="url(#clip-path-2)">
            <g id="Grupo_1179206" data-name="Grupo 1179206">
              <g id="Grupo_1179205" data-name="Grupo 1179205" clip-path="url(#clip-path-2)">
                <path id="Trazado_998091" data-name="Trazado 998091" d="M467.338,2609.337c0,9.236-16.5,16.723-36.845,16.723s-36.845-7.487-36.845-16.723,16.5-16.723,36.845-16.723,36.845,7.487,36.845,16.723" transform="translate(-367.412 -2419.818)" fill="#d2e1f1"/>
                <path id="Trazado_998092" data-name="Trazado 998092" d="M686.1,2869.272s16.4-35.821,101.881-19.253,93.177-31.167,123.636-34.747,86.547,14.919,80.58,54Z" transform="translate(-640.369 -2627.229)" fill="#b0c0d2"/>
                <path id="Trazado_998093" data-name="Trazado 998093" d="M4769.282,2527.8a20.012,20.012,0,0,1-9.333-16.751c12.084,2.161,13.459,16.751,13.459,16.751Z" transform="translate(-4442.702 -2343.686)" fill="#d1e5c0"/>
                <path id="Trazado_998094" data-name="Trazado 998094" d="M4822.241,2427.024s.393,8.547,6.288,12.673a15.764,15.764,0,0,1,6.705,9.678l4.3-.111s.982-10.164-3.537-13.4-12.379-4.81-13.754-8.838" transform="translate(-4500.843 -2265.265)" fill="#8cbf62"/>
                <path id="Trazado_998095" data-name="Trazado 998095" d="M5101.561,2238.078s.294-34.079,19.747-37.321c-6.631,9.431-11.642,37.321-11.642,37.321Z" transform="translate(-4761.545 -2054.078)" fill="#d1e5c0"/>
                <path id="Trazado_998096" data-name="Trazado 998096" d="M4987.658,2271.506s-3.438-21.442,9.922-25.421c-3.659,9.505-4.986,34.411-4.986,34.411l-3.757-.111Z" transform="translate(-4654.864 -2096.385)" fill="#d1e5c0"/>
                <path id="Trazado_998097" data-name="Trazado 998097" d="M5045.208,2468.636s-3.087-13.018-.623-20.976c3.84,5.109,6.394,20.877,6.394,20.877Z" transform="translate(-4707.477 -2284.526)" fill="#8cbf62"/>
                <path id="Trazado_998098" data-name="Trazado 998098" d="M4817.62,3152.349h-4.42l-3.51-14.442h-29.637l-3.511,14.442h-4.42l7.4-30.448.859-3.537h4.422l-.86,3.537-3.031,12.47h27.92l-3.028-12.47-.86-3.537h4.42l.86,3.537Z" transform="translate(-4454.064 -2910.527)" fill="#1d3856"/>
                <path id="Trazado_998099" data-name="Trazado 998099" d="M4843.711,3120.133h0a1.769,1.769,0,0,1-1.769,1.768h-37.948a1.768,1.768,0,1,1,0-3.537h37.948a1.769,1.769,0,0,1,1.769,1.769" transform="translate(-4482.161 -2910.527)" fill="#7f332f"/>
                <path id="Trazado_998100" data-name="Trazado 998100" d="M4837.5,2770.336a19.8,19.8,0,0,1-7.969,15.767h-26.5a19.8,19.8,0,0,1-7.969-15.767,19.286,19.286,0,0,1,1.711-7.959h39.017a19.286,19.286,0,0,1,1.711,7.959" transform="translate(-4475.473 -2578.267)" fill="#384c27"/>
                <path id="Trazado_998101" data-name="Trazado 998101" d="M4811.945,2786.1h-8.916a19.8,19.8,0,0,1-7.969-15.767,19.286,19.286,0,0,1,1.711-7.959h7.157c-1.34,3.926-2.516,10.2.917,15.427a44.161,44.161,0,0,0,7.1,8.3" transform="translate(-4475.473 -2578.267)" fill="#12263f"/>
                <path id="Trazado_998102" data-name="Trazado 998102" d="M4589.91,2690.952s-12.085-7.767-21.074-4.131-8.989,9.069-8.989,9.069,15.7-6.19,22.989-4.643c2.26-.294,7.074-.294,7.074-.294" transform="translate(-4255.937 -2506.842)" fill="#8cbf62"/>
                <path id="Trazado_998103" data-name="Trazado 998103" d="M5142.1,2448.932s1.355-8.928,11.633-16.763c4.245-3.236,8.409-3.377,15.139-5.146-4.241,3.892-8.433,5.849-10.758,9.235a28.483,28.483,0,0,0-4.862,13.356Z" transform="translate(-4799.381 -2265.265)" fill="#8cbf62"/>
                <path id="Trazado_998104" data-name="Trazado 998104" d="M5229.8,2590.973s2.014-13.741,15.768-10.868c3.537,1.1,10.021-1.253,10.021-1.253a13.351,13.351,0,0,1-9.825,4.814c-6.681.393-10.584,8.153-10.584,8.153Z" transform="translate(-4881.241 -2406.974)" fill="#d1e5c0"/>
                <path id="Trazado_998105" data-name="Trazado 998105" d="M5142.1,2716.557s4.225,11.691,13.165,13.558c.688-8.94-7.663-16.21-7.663-16.21s-4.323-1.081-5.5,2.653" transform="translate(-4799.381 -2532.889)" fill="#d1e5c0"/>
                <path id="Trazado_998106" data-name="Trazado 998106" d="M5283.606,2678.01s3.242-10.023,9.923-4.324,4.618,14.934,4.618,14.934-5.4-7.845-7.762-8.344a58.085,58.085,0,0,1-6.779-2.267" transform="translate(-4931.458 -2493.851)" fill="#8cbf62"/>
                <path id="Trazado_998107" data-name="Trazado 998107" d="M4973.362,2695.719s-.572,7.963,3.161,11.009a22.222,22.222,0,0,1,4.716-11.009s1.358-5.3-2.268-5.005-5.608,5.005-5.608,5.005" transform="translate(-4641.861 -2511.369)" fill="#fbaf7e"/>
                <path id="Trazado_998108" data-name="Trazado 998108" d="M216.44,3109.816a7.558,7.558,0,1,0,7.558,7.558,7.559,7.559,0,0,0-7.558-7.558m0,11.867a4.308,4.308,0,1,1,4.309-4.309,4.307,4.307,0,0,1-4.309,4.309" transform="translate(-194.96 -2902.549)" fill="#d2e1f1"/>
                <path id="Trazado_998109" data-name="Trazado 998109" d="M1666.1,629.266h0a11.323,11.323,0,0,1-11.323,11.323h0a11.323,11.323,0,0,1,11.323,11.323,11.323,11.323,0,0,1,11.323-11.323h0a11.323,11.323,0,0,1-11.323-11.323" transform="translate(-1544.486 -587.326)" fill="#b1ccf4"/>
                <path id="Trazado_998110" data-name="Trazado 998110" d="M1911.853,1717.76h0a4.937,4.937,0,0,1-4.937,4.937h0a4.937,4.937,0,0,0,9.875,0h0a4.937,4.937,0,0,1-4.937-4.937" transform="translate(-1779.822 -1603.273)" fill="#b1ccf4"/>
                <path id="Trazado_998111" data-name="Trazado 998111" d="M5659.179,2947.842h-2.813v-2.812a1.166,1.166,0,1,0-2.332,0v2.813h-2.812a1.166,1.166,0,0,0,0,2.332h2.813v2.813a1.166,1.166,0,1,0,2.332,0v-2.813h2.813a1.166,1.166,0,0,0,0-2.332" transform="translate(-5273.483 -2747.657)" fill="#b1ccf4"/>
                <path id="Trazado_998112" data-name="Trazado 998112" d="M3476.729,2714.17h-3.717v-3.717a1.541,1.541,0,0,0-3.082,0v3.717h-3.717a1.541,1.541,0,0,0,0,3.083h3.717v3.717a1.541,1.541,0,0,0,3.082,0v-3.717h3.717a1.541,1.541,0,0,0,0-3.083" transform="translate(-3233.754 -2528.365)" fill="#d2e1f1"/>
                <path id="Trazado_998113" data-name="Trazado 998113" d="M3223.9,2290.184a3.779,3.779,0,1,0,3.779,3.779,3.779,3.779,0,0,0-3.779-3.779m0,5.933a2.154,2.154,0,1,1,2.154-2.154,2.153,2.153,0,0,1-2.154,2.154" transform="translate(-3005.502 -2137.545)" fill="#d2e1f1"/>
                <path id="Trazado_998114" data-name="Trazado 998114" d="M1983.3,99.421a52.954,52.954,0,1,0-90.293-1.751h0c15.361,31.622,21.146,70.668,20.8,71.7h49.53c-.338-1.014,5.23-38.656,19.965-69.95" transform="translate(-1760.054 -16.732)" fill="#fadcbf"/>
                <path id="Trazado_998115" data-name="Trazado 998115" d="M1951.287,202.025c-.148-1.176-.395-2.809-.786-5.1-.635-3.717-1.774-9.745-3.6-17.351-2.8-11.662-7.575-28.443-14.775-44.224h.431l-2.22-3.783a50.442,50.442,0,1,1,86.014,1.668l-.088.138-.07.148c-7.824,16.617-12.914,34.633-15.806,46.82-1.757,7.4-2.85,13.234-3.458,16.824-.368,2.173-.6,3.732-.747,4.865Z" transform="translate(-1795.218 -51.897)" fill="#fff7e5"/>
                <path id="Trazado_998116" data-name="Trazado 998116" d="M2276.779,2295.753a5.568,5.568,0,0,1-5.569,5.569h-50.915a5.569,5.569,0,1,1,0-11.138h50.915a5.567,5.567,0,0,1,5.466,4.509,5.312,5.312,0,0,1,.1,1.06" transform="translate(-2067.116 -2137.545)" fill="#727997"/>
                <path id="Trazado_998117" data-name="Trazado 998117" d="M2025.216,733.227c-1.061,5.967.133,9.482,6.895,31.459s15.249,54.728,15.646,67.457c9.282,2.784,11.138,2.254,11.138,2.254s4.243-15.514-.53-29.834-17.238-31.558-19.492-44.287,0-28.508-3.58-31.823-9.016-1.193-10.077,4.773" transform="translate(-1889.92 -678.443)" fill="#fcecdc"/>
                <path id="Trazado_998118" data-name="Trazado 998118" d="M2278.082,2294.693a5.571,5.571,0,0,1-5.466,4.509H2221.7a4.53,4.53,0,1,1,0-9.017h50.915a5.567,5.567,0,0,1,5.466,4.509" transform="translate(-2068.523 -2137.545)" fill="#12263f"/>
                <path id="Trazado_998119" data-name="Trazado 998119" d="M2276.779,2462.887a5.567,5.567,0,0,1-5.569,5.569h-50.915a5.569,5.569,0,1,1,0-11.137h50.915a5.567,5.567,0,0,1,5.466,4.509,5.311,5.311,0,0,1,.1,1.06" transform="translate(-2067.116 -2293.54)" fill="#727997"/>
                <path id="Trazado_998120" data-name="Trazado 998120" d="M2278.082,2461.827a5.571,5.571,0,0,1-5.466,4.509H2221.7a4.53,4.53,0,1,1,0-9.017h50.915a5.567,5.567,0,0,1,5.466,4.509" transform="translate(-2068.523 -2293.54)" fill="#12263f"/>
                <path id="Trazado_998121" data-name="Trazado 998121" d="M2276.779,2625.739a5.567,5.567,0,0,1-5.569,5.569h-50.915a5.569,5.569,0,1,1,0-11.138h50.915a5.567,5.567,0,0,1,5.466,4.509,5.314,5.314,0,0,1,.1,1.06" transform="translate(-2067.116 -2445.538)" fill="#727997"/>
                <path id="Trazado_998122" data-name="Trazado 998122" d="M2278.082,2624.678a5.571,5.571,0,0,1-5.466,4.509H2221.7a4.53,4.53,0,1,1,0-9.017h50.915a5.567,5.567,0,0,1,5.466,4.509" transform="translate(-2068.523 -2445.538)" fill="#12263f"/>
                <path id="Trazado_998123" data-name="Trazado 998123" d="M2287,2786.963c2.4,6.587,12.6,11.536,24.815,11.536s22.413-4.948,24.815-11.536Z" transform="translate(-2134.577 -2601.214)" fill="#12263f"/>
                <path id="Trazado_998124" data-name="Trazado 998124" d="M2301.516,2786.963H2287c2.4,6.587,12.6,11.536,24.815,11.536,1.463,0,2.9-.073,4.29-.209a21.469,21.469,0,0,1-14.593-11.327" transform="translate(-2134.577 -2601.214)" fill="#727997"/>
                <path id="Trazado_998125" data-name="Trazado 998125" d="M2446.95,1065.489a11.462,11.462,0,0,0-2.261-4.084,4.692,4.692,0,0,0-1.331-1.014,3.2,3.2,0,0,0-1.417-.341,3.316,3.316,0,0,0-1.923.648,6.273,6.273,0,0,0-2.052,2.8,11.313,11.313,0,0,0-.778,4.237v5.061l-.278.032a44.064,44.064,0,0,1-4.576.234h-.16a.891.891,0,0,1-.1-.01,6.038,6.038,0,0,1-1.2-.342c-.128-.049-.261-.106-.4-.166a6.244,6.244,0,0,0,.68-.708,6.566,6.566,0,0,0,1.419-4.275,11.208,11.208,0,0,0-.39-2.814,2.7,2.7,0,0,0-1.024-1.532,2.774,2.774,0,0,0-1.632-.518,2.994,2.994,0,0,0-1.647.5,3.2,3.2,0,0,0-1.194,1.483,8.62,8.62,0,0,0-.7,3.243,5.575,5.575,0,0,0,.869,3.052,6.353,6.353,0,0,0,1.533,1.63,5.941,5.941,0,0,1-.89.346c-.147.043-.273.072-.369.09-.048.009-.088.015-.116.019l-.034,0h-.01l-.457,0a43.611,43.611,0,0,1-4.853-.266v-5.061a10.52,10.52,0,0,0-1.337-5.362,5.486,5.486,0,0,0-1.493-1.671,3.317,3.317,0,0,0-1.923-.648,3.2,3.2,0,0,0-1.417.341,5.4,5.4,0,0,0-1.949,1.769,13.325,13.325,0,0,0-1.643,3.328,6.206,6.206,0,0,0-.381,2.058,4.4,4.4,0,0,0,.523,2.116,5.114,5.114,0,0,0,1.173,1.433,9.576,9.576,0,0,0,3.05,1.674,22.434,22.434,0,0,0,4.281,1v49.032a.558.558,0,1,0,1.116,0v-48.89l.158.018a45.163,45.163,0,0,0,4.694.24l.469,0a1.734,1.734,0,0,0,.227-.02,5.805,5.805,0,0,0,1.3-.386,7.276,7.276,0,0,0,.95-.48q.194.1.384.193a8.922,8.922,0,0,0,1.4.526c.2.055.377.1.53.124a2.371,2.371,0,0,0,.4.045h.164a45.1,45.1,0,0,0,4.854-.259v48.89a.558.558,0,1,0,1.116,0v-49.032a25.78,25.78,0,0,0,2.89-.575,11.637,11.637,0,0,0,4.232-1.929,5.251,5.251,0,0,0,1.382-1.606,4.4,4.4,0,0,0,.523-2.116,6.207,6.207,0,0,0-.381-2.058m-29.018,6.631a10.579,10.579,0,0,1-3.823-1.724,4.141,4.141,0,0,1-1.094-1.262,3.281,3.281,0,0,1-.39-1.587,5.091,5.091,0,0,1,.318-1.688,10.4,10.4,0,0,1,2.02-3.688,3.586,3.586,0,0,1,1.011-.778,2.082,2.082,0,0,1,.925-.227,2.2,2.2,0,0,1,1.278.443,5.188,5.188,0,0,1,1.663,2.306,10.207,10.207,0,0,1,.7,3.816v4.914a24.069,24.069,0,0,1-2.6-.526m9.525-2.378a4.568,4.568,0,0,1-.362-1.826,7.511,7.511,0,0,1,.622-2.823,2.075,2.075,0,0,1,.775-.972,1.88,1.88,0,0,1,1.032-.312,1.659,1.659,0,0,1,.976.306,1.579,1.579,0,0,1,.6.909,10.1,10.1,0,0,1,.354,2.534,5.791,5.791,0,0,1-.641,2.779,5.039,5.039,0,0,1-1.4,1.628,5.962,5.962,0,0,1-1.046-.859,4.6,4.6,0,0,1-.914-1.362m18.368-.608a4.007,4.007,0,0,1-.921,1.119,8.493,8.493,0,0,1-2.7,1.466,21.051,21.051,0,0,1-3.9.927v-4.915a9.426,9.426,0,0,1,1.177-4.787,4.392,4.392,0,0,1,1.181-1.335,2.2,2.2,0,0,1,1.278-.443,2.083,2.083,0,0,1,.926.227,4.311,4.311,0,0,1,1.533,1.417,12.246,12.246,0,0,1,1.5,3.049,5.1,5.1,0,0,1,.318,1.688,3.281,3.281,0,0,1-.39,1.587" transform="translate(-2250.785 -989.399)" fill="#dd7833"/>
                <path id="Trazado_998126" data-name="Trazado 998126" d="M2468.777,1751.535,2465,1721.5s-1.417-6.762-5.828-7.757a37.391,37.391,0,0,0-13.306,0c-4.41.995-5.828,7.757-5.828,7.757l-3.78,30.032Z" transform="translate(-2273.88 -1598.896)" fill="#ffde9a"/>
                <path id="Trazado_998127" data-name="Trazado 998127" d="M2728.069,1722.124s-1.417-6.762-5.828-7.757a27.3,27.3,0,0,0-4.129-.631c7.913,10.964,5.574,25.214,5.816,38.42h7.922Z" transform="translate(-2536.952 -1599.517)" fill="#705943"/>
                <path id="Trazado_998128" data-name="Trazado 998128" d="M2203.579,313.938a11.2,11.2,0,1,1-11.2-11.2,11.2,11.2,0,0,1,11.2,11.2" transform="translate(-2035.797 -282.557)" fill="#fef2e6"/>
                <path id="Trazado_998129" data-name="Trazado 998129" d="M2524.706,235.74a2.819,2.819,0,1,1-2.819-2.819,2.819,2.819,0,0,1,2.819,2.819" transform="translate(-2351.173 -217.397)" fill="#fef2e6"/>
                <g id="Grupo_1179204" data-name="Grupo 1179204" transform="translate(187.471 37.694)" opacity="0.6">
                  <g id="Grupo_1179203" data-name="Grupo 1179203">
                    <g id="Grupo_1179202" data-name="Grupo 1179202" clip-path="url(#clip-path-4)">
                      <path id="Trazado_998130" data-name="Trazado 998130" d="M2817.9,576.609s5.587,22.088-1.561,40.78-2.111,21.908,3.177,21.235,21.469-36.712,18.731-52.788-10.733-21.31-15.933-20.113-5.288,7.017-4.414,10.886" transform="translate(-2812.801 -565.56)" fill="#fdfefe"/>
                    </g>
                  </g>
                </g>
                <path id="Trazado_998131" data-name="Trazado 998131" d="M3106.237,357.606s9.414,20.486,12.332,16.11-8.486-25.124-12.6-24.164-.531,6.716.265,8.054" transform="translate(-2897.151 -326.225)" fill="#fdfefe"/>
                <path id="Trazado_998132" data-name="Trazado 998132" d="M3264.368,1731.182a12.456,12.456,0,1,1-12.456-12.456,12.456,12.456,0,0,1,12.456,12.456" transform="translate(-3023.55 -1604.174)" fill="#fadcbf"/>
                <path id="Trazado_998133" data-name="Trazado 998133" d="M3284.966,1753.363a10.872,10.872,0,1,1-10.872-10.872,10.872,10.872,0,0,1,10.872,10.872" transform="translate(-3045.731 -1626.355)" fill="#ffac04"/>
                <path id="Trazado_998134" data-name="Trazado 998134" d="M3373.192,1774.105a3.829,3.829,0,0,0-1.464-1.626,4.97,4.97,0,0,0-1.485-.615v-4.671c.042.014.085.028.126.045a2.46,2.46,0,0,1,1.088.849,2.238,2.238,0,0,1,.422,1.308.8.8,0,0,0,1.591,0,3.656,3.656,0,0,0-.32-1.5,3.91,3.91,0,0,0-1.471-1.692,4.163,4.163,0,0,0-1.436-.571v-1.749a.8.8,0,0,0-1.591,0v1.737a4.246,4.246,0,0,0-.786.228,4.039,4.039,0,0,0-1.786,1.393,3.7,3.7,0,0,0-.694,2.151,3.533,3.533,0,0,0,.312,1.469,3.772,3.772,0,0,0,1.452,1.618,5.147,5.147,0,0,0,1.5.623v4.693c-.056-.018-.112-.037-.166-.059a2.461,2.461,0,0,1-1.088-.849,2.239,2.239,0,0,1-.422-1.308.8.8,0,0,0-1.591,0,3.658,3.658,0,0,0,.32,1.5,3.912,3.912,0,0,0,1.471,1.692,4.169,4.169,0,0,0,1.477.581v2.021a.8.8,0,0,0,1.591,0v-2.018a4.246,4.246,0,0,0,.786-.228,4.022,4.022,0,0,0,1.786-1.393,3.678,3.678,0,0,0,.694-2.151,3.5,3.5,0,0,0-.318-1.476m-4.54-2.581c-.061-.021-.123-.044-.181-.069a2.629,2.629,0,0,1-1.1-.827,1.981,1.981,0,0,1-.29-.559,2.131,2.131,0,0,1-.1-.675,2.214,2.214,0,0,1,.194-.91,2.382,2.382,0,0,1,.9-1.031,2.566,2.566,0,0,1,.586-.274Zm3.074,4.967a2.392,2.392,0,0,1-.9,1.031,2.55,2.55,0,0,1-.586.274v-4.354a2.928,2.928,0,0,1,.976.571,2.141,2.141,0,0,1,.515.693,2.074,2.074,0,0,1,.185.875,2.216,2.216,0,0,1-.193.91" transform="translate(-3141.085 -1645.622)" fill="#fdfefe"/>
                <path id="Trazado_998135" data-name="Trazado 998135" d="M5358.786,1614.234a9.281,9.281,0,1,1-9.28-9.281,9.28,9.28,0,0,1,9.28,9.281" transform="translate(-4984.303 -1497.985)" fill="#fadcbf"/>
                <path id="Trazado_998136" data-name="Trazado 998136" d="M5374.132,1630.761a8.1,8.1,0,1,1-8.1-8.1,8.1,8.1,0,0,1,8.1,8.1" transform="translate(-5000.829 -1514.512)" fill="#ffac04"/>
                <path id="Trazado_998137" data-name="Trazado 998137" d="M5439.869,1646.217a2.858,2.858,0,0,0-1.091-1.212,3.7,3.7,0,0,0-1.107-.458v-3.48c.032.01.063.021.094.033a1.834,1.834,0,0,1,.811.632,1.673,1.673,0,0,1,.314.974.594.594,0,0,0,1.186,0,2.73,2.73,0,0,0-.238-1.115,2.912,2.912,0,0,0-1.1-1.26,3.111,3.111,0,0,0-1.07-.426v-1.3a.593.593,0,0,0-1.185,0v1.294a3.17,3.17,0,0,0-.586.17,3.006,3.006,0,0,0-1.331,1.038,2.753,2.753,0,0,0-.518,1.6,2.638,2.638,0,0,0,.232,1.094,2.808,2.808,0,0,0,1.083,1.206,3.828,3.828,0,0,0,1.12.464v3.5c-.042-.013-.083-.028-.124-.044a1.831,1.831,0,0,1-.811-.632,1.672,1.672,0,0,1-.314-.975.594.594,0,0,0-1.186,0,2.732,2.732,0,0,0,.238,1.116,2.917,2.917,0,0,0,1.1,1.26,3.11,3.11,0,0,0,1.1.433v1.505a.593.593,0,0,0,1.185,0v-1.5a3.14,3.14,0,0,0,.586-.17,3,3,0,0,0,1.332-1.038,2.746,2.746,0,0,0,.517-1.6,2.616,2.616,0,0,0-.237-1.1m-3.383-1.923c-.046-.016-.092-.033-.135-.051a1.957,1.957,0,0,1-.82-.616,1.477,1.477,0,0,1-.216-.417,1.58,1.58,0,0,1-.078-.5,1.651,1.651,0,0,1,.145-.678,1.774,1.774,0,0,1,.667-.768,1.9,1.9,0,0,1,.437-.2Zm2.29,3.7a1.781,1.781,0,0,1-.668.768,1.891,1.891,0,0,1-.437.2v-3.244a2.178,2.178,0,0,1,.728.426,1.593,1.593,0,0,1,.383.516,1.54,1.54,0,0,1,.138.652,1.649,1.649,0,0,1-.144.678" transform="translate(-5071.876 -1528.867)" fill="#fdfefe"/>
                <path id="Trazado_998138" data-name="Trazado 998138" d="M3451.253,12.456A12.456,12.456,0,1,1,3438.8,0a12.456,12.456,0,0,1,12.456,12.456" transform="translate(-3197.979)" fill="#fadcbf"/>
                <path id="Trazado_998139" data-name="Trazado 998139" d="M3471.85,34.637a10.872,10.872,0,1,1-10.872-10.872,10.872,10.872,0,0,1,10.872,10.872" transform="translate(-3220.159 -22.181)" fill="#ffac04"/>
                <path id="Trazado_998140" data-name="Trazado 998140" d="M3560.077,55.38a3.83,3.83,0,0,0-1.464-1.627,4.972,4.972,0,0,0-1.485-.614V48.467c.042.014.084.028.126.045a2.462,2.462,0,0,1,1.088.849,2.236,2.236,0,0,1,.421,1.308.8.8,0,0,0,1.591,0,3.661,3.661,0,0,0-.32-1.5,3.911,3.911,0,0,0-1.471-1.692,4.167,4.167,0,0,0-1.436-.571V45.16a.8.8,0,0,0-1.591,0V46.9a4.237,4.237,0,0,0-.786.228,4.038,4.038,0,0,0-1.787,1.393,3.7,3.7,0,0,0-.694,2.151,3.537,3.537,0,0,0,.311,1.469,3.772,3.772,0,0,0,1.452,1.618,5.14,5.14,0,0,0,1.5.623v4.693c-.056-.018-.112-.037-.166-.059a2.461,2.461,0,0,1-1.088-.849,2.238,2.238,0,0,1-.422-1.308.8.8,0,0,0-1.591,0,3.665,3.665,0,0,0,.32,1.5,3.912,3.912,0,0,0,1.471,1.692,4.17,4.17,0,0,0,1.477.581v2.021a.8.8,0,0,0,1.591,0V60.628a4.248,4.248,0,0,0,.786-.228,4.024,4.024,0,0,0,1.786-1.393,3.678,3.678,0,0,0,.694-2.151,3.5,3.5,0,0,0-.318-1.476m-4.54-2.581c-.062-.022-.123-.044-.181-.069a2.63,2.63,0,0,1-1.1-.827,2,2,0,0,1-.29-.559,2.131,2.131,0,0,1-.1-.675,2.217,2.217,0,0,1,.194-.91,2.384,2.384,0,0,1,.9-1.031,2.552,2.552,0,0,1,.586-.274Zm3.074,4.967a2.391,2.391,0,0,1-.9,1.031,2.555,2.555,0,0,1-.586.274V54.717a2.92,2.92,0,0,1,.976.571,2.142,2.142,0,0,1,.515.693,2.074,2.074,0,0,1,.185.875,2.216,2.216,0,0,1-.193.91" transform="translate(-3315.514 -41.447)" fill="#fdfefe"/>
                <path id="Trazado_998141" data-name="Trazado 998141" d="M18.957,1277.452a9.479,9.479,0,1,1-9.479-9.479,9.479,9.479,0,0,1,9.479,9.479" transform="translate(0 -1183.464)" fill="#fadcbf"/>
                <path id="Trazado_998142" data-name="Trazado 998142" d="M34.631,1294.331a8.273,8.273,0,1,1-8.273-8.273,8.273,8.273,0,0,1,8.273,8.273" transform="translate(-16.88 -1200.343)" fill="#ffac04"/>
                <path id="Trazado_998143" data-name="Trazado 998143" d="M101.77,1310.115a2.914,2.914,0,0,0-1.114-1.238,3.782,3.782,0,0,0-1.13-.468v-3.555c.032.011.065.022.1.034a1.871,1.871,0,0,1,.828.646,1.7,1.7,0,0,1,.321,1,.606.606,0,0,0,1.211,0,2.786,2.786,0,0,0-.243-1.14,2.978,2.978,0,0,0-1.12-1.287,3.174,3.174,0,0,0-1.093-.435v-1.33a.606.606,0,0,0-1.211,0v1.321a3.235,3.235,0,0,0-.6.174,3.071,3.071,0,0,0-1.359,1.06,2.812,2.812,0,0,0-.528,1.637,2.69,2.69,0,0,0,.237,1.118,2.869,2.869,0,0,0,1.105,1.231,3.913,3.913,0,0,0,1.144.474v3.572c-.043-.014-.085-.029-.126-.045a1.872,1.872,0,0,1-.828-.646,1.7,1.7,0,0,1-.321-1,.606.606,0,0,0-1.211,0,2.787,2.787,0,0,0,.243,1.14,2.977,2.977,0,0,0,1.12,1.287,3.176,3.176,0,0,0,1.124.442v1.538a.606.606,0,0,0,1.211,0v-1.536a3.234,3.234,0,0,0,.6-.173,3.061,3.061,0,0,0,1.359-1.06,2.8,2.8,0,0,0,.528-1.637,2.662,2.662,0,0,0-.242-1.123m-3.455-1.964c-.047-.016-.093-.034-.137-.052a2,2,0,0,1-.838-.63,1.515,1.515,0,0,1-.221-.426,1.622,1.622,0,0,1-.08-.513,1.686,1.686,0,0,1,.148-.693,1.814,1.814,0,0,1,.681-.784,1.949,1.949,0,0,1,.446-.209Zm2.339,3.78a1.821,1.821,0,0,1-.682.784,1.95,1.95,0,0,1-.446.209v-3.313a2.225,2.225,0,0,1,.743.435,1.633,1.633,0,0,1,.392.527,1.578,1.578,0,0,1,.141.666,1.688,1.688,0,0,1-.147.693" transform="translate(-89.442 -1215.003)" fill="#fdfefe"/>
                <path id="Trazado_998144" data-name="Trazado 998144" d="M1515.63,2233.86a15.574,15.574,0,1,1-15.574-15.574,15.574,15.574,0,0,1,15.574,15.574" transform="translate(-1385.542 -2070.439)" fill="#fadcbf"/>
                <path id="Trazado_998145" data-name="Trazado 998145" d="M1541.384,2261.595A13.594,13.594,0,1,1,1527.79,2248a13.594,13.594,0,0,1,13.594,13.594" transform="translate(-1413.276 -2098.173)" fill="#ffac04"/>
                <path id="Trazado_998146" data-name="Trazado 998146" d="M1651.7,2287.531a4.789,4.789,0,0,0-1.83-2.034,6.212,6.212,0,0,0-1.857-.768v-5.841c.053.018.106.036.158.056a3.077,3.077,0,0,1,1.361,1.061,2.8,2.8,0,0,1,.527,1.635,1,1,0,0,0,1.989,0,4.578,4.578,0,0,0-.4-1.872,4.894,4.894,0,0,0-1.839-2.115,5.217,5.217,0,0,0-1.8-.714v-2.186a1,1,0,0,0-1.989,0v2.171a5.3,5.3,0,0,0-.983.285,5.049,5.049,0,0,0-2.234,1.742,4.623,4.623,0,0,0-.868,2.689,4.422,4.422,0,0,0,.389,1.836,4.716,4.716,0,0,0,1.816,2.023,6.437,6.437,0,0,0,1.88.779v5.868c-.07-.022-.14-.047-.208-.074a3.074,3.074,0,0,1-1.361-1.061,2.8,2.8,0,0,1-.527-1.635,1,1,0,0,0-1.989,0,4.579,4.579,0,0,0,.4,1.872,4.893,4.893,0,0,0,1.839,2.115,5.21,5.21,0,0,0,1.846.726v2.526a1,1,0,0,0,1.989,0v-2.523a5.313,5.313,0,0,0,.983-.285,5.029,5.029,0,0,0,2.234-1.742,4.6,4.6,0,0,0,.868-2.689,4.375,4.375,0,0,0-.4-1.845m-5.677-3.227c-.077-.027-.154-.055-.226-.086a3.289,3.289,0,0,1-1.377-1.034,2.5,2.5,0,0,1-.362-.7,2.67,2.67,0,0,1-.131-.844,2.773,2.773,0,0,1,.243-1.138,2.978,2.978,0,0,1,1.12-1.289,3.177,3.177,0,0,1,.733-.343Zm3.844,6.211a2.992,2.992,0,0,1-1.121,1.289,3.2,3.2,0,0,1-.733.343V2286.7a3.651,3.651,0,0,1,1.221.714,2.681,2.681,0,0,1,.644.866,2.593,2.593,0,0,1,.232,1.094,2.772,2.772,0,0,1-.242,1.138" transform="translate(-1532.504 -2122.263)" fill="#fdfefe"/>
                <path id="Trazado_998147" data-name="Trazado 998147" d="M1531.632,2974.451h-14.08c-10.731,0-20.215,25.6-20.215,33.235,0,9.385,12.222,10.068,27.3,10.068s27.3-.683,27.3-10.068c0-7.64-9.642-33.235-20.3-33.235" transform="translate(-1397.541 -2776.206)" fill="#8cbf62"/>
                <path id="Trazado_998148" data-name="Trazado 998148" d="M1968.595,3138.853s-7.69-2.036-5.834,4.369,7.525,9.848,9.613,6.038,1.69-9.944-3.779-10.407" transform="translate(-1831.674 -2929.364)" fill="#8cbf62"/>
                <path id="Trazado_998149" data-name="Trazado 998149" d="M1504.765,3143.158c-4.474,7.877-7.427,17.728-7.427,21.99,0,9.385,12.222,10.068,27.3,10.068,2.765,0,5.434-.023,7.949-.119-8.8-.891-17.037-3.455-23.609-10.028-5.559-5.733-5.818-13.845-4.211-21.912" transform="translate(-1397.542 -2933.669)" fill="#8cbf62"/>
                <path id="Trazado_998150" data-name="Trazado 998150" d="M1738.736,3131.984a10.314,10.314,0,1,1-10.314-10.314,10.315,10.315,0,0,1,10.314,10.314" transform="translate(-1603.597 -2913.613)" fill="#fadcbf"/>
                <path id="Trazado_998151" data-name="Trazado 998151" d="M1755.792,3150.352a9,9,0,1,1-9-9,9,9,0,0,1,9,9" transform="translate(-1621.964 -2931.98)" fill="#ffac04"/>
                <path id="Trazado_998152" data-name="Trazado 998152" d="M1828.852,3167.529a3.171,3.171,0,0,0-1.212-1.347,4.115,4.115,0,0,0-1.23-.509v-3.868c.035.012.07.023.1.037a2.037,2.037,0,0,1,.9.7,1.853,1.853,0,0,1,.349,1.083.66.66,0,0,0,1.318,0,3.03,3.03,0,0,0-.265-1.24,3.239,3.239,0,0,0-1.218-1.4,3.453,3.453,0,0,0-1.189-.473v-1.448a.66.66,0,0,0-1.317,0v1.438a3.5,3.5,0,0,0-.651.189,3.342,3.342,0,0,0-1.479,1.154,3.061,3.061,0,0,0-.575,1.781,2.931,2.931,0,0,0,.258,1.216,3.124,3.124,0,0,0,1.2,1.34,4.258,4.258,0,0,0,1.245.516v3.886c-.047-.015-.093-.031-.138-.049a2.038,2.038,0,0,1-.9-.7,1.854,1.854,0,0,1-.349-1.083.66.66,0,0,0-1.318,0,3.03,3.03,0,0,0,.265,1.24,3.239,3.239,0,0,0,1.218,1.4,3.451,3.451,0,0,0,1.223.481v1.673a.66.66,0,0,0,1.317,0v-1.672a3.5,3.5,0,0,0,.651-.189,3.333,3.333,0,0,0,1.479-1.154,3.045,3.045,0,0,0,.575-1.781,2.9,2.9,0,0,0-.263-1.222m-3.759-2.137c-.051-.018-.1-.037-.15-.057a2.178,2.178,0,0,1-.912-.685,1.654,1.654,0,0,1-.24-.463,1.77,1.77,0,0,1-.087-.559,1.839,1.839,0,0,1,.161-.754,1.973,1.973,0,0,1,.742-.853,2.113,2.113,0,0,1,.486-.227Zm2.545,4.113a1.981,1.981,0,0,1-.742.854,2.1,2.1,0,0,1-.486.227v-3.605a2.42,2.42,0,0,1,.808.473,1.778,1.778,0,0,1,.426.574,1.718,1.718,0,0,1,.153.724,1.836,1.836,0,0,1-.16.754" transform="translate(-1700.926 -2947.935)" fill="#fdfefe"/>
                <path id="Trazado_998153" data-name="Trazado 998153" d="M1752.8,2909.461H1734.59a2,2,0,0,1-2-2v-.64a2,2,0,0,1,2-2H1752.8a2,2,0,0,1,2,2v.64a2,2,0,0,1-2,2" transform="translate(-1617.114 -2711.216)" fill="#384c27"/>
                <path id="Trazado_998154" data-name="Trazado 998154" d="M1740.564,2749.107a23.825,23.825,0,0,1-1.236,2.04h-18.21s-3.317-3.29-2.93-5.75a2.279,2.279,0,0,1,.932-1.51c3.016-2.288,6.2,2.785,6.2,2.785s-.893-5.867,3.68-6.465,4.874,6.663,4.874,6.663,1.59-7.458,6.562-5.968c3.435,1.03,1.6,5.524.131,8.205" transform="translate(-1603.643 -2557.542)" fill="#8cbf62"/>
                <path id="Trazado_998155" data-name="Trazado 998155" d="M1722.986,2823.1c.845.469,1.548.873,2.123,1.211h-3.993s-3.317-3.29-2.93-5.75a19.407,19.407,0,0,0,4.8,4.539" transform="translate(-1603.642 -2630.704)" fill="#8cbf62"/>
                <path id="Trazado_998156" data-name="Trazado 998156" d="M1882.6,2872.692a23.845,23.845,0,0,1-1.236,2.04h-11.029a18.207,18.207,0,0,1,1.925-1.551c2.383-1.691,1.738.728,4.216.829a21.412,21.412,0,0,0,6.124-1.317" transform="translate(-1745.678 -2681.127)" fill="#8cbf62"/>
                <path id="Trazado_998157" data-name="Trazado 998157" d="M5148.069,1370.557h-5.521v.418a.279.279,0,1,1-.558,0v-.418h-44.1v-1.762a.968.968,0,0,1-.642.073.981.981,0,0,1-.2-.069v2.176a.419.419,0,0,0,.419.418h50.512l.562-.468Z" transform="translate(-4757.342 -1277.566)" fill="#7ca5df"/>
                <path id="Trazado_998158" data-name="Trazado 998158" d="M5097.476,885.245a.279.279,0,1,1,0-.558h.337c.027-.042.054-.085.082-.127V879.9h-.419a.279.279,0,1,1,0-.558h.419v-4.792h-.419a.279.279,0,1,1,0-.558h.419V869.2h-.419a.279.279,0,1,1,0-.558h.419v-5.266h-.419a.279.279,0,1,1,0-.558h.419v-7.837l-.468-.558-.37.476V886.1c.118-.265.26-.555.427-.859Z" transform="translate(-4757.342 -797.472)" fill="#7ca5df"/>
                <path id="Trazado_998159" data-name="Trazado 998159" d="M5771.518,1152.5h-.279v4.792h.279a.279.279,0,0,1,.279.279v-5.35a.279.279,0,0,1-.279.279" transform="translate(-5386.59 -1075.425)" fill="#7ca5df"/>
                <path id="Trazado_998160" data-name="Trazado 998160" d="M5771.52,1313.042h-.279v5.636a.279.279,0,1,0,.558,0v-5.915a.279.279,0,0,1-.278.279" transform="translate(-5386.592 -1225.268)" fill="#7ca5df"/>
                <path id="Trazado_998161" data-name="Trazado 998161" d="M5771.239,1022.373h.279a.279.279,0,0,1,.279.279v-3.52c-.168.36-.354.73-.558,1.1Z" transform="translate(-5386.59 -951.208)" fill="#7ca5df"/>
                <path id="Trazado_998162" data-name="Trazado 998162" d="M5771.52,1232.769h-.279v4.792h.279a.279.279,0,0,1,.278.279v-5.35a.279.279,0,0,1-.278.279" transform="translate(-5386.592 -1150.345)" fill="#7ca5df"/>
                <path id="Trazado_998163" data-name="Trazado 998163" d="M5771.518,1072.225h-.279v4.792h.279a.279.279,0,0,1,.279.279v-5.35a.279.279,0,0,1-.279.279" transform="translate(-5386.59 -1000.502)" fill="#7ca5df"/>
                <path id="Trazado_998164" data-name="Trazado 998164" d="M5099.149,980.656a.279.279,0,0,0,.279.279h43.821q.116-.3.211-.558h-44.033a.279.279,0,0,0-.279.279" transform="translate(-4759.295 -915.036)" fill="#7ca5df"/>
                <path id="Trazado_998165" data-name="Trazado 998165" d="M5099.429,1067.759a.279.279,0,1,0,0,.558h35.495a5.911,5.911,0,0,1,1.747-.269,6,6,0,0,1,1.061.1,2.567,2.567,0,0,0,1.588-.217,3.406,3.406,0,0,0,.309-.167h-40.2Z" transform="translate(-4759.295 -996.594)" fill="#7ca5df"/>
                <path id="Trazado_998166" data-name="Trazado 998166" d="M5744.535,1067.759h-1.7q-.24.289-.5.558h2.206a.279.279,0,0,0,.279-.279h0a.279.279,0,0,0-.279-.279" transform="translate(-5359.607 -996.594)" fill="#7ca5df"/>
                <path id="Trazado_998167" data-name="Trazado 998167" d="M5099.429,1148.031a.279.279,0,1,0,0,.558h29.405q.2-.281.407-.558h-29.812Z" transform="translate(-4759.295 -1071.516)" fill="#7ca5df"/>
                <path id="Trazado_998168" data-name="Trazado 998168" d="M5594.038,1148.031h-12.5q-.229.272-.452.558h12.953a.279.279,0,0,0,.278-.279h0a.279.279,0,0,0-.278-.279" transform="translate(-5209.11 -1071.516)" fill="#7ca5df"/>
                <path id="Trazado_998169" data-name="Trazado 998169" d="M5099.429,1228.3a.279.279,0,1,0,0,.558h25.738c.133-.176.271-.364.409-.558h-26.147Z" transform="translate(-4759.295 -1146.438)" fill="#7ca5df"/>
                <path id="Trazado_998170" data-name="Trazado 998170" d="M5542.218,1228.3h-16.271c-.128.189-.255.374-.383.558h16.653a.279.279,0,0,0,.279-.279h0a.279.279,0,0,0-.279-.279" transform="translate(-5157.291 -1146.438)" fill="#7ca5df"/>
                <path id="Trazado_998171" data-name="Trazado 998171" d="M5099.149,1308.855a.279.279,0,0,0,.279.279h.008c.1-.182.21-.368.329-.558h-.337a.279.279,0,0,0-.279.279" transform="translate(-4759.295 -1221.36)" fill="#7ca5df"/>
                <path id="Trazado_998172" data-name="Trazado 998172" d="M5180.559,1308.576h-42.032c-.16.184-.311.37-.447.558h42.479a.279.279,0,0,0,0-.558" transform="translate(-4795.631 -1221.36)" fill="#7ca5df"/>
                <path id="Trazado_998173" data-name="Trazado 998173" d="M5090.077,977.54a.97.97,0,0,0,.531-.652h0a7.1,7.1,0,0,1,.332-.958,9.167,9.167,0,0,1,1.034-1.845c.136-.187.287-.374.447-.558a7.4,7.4,0,0,1,.646-.66,6.721,6.721,0,0,1,2.012-1.249,7.7,7.7,0,0,1,2.872-.517,12.656,12.656,0,0,1,3.643.592,32.691,32.691,0,0,0,8.812,1.767,8.453,8.453,0,0,0,2.353-.3,6.613,6.613,0,0,0,2.722-1.569,16.016,16.016,0,0,0,2.126-2.571c.064-.092.129-.188.193-.282.127-.184.255-.369.383-.558.519-.769,1.041-1.57,1.574-2.362.566-.842,1.148-1.67,1.744-2.43q.225-.286.452-.558a14.907,14.907,0,0,1,1.251-1.341,7.662,7.662,0,0,1,1.826-1.31,4.2,4.2,0,0,1,1.87-.458,4.059,4.059,0,0,1,.717.065,4.52,4.52,0,0,0,2.773-.377,6.482,6.482,0,0,0,1.857-1.371q.262-.269.5-.558c.073-.088.146-.177.216-.267a14.228,14.228,0,0,0,1.209-1.872c.2-.372.39-.741.558-1.1.2-.419.371-.825.521-1.2a21.961,21.961,0,0,0,.759-2.2.976.976,0,1,0-1.884-.511h0c0,.013-.152.55-.436,1.33q-.1.263-.211.558a19.448,19.448,0,0,1-.97,2.1,10.134,10.134,0,0,1-1.877,2.573,4.631,4.631,0,0,1-.775.59,3.391,3.391,0,0,1-.31.167,2.616,2.616,0,0,1-1.122.26,2.646,2.646,0,0,1-.466-.042,5.991,5.991,0,0,0-1.062-.1,5.908,5.908,0,0,0-1.746.269c-.04.012-.082.022-.121.035a8.308,8.308,0,0,0-2.805,1.668,19.2,19.2,0,0,0-2.757,3.089q-.206.277-.407.558l-.215.3c-1.016,1.447-1.952,2.942-2.842,4.209-.068.1-.134.189-.2.282-.139.194-.275.382-.409.558-.221.292-.437.561-.648.8a5.744,5.744,0,0,1-1.827,1.475,5.652,5.652,0,0,1-2.517.492,31.1,31.1,0,0,1-8.249-1.684,14.593,14.593,0,0,0-4.207-.675,9.317,9.317,0,0,0-4.625,1.146,8.949,8.949,0,0,0-2.281,1.837,10.2,10.2,0,0,0-.967,1.269l-.082.127q-.179.285-.33.558c-.167.3-.308.594-.426.859-.01.022-.021.046-.03.068a8.969,8.969,0,0,0-.5,1.429.976.976,0,0,0,.532,1.1,1,1,0,0,0,.2.069.969.969,0,0,0,.642-.073" transform="translate(-4749.524 -886.311)" fill="#7ca5df"/>
                <path id="Trazado_998174" data-name="Trazado 998174" d="M5075.427,839.779l.864,1.033a.418.418,0,0,0,.642-.537l-1.666-1.989a.418.418,0,0,0-.651.012l-1.543,1.989a.419.419,0,0,0,.662.513h0l.855-1.1.37-.476Z" transform="translate(-4734.875 -782.274)" fill="#7ca5df"/>
                <path id="Trazado_998175" data-name="Trazado 998175" d="M5846.129,1372.852l-2-1.538a.418.418,0,1,0-.511.663h0l1.1.85.479.369-.561.467-1.032.859a.418.418,0,1,0,.535.643l2-1.661a.418.418,0,0,0-.012-.653" transform="translate(-5453.998 -1279.835)" fill="#7ca5df"/>
                <path id="Trazado_998176" data-name="Trazado 998176" d="M1145.325,234.491l2.58-1.709s-.838-8.185-6.043-6.97c1.387,2.732,3.27,6.107,3.463,8.679" transform="translate(-1065.758 -210.647)" fill="#112638"/>
                <path id="Trazado_998177" data-name="Trazado 998177" d="M1513.062,1382.684c-.724.565-3.658-3.186-3.931-2.8s3.683,4.129,2.363,4.779-3.546-4.325-3.767-3.61,3.024,3.674,1.981,4.389-3.3-3.769-3.546-3.446,2.419,3.317,1.758,3.9c-.513.456-2.593-2.079-3.489-3.225a3.227,3.227,0,0,1-.369-.575,30,30,0,0,1-4.785-6.294l3.755-2.45s2.212.659,3.753,1.08a4.3,4.3,0,0,0,2.686-.246c1.25-.538,2.383-1.478,2.363-.646a2.539,2.539,0,0,1-2.28,2.378c-1.061.136-1.289.431-.814.955.158.175,1.833,1.879,1.833,1.879,1.289,1.228,3.4,3.22,2.49,3.927" transform="translate(-1399.351 -1281.692)" fill="#fbaf7e"/>
                <path id="Trazado_998178" data-name="Trazado 998178" d="M1008.4,2130.252l-5.739,4.213-11.749-6.239-3.108-1.652a37.857,37.857,0,0,1,.8-5.46,46.777,46.777,0,0,0,.748-6.49l-.036,0c-1.886-19.477-4.207-50.96-.17-62.042l-5.039-19.949-.4-1.568s20.325-4.266,20.325,2.009a148.262,148.262,0,0,1,0,18.116c-1.283,19.033-4.461,47.068-5.53,57.854-.276,2.79-.3,4.6-.3,4.6a31.709,31.709,0,0,0,1.995,7.447,18.267,18.267,0,0,0,8.194,9.154" transform="translate(-918.146 -1894.378)" fill="#fbaf7e"/>
                <path id="Trazado_998179" data-name="Trazado 998179" d="M996.458,2170.019l-3.108-1.652a37.866,37.866,0,0,1,.8-5.46,46.758,46.758,0,0,0,.748-6.49l-.036,0c-1.886-19.477-4.207-50.96-.17-62.042l-5.039-19.948h3.7s3.418,17.329,2.723,20.016c-.431,3.492-1.718,9.542-1.856,15.447-.437,18.649,1.678,43.7,2.241,45.612.742,2.52,0,14.514,0,14.514" transform="translate(-923.693 -1936.171)" fill="#e89160"/>
                <path id="Trazado_998180" data-name="Trazado 998180" d="M1053.665,3410.044c-.325-.185-.67-.376-1.04-.573l-.266-.14a4.67,4.67,0,0,0-.768-2.571c-1.034-1.453-6.455-3.018-6.455-3.018l.447-1.788a41.788,41.788,0,0,1,6.173,3.207,4.3,4.3,0,0,1,.981.893,5.512,5.512,0,0,1,.781,2.249,13.035,13.035,0,0,1,.147,1.742" transform="translate(-975.479 -3175.218)" fill="#402b16"/>
                <path id="Trazado_998181" data-name="Trazado 998181" d="M1066.349,3489.069c0,.084-9.057.631-12.3-.1s-6.9-5.393-9.3-6.287-2.347,6.287-2.347,6.287h-1.733s-.252-3.129-.447-5.672a6.025,6.025,0,0,0-1.788-3.912c.766-.766,3.514-.273,7.67,1.9l.266.14c.37.2.716.388,1.04.573h0c3.445,1.967,4.429,3.248,5.834,3.478,1.537.252,6.231-2.431,6.231-2.431a9.344,9.344,0,0,0,2.965,2.741c.536.349,2.785.625,3.949,1.3,1.066.621-.037,1.953-.037,1.975" transform="translate(-969.22 -3247.175)" fill="#402b16"/>
                <path id="Trazado_998182" data-name="Trazado 998182" d="M1152,3373.021l-5.777,3.574a5.509,5.509,0,0,0-.781-2.249,4.3,4.3,0,0,0-.981-.893c1.073-.909,5.649-5.471,5.649-5.471Z" transform="translate(-1068.182 -3143.509)" fill="#402b16"/>
                <path id="Trazado_998183" data-name="Trazado 998183" d="M1453.277,1325.577l3.469,3.051c2.138-.751,3.826-1.844,4.337-3.834l-3.167-3.35Z" transform="translate(-1356.417 -1233.37)" fill="#a88565"/>
                <path id="Trazado_998184" data-name="Trazado 998184" d="M558.178,2135.935a18.272,18.272,0,0,0,3.97,11.626l-6.93,1.635-9-11.093-1.6-1.97a37.8,37.8,0,0,1,2.868-4.715,68.977,68.977,0,0,0,4.057-7.36c2.4-10.259,4.883-26.569,7.385-37.944a83.116,83.116,0,0,1,3.786-12.083l-1.258-19.714-.248-3.867s18.11-2.849,18.11,3.423c0,1.961-.419,8.6-2.4,20.507-3.945,23.7-17,52.042-17,52.042s-1.529,2.929-1.749,9.514" transform="translate(-508.325 -1913.185)" fill="#fbaf7e"/>
                <path id="Trazado_998185" data-name="Trazado 998185" d="M563.8,2112.739c-4.64,11.007-11.073,48-11.073,50.852-3.594,6.629-5.89,11.8-6.5,13.205l-1.6-1.97a37.784,37.784,0,0,1,2.868-4.715,69.01,69.01,0,0,0,4.057-7.36c2.4-10.259,4.883-26.569,7.385-37.944a83.128,83.128,0,0,1,3.786-12.083l-1.258-19.714,4.857-1.749s-3.182,19.225-2.52,21.48" transform="translate(-508.325 -1951.878)" fill="#e89160"/>
                <path id="Trazado_998186" data-name="Trazado 998186" d="M571.518,3282.9c-.227-.3-.47-.608-.734-.934l-.19-.233a4.669,4.669,0,0,0,.3-2.666c-.385-1.741-4.765-5.3-4.765-5.3l1.11-1.472a41.784,41.784,0,0,1,4.431,5.362,4.3,4.3,0,0,1,.554,1.205,5.509,5.509,0,0,1-.159,2.375,13.089,13.089,0,0,1-.544,1.662" transform="translate(-528.395 -3054.201)" fill="#402b16"/>
                <path id="Trazado_998187" data-name="Trazado 998187" d="M536.679,3361.63c-.033.077-8.584-2.956-11.285-4.89s-4.249-7.66-6.112-9.421-4.616,4.871-4.616,4.871l-1.6-.676s.99-2.979,1.8-5.4a6.025,6.025,0,0,0-.119-4.3c1-.406,3.342,1.121,6.319,4.743l.19.233c.264.326.507.637.734.934h0c2.4,3.156,2.81,4.719,4.013,5.48,1.316.832,6.686.195,6.686.195a9.344,9.344,0,0,0,1.66,3.681c.358.531,2.32,1.663,3.127,2.743.739.988-.8,1.783-.805,1.8" transform="translate(-478.876 -3119.029)" fill="#402b16"/>
                <path id="Trazado_998188" data-name="Trazado 998188" d="M656.367,3315.655l-6.714,1.034a5.51,5.51,0,0,0,.159-2.375,4.3,4.3,0,0,0-.554-1.2c1.343-.417,7.337-2.831,7.337-2.831Z" transform="translate(-605.985 -3089.651)" fill="#402b16"/>
                <path id="Trazado_998189" data-name="Trazado 998189" d="M1250.866,730.031c-5.687-4.684-9.479-32.164-9.479-32.164l2.453,37.516c.223.781,10.928,8.364,12.378,8.7s4.349-4.126,4.349-4.126a68.5,68.5,0,0,0-9.7-9.925" transform="translate(-1158.65 -651.355)" fill="#f0ece9"/>
                <path id="Trazado_998190" data-name="Trazado 998190" d="M1280.157,1202.612a39.14,39.14,0,0,1-6.165-6.169l.28,4.287c.223.781,10.928,8.364,12.378,8.7a1.852,1.852,0,0,0,1.4-.59c-1.566-1.331-5.376-4.522-7.891-6.225" transform="translate(-1189.081 -1116.701)" fill="#e0b186"/>
                <path id="Trazado_998191" data-name="Trazado 998191" d="M1261.52,959.35a26.692,26.692,0,0,1,.826-8.323c-.383-1.348-.577-2.144-.913-3.54l-.311-.169-1.664,1.792,1.249,19.1a10.07,10.07,0,0,0,2.039,1.808c-.318-2.948-.909-8.34-1.226-10.665" transform="translate(-1175.516 -884.179)" fill="#a88565"/>
                <path id="Trazado_998192" data-name="Trazado 998192" d="M780.467,1311.47s5.014,31.542,1.732,56.337c-18.232.729-37.558,0-37.558,0s-.558-24.814-.729-36.829,7.574-21.552,7.574-21.552Z" transform="translate(-694.328 -1222.155)" fill="#384c27"/>
                <path id="Trazado_998193" data-name="Trazado 998193" d="M716.236,260.606a3.82,3.82,0,0,0-7.268.148c-.818,2.715,1.476,5.68.57,8.366-.63,1.867-2.564,2.9-4.287,3.856s-3.57,2.288-3.755,4.249c-.25,2.639,2.687,4.944,2.062,7.52-.442,1.823-2.521,2.884-2.987,4.7a3.611,3.611,0,0,0,1.282,3.529,5.937,5.937,0,0,0,3.682,1.241,17.671,17.671,0,0,0,3.921-.487l13.621-5.141-3.68-22.972Z" transform="translate(-653.794 -240.837)" fill="#0b1923"/>
                <path id="Trazado_998194" data-name="Trazado 998194" d="M852.606,610.268c-2.006,3.828-1.1,5.747-.826,13.314s.455,8.476.547,8.934c.036.187-5,3.022-10.934,2.885a74.464,74.464,0,0,1-16.043-2.645c-1.716-.455-2.773-.787-2.773-.787a23.714,23.714,0,0,0,2.857-13.674c-.226-2-.6-4.121-1.035-6.269-1.956-9.623-5.192-19.946-2.43-24.178,5.714-8.752,16.592-5.106,16.592-5.106s10.677,2.106,11.59,7.575,6.283,11.838,2.455,19.951" transform="translate(-766.187 -543.199)" fill="#f0ece9"/>
                <path id="Trazado_998195" data-name="Trazado 998195" d="M850.175,839.627c1.28-4.085,1.919-11.862-.25-13.17l-3.427,7.394c.842,3.742,1.711,7.476,2.253,11.264h0c1.585,6.469-2.64,15.583-2.683,15.029,0,0,1.057.332,2.773.787,4.657-4.381,2.5-16.259,1.334-21.3" transform="translate(-789.678 -771.374)" fill="#e0b186"/>
                <path id="Trazado_998196" data-name="Trazado 998196" d="M510.262,1348.32l21.713.125,2.652.8-4.739,21.724-24.8-1.591-2.652-.8Z" transform="translate(-468.952 -1258.456)" fill="#996702"/>
                <path id="Trazado_998197" data-name="Trazado 998197" d="M507.61,1336.317l24.364.925-4.739,21.724-24.8-1.591Z" transform="translate(-468.952 -1247.252)" fill="#ffde9a"/>
                <path id="Trazado_998198" data-name="Trazado 998198" d="M604.113,1522.879c2.669-.046,1.963-1.243-.523-1.74a20.586,20.586,0,0,0-2.2-1.31c-.679-.338-1.1-1.937-1.177-2.376a44.889,44.889,0,0,1-.182-4.624l-4.873-.6s.378,2.733-.573,4.249a11.52,11.52,0,0,0-1.517,5.932l7.115,1.016.274-.822Z" transform="translate(-553.545 -1411.443)" fill="#fbaf7e"/>
                <path id="Trazado_998199" data-name="Trazado 998199" d="M868.206,843.99s.572.945-.124,3.356a60.823,60.823,0,0,0-1.481,10.525c.1,1.168-.216,4.963-.216,4.963s-1.61-8.378-1.61-8.477,3.431-10.367,3.431-10.367" transform="translate(-807.138 -787.739)" fill="#a88565"/>
                <path id="Trazado_998200" data-name="Trazado 998200" d="M649.461,651.856a146.405,146.405,0,0,0-5.634,17.453c-1.763,7.136-7.736,24.747-7.736,24.747l-4.2-1.227-1.758-.515s-.784-11.13,3.591-20.779c3.973-8.755,3.217-24.964,9.659-31.422a9.845,9.845,0,0,1,2.162-1.652Z" transform="translate(-588.088 -595.907)" fill="#f0ece9"/>
                <path id="Trazado_998201" data-name="Trazado 998201" d="M643.386,663.243c-1.627,3.845-4.523,11.077-4.665,14.17-.2,4.31-1.564,12.807-4.575,18.7-2.405,4.71-2.055,15.276-2.253,19.842l-1.758-.515s-.784-11.13,3.591-20.78c3.973-8.755,3.217-24.964,9.659-31.422" transform="translate(-588.087 -619.038)" fill="#e0b186"/>
                <path id="Trazado_998202" data-name="Trazado 998202" d="M983.268,475.461c-3.831,1-9.3-5.287-9.3-5.287.019,0,.209-.056.438-2.483.3-3.167-1.2-7.435-1.2-7.435l10,4.76a10.986,10.986,0,0,0-.324,1.593,8.854,8.854,0,0,0-.067.929,7.445,7.445,0,0,0,.2,1.925,6.988,6.988,0,0,0,.329,1.03,7.439,7.439,0,0,0,.96,1.691s2.8,2.274-1.032,3.278" transform="translate(-908.341 -429.579)" fill="#fbaf7e"/>
                <path id="Trazado_998203" data-name="Trazado 998203" d="M1058.341,525.061a6,6,0,0,1-4.428-5.237c2.109.4,3.566,2.045,4.3,2.383a7.336,7.336,0,0,0-.067.929,7.445,7.445,0,0,0,.2,1.925" transform="translate(-983.671 -485.178)" fill="#e89160"/>
                <path id="Trazado_998204" data-name="Trazado 998204" d="M963.154,218.217a12.122,12.122,0,0,1,2.285,8.88c.514,4.407-.239,9.311-4.051,10.984-2.443,1.072-6.772-3.729-6.772-3.729l-5.227-1.843s.13.591-.613-8.955c-.942-12.086,11.886-8.477,14.378-5.337" transform="translate(-885.495 -200.817)" fill="#fbaf7e"/>
                <path id="Trazado_998205" data-name="Trazado 998205" d="M909.982,210c-2.349,1.02-2.565,4.761-2.565,4.761s1.46.5-2.464,4.92c-2.59.263-7.77-16.2,0-19.878s12.882,1.307,12.882,1.307c.816,3.829-2.663,7.416-7.854,8.889" transform="translate(-840.81 -185.219)" fill="#112638"/>
                <path id="Trazado_998206" data-name="Trazado 998206" d="M959.437,371.474c2.188-1.869,3.6,1.139,3.6,1.139l-.638,4.057c-1.84.121-2.593-.427-2.871-1.994-.142-.8-.832-2.57-.092-3.2" transform="translate(-895.177 -346.145)" fill="#fbaf7e"/>
                <path id="Trazado_998207" data-name="Trazado 998207" d="M613.935,1448.189l-.845,5.318-6.746-1.482,1.636-5.58Z" transform="translate(-565.931 -1350.04)" fill="#a88565"/>
                <path id="Trazado_998208" data-name="Trazado 998208" d="M963.321,583.152s-1.16.729.53,2.784,4.592,3.514,4.666,4.939a1.8,1.8,0,0,0,2.177,1.732,2.974,2.974,0,0,0,2.207-1.964c-.033,2.254-2.1,2.95-3.786,1.989s-1.817-2.983-3.209-3.978-4.851-3.911-3.685-5.967c0,0,1.059-.864,1.676-.78l-.267,1.248s-.19-.11-.309,0" transform="translate(-897.869 -543.119)" fill="#e0b186"/>
                <path id="Trazado_998209" data-name="Trazado 998209" d="M1138.7,695.617s3.514,1.591,4.044-.961c.431,1.757-2.088,3.083-4.044.961" transform="translate(-1062.805 -648.358)" fill="#e0b186"/>
                <path id="Trazado_998210" data-name="Trazado 998210" d="M1160.028,630.5s-.133.829,1.127,1.823,1.26,1.227,1.26,1.227a2.687,2.687,0,0,0-1.26-1.525c-1.131-.771-1.127-1.525-1.127-1.525" transform="translate(-1082.709 -588.474)" fill="#e0b186"/>
                <path id="Trazado_998211" data-name="Trazado 998211" d="M1144.323,384.786c-.051-.18-.11-.356-.171-.531-.123-.351-.255-.7-.385-1.03-.261-.664-.516-1.268-.708-1.706a4.948,4.948,0,0,0-.341-.709,3.24,3.24,0,0,0,.284.95c.219.616.578,1.514.988,2.672.021.062.07.2.125.389a1.88,1.88,0,0,1,.068.3c0,.03,0,.009,0,.015l-.043.027a.829.829,0,0,1-.167.057,5.7,5.7,0,0,1-.827.118l-.415.032-.2.013-.3.012.127.223.078.13c.047.075.09.141.126.194.074.106.125.163.145.15a.551.551,0,0,0-.068-.186l-.1-.207-.058-.12-.017-.044.062,0,.2,0c.137,0,.284-.007.439-.016a4,4,0,0,0,1.015-.153l.073-.036a.211.211,0,0,0,.078-.061l.038-.05.014-.064a.415.415,0,0,0,0-.091,2.313,2.313,0,0,0-.064-.28" transform="translate(-1066.106 -355.428)" fill="#2e354b"/>
                <path id="Trazado_998212" data-name="Trazado 998212" d="M1069.282,358.31a3.773,3.773,0,0,1,.58.081c.341.071.562.162.586.114.055-.071-.062-.252-.391-.434a2.312,2.312,0,0,0-1.624-.185,3.058,3.058,0,0,0-.4.136l-.3.159c-.1.071-.2.146-.292.223-.364.333-.556.745-.417.839.025.018.086-.012.171-.077s.189-.171.334-.269a2.565,2.565,0,0,1,1.755-.587" transform="translate(-995.863 -333.969)" fill="#2e354b"/>
                <path id="Trazado_998213" data-name="Trazado 998213" d="M1160.822,356.047a2.089,2.089,0,0,0-1.127-.275,2.047,2.047,0,0,0-1.111.381c-.261.189-.379.38-.347.419.068.06.227.014.479-.075a3.353,3.353,0,0,1,1.06-.221,3.472,3.472,0,0,1,.711.1c.313.077.623.185.72.03.029-.046-.112-.2-.384-.355" transform="translate(-1081.036 -332.058)" fill="#2e354b"/>
                <path id="Trazado_998214" data-name="Trazado 998214" d="M1170.042,382.18a1.227,1.227,0,0,0-.456-.19,1.037,1.037,0,0,0-.686.083,1.27,1.27,0,0,0-.245.178,1.767,1.767,0,0,0-.3.383c-.173.289-.252.6-.181.617.025.009.1-.15.24-.37a1.692,1.692,0,0,1,.634-.644.953.953,0,0,1,.458-.062,1.4,1.4,0,0,1,.408.109c.233.1.368.214.382.2.03-.02-.036-.151-.254-.3" transform="translate(-1090.291 -356.508)" fill="#2e354b"/>
                <path id="Trazado_998215" data-name="Trazado 998215" d="M1081.573,387.3a1.509,1.509,0,0,0-1.113-.38,2.277,2.277,0,0,0-1.08.455c-.255.2-.384.371-.371.388s.152-.067.4-.22a2.643,2.643,0,0,1,1.141-.419,1.056,1.056,0,0,1,.29.022,1.671,1.671,0,0,1,.465.183c.314.174.557.425.613.378.018-.016-.1-.2-.342-.407" transform="translate(-1007.092 -361.123)" fill="#2e354b"/>
                <path id="Trazado_998216" data-name="Trazado 998216" d="M1097.246,391.6a.787.787,0,1,1-.843-.726.787.787,0,0,1,.843.726" transform="translate(-1022.649 -364.816)" fill="#2e354b"/>
                <path id="Trazado_998217" data-name="Trazado 998217" d="M1176.576,386.548a.64.64,0,1,1-.686-.59.64.64,0,0,1,.686.59" transform="translate(-1096.966 -360.232)" fill="#2e354b"/>
                <path id="Trazado_998218" data-name="Trazado 998218" d="M1125.968,481l-2.765.1a1.286,1.286,0,0,0,1.383,1.114,1.37,1.37,0,0,0,1.383-1.212" transform="translate(-1048.342 -448.945)" fill="#a64c44"/>
                <path id="Trazado_998219" data-name="Trazado 998219" d="M974.805,394.114c-2.042-1-2.049,2.12-.351,2.448,1.12.1-1.052-.489-.824-1.74-.147-1.232,2.889.379,1.175-.709" transform="translate(-908.359 -367.663)" fill="#e89160"/>
                <path id="Trazado_998220" data-name="Trazado 998220" d="M601.788,1662.05s-.812,2.349-1.88,1.615a1.575,1.575,0,0,1-1.152.625.9.9,0,0,1-.915-.477v0a.213.213,0,0,1-.019-.034c-.265.145-.458.558-.876.614-.293.045-.7-.089-1.311-.614a2.479,2.479,0,0,1-1.055.092c-.9-.25-1.518-1.646-1.518-1.646l.028-1.091,6.721.357.073.011Z" transform="translate(-553.534 -1550.419)" fill="#fbaf7e"/>
                <path id="Trazado_998221" data-name="Trazado 998221" d="M697.088,1668.544c.109.023,1.313-.112,1.408-.547a7.473,7.473,0,0,0-1.524-.493s-.742.853.116,1.04" transform="translate(-650.241 -1556.366)" fill="#e89160"/>
                <path id="Trazado_998222" data-name="Trazado 998222" d="M616.889,1690.533a4.155,4.155,0,0,1-1.055.092c.117-.374.332-.812.692-.826.611-.025.363.734.363.734" transform="translate(-574.789 -1577.175)" fill="#e89160"/>
                <path id="Trazado_998223" data-name="Trazado 998223" d="M651.672,1692.107a.211.211,0,0,1-.02-.034c-.265.145-.458.558-.876.614a1.291,1.291,0,0,1,.477-1.222c.276-.128.4.547.418.642" transform="translate(-607.365 -1578.716)" fill="#e89160"/>
                <path id="Trazado_998224" data-name="Trazado 998224" d="M679.651,1691.017a1.575,1.575,0,0,1-1.152.625,2.132,2.132,0,0,1,.605-1.138c.313-.3.547.513.547.513" transform="translate(-633.278 -1577.771)" fill="#e89160"/>
                <path id="Trazado_998225" data-name="Trazado 998225" d="M4244.069,203.526s-1.11,5.711-.681,7.492a13.24,13.24,0,0,0,1.395,3.353l2.752-9.063Z" transform="translate(-3960.478 -189.961)" fill="#112638"/>
                <path id="Trazado_998226" data-name="Trazado 998226" d="M3472.607,463.44l-5.122,3.778a29.4,29.4,0,0,0-2.536-4.146c-.909-1-2.444-1.987-3.591-3.033s-3.85-7.363-4.121-8.83a1.94,1.94,0,0,1,.377-1.3c.053-.084.109-.167.17-.251a5.754,5.754,0,0,1,.748-.831c.078-.073.156-.142.237-.209a5.524,5.524,0,0,1,1.1-.728c.086-.039.17-.078.254-.109a1.465,1.465,0,0,1,1.214-.047c1.256.692,7.179,6.788,7.179,6.788l1.06-3.635a1.166,1.166,0,0,1,2-.368s-.246,5.714-.4,6.643-.854,1.325-.807,2.344,2.24,3.937,2.24,3.937" transform="translate(-3226.799 -417.787)" fill="#fbaf7e"/>
                <path id="Trazado_998227" data-name="Trazado 998227" d="M4129.423,3349.236s-.762.377-1.9.834v0c-2.28.918-6.077,2.168-8.373,1.417-3.449-1.127-2.322-1.194-2.322-1.194l.173-4.347.12-3.036,11.021-1.381a19.955,19.955,0,0,0,1.283,7.7" transform="translate(-3842.279 -3118.823)" fill="#fbaf7e"/>
                <path id="Trazado_998228" data-name="Trazado 998228" d="M4134.312,3349.236s-.762.377-1.9.834c-.134-.552-.432-1.724-1.141-4.221-2.449.519-7.153.262-9.38.1l.12-3.036,11.021-1.381a19.965,19.965,0,0,0,1.283,7.7" transform="translate(-3847.167 -3118.823)" fill="#e89160"/>
                <path id="Trazado_998229" data-name="Trazado 998229" d="M3607.134,659.812l-5.845,14.486-5.033,12.477a12.128,12.128,0,0,1-5.334,2.969,12.254,12.254,0,0,1-10.46-2.062c-2.712-2.059-4.336-5.125-5.879-8.091q-3.951-7.587-7.9-15.18s4.246-4.4,7.441-4.944c1.738-.3,1.619,1.155,2.6,2.441,1.219,1.607,2.693,3.664,3.915,5.271,1.591,2.1,4.465,6.668,6.555,8.314l2.475-.711a87.8,87.8,0,0,0,17.468-14.969" transform="translate(-3328.967 -615.476)" fill="#ffac04"/>
                <path id="Trazado_998230" data-name="Trazado 998230" d="M3591.223,729.673a18.52,18.52,0,0,1-11.3-6.609c-2.79-3.476-4.208-7.819-6.144-11.834a23.008,23.008,0,0,0-4.906-7.02,29.383,29.383,0,0,0-2.192,2l7.9,15.182c1.543,2.966,3.168,6.031,5.88,8.091a12.268,12.268,0,0,0,14.127.427,18.025,18.025,0,0,1-3.366-.235" transform="translate(-3328.969 -657.275)" fill="#e57123"/>
                <path id="Trazado_998231" data-name="Trazado 998231" d="M3865.117,3426.867c8-1.121,16.717-1.855,19.812-2.1a22.141,22.141,0,0,0-1.911-9.537c-3.779,6.166-12,2.376-12,2.376s-1.122,1.8-9.973,2.895c-6.234.77-7.73,4.351-8.071,6.4a38.052,38.052,0,0,0,12.148-.038" transform="translate(-3596.172 -3187.609)" fill="#dd7833"/>
                <path id="Trazado_998232" data-name="Trazado 998232" d="M4597.681,3356.19s-.583.287-1.492.67c-.192.078-.4.165-.62.251-2.3.907-5.934,2.062-8.164,1.334-3.449-1.127-2.321-1.194-2.321-1.194l-.586-2.62-.46-2.07,11.721-4a15.99,15.99,0,0,0,1.769,7.017Z" transform="translate(-4278.516 -3125.385)" fill="#fbaf7e"/>
                <path id="Trazado_998233" data-name="Trazado 998233" d="M4597.527,3355.583c-.485.469-.976.938-1.339,1.278a3.5,3.5,0,0,1-.589.491c-.02-.006-.025-.092-.031-.24-.022-.912.067-4.171-1.727-5.792-1.6,1.546-7.865,2.988-9.344,3.312l-.46-2.07,11.721-4a22.128,22.128,0,0,0,1.769,7.017" transform="translate(-4278.516 -3125.387)" fill="#e89160"/>
                <path id="Trazado_998234" data-name="Trazado 998234" d="M4773.605,1568.63a7.929,7.929,0,0,1-.084-2.614l-5.787.5c.143,1.444.308,2.794.294,3.35.077,2.984-1.519,3.168-1.965,6.156-.091,1.308-.663,2.577.581,2.267,1.268-.305,1.583-5.26,2.483-3.656.827,1.477-3,4.871-2.232,7.272a.183.183,0,0,0,.02.024c.791.9,3.841-5.388,4.185-5.472a.017.017,0,0,1,.022,0c-.4,1.382-3.143,5.284-2.563,6.422a.633.633,0,0,0,.042.068c.859.832,3.823-5.526,4.223-5.491,0,0,.006,0,.008,0-.088.992-3.31,5.043-2.7,5.976a.191.191,0,0,0,.031.025c.8.592,2.721-3.176,2.916-3.159s-1.814,2.486-.973,3.11,3.327-4.865,3.26-5.59c.7-5.795-1.683-7.178-1.756-9.2" transform="translate(-4448.212 -1461.642)" fill="#fbaf7e"/>
                <path id="Trazado_998235" data-name="Trazado 998235" d="M3941.5,805.57l-.8,5.131-1.579,11.543c-1.462,1.415-6.78,3.375-8.789,3.9.691-2.968,4.8-4.243,5.872-6.621a115.343,115.343,0,0,0,5.3-13.956" transform="translate(-3668.38 -751.879)" fill="#ce5e11"/>
                <path id="Trazado_998236" data-name="Trazado 998236" d="M3950.194,1634.012c.106,4.7-1.588,7.8-1.945,12.488a24.976,24.976,0,0,1-3.99.6,42.843,42.843,0,0,1-9.636-.463s-5.073-34.309-6.565-42.961-3.878-7.756-4.771-18.5c-.745-8.939,2.544-44.052,3.669-55.577.226-2.321.366-3.686.366-3.686l12.547-3.429,1.576,6.816,1.761,7.608,4.832,20.892a63.219,63.219,0,0,1-.475,20.568c-1.166,6.166-3.259,12.24-3.161,18.517,2.84,11.967,5.519,24.823,5.792,37.121" transform="translate(-3661.701 -1421.016)" fill="#727997"/>
                <path id="Trazado_998237" data-name="Trazado 998237" d="M4120.654,1807.444c.106,4.7-1.588,7.8-1.945,12.488a24.992,24.992,0,0,1-3.99.6c.391-8.794.661-17.614-.237-26.363-.708-6.928-2.151-13.808-2.056-20.769.089-6.671,1.59-13.289,1.322-19.954-.433-10.876-5.332-20.872-7.089-31.508-.52-3.13-2.336-11.958,1.774-13.442,1.721-.622,3.557.332,5.231,1.847l4.832,20.892a63.219,63.219,0,0,1-.475,20.568c-1.166,6.166-3.258,12.24-3.161,18.517,2.84,11.966,5.519,24.823,5.792,37.121" transform="translate(-3832.161 -1594.449)" fill="#12263f"/>
                <path id="Trazado_998238" data-name="Trazado 998238" d="M4106.155,1718.726s-2.784,5.867,5.072,16.508c.8,9.248,2.088,26.289,5.668,29.155l2.387-6.581-7.359-35.005Z" transform="translate(-3832.036 -1604.174)" fill="#112638"/>
                <path id="Trazado_998239" data-name="Trazado 998239" d="M4116.042,1545.953a21.847,21.847,0,0,1-3.848,2.014,69.89,69.89,0,0,1-9.7,3.091c-2.743-8.518-15.142-47.57-16.2-60.3-1.194-14.321-4.95-4.974-7.433-37.593a43.932,43.932,0,0,1-9.048-28.98,127.655,127.655,0,0,1,30.367-6.735c2.193-.181,4.411-.285,6.626-.285,8.354,11.138,2.785,31.823,2.785,31.823s-3.954,28.045-2.36,38.287c4.975,19.031,6.107,30.127,8.811,58.677" transform="translate(-3798.483 -1322.712)" fill="#727997"/>
                <path id="Trazado_998240" data-name="Trazado 998240" d="M4542.508,1545.953a21.864,21.864,0,0,1-3.848,2.014,10.318,10.318,0,0,1-.217-4.071,124.718,124.718,0,0,0-3.993-41.717c-1.632-6.021-3.73-11.983-4.224-18.2-.817-10.3,2.809-20.4,3.836-30.682a61.681,61.681,0,0,0-7.416-35.846c2.193-.181,4.411-.285,6.626-.285,8.354,11.138,2.785,31.823,2.785,31.823s-3.954,28.045-2.36,38.287c4.975,19.031,6.107,30.127,8.811,58.677" transform="translate(-4224.95 -1322.712)" fill="#12263f"/>
                <path id="Trazado_998241" data-name="Trazado 998241" d="M3994.344,1529.305c-.834.178-1.621.335-2.341.463a28.945,28.945,0,0,1-12.148-.165c.226-2.321.365-3.686.365-3.686l12.547-3.429Z" transform="translate(-3714.602 -1421.016)" fill="#12263f"/>
                <path id="Trazado_998242" data-name="Trazado 998242" d="M3984.662,581.13c-11.188,6.713-10.01,30.384-11.991,46.452a66.031,66.031,0,0,1-3.978,16.2c11.536,7.16,46.6-7.356,46.6-7.356V595.45c0-13.923-12.729-25.06-30.629-14.32" transform="translate(-3704.183 -538.389)" fill="#ffac04"/>
                <path id="Trazado_998243" data-name="Trazado 998243" d="M4528.61,887.711a57.059,57.059,0,0,0-9.378-9.779c-.192-.16-.379-.327-.565-.5.1,7.673,4.813,13.9,6.424,21.423,1.166,5.637,2.871,12.9,1.629,18.766,1.207-.4,1.89-.636,1.89-.636Z" transform="translate(-4217.501 -818.955)" fill="#e57123"/>
                <path id="Trazado_998244" data-name="Trazado 998244" d="M4312.795,442.734l-10.682.571-.807,4.456-.67,3.71-.768,4.253s-.339,1.218,2.35,1.344c5.021.235,9.645-.722,9.408-3.752a12.286,12.286,0,0,1-.012-3.159c.349-3.122,1.181-7.422,1.181-7.422" transform="translate(-4013.272 -413.226)" fill="#fbaf7e"/>
                <path id="Trazado_998245" data-name="Trazado 998245" d="M4541.482,674.746c-.129.776-3.422,2.805-6.65,2.278-.016-.093-.681.2-.831-.637-1.078-5.984-4.718-29.47-7.252-35.237a23.7,23.7,0,0,0-7.988-10.167,18.367,18.367,0,0,0-2.129-2.425c-1.428-5.694-1.409-9.335,2.065-14.07.619-.848-2.358-5.108-1.465-5.661s12.164,2.857,18.4,25.593a172.43,172.43,0,0,1,4.509,18.8,145.251,145.251,0,0,1,1.34,21.53" transform="translate(-4214.77 -568.2)" fill="#ffac04"/>
                <path id="Trazado_998246" data-name="Trazado 998246" d="M4254.814,165.619c-.17.347-.743,2.119-.873,2.46-1.4,3.652-6.9,3.454-10.789,3.083-3.491.1-6.144-5.194-5.424-8.394.418-3.113,1.4-4.109,1.821-7.222.078-.574.156-1.19.253-1.83a18.956,18.956,0,0,1,1.034-4.26,6.874,6.874,0,0,1,2.687-3.448c8.156-4.639,15.417-.543,15.753,8.5.012.289.015.58.012.876.349,4.136-2.959,7.155-4.475,10.24" transform="translate(-3955.177 -134.479)" fill="#fbaf7e"/>
                <path id="Trazado_998247" data-name="Trazado 998247" d="M4285.977,234.339a8.6,8.6,0,0,1,.008-1.454,4.446,4.446,0,0,1,.461-2.008c.2-.321.47-.592.66-.916a1.073,1.073,0,0,0,.087-1.07c-.384-.648-1.457-.348-2.03-.835-.42-.356-.42-.987-.56-1.519a2.65,2.65,0,0,0-1.744-1.826c-1.246-.389-2.767.149-3.805-.639-.321-.244-.551-.589-.863-.844a3.718,3.718,0,0,0-2.519-.571,13.2,13.2,0,0,1-4.422-.22,4.118,4.118,0,0,1-.747-.319,18.981,18.981,0,0,1,1.034-4.26,11.1,11.1,0,0,1,4.794-.405,24.236,24.236,0,0,1,12.367,4.367,13.123,13.123,0,0,1,1.278,1.085c.012.289.016.58.012.876.349,4.136-2.5,7.475-4.012,10.559" transform="translate(-3985.877 -202.879)" fill="#e89160"/>
                <path id="Trazado_998248" data-name="Trazado 998248" d="M4517.791,839.866c-1.045-.941-1.711-2.916-2.6-4.071.042.578-.185,2.152-.052,2.759a8.738,8.738,0,0,0,.485,2.218c1.064,2.007,3.3,3.392,5.034,5.987a60.332,60.332,0,0,1,4.619,8.7l.055-3.033a61.228,61.228,0,0,1-7.545-12.561" transform="translate(-4214.172 -780.09)" fill="#ce5e11"/>
                <path id="Trazado_998249" data-name="Trazado 998249" d="M4532.01,862.3c-1.467-6.31-1.31-10.343-5.212-15.514-1.3-1.722-1.7-4.8-3.088-6.478-3.085-1.948-5.946-4.2-7.413-7.306a28.073,28.073,0,0,0,.854,4.839c5.224,4.914,10.154,13.372,13.069,23.962,2.206,8.019,2.862,18.218,3.878,23.547.273.7.273.7.62.818.331.11.388-5.313-.421-10.641-.859-5.656-1.912-11.614-2.287-13.226" transform="translate(-4215.29 -777.484)" fill="#e57123"/>
                <path id="Trazado_998250" data-name="Trazado 998250" d="M4252.164,111.113c-2.858,3.6-3.063,5.72-3.832,10.144-.372,1.154-1.917.673-3.036-.128-.992-.943,1.4-2.371,1.005-3.619l-.474-5.886c-1.963-3.606-5.263-.384-6.728-4.332-8.4,1.891-15.072-5.287-9.154-10.87l-.369,1.456c1.135-2.433,3.913.277,5.718-.387,1.464-.551,1.882.473,2.639-.705,2.378-3.765,11.269,2.957,12.7,5.108,2.3,3.018,3.032,3.536,1.53,9.221" transform="translate(-3945.919 -89.284)" fill="#112638"/>
                <path id="Trazado_998251" data-name="Trazado 998251" d="M4497.424,350.246c.218-3.5-2.019-3.623-3.515-1.232-.631,1.008-.041,3.467-.28,4.519,1.845-.165,3.084.191,3.795-3.286" transform="translate(-4194.111 -324.237)" fill="#fbaf7e"/>
                <path id="Trazado_998252" data-name="Trazado 998252" d="M3863.763,3560.421a38.054,38.054,0,0,1-12.148.038,6.1,6.1,0,0,0-.084,1.454l-.013.9s8.863.4,13.239,0a46.075,46.075,0,0,0,9.249-2.088v2.088h9.308a32.571,32.571,0,0,0,.26-4.485c-3.095.244-11.807.978-19.812,2.1" transform="translate(-3594.817 -3321.164)" fill="#1d3856"/>
                <path id="Trazado_998253" data-name="Trazado 998253" d="M4372.293,3563.746a33.46,33.46,0,0,1-11.386.038,6.5,6.5,0,0,0-.078,1.454l-.012.9a120.762,120.762,0,0,0,12.409,0,40.95,40.95,0,0,0,8.668-2.088v2.088h8.724a34.656,34.656,0,0,0,.244-4.485c-2.9.244-11.066.978-18.568,2.1" transform="translate(-4070.172 -3324.267)" fill="#1d3856"/>
                <path id="Trazado_998254" data-name="Trazado 998254" d="M4373.563,3430.192c7.5-1.121,15.668-1.854,18.568-2.1a23.429,23.429,0,0,0-1.791-9.537c-3.542,6.166-13.187,3.027-13.187,3.027s.883,1.15-7.412,2.244c-5.843.77-7.245,4.351-7.564,6.4a33.451,33.451,0,0,0,11.386-.038" transform="translate(-4071.441 -3190.712)" fill="#dd7833"/>
                <path id="Trazado_998255" data-name="Trazado 998255" d="M4405.7,1618.778s10.789,5.967,14.435,3.646c1.193,2.586-12.729,1.127-15.315-3.646.464-.8.88,0,.88,0" transform="translate(-4111.239 -1510.558)" fill="#12263f"/>
                <path id="Trazado_998256" data-name="Trazado 998256" d="M4276.99,338.638a.818.818,0,1,1-.766-.867.818.818,0,0,1,.766.867" transform="translate(-3990.407 -315.257)" fill="#1d3856"/>
                <path id="Trazado_998257" data-name="Trazado 998257" d="M4370.065,353.327a.818.818,0,1,1-.766-.867.818.818,0,0,1,.766.867" transform="translate(-4077.279 -328.967)" fill="#1d3856"/>
                <path id="Trazado_998258" data-name="Trazado 998258" d="M4283.18,454.173a7.105,7.105,0,0,0,1.7.407c.89.082,1.82-.079,1.86.179.081.51-1.139,1.133-2.363.912-.93-.168-1.726-1.25-1.2-1.5" transform="translate(-3997.552 -423.903)" fill="#fdfefe"/>
                <path id="Trazado_998259" data-name="Trazado 998259" d="M4497.18,374.648s1.485-2.176,2.258-.706-1.434,2.776-1.9,2.437c-.2-.144,1.266-1.487,1.222-1.825-.059-.455-1.582.094-1.582.094" transform="translate(-4197.447 -348.543)" fill="#e89160"/>
                <path id="Trazado_998260" data-name="Trazado 998260" d="M4034.929,3477.112a6.285,6.285,0,0,0-.982,2.287h.49s.662-2.221,1.051-2.37Z" transform="translate(-3765.087 -3245.288)" fill="#fadcbf"/>
                <path id="Trazado_998261" data-name="Trazado 998261" d="M4010.419,3484.9s2.871.261,3.48,1.181l.472-.311a13.619,13.619,0,0,0-2.971-1.031,6.058,6.058,0,0,0-.982.161" transform="translate(-3743.128 -3252.483)" fill="#fadcbf"/>
                <path id="Trazado_998262" data-name="Trazado 998262" d="M4086.866,3464.492a6.289,6.289,0,0,0-.982,2.287h.49s.662-2.221,1.052-2.37Z" transform="translate(-3813.562 -3233.509)" fill="#fadcbf"/>
                <path id="Trazado_998263" data-name="Trazado 998263" d="M4062.355,3472.279s2.871.261,3.481,1.181l.472-.311a13.615,13.615,0,0,0-2.971-1.032,6.052,6.052,0,0,0-.982.162" transform="translate(-3791.602 -3240.703)" fill="#fadcbf"/>
                <path id="Trazado_998264" data-name="Trazado 998264" d="M4497.317,3488.863a6.284,6.284,0,0,0-.982,2.287h.49s.662-2.221,1.051-2.37Z" transform="translate(-4196.656 -3256.255)" fill="#fadcbf"/>
                <path id="Trazado_998265" data-name="Trazado 998265" d="M4472.807,3496.649s2.872.261,3.48,1.181l.473-.311a13.625,13.625,0,0,0-2.971-1.032,6.07,6.07,0,0,0-.982.162" transform="translate(-4174.698 -3263.45)" fill="#fadcbf"/>
                <path id="Trazado_998266" data-name="Trazado 998266" d="M4549.253,3476.242a6.285,6.285,0,0,0-.982,2.287h.49s.662-2.221,1.051-2.37Z" transform="translate(-4245.131 -3244.476)" fill="#fadcbf"/>
                <path id="Trazado_998267" data-name="Trazado 998267" d="M4524.743,3484.029s2.871.261,3.48,1.181l.472-.311a13.625,13.625,0,0,0-2.971-1.032,6.068,6.068,0,0,0-.981.162" transform="translate(-4223.172 -3251.671)" fill="#fadcbf"/>
                <path id="Trazado_998268" data-name="Trazado 998268" d="M3502.31,456.236c-.218.2-2.673-2.776-2.974-3.136-1.1-1.317-1.9-2.341-2.352-2.991.087-.039.17-.078.254-.109a75.349,75.349,0,0,1,5.072,6.236" transform="translate(-3263.912 -420.008)" fill="#e89160"/>
                <path id="Trazado_998269" data-name="Trazado 998269" d="M3481.789,468.481c-.217.2-2.62-2.8-2.916-3.158-.856-1.052-1.523-1.917-1.984-2.556.078-.073.156-.142.237-.209a68.777,68.777,0,0,1,4.662,5.923" transform="translate(-3245.158 -431.729)" fill="#e89160"/>
                <path id="Trazado_998270" data-name="Trazado 998270" d="M3466.8,484.029c-.243.167-1.942-2.617-2.151-2.952-.714-1.144-1.228-2.048-1.532-2.653.053-.084.109-.167.17-.251a54.159,54.159,0,0,1,3.512,5.856" transform="translate(-3232.304 -446.303)" fill="#e89160"/>
                <path id="Trazado_998271" data-name="Trazado 998271" d="M4785.967,1722.729c-.343.084-3.394,6.377-4.185,5.472.815-.51,2.751-3.647,3.265-4.6.466-.866.832-.881.92-.871" transform="translate(-4463.08 -1607.909)" fill="#e89160"/>
                <path id="Trazado_998272" data-name="Trazado 998272" d="M4810.707,1737.7c-.4-.035-3.364,6.323-4.223,5.491a.645.645,0,0,1-.042-.068c.28-.031.73-.274,1.3-1.226,1.007-1.661,2.488-4.373,2.96-4.2" transform="translate(-4486.096 -1621.88)" fill="#e89160"/>
                <path id="Trazado_998273" data-name="Trazado 998273" d="M4833.382,1736.214c-.194-.017-2.11,3.751-2.915,3.159a1.31,1.31,0,0,0,.95-.678c.475-.84,3.03-4.325,3-5.642a5.321,5.321,0,0,1-1.031,3.161" transform="translate(-4508.52 -1617.546)" fill="#e89160"/>
                <path id="Trazado_998274" data-name="Trazado 998274" d="M4277.587,332.909a.833.833,0,0,0,0,.248,2.806,2.806,0,0,1,0,.281,1.062,1.062,0,0,1-.023.166.469.469,0,0,1-.024.081l-.021.044-.022.022c-.338.456-.791,1.09-1.272,1.792-.241.351-.489.719-.73,1.092a11.241,11.241,0,0,0-.681,1.146.731.731,0,0,0,.066.706,1.527,1.527,0,0,0,.45.44,2.8,2.8,0,0,0,.95.4,1.83,1.83,0,0,0,.709.033l.114-.026c.033-.014.06-.028.082-.039.043-.023.065-.037.063-.042-.007-.031-.109.021-.309.02a2.492,2.492,0,0,1-.856-.184,3.179,3.179,0,0,1-.57-.292,1.325,1.325,0,0,1-.487-.534.49.49,0,0,1,0-.356c.013-.03.021-.059.036-.091l.059-.1c.038-.068.08-.137.123-.207.17-.28.36-.575.563-.886.166-.265,1.212-1.8,1.835-2.769l-.021.021a.259.259,0,0,0,.077-.126.71.71,0,0,0,.024-.105,1.156,1.156,0,0,0,.01-.188,1.786,1.786,0,0,0-.035-.3c-.034-.163-.074-.252-.1-.246" transform="translate(-3989.835 -310.721)" fill="#2e354b"/>
                <path id="Trazado_998275" data-name="Trazado 998275" d="M4370.761,326.418a.953.953,0,0,0-.11-.185c-.053-.062-.115-.13-.187-.2a2.716,2.716,0,0,0-1.3-.611c-1.019-.2-2,.061-1.976.232.027.149.221.263.548.352s.79.151,1.34.26a6.776,6.776,0,0,1,.8.249c.174.06.335.132.488.17a.436.436,0,0,0,.41-.049c.039-.032.031-.106-.02-.215" transform="translate(-4076.12 -303.663)" fill="#1d3856"/>
                <path id="Trazado_998276" data-name="Trazado 998276" d="M4268.4,307.392c.068.006.363.1.67.185s.636.172.814-.071c.057-.079-.059-.265-.309-.469a2.409,2.409,0,0,0-1.1-.49,2.053,2.053,0,0,0-1.249.168c-.314.161-.463.368-.419.443a.847.847,0,0,0,.57.147,6.329,6.329,0,0,1,1.022.088" transform="translate(-3982.421 -286.086)" fill="#1d3856"/>
                <path id="Trazado_998277" data-name="Trazado 998277" d="M4369.8,351.933a2.561,2.561,0,0,0-.959-.539,2.53,2.53,0,0,0-1.585-.038c.006.045.155.06.426.084a5.04,5.04,0,0,1,1.144.215,3.157,3.157,0,0,1,.691.331c.286.177.521.4.591.342.011-.01-.013-.055-.064-.126a1.444,1.444,0,0,0-.244-.269" transform="translate(-4076.179 -327.843)" fill="#1d3856"/>
                <path id="Trazado_998278" data-name="Trazado 998278" d="M4270.021,335.275c.039-.077-.378-.345-1.215-.521a3.779,3.779,0,0,0-.658-.082c-.293-.011-.57.065-.552.152.006.032.157.031.383.054a7.755,7.755,0,0,1,.828.135,9.915,9.915,0,0,0,1.214.262" transform="translate(-3983.164 -312.366)" fill="#1d3856"/>
                <path id="Trazado_998279" data-name="Trazado 998279" d="M4311.869,491.135s7.815.548,10.379-4.228c-1.571,6.167-10.662,5.792-10.662,5.792Z" transform="translate(-4024.223 -454.455)" fill="#e89160"/>
                <path id="Trazado_998280" data-name="Trazado 998280" d="M581.1,3623.229H229.228a.558.558,0,1,0,0,1.116H581.1a.558.558,0,1,0,0-1.116" transform="translate(-213.429 -3381.744)" fill="#2e354b"/>
              </g>
            </g>
          </g>
        </g>
      </g>
    </g>
  </g>
</svg>
