<svg xmlns="http://www.w3.org/2000/svg" width="86.333" height="86.375" viewBox="0 0 86.333 86.375">
  <g id="Grupo_1179596" data-name="Grupo 1179596" transform="translate(-705 -425.677)">
    <g id="Grupo_1179156" data-name="Grupo 1179156" transform="translate(705 425.677)">
      <path id="Trazado_997818" data-name="Trazado 997818" d="M118.4,288a14.4,14.4,0,1,0,14.4,14.4A14.4,14.4,0,0,0,118.4,288Zm0,25.913A11.517,11.517,0,1,1,129.913,302.4,11.516,11.516,0,0,1,118.4,313.913Zm0,0" transform="translate(-85.285 -236.175)" fill="#384c27"/>
      <path id="Trazado_997819" data-name="Trazado 997819" d="M157.758,324.319c1.758,0,2.879.852,2.879,1.44h2.879c0-2.046-1.812-3.7-4.319-4.175V320h-2.879v1.584c-2.507.469-4.319,2.126-4.319,4.175,0,2.423,2.529,4.319,5.758,4.319,1.758,0,2.879.852,2.879,1.44s-1.121,1.44-2.879,1.44-2.879-.852-2.879-1.44H152c0,2.046,1.812,3.7,4.319,4.175v1.584H159.2v-1.584c2.507-.469,4.319-2.126,4.319-4.175,0-2.423-2.529-4.319-5.758-4.319-1.758,0-2.879-.852-2.879-1.44S156,324.319,157.758,324.319Zm0,0" transform="translate(-124.648 -262.417)" fill="#384c27"/>
      <path id="Trazado_997820" data-name="Trazado 997820" d="M73.419,83.5H12.956V48.946H35.99a4.319,4.319,0,0,0,4.319-4.319V8.637H56.144V25.913H73.419V46.067H76.3V23.877L58.179,5.758H40.308V4.319A4.319,4.319,0,0,0,35.99,0H4.319A4.319,4.319,0,0,0,0,4.319V44.627a4.319,4.319,0,0,0,4.319,4.319h5.758V86.375H76.3V66.221H73.419Zm-14.4-72.823,12.36,12.36H59.023ZM2.879,44.627V4.319a1.44,1.44,0,0,1,1.44-1.44H35.99a1.44,1.44,0,0,1,1.44,1.44V44.627a1.44,1.44,0,0,1-1.44,1.44H4.319A1.44,1.44,0,0,1,2.879,44.627Zm0,0" fill="#384c27"/>
      <path id="Trazado_997821" data-name="Trazado 997821" d="M256,200h2.879v2.879H256Zm0,0" transform="translate(-209.933 -164.01)" fill="#384c27"/>
      <path id="Trazado_997822" data-name="Trazado 997822" d="M288,200h17.275v2.879H288Zm0,0" transform="translate(-236.175 -164.01)" fill="#384c27"/>
      <path id="Trazado_997823" data-name="Trazado 997823" d="M256,168h2.879v2.879H256Zm0,0" transform="translate(-209.933 -137.769)" fill="#384c27"/>
      <path id="Trazado_997824" data-name="Trazado 997824" d="M288,168h17.275v2.879H288Zm0,0" transform="translate(-236.175 -137.769)" fill="#384c27"/>
      <path id="Trazado_997825" data-name="Trazado 997825" d="M256,232h2.879v2.879H256Zm0,0" transform="translate(-209.933 -190.252)" fill="#384c27"/>
      <path id="Trazado_997826" data-name="Trazado 997826" d="M288,232h17.275v2.879H288Zm0,0" transform="translate(-236.175 -190.252)" fill="#384c27"/>
      <path id="Trazado_997827" data-name="Trazado 997827" d="M256,264h2.879v2.879H256Zm0,0" transform="translate(-209.933 -216.494)" fill="#384c27"/>
      <path id="Trazado_997828" data-name="Trazado 997828" d="M288,264h17.275v2.879H288Zm0,0" transform="translate(-236.175 -216.494)" fill="#384c27"/>
      <path id="Trazado_997829" data-name="Trazado 997829" d="M55.671,24H24V34.077H55.671Zm-2.879,7.2H26.879V26.879H52.792Zm0,0" transform="translate(-19.681 -19.681)" fill="#384c27"/>
      <path id="Trazado_997830" data-name="Trazado 997830" d="M37.758,88H34.879A2.879,2.879,0,0,0,32,90.879v2.879a2.879,2.879,0,0,0,2.879,2.879h2.879a2.879,2.879,0,0,0,2.879-2.879V90.879A2.879,2.879,0,0,0,37.758,88Zm-2.879,5.758V90.879h2.879v2.879Zm0,0" transform="translate(-26.242 -72.165)" fill="#384c27"/>
      <path id="Trazado_997831" data-name="Trazado 997831" d="M93.758,88H90.879A2.879,2.879,0,0,0,88,90.879v2.879a2.879,2.879,0,0,0,2.879,2.879h2.879a2.879,2.879,0,0,0,2.879-2.879V90.879A2.879,2.879,0,0,0,93.758,88Zm-2.879,5.758V90.879h2.879v2.879Zm0,0" transform="translate(-72.165 -72.165)" fill="#384c27"/>
      <path id="Trazado_997832" data-name="Trazado 997832" d="M149.758,88h-2.879A2.879,2.879,0,0,0,144,90.879v2.879a2.879,2.879,0,0,0,2.879,2.879h2.879a2.879,2.879,0,0,0,2.879-2.879V90.879A2.879,2.879,0,0,0,149.758,88Zm-2.879,5.758V90.879h2.879v2.879Zm0,0" transform="translate(-118.088 -72.165)" fill="#384c27"/>
      <path id="Trazado_997833" data-name="Trazado 997833" d="M37.758,144H34.879A2.879,2.879,0,0,0,32,146.879v2.879a2.879,2.879,0,0,0,2.879,2.879h2.879a2.879,2.879,0,0,0,2.879-2.879v-2.879A2.879,2.879,0,0,0,37.758,144Zm-2.879,5.758v-2.879h2.879v2.879Zm0,0" transform="translate(-26.242 -118.088)" fill="#384c27"/>
      <path id="Trazado_997834" data-name="Trazado 997834" d="M93.758,144H90.879A2.879,2.879,0,0,0,88,146.879v2.879a2.879,2.879,0,0,0,2.879,2.879h2.879a2.879,2.879,0,0,0,2.879-2.879v-2.879A2.879,2.879,0,0,0,93.758,144Zm-2.879,5.758v-2.879h2.879v2.879Zm0,0" transform="translate(-72.165 -118.088)" fill="#384c27"/>
      <path id="Trazado_997835" data-name="Trazado 997835" d="M149.758,144h-2.879A2.879,2.879,0,0,0,144,146.879v2.879a2.879,2.879,0,0,0,2.879,2.879h2.879a2.879,2.879,0,0,0,2.879-2.879v-2.879A2.879,2.879,0,0,0,149.758,144Zm-2.879,5.758v-2.879h2.879v2.879Zm0,0" transform="translate(-118.088 -118.088)" fill="#384c27"/>
      <path id="Trazado_997836" data-name="Trazado 997836" d="M37.758,200H34.879A2.879,2.879,0,0,0,32,202.879v2.879a2.879,2.879,0,0,0,2.879,2.879h2.879a2.879,2.879,0,0,0,2.879-2.879v-2.879A2.879,2.879,0,0,0,37.758,200Zm-2.879,5.758v-2.879h2.879v2.879Zm0,0" transform="translate(-26.242 -164.01)" fill="#384c27"/>
      <path id="Trazado_997837" data-name="Trazado 997837" d="M93.758,200H90.879A2.879,2.879,0,0,0,88,202.879v2.879a2.879,2.879,0,0,0,2.879,2.879h2.879a2.879,2.879,0,0,0,2.879-2.879v-2.879A2.879,2.879,0,0,0,93.758,200Zm-2.879,5.758v-2.879h2.879v2.879Zm0,0" transform="translate(-72.165 -164.01)" fill="#384c27"/>
      <path id="Trazado_997838" data-name="Trazado 997838" d="M149.758,200h-2.879A2.879,2.879,0,0,0,144,202.879v2.879a2.879,2.879,0,0,0,2.879,2.879h2.879a2.879,2.879,0,0,0,2.879-2.879v-2.879A2.879,2.879,0,0,0,149.758,200Zm-2.879,5.758v-2.879h2.879v2.879Zm0,0" transform="translate(-118.088 -164.01)" fill="#384c27"/>
      <path id="Trazado_997839" data-name="Trazado 997839" d="M314.693,249.689a4.421,4.421,0,0,0-6.106,0l-24.679,24.678a1.456,1.456,0,0,0-.288.416l-3.475,7.547a1.44,1.44,0,0,0,1.909,1.909l7.547-3.475a1.444,1.444,0,0,0,.416-.288L314.693,255.8A4.318,4.318,0,0,0,314.693,249.689Zm-26.533,28.567-3.772,1.738,1.738-3.772,18.4-18.4,2.036,2.036ZM308.6,257.814l-2.036-2.035,1.008-1.008,2.036,2.036Zm4.06-4.059-1.018,1.018-2.036-2.036,1.019-1.018a1.472,1.472,0,0,1,2.034,0A1.44,1.44,0,0,1,312.663,253.754Zm0,0" transform="translate(-229.626 -203.755)" fill="#384c27"/>
    </g>
  </g>
</svg>
