<svg xmlns="http://www.w3.org/2000/svg" width="60" height="60" viewBox="0 0 60 60">
  <g id="Grupo_1179597" data-name="Grupo 1179597" transform="translate(-204.52 -10588.483)">
    <g id="Grupo_1102708" data-name="Grupo 1102708" transform="translate(24.852 5067.483)">
      <rect id="Rectángulo_402006" data-name="Rectángulo 402006" width="60" height="60" rx="10" transform="translate(179.668 5521)" fill="#6c4826"/>
      <g id="Grupo_1179211" data-name="Grupo 1179211" transform="translate(187.713 5529.054)">
        <path id="Trazado_998295" data-name="Trazado 998295" d="M3.5,12.073a1.117,1.117,0,0,1,1.117-1.117h8.341a1.117,1.117,0,0,1,1.117,1.117V29.007a1.117,1.117,0,0,1-1.117,1.117H4.617A1.117,1.117,0,0,1,3.5,29.007Zm2.234,1.117v14.7h6.107v-14.7Z" transform="translate(0 9.203)" fill="#ffac04" fill-rule="evenodd"/>
        <path id="Trazado_998296" data-name="Trazado 998296" d="M29.219,12.943a4.079,4.079,0,0,1,5.159,6.317l-9.308,7.978A10.627,10.627,0,0,1,13.4,28.675l-1.884-.942a7.079,7.079,0,0,0-3.165-.747,1.117,1.117,0,0,1,0-2.234,9.311,9.311,0,0,1,4.164.983l1.884.942a8.394,8.394,0,0,0,9.216-1.135l9.308-7.978a1.845,1.845,0,0,0-2.333-2.857l-8.041,6.254A1.117,1.117,0,0,1,21.177,19.2Z" transform="translate(4.608 10.595)" fill="#ffac04" fill-rule="evenodd"/>
        <path id="Trazado_998297" data-name="Trazado 998297" d="M17.067,15.136a5.523,5.523,0,0,0-6.04-1.554l-2.3.833a1.117,1.117,0,0,1-.762-2.1l2.3-.833a7.757,7.757,0,0,1,8.484,2.183l3.55,4.057a3.655,3.655,0,0,1-5.335,4.991l-3.995-3.995a1.117,1.117,0,0,1,1.58-1.58l3.995,3.995a1.421,1.421,0,0,0,2.074-1.94Z" transform="translate(4.608 9.276)" fill="#ffac04" fill-rule="evenodd"/>
        <path id="Trazado_998298" data-name="Trazado 998298" d="M20.671,5.734a8.937,8.937,0,1,0,8.937,8.937A8.937,8.937,0,0,0,20.671,5.734ZM9.5,14.671A11.171,11.171,0,1,1,20.671,25.842,11.171,11.171,0,0,1,9.5,14.671Z" transform="translate(7.405)" fill="#ffac04" fill-rule="evenodd"/>
        <path id="Trazado_998299" data-name="Trazado 998299" d="M18.414,4.8a1.117,1.117,0,0,1,.819,1.077v4.312h4.312a1.117,1.117,0,0,1,.958,1.692L19.074,20.93A1.117,1.117,0,0,1,17,20.355V16.043H12.687a1.117,1.117,0,0,1-.958-1.692L17.158,5.3a1.117,1.117,0,0,1,1.256-.5ZM14.66,13.809h3.456a1.117,1.117,0,0,1,1.117,1.117v1.4l2.339-3.9H18.116A1.117,1.117,0,0,1,17,11.306V9.91Z" transform="translate(9.96 1.555)" fill="#ffac04" fill-rule="evenodd"/>
      </g>
    </g>
  </g>
</svg>
