<svg xmlns="http://www.w3.org/2000/svg" xmlns:xlink="http://www.w3.org/1999/xlink" width="420" height="367.479" viewBox="0 0 420 367.479">
  <defs>
    <clipPath id="clip-path">
      <rect id="Rectángulo_403399" data-name="Rectángulo 403399" width="420" height="367.479" transform="translate(0 0)" fill="#d2e1f1"/>
    </clipPath>
    <clipPath id="clip-path-2">
      <rect id="Rectángulo_455553" data-name="Rectángulo 455553" width="401.714" height="304.912" fill="none"/>
    </clipPath>
    <clipPath id="clip-path-3">
      <rect id="Rectángulo_455552" data-name="Rectángulo 455552" width="401.715" height="304.911" fill="none"/>
    </clipPath>
    <clipPath id="clip-path-4">
      <rect id="Rectángulo_455542" data-name="Rectángulo 455542" width="89.629" height="134.071" fill="#d1e5c0"/>
    </clipPath>
    <clipPath id="clip-path-5">
      <rect id="Rectángulo_455543" data-name="Rectángulo 455543" width="103.27" height="50.598" fill="none"/>
    </clipPath>
    <clipPath id="clip-path-6">
      <rect id="Rectángulo_455544" data-name="Rectángulo 455544" width="86.526" height="30.111" fill="none"/>
    </clipPath>
    <clipPath id="clip-path-7">
      <rect id="Rectángulo_455545" data-name="Rectángulo 455545" width="105.981" height="36.879" fill="none"/>
    </clipPath>
    <clipPath id="clip-path-8">
      <rect id="Rectángulo_455546" data-name="Rectángulo 455546" width="67.129" height="27.243" fill="none"/>
    </clipPath>
    <clipPath id="clip-path-9">
      <rect id="Rectángulo_455547" data-name="Rectángulo 455547" width="60.386" height="24.507" fill="none"/>
    </clipPath>
    <clipPath id="clip-path-10">
      <rect id="Rectángulo_455548" data-name="Rectángulo 455548" width="3.735" height="4.005" fill="none"/>
    </clipPath>
    <clipPath id="clip-path-11">
      <rect id="Rectángulo_455550" data-name="Rectángulo 455550" width="5.481" height="7.836" fill="none"/>
    </clipPath>
    <clipPath id="clip-path-12">
      <rect id="Rectángulo_455551" data-name="Rectángulo 455551" width="4.97" height="7.912" fill="none"/>
    </clipPath>
  </defs>
  <g id="Grupo_1179597" data-name="Grupo 1179597" transform="translate(-180 -1160.089)">
    <g id="Grupo_1098797" data-name="Grupo 1098797" transform="translate(180 1160.089)" clip-path="url(#clip-path)">
      <g id="Grupo_1102276" data-name="Grupo 1102276" transform="translate(-0.48 -79.78)">
        <rect id="Rectángulo_403397" data-name="Rectángulo 403397" width="420" height="484.994" transform="translate(0 0)" fill="#d2e1f1"/>
      </g>
    </g>
    <g id="Grupo_1179187" data-name="Grupo 1179187" transform="translate(180 1198.628)">
      <g id="Grupo_1179186" data-name="Grupo 1179186" clip-path="url(#clip-path-2)">
        <g id="Grupo_1179185" data-name="Grupo 1179185" transform="translate(0 0.001)">
          <g id="Grupo_1179184" data-name="Grupo 1179184" clip-path="url(#clip-path-3)">
            <path id="Trazado_997840" data-name="Trazado 997840" d="M478.914,1183.217c0,18.345-81,33.216-180.911,33.216s-180.91-14.871-180.91-33.216S198.089,1150,298,1150s180.911,14.871,180.911,33.216" transform="translate(-92.811 -911.522)" fill="#b0c0d2"/>
            <path id="Trazado_997841" data-name="Trazado 997841" d="M571.537,1017.651c-7.942,9.647-25.259,35.579-18.991,44.483s44.142,6.913,50.338,3.607-9.344-44.53-14.409-49.727-11.394-5.1-16.938,1.637" transform="translate(-436.9 -802.404)" fill="#8cbf62"/>
            <path id="Trazado_997842" data-name="Trazado 997842" d="M644.085,1103.035l.329-1.432a1.043,1.043,0,0,0-.682-1.216,10.07,10.07,0,0,1-3.106-1.72,1.036,1.036,0,0,1-.2-1.342l.189-.3a1.038,1.038,0,0,1,1.532-.254,8.785,8.785,0,0,0,3.5,1.715,3.248,3.248,0,0,0,4.17-2.7c.424-1.846-.118-2.982-2.3-4.544-3.021-2.107-5.959-4.409-5.288-7.33.584-2.546,2.742-4.757,6.614-4,.462.091.872-.345.978-.8l.36-1.568a1.038,1.038,0,1,1,2.023.464l-.3,1.307a1.034,1.034,0,0,0,.657,1.207,8.751,8.751,0,0,1,2.365,1.25,1.035,1.035,0,0,1,.238,1.392l-.188.288a1.034,1.034,0,0,1-1.487.257,7.929,7.929,0,0,0-3-1.364c-2.513-.577-3.814.75-4.122,2.093-.4,1.746,1.32,2.317,3.882,4.177,3.038,2.182,4.706,4.656,4.3,7.695-.433,3.241-2.807,5.03-7.038,4.719a.988.988,0,0,0-.979.8l-.383,1.669a1.038,1.038,0,0,1-1.244.78l-.033-.008a1.038,1.038,0,0,1-.78-1.244" transform="translate(-507.488 -853.455)" fill="#f3f9ef"/>
            <path id="Trazado_997843" data-name="Trazado 997843" d="M705.735,967.956s-8.024,1.087-8.781,5.857,7.024.97,12.212,2.242,2.259-2.493,1.088-5-1.088-3.431-4.518-3.1" transform="translate(-552.383 -767.175)" fill="#8cbf62"/>
            <g id="Grupo_1179159" data-name="Grupo 1179159" transform="translate(229.75 121.732)" opacity="0.6">
              <g id="Grupo_1179158" data-name="Grupo 1179158">
                <g id="Grupo_1179157" data-name="Grupo 1179157" clip-path="url(#clip-path-4)">
                  <path id="Trazado_997844" data-name="Trazado 997844" d="M1107.9,719.818s40.956-144.609,79.778-132.022-48.915,90.82-59.5,133.294Z" transform="translate(-1107.903 -587.02)" fill="#d1e5c0"/>
                </g>
              </g>
            </g>
            <path id="Trazado_997845" data-name="Trazado 997845" d="M1358.735,719.483s55.821-96.573,86.683-80.119-54.6,56.248-69.784,84.886Z" transform="translate(-1076.969 -505.282)" fill="#f3f9ef"/>
            <path id="Trazado_997846" data-name="Trazado 997846" d="M1401.157,774.684c10.125-19.969,27.906-38.016,41.039-49.638a268.282,268.282,0,0,1,26.346-20.649l-.494-.745a269.194,269.194,0,0,0-26.444,20.725c-13.192,11.674-31.056,29.809-41.244,49.9Z" transform="translate(-1109.961 -557.733)" fill="#c4c695"/>
            <path id="Trazado_997847" data-name="Trazado 997847" d="M1453.785,949.947c-13.4,3.836-9.788,24.264-25.53,21.465-13.314-2.374-14.5-3.51-18.783.562a21.464,21.464,0,0,0-3.73,4.764c-1.224,2.1-3.649,5.23-7.582,6.19-24.028,5.864-59.628-27.9-35.57-49.377,1.737-1.551,4.366-2.277,7.287-2.933,15.845-3.551,21.316,3.47,32.686-16.225s30.27,6.228,40.943,4.57,19.923-5.5,29.036,5.326-5.356,21.831-18.758,25.657" transform="translate(-1073.682 -718.888)" fill="#d1e5c0"/>
            <g id="Grupo_1179162" data-name="Grupo 1179162" transform="translate(297.812 189.71)" opacity="0.5">
              <g id="Grupo_1179161" data-name="Grupo 1179161">
                <g id="Grupo_1179160" data-name="Grupo 1179160" clip-path="url(#clip-path-5)">
                  <path id="Trazado_997848" data-name="Trazado 997848" d="M1436.669,1037.262l-.56-.725c.319-.247,32.8-24.8,103.188-31.077l.082.914c-70.122,6.254-102.392,30.643-102.71,30.889" transform="translate(-1436.109 -986.663)" fill="#74a1bd"/>
                  <path id="Trazado_997849" data-name="Trazado 997849" d="M1595.811,956.95c-9.848-7.758-11.92-14.294-12-14.568l.877-.267c.02.065,2.1,6.555,11.695,14.115Z" transform="translate(-1553.178 -936.455)" fill="#74a1bd"/>
                  <path id="Trazado_997850" data-name="Trazado 997850" d="M1643.664,945.081c-2.915-4.432-3.1-11.084-.545-19.234a61.244,61.244,0,0,1,4.753-11.024l.793.46c-.11.19-10.936,19.1-4.234,29.3Z" transform="translate(-1598.773 -914.823)" fill="#74a1bd"/>
                  <path id="Trazado_997851" data-name="Trazado 997851" d="M1734.537,1039.067c-1.167-.853-1.805-1.416-1.834-1.442l.612-.682c.133.12,13.575,11.954,32.149,10.171l.088.912c-14.967,1.437-26.666-5.78-31.015-8.959" transform="translate(-1671.197 -1011.618)" fill="#74a1bd"/>
                  <path id="Trazado_997852" data-name="Trazado 997852" d="M1766.442,1077.319a21.624,21.624,0,0,1-6.556-12.235,16.014,16.014,0,0,1,.072-5.811l.89.222c-.022.089-2.11,9,6.236,17.169Z" transform="translate(-1692.571 -1029.318)" fill="#74a1bd"/>
                </g>
              </g>
            </g>
            <path id="Trazado_997853" data-name="Trazado 997853" d="M1587.341,593.827c2.7-3.453,5.093-3.238,7.047-1.708s2.735,3.8.03,7.251c-4.926,6.289-10.846,6.557-10.846,6.557s-1.229-5.72,3.768-12.1" transform="translate(-1255.075 -468.491)" fill="#b2c9c6"/>
            <path id="Trazado_997854" data-name="Trazado 997854" d="M1783.563,895.215c4.44-.762,6,.422,6.3,2.162s-.78,3.377-5.22,4.139c-8.088,1.388-12.537-1.092-12.537-1.092s3.251-3.8,11.456-5.209" transform="translate(-1404.618 -709.385)" fill="#b2c9c6"/>
            <path id="Trazado_997855" data-name="Trazado 997855" d="M1748.067,850c2.392-3.5,4.215-3.777,5.586-2.84s1.771,2.738-.622,6.235c-4.357,6.371-8.946,7.752-8.946,7.752s-.44-4.684,3.982-11.147" transform="translate(-1382.398 -671.115)" fill="#b2c9c6"/>
            <path id="Trazado_997856" data-name="Trazado 997856" d="M1557.321,1303.023v-4.706l68.856-.426-.1,5.133Z" transform="translate(-1234.373 -1028.743)" fill="#ce745f"/>
            <path id="Trazado_997857" data-name="Trazado 997857" d="M1560.019,1269.919c6.266-5.213,20.558-9.8,45.15-6.666,16.015,2.04,24.381,8.234,19.758,13.626-5.619,6.555-21.969,8.884-46.056,6.714-16.574-1.493-26.686-7.157-18.853-13.674" transform="translate(-1234.373 -1000.477)" fill="#ffac04"/>
            <path id="Trazado_997858" data-name="Trazado 997858" d="M1560.019,1248.061c6.266-5.213,20.558-9.8,45.15-6.666,16.015,2.04,24.381,8.234,19.758,13.626-5.619,6.554-21.969,8.883-46.056,6.714-16.574-1.493-26.686-7.157-18.853-13.674" transform="translate(-1234.373 -983.152)" fill="#ffde9a"/>
            <path id="Trazado_997859" data-name="Trazado 997859" d="M1612.69,1265.8c-4.184,0-8.786-.225-13.778-.674-10.385-.935-17.532-3.749-18.652-7.344-.673-2.16.893-4.034,2.326-5.226,3.363-2.8,13.876-8.964,38.805-5.788,9.7,1.235,16.623,4.333,18.068,8.084a4.163,4.163,0,0,1-.928,4.38c-2.459,2.868-7.177,4.826-14.022,5.818a83.244,83.244,0,0,1-11.819.751m-29.422-12.425c-1.72,1.431-2.389,2.807-1.99,4.089.974,3.126,7.934,5.717,17.729,6.6,20.339,1.832,34.088-.131,38.714-5.526a3.118,3.118,0,0,0,.742-3.3c-1.284-3.333-8.038-6.241-17.208-7.409-9.515-1.212-17.884-1.156-24.876.168-7.108,1.346-11.054,3.67-13.112,5.382" transform="translate(-1252.427 -987.516)" fill="#f7b686"/>
            <path id="Trazado_997860" data-name="Trazado 997860" d="M1671.869,1274.856l.474-.687c.172-.25-.269-.5-1.014-.581a31.943,31.943,0,0,1-4.588-.818c-.582-.158-.711-.433-.311-.643l.277-.145a3.826,3.826,0,0,1,2.255-.125,29.619,29.619,0,0,0,5.172.815c3.417.249,5.49-.384,6.123-1.3.611-.886-.2-1.43-3.424-2.174-4.465-1-8.81-2.1-7.843-3.5.842-1.222,4-2.288,9.714-1.931a1.865,1.865,0,0,0,1.434-.388l.518-.753a2.538,2.538,0,0,1,1.827-.377c.824.06,1.342.326,1.157.595l-.432.627c-.169.245.248.495.976.578a28.368,28.368,0,0,1,3.493.594c.642.156.795.448.36.667l-.275.138a3.84,3.84,0,0,1-2.189.127,27.542,27.542,0,0,0-4.431-.647c-3.706-.271-5.613.369-6.057,1.013-.578.838,1.961,1.108,5.749,1.994,4.49,1.039,6.965,2.222,6.389,3.679-.615,1.556-4.1,2.419-10.333,2.28a1.971,1.971,0,0,0-1.437.388l-.552.8a2.536,2.536,0,0,1-1.827.377l-.048,0c-.824-.06-1.342-.327-1.157-.595" transform="translate(-1320.673 -1000.477)" fill="#f7b686"/>
            <path id="Trazado_997861" data-name="Trazado 997861" d="M1179.713,1260.031v-4.99l73-.452-.1,5.442Z" transform="translate(-935.071 -994.421)" fill="#ce745f"/>
            <path id="Trazado_997862" data-name="Trazado 997862" d="M1182.574,1224.934c6.643-5.527,21.8-10.388,47.868-7.068,16.979,2.162,25.848,8.73,20.948,14.447-5.957,6.949-23.291,9.418-48.828,7.119-17.572-1.583-28.293-7.587-19.988-14.5" transform="translate(-935.072 -964.454)" fill="#ffac04"/>
            <path id="Trazado_997863" data-name="Trazado 997863" d="M1182.574,1201.76c6.643-5.527,21.8-10.388,47.868-7.068,16.979,2.163,25.848,8.73,20.948,14.447-5.957,6.949-23.291,9.419-48.828,7.119-17.572-1.583-28.293-7.587-19.988-14.5" transform="translate(-935.072 -946.085)" fill="#ffde9a"/>
            <path id="Trazado_997864" data-name="Trazado 997864" d="M1238.416,1220.563c-4.436,0-9.315-.238-14.608-.715-11.01-.991-18.587-3.975-19.775-7.786-.714-2.29.947-4.277,2.466-5.541,3.565-2.966,14.71-9.5,41.141-6.137,10.284,1.31,17.624,4.594,19.156,8.571a4.413,4.413,0,0,1-.984,4.644c-2.607,3.041-7.609,5.117-14.866,6.168a88.226,88.226,0,0,1-12.53.8m-31.193-13.172c-1.823,1.517-2.533,2.975-2.109,4.335,1.033,3.315,8.411,6.061,18.8,7,21.565,1.942,36.141-.139,41.044-5.859a3.305,3.305,0,0,0,.787-3.5c-1.361-3.534-8.522-6.617-18.243-7.855-10.088-1.285-18.961-1.225-26.374.178-7.536,1.427-11.719,3.89-13.9,5.706" transform="translate(-954.213 -950.712)" fill="#f7b686"/>
            <path id="Trazado_997865" data-name="Trazado 997865" d="M1179.713,1233.516v-4.99l73-.452-.1,5.442Z" transform="translate(-935.071 -973.404)" fill="#ce745f"/>
            <path id="Trazado_997866" data-name="Trazado 997866" d="M1182.574,1198.421c6.643-5.527,21.8-10.388,47.868-7.068,16.979,2.162,25.848,8.73,20.948,14.447-5.957,6.95-23.291,9.419-48.828,7.119-17.572-1.583-28.293-7.587-19.988-14.5" transform="translate(-935.072 -943.439)" fill="#ffac04"/>
            <path id="Trazado_997867" data-name="Trazado 997867" d="M1182.574,1175.246c6.643-5.527,21.8-10.388,47.868-7.068,16.979,2.162,25.848,8.73,20.948,14.447-5.957,6.949-23.291,9.419-48.828,7.118-17.572-1.582-28.293-7.587-19.988-14.5" transform="translate(-935.072 -925.07)" fill="#ffde9a"/>
            <path id="Trazado_997868" data-name="Trazado 997868" d="M1238.417,1194.047c-4.437,0-9.315-.238-14.608-.715-11.01-.991-18.587-3.975-19.775-7.786-.714-2.29.947-4.277,2.465-5.541l.362.434-.362-.434c3.566-2.966,14.711-9.5,41.141-6.137,10.284,1.31,17.624,4.594,19.156,8.571a4.414,4.414,0,0,1-.983,4.644c-2.607,3.041-7.609,5.116-14.867,6.168a88.26,88.26,0,0,1-12.53.8m-4.522-19.977a68.909,68.909,0,0,0-12.771,1.1c-7.536,1.426-11.719,3.89-13.9,5.706-1.823,1.517-2.533,2.975-2.109,4.335,1.033,3.315,8.411,6.061,18.8,7,21.565,1.943,36.141-.138,41.044-5.858a3.305,3.305,0,0,0,.787-3.5c-1.361-3.534-8.522-6.617-18.243-7.855a108.093,108.093,0,0,0-13.6-.921" transform="translate(-954.213 -929.695)" fill="#f7b686"/>
            <path id="Trazado_997869" data-name="Trazado 997869" d="M1179.713,1196.792v-4.99l73-.452-.1,5.442Z" transform="translate(-935.071 -944.296)" fill="#ce745f"/>
            <path id="Trazado_997870" data-name="Trazado 997870" d="M1182.574,1161.7c6.643-5.527,21.8-10.388,47.868-7.068,16.979,2.162,25.848,8.73,20.948,14.447-5.957,6.949-23.291,9.419-48.828,7.119-17.572-1.583-28.293-7.587-19.988-14.5" transform="translate(-935.072 -914.33)" fill="#ffac04"/>
            <path id="Trazado_997871" data-name="Trazado 997871" d="M1182.574,1138.521c6.643-5.527,21.8-10.388,47.868-7.068,16.979,2.162,25.848,8.73,20.948,14.447-5.957,6.949-23.291,9.418-48.828,7.119-17.572-1.583-28.293-7.588-19.988-14.5" transform="translate(-935.072 -895.961)" fill="#ffde9a"/>
            <path id="Trazado_997872" data-name="Trazado 997872" d="M1238.417,1157.324c-4.437,0-9.315-.238-14.608-.715-11.01-.991-18.587-3.975-19.775-7.786-.714-2.29.947-4.277,2.465-5.541l.362.435-.362-.435c3.566-2.967,14.711-9.5,41.141-6.137,10.284,1.31,17.624,4.594,19.156,8.571a4.414,4.414,0,0,1-.983,4.644c-2.607,3.041-7.609,5.116-14.867,6.168a88.26,88.26,0,0,1-12.53.8m-4.522-19.977a68.919,68.919,0,0,0-12.771,1.1c-7.536,1.427-11.719,3.89-13.9,5.706-1.823,1.517-2.533,2.976-2.109,4.335,1.033,3.315,8.411,6.061,18.8,7,21.565,1.942,36.141-.138,41.044-5.859a3.305,3.305,0,0,0,.787-3.5c-1.361-3.534-8.522-6.617-18.243-7.855a108.092,108.092,0,0,0-13.6-.921" transform="translate(-954.213 -900.588)" fill="#f7b686"/>
            <path id="Trazado_997873" data-name="Trazado 997873" d="M1183.879,1151.753v-4.99l73-.452-.1,5.442Z" transform="translate(-938.374 -908.597)" fill="#ce745f"/>
            <path id="Trazado_997874" data-name="Trazado 997874" d="M1186.739,1116.658c6.643-5.527,21.8-10.388,47.868-7.068,16.979,2.162,25.849,8.73,20.948,14.447-5.957,6.949-23.291,9.418-48.828,7.118-17.572-1.582-28.293-7.587-19.988-14.5" transform="translate(-938.372 -878.632)" fill="#ffac04"/>
            <path id="Trazado_997875" data-name="Trazado 997875" d="M1186.739,1093.484c6.643-5.527,21.8-10.388,47.868-7.068,16.979,2.162,25.849,8.73,20.948,14.447-5.957,6.949-23.291,9.418-48.828,7.118-17.572-1.583-28.293-7.588-19.988-14.5" transform="translate(-938.372 -860.263)" fill="#ffde9a"/>
            <path id="Trazado_997876" data-name="Trazado 997876" d="M1242.583,1112.287c-4.437,0-9.315-.238-14.608-.715-11.01-.991-18.587-3.975-19.775-7.786-.714-2.29.947-4.277,2.465-5.541l.362.434-.362-.434c3.565-2.967,14.71-9.5,41.141-6.137,10.284,1.31,17.624,4.594,19.156,8.571a4.413,4.413,0,0,1-.983,4.644c-2.607,3.041-7.609,5.116-14.866,6.168a88.227,88.227,0,0,1-12.53.8m-4.521-19.977a68.9,68.9,0,0,0-12.771,1.1c-7.536,1.426-11.719,3.89-13.9,5.706-1.823,1.517-2.533,2.975-2.109,4.335,1.033,3.315,8.411,6.061,18.8,7,21.565,1.943,36.141-.138,41.045-5.858a3.306,3.306,0,0,0,.787-3.5c-1.361-3.534-8.522-6.617-18.244-7.855a108.063,108.063,0,0,0-13.6-.921" transform="translate(-957.515 -864.89)" fill="#f7b686"/>
            <path id="Trazado_997877" data-name="Trazado 997877" d="M1305.323,1121.89l.5-.728c.183-.265-.286-.529-1.074-.617a33.766,33.766,0,0,1-4.865-.867c-.617-.168-.754-.459-.329-.682l.293-.154a4.056,4.056,0,0,1,2.391-.133,31.405,31.405,0,0,0,5.483.863c3.623.265,5.82-.407,6.492-1.381.648-.94-.207-1.516-3.63-2.3-4.734-1.064-9.34-2.227-8.315-3.713.893-1.3,4.245-2.426,10.3-2.048a1.977,1.977,0,0,0,1.521-.411l.55-.8a2.686,2.686,0,0,1,1.937-.4c.874.064,1.423.346,1.227.63l-.458.665c-.179.26.263.524,1.035.612a30.174,30.174,0,0,1,3.7.63c.68.165.843.475.382.707l-.291.147a4.071,4.071,0,0,1-2.321.134,29.214,29.214,0,0,0-4.7-.686c-3.929-.287-5.951.391-6.422,1.075-.612.888,2.079,1.175,6.095,2.114,4.761,1.1,7.384,2.355,6.773,3.9-.652,1.649-4.346,2.565-10.956,2.417a2.088,2.088,0,0,0-1.523.411l-.585.85a2.69,2.69,0,0,1-1.937.4l-.051,0c-.874-.064-1.423-.346-1.227-.631" transform="translate(-1029.868 -878.631)" fill="#f7b686"/>
            <path id="Trazado_997878" data-name="Trazado 997878" d="M1187.718,1110.054v-4.99l73-.452-.1,5.442Z" transform="translate(-941.416 -875.545)" fill="#ce745f"/>
            <path id="Trazado_997879" data-name="Trazado 997879" d="M1190.578,1074.958c6.643-5.527,21.8-10.389,47.868-7.068,16.979,2.162,25.848,8.73,20.948,14.447-5.957,6.949-23.291,9.418-48.828,7.119-17.572-1.583-28.293-7.587-19.988-14.5" transform="translate(-941.416 -845.579)" fill="#ffac04"/>
            <path id="Trazado_997880" data-name="Trazado 997880" d="M1190.578,1051.784c6.643-5.527,21.8-10.388,47.868-7.068,16.979,2.162,25.848,8.73,20.948,14.447-5.957,6.949-23.291,9.419-48.828,7.119-17.572-1.583-28.293-7.587-19.988-14.5" transform="translate(-941.416 -827.211)" fill="#ffde9a"/>
            <path id="Trazado_997881" data-name="Trazado 997881" d="M1246.421,1070.586c-4.437,0-9.315-.238-14.608-.715-11.01-.991-18.587-3.975-19.775-7.786-.714-2.29.947-4.277,2.466-5.541,3.565-2.967,14.71-9.5,41.141-6.137,10.284,1.31,17.624,4.594,19.156,8.571a4.413,4.413,0,0,1-.983,4.644c-2.607,3.041-7.609,5.116-14.866,6.168a88.246,88.246,0,0,1-12.53.8m-31.194-13.172c-1.823,1.517-2.533,2.975-2.109,4.335,1.033,3.315,8.411,6.061,18.8,7,21.564,1.942,36.141-.138,41.044-5.858a3.3,3.3,0,0,0,.787-3.5c-1.361-3.534-8.522-6.617-18.243-7.855-10.087-1.285-18.961-1.225-26.373.178-7.536,1.427-11.719,3.89-13.9,5.706" transform="translate(-960.558 -831.836)" fill="#f7b686"/>
            <path id="Trazado_997882" data-name="Trazado 997882" d="M1309.163,1080.191l.5-.729c.183-.265-.285-.528-1.075-.617a33.76,33.76,0,0,1-4.864-.867c-.617-.168-.754-.459-.329-.682l.293-.154a4.059,4.059,0,0,1,2.391-.133,31.412,31.412,0,0,0,5.483.863c3.623.265,5.82-.407,6.492-1.381.648-.94-.207-1.516-3.63-2.3-4.734-1.064-9.34-2.227-8.316-3.714.893-1.3,4.245-2.425,10.3-2.048a1.975,1.975,0,0,0,1.521-.411l.55-.8a2.687,2.687,0,0,1,1.937-.4c.873.064,1.423.346,1.227.631l-.459.665c-.179.26.263.524,1.035.612a30.147,30.147,0,0,1,3.7.63c.68.165.843.475.382.707l-.291.147a4.071,4.071,0,0,1-2.321.134,29.2,29.2,0,0,0-4.7-.686c-3.929-.287-5.951.391-6.422,1.075-.612.889,2.079,1.175,6.094,2.114,4.761,1.1,7.384,2.355,6.774,3.9-.652,1.649-4.346,2.565-10.956,2.417a2.09,2.09,0,0,0-1.523.411l-.585.849a2.688,2.688,0,0,1-1.937.4l-.051,0c-.874-.064-1.423-.346-1.227-.63" transform="translate(-1032.911 -845.579)" fill="#f7b686"/>
            <path id="Trazado_997883" data-name="Trazado 997883" d="M1222.278,1074.143v-4.99l73-.452-.1,5.442Z" transform="translate(-968.81 -847.081)" fill="#ce745f"/>
            <path id="Trazado_997884" data-name="Trazado 997884" d="M1225.138,1039.047c6.643-5.527,21.8-10.388,47.868-7.067,16.979,2.162,25.849,8.73,20.948,14.447-5.958,6.949-23.291,9.419-48.828,7.119-17.572-1.582-28.293-7.587-19.988-14.5" transform="translate(-968.809 -817.115)" fill="#ffac04"/>
            <path id="Trazado_997885" data-name="Trazado 997885" d="M1225.138,1015.872c6.643-5.527,21.8-10.388,47.868-7.068,16.979,2.163,25.849,8.73,20.948,14.447-5.958,6.949-23.291,9.418-48.828,7.119-17.572-1.583-28.293-7.588-19.988-14.5" transform="translate(-968.809 -798.746)" fill="#ffde9a"/>
            <path id="Trazado_997886" data-name="Trazado 997886" d="M1280.982,1034.677c-4.437,0-9.315-.238-14.609-.715-11.01-.991-18.587-3.975-19.775-7.786-.714-2.29.947-4.277,2.465-5.541,3.565-2.967,14.711-9.5,41.141-6.137,10.284,1.31,17.624,4.594,19.156,8.571a4.414,4.414,0,0,1-.983,4.644c-2.607,3.041-7.609,5.117-14.867,6.168a88.221,88.221,0,0,1-12.529.8m-4.522-19.977a68.891,68.891,0,0,0-12.771,1.1c-7.536,1.426-11.719,3.89-13.9,5.706-1.823,1.517-2.533,2.976-2.109,4.335,1.033,3.315,8.411,6.061,18.8,7,21.565,1.943,36.141-.138,41.045-5.859a3.305,3.305,0,0,0,.787-3.5c-1.361-3.534-8.522-6.617-18.244-7.855a108.04,108.04,0,0,0-13.6-.921" transform="translate(-987.951 -803.374)" fill="#f7b686"/>
            <path id="Trazado_997887" data-name="Trazado 997887" d="M1214.592,1024.972v-4.989l73-.452-.1,5.442Z" transform="translate(-962.717 -808.107)" fill="#ce745f"/>
            <path id="Trazado_997888" data-name="Trazado 997888" d="M1217.452,989.877c6.643-5.527,21.8-10.388,47.868-7.068,16.979,2.162,25.849,8.73,20.948,14.447-5.957,6.949-23.291,9.418-48.828,7.119-17.572-1.583-28.293-7.587-19.988-14.5" transform="translate(-962.717 -778.141)" fill="#ffac04"/>
            <path id="Trazado_997889" data-name="Trazado 997889" d="M1217.452,966.7c6.643-5.527,21.8-10.388,47.868-7.068,16.979,2.162,25.849,8.73,20.948,14.447-5.957,6.949-23.291,9.418-48.828,7.119-17.572-1.583-28.293-7.588-19.988-14.5" transform="translate(-962.717 -759.772)" fill="#ffde9a"/>
            <path id="Trazado_997890" data-name="Trazado 997890" d="M1273.295,985.506c-4.437,0-9.315-.238-14.608-.715-11.01-.991-18.587-3.975-19.775-7.786-.714-2.29.947-4.277,2.466-5.541l.362.434-.362-.434c3.565-2.967,14.71-9.5,41.141-6.137,10.284,1.31,17.624,4.594,19.156,8.571a4.414,4.414,0,0,1-.984,4.644c-2.607,3.041-7.609,5.116-14.866,6.168a88.228,88.228,0,0,1-12.53.8m-4.521-19.977a68.909,68.909,0,0,0-12.771,1.1c-7.536,1.426-11.719,3.89-13.9,5.706-1.823,1.517-2.533,2.976-2.109,4.335,1.033,3.315,8.411,6.061,18.8,7,21.565,1.943,36.141-.138,41.045-5.858a3.306,3.306,0,0,0,.786-3.5c-1.361-3.534-8.522-6.617-18.243-7.855a108.075,108.075,0,0,0-13.6-.921" transform="translate(-981.859 -764.4)" fill="#f7b686"/>
            <path id="Trazado_997891" data-name="Trazado 997891" d="M1336.037,995.109l.5-.728c.183-.265-.285-.529-1.074-.617a33.81,33.81,0,0,1-4.864-.867c-.617-.168-.754-.459-.329-.682l.293-.154a4.055,4.055,0,0,1,2.391-.133,31.41,31.41,0,0,0,5.483.863c3.623.265,5.82-.407,6.492-1.381.648-.94-.207-1.516-3.63-2.3-4.734-1.064-9.34-2.227-8.315-3.713.893-1.3,4.245-2.425,10.3-2.048a1.976,1.976,0,0,0,1.521-.411l.55-.8a2.686,2.686,0,0,1,1.937-.4c.874.064,1.423.346,1.227.63l-.459.665c-.179.26.263.524,1.035.612a30.182,30.182,0,0,1,3.7.63c.68.165.843.475.382.707l-.291.147a4.074,4.074,0,0,1-2.321.134,29.188,29.188,0,0,0-4.7-.686c-3.929-.287-5.951.391-6.422,1.075-.613.889,2.079,1.175,6.095,2.114,4.761,1.1,7.384,2.355,6.773,3.9-.652,1.649-4.346,2.565-10.956,2.417a2.088,2.088,0,0,0-1.523.411l-.585.849a2.69,2.69,0,0,1-1.937.4l-.051,0c-.874-.064-1.423-.346-1.227-.631" transform="translate(-1054.213 -778.141)" fill="#f7b686"/>
            <path id="Trazado_997892" data-name="Trazado 997892" d="M704.359,1273.673v-4.989l73-.453-.1,5.442Z" transform="translate(-558.294 -1005.234)" fill="#ce745f"/>
            <path id="Trazado_997893" data-name="Trazado 997893" d="M707.222,1238.578c6.643-5.527,21.8-10.388,47.868-7.068,16.979,2.163,25.849,8.73,20.948,14.447-5.957,6.949-23.291,9.418-48.828,7.119-17.572-1.583-28.292-7.588-19.988-14.5" transform="translate(-558.295 -975.268)" fill="#ffac04"/>
            <path id="Trazado_997894" data-name="Trazado 997894" d="M707.222,1215.4c6.643-5.527,21.8-10.388,47.868-7.068,16.979,2.162,25.849,8.73,20.948,14.447-5.957,6.949-23.291,9.419-48.828,7.119-17.572-1.583-28.292-7.587-19.988-14.5" transform="translate(-558.295 -956.899)" fill="#e28569"/>
            <path id="Trazado_997895" data-name="Trazado 997895" d="M763.064,1234.206c-4.437,0-9.315-.238-14.609-.715-11.01-.992-18.587-3.975-19.775-7.786-.714-2.29.947-4.277,2.466-5.541,3.565-2.966,14.71-9.5,41.141-6.137,10.284,1.31,17.624,4.594,19.156,8.571a4.413,4.413,0,0,1-.984,4.644c-2.607,3.041-7.609,5.117-14.866,6.168a88.279,88.279,0,0,1-12.529.8M731.508,1220.6l.362.434c-1.823,1.517-2.533,2.976-2.109,4.335,1.033,3.315,8.411,6.061,18.8,7,21.565,1.942,36.141-.138,41.044-5.859a3.305,3.305,0,0,0,.787-3.5c-1.361-3.534-8.522-6.617-18.243-7.855-10.088-1.284-18.961-1.225-26.374.178-7.536,1.426-11.719,3.89-13.9,5.706Z" transform="translate(-577.436 -961.526)" fill="#f7b686"/>
            <path id="Trazado_997896" data-name="Trazado 997896" d="M704.359,1247.159v-4.99l73-.452-.1,5.442Z" transform="translate(-558.294 -984.218)" fill="#ce745f"/>
            <path id="Trazado_997897" data-name="Trazado 997897" d="M707.222,1212.064c6.643-5.527,21.8-10.388,47.868-7.067,16.979,2.162,25.849,8.729,20.948,14.446-5.957,6.949-23.291,9.419-48.828,7.119-17.572-1.583-28.292-7.587-19.988-14.5" transform="translate(-558.295 -954.253)" fill="#ffac04"/>
            <path id="Trazado_997898" data-name="Trazado 997898" d="M707.222,1188.889c6.643-5.527,21.8-10.388,47.868-7.068,16.979,2.163,25.849,8.73,20.948,14.447-5.957,6.949-23.291,9.418-48.828,7.119-17.572-1.583-28.292-7.587-19.988-14.5" transform="translate(-558.295 -935.883)" fill="#ffde9a"/>
            <path id="Trazado_997899" data-name="Trazado 997899" d="M763.063,1207.691c-4.437,0-9.315-.238-14.608-.715-11.01-.992-18.587-3.975-19.775-7.786-.714-2.29.947-4.277,2.465-5.541,3.565-2.967,14.711-9.5,41.141-6.137,10.284,1.31,17.624,4.594,19.156,8.571a4.413,4.413,0,0,1-.983,4.644c-2.607,3.041-7.609,5.116-14.866,6.168a88.252,88.252,0,0,1-12.53.8m-4.521-19.977a68.907,68.907,0,0,0-12.771,1.1c-7.536,1.426-11.719,3.89-13.9,5.706-1.823,1.517-2.533,2.976-2.109,4.335,1.033,3.315,8.411,6.061,18.8,7,21.565,1.942,36.141-.138,41.045-5.859a3.306,3.306,0,0,0,.787-3.5c-1.362-3.534-8.522-6.617-18.243-7.855a108.068,108.068,0,0,0-13.6-.921" transform="translate(-577.436 -940.509)" fill="#f7b686"/>
            <path id="Trazado_997900" data-name="Trazado 997900" d="M725.459,1210.436v-4.99l73-.452-.1,5.442Z" transform="translate(-575.017 -955.111)" fill="#ce745f"/>
            <path id="Trazado_997901" data-name="Trazado 997901" d="M728.32,1175.34c6.643-5.527,21.8-10.388,47.868-7.068,16.979,2.162,25.849,8.73,20.948,14.447-5.957,6.949-23.291,9.418-48.828,7.118-17.572-1.582-28.293-7.587-19.988-14.5" transform="translate(-575.018 -925.144)" fill="#ffac04"/>
            <path id="Trazado_997902" data-name="Trazado 997902" d="M728.32,1152.166c6.643-5.527,21.8-10.388,47.868-7.068,16.979,2.162,25.849,8.73,20.948,14.446-5.957,6.949-23.291,9.419-48.828,7.119-17.572-1.582-28.293-7.587-19.988-14.5" transform="translate(-575.018 -906.776)" fill="#ffde9a"/>
            <path id="Trazado_997903" data-name="Trazado 997903" d="M784.163,1170.967c-4.437,0-9.315-.238-14.608-.715-11.01-.991-18.587-3.975-19.775-7.786-.714-2.29.947-4.277,2.465-5.54,3.565-2.967,14.711-9.5,41.141-6.137,10.283,1.31,17.624,4.594,19.156,8.57a4.414,4.414,0,0,1-.984,4.644c-2.607,3.041-7.609,5.116-14.866,6.168a88.26,88.26,0,0,1-12.53.8m-31.556-13.607.362.434c-1.823,1.517-2.533,2.976-2.109,4.335,1.033,3.315,8.411,6.061,18.8,7,21.565,1.943,36.141-.138,41.044-5.859a3.3,3.3,0,0,0,.787-3.5c-1.361-3.534-8.522-6.617-18.243-7.855-10.088-1.285-18.961-1.225-26.373.178-7.536,1.427-11.719,3.89-13.9,5.706Z" transform="translate(-594.16 -911.401)" fill="#f7b686"/>
            <path id="Trazado_997904" data-name="Trazado 997904" d="M703.483,1168.871v-4.99l73-.452-.1,5.442Z" transform="translate(-557.599 -922.165)" fill="#ce745f"/>
            <path id="Trazado_997905" data-name="Trazado 997905" d="M706.344,1133.775c6.643-5.527,21.8-10.388,47.868-7.068,16.979,2.163,25.849,8.73,20.948,14.447-5.957,6.949-23.291,9.418-48.828,7.119-17.572-1.583-28.293-7.587-19.988-14.5" transform="translate(-557.599 -892.199)" fill="#ffac04"/>
            <path id="Trazado_997906" data-name="Trazado 997906" d="M706.344,1110.6c6.643-5.527,21.8-10.388,47.868-7.068,16.979,2.162,25.849,8.73,20.948,14.447-5.957,6.949-23.291,9.418-48.828,7.119-17.572-1.583-28.293-7.587-19.988-14.5" transform="translate(-557.599 -873.83)" fill="#e28569"/>
            <path id="Trazado_997907" data-name="Trazado 997907" d="M762.187,1129.4c-4.437,0-9.315-.238-14.609-.715-11.01-.991-18.587-3.975-19.775-7.786-.714-2.29.947-4.277,2.466-5.541,3.565-2.966,14.71-9.5,41.141-6.137,10.284,1.31,17.624,4.594,19.156,8.571a4.413,4.413,0,0,1-.984,4.644c-2.607,3.041-7.609,5.116-14.866,6.168a88.26,88.26,0,0,1-12.53.8m-31.194-13.172c-1.823,1.517-2.533,2.976-2.109,4.335,1.033,3.315,8.411,6.061,18.8,7,21.565,1.942,36.141-.138,41.044-5.858a3.3,3.3,0,0,0,.787-3.5c-1.361-3.534-8.522-6.618-18.244-7.855-10.087-1.285-18.961-1.225-26.373.178-7.536,1.427-11.72,3.89-13.9,5.706" transform="translate(-576.741 -878.457)" fill="#f7b686"/>
            <path id="Trazado_997908" data-name="Trazado 997908" d="M703.483,1142.357v-4.99l73-.452-.1,5.442Z" transform="translate(-557.599 -901.149)" fill="#ce745f"/>
            <path id="Trazado_997909" data-name="Trazado 997909" d="M706.344,1107.262c6.643-5.527,21.8-10.388,47.868-7.068,16.979,2.163,25.849,8.73,20.948,14.447-5.957,6.949-23.291,9.418-48.828,7.118-17.572-1.582-28.293-7.587-19.988-14.5" transform="translate(-557.599 -871.184)" fill="#ffac04"/>
            <path id="Trazado_997910" data-name="Trazado 997910" d="M706.344,1084.086c6.643-5.527,21.8-10.388,47.868-7.068,16.979,2.163,25.849,8.73,20.948,14.447-5.957,6.95-23.291,9.419-48.828,7.119-17.572-1.582-28.293-7.587-19.988-14.5" transform="translate(-557.599 -852.814)" fill="#ffde9a"/>
            <path id="Trazado_997911" data-name="Trazado 997911" d="M762.187,1102.889c-4.437,0-9.315-.238-14.608-.715-11.01-.991-18.587-3.975-19.775-7.786-.714-2.29.947-4.277,2.465-5.541,3.566-2.967,14.711-9.5,41.141-6.137,10.283,1.31,17.624,4.594,19.156,8.571a4.413,4.413,0,0,1-.983,4.644c-2.607,3.041-7.609,5.116-14.866,6.168a88.234,88.234,0,0,1-12.53.8m-4.522-19.977a68.9,68.9,0,0,0-12.771,1.1c-7.536,1.426-11.719,3.89-13.9,5.706-1.823,1.517-2.533,2.976-2.109,4.335,1.033,3.315,8.411,6.061,18.8,7,21.565,1.943,36.141-.138,41.044-5.858a3.305,3.305,0,0,0,.787-3.5c-1.361-3.534-8.522-6.617-18.243-7.855a108.023,108.023,0,0,0-13.6-.921" transform="translate(-576.741 -857.441)" fill="#f7b686"/>
            <path id="Trazado_997912" data-name="Trazado 997912" d="M703.483,1105.633v-4.99l73-.452-.1,5.442Z" transform="translate(-557.599 -872.041)" fill="#ce745f"/>
            <path id="Trazado_997913" data-name="Trazado 997913" d="M706.344,1070.537c6.643-5.527,21.8-10.388,47.868-7.068,16.979,2.162,25.849,8.73,20.948,14.447-5.957,6.949-23.291,9.419-48.828,7.119-17.572-1.583-28.293-7.587-19.988-14.5" transform="translate(-557.599 -842.075)" fill="#ffac04"/>
            <path id="Trazado_997914" data-name="Trazado 997914" d="M706.344,1047.363c6.643-5.527,21.8-10.388,47.868-7.068,16.979,2.163,25.849,8.73,20.948,14.447-5.957,6.949-23.291,9.419-48.828,7.119-17.572-1.582-28.293-7.587-19.988-14.5" transform="translate(-557.599 -823.706)" fill="#ffde9a"/>
            <path id="Trazado_997915" data-name="Trazado 997915" d="M762.187,1066.165c-4.437,0-9.315-.238-14.608-.715-11.01-.992-18.587-3.975-19.775-7.786-.714-2.29.947-4.277,2.465-5.54,3.566-2.967,14.711-9.5,41.141-6.137,10.283,1.31,17.624,4.594,19.156,8.571a4.413,4.413,0,0,1-.983,4.644c-2.607,3.041-7.609,5.116-14.866,6.168a88.292,88.292,0,0,1-12.53.8m-4.522-19.977a68.9,68.9,0,0,0-12.771,1.1c-7.536,1.426-11.719,3.89-13.9,5.706-1.823,1.517-2.533,2.975-2.109,4.335,1.033,3.315,8.411,6.061,18.8,7,21.565,1.942,36.141-.138,41.044-5.859a3.305,3.305,0,0,0,.787-3.5c-1.361-3.534-8.522-6.617-18.243-7.855a108.069,108.069,0,0,0-13.6-.921" transform="translate(-576.741 -828.332)" fill="#f7b686"/>
            <path id="Trazado_997916" data-name="Trazado 997916" d="M707.649,1060.594v-4.99l73-.452-.1,5.442Z" transform="translate(-560.901 -836.342)" fill="#ce745f"/>
            <path id="Trazado_997917" data-name="Trazado 997917" d="M710.51,1025.5c6.643-5.527,21.8-10.388,47.868-7.068,16.979,2.162,25.849,8.73,20.948,14.446-5.958,6.95-23.291,9.419-48.828,7.119-17.572-1.583-28.293-7.587-19.988-14.5" transform="translate(-560.901 -806.376)" fill="#ffac04"/>
            <path id="Trazado_997918" data-name="Trazado 997918" d="M710.51,1002.324c6.643-5.527,21.8-10.388,47.868-7.068,16.979,2.163,25.849,8.73,20.948,14.447-5.958,6.949-23.291,9.418-48.828,7.118-17.572-1.582-28.293-7.587-19.988-14.5" transform="translate(-560.901 -788.007)" fill="#ffde9a"/>
            <path id="Trazado_997919" data-name="Trazado 997919" d="M766.352,1021.127c-4.437,0-9.315-.238-14.608-.715-11.01-.991-18.587-3.975-19.775-7.786-.714-2.29.947-4.277,2.466-5.54,3.565-2.967,14.71-9.5,41.141-6.137,10.284,1.31,17.624,4.594,19.156,8.57a4.413,4.413,0,0,1-.984,4.644c-2.607,3.041-7.609,5.117-14.866,6.168a88.258,88.258,0,0,1-12.53.8M734.8,1007.519l.362.434c-1.823,1.517-2.533,2.976-2.109,4.335,1.033,3.315,8.411,6.061,18.8,7,21.565,1.943,36.141-.138,41.044-5.859a3.3,3.3,0,0,0,.787-3.5c-1.361-3.534-8.522-6.617-18.243-7.855-10.087-1.285-18.961-1.225-26.373.178-7.536,1.427-11.72,3.89-13.9,5.706Z" transform="translate(-580.043 -792.634)" fill="#f7b686"/>
            <path id="Trazado_997920" data-name="Trazado 997920" d="M829.094,1030.731l.5-.729c.183-.265-.285-.528-1.074-.617a33.857,33.857,0,0,1-4.865-.867c-.617-.168-.754-.46-.33-.682l.293-.154a4.059,4.059,0,0,1,2.391-.133,31.382,31.382,0,0,0,5.483.863c3.623.265,5.82-.407,6.492-1.381.648-.94-.207-1.516-3.63-2.3-4.734-1.064-9.34-2.227-8.315-3.713.893-1.3,4.245-2.426,10.3-2.048a1.976,1.976,0,0,0,1.521-.411l.55-.8a2.687,2.687,0,0,1,1.937-.4c.874.064,1.423.346,1.227.631l-.459.665c-.179.26.263.524,1.035.612a30.093,30.093,0,0,1,3.7.63c.68.165.843.476.382.707l-.291.147a4.071,4.071,0,0,1-2.321.134,29.159,29.159,0,0,0-4.7-.686c-3.929-.287-5.951.391-6.422,1.074-.613.888,2.079,1.175,6.095,2.114,4.761,1.1,7.384,2.355,6.773,3.9-.652,1.649-4.346,2.564-10.956,2.417a2.088,2.088,0,0,0-1.523.411l-.585.849a2.691,2.691,0,0,1-1.937.4l-.051,0c-.874-.064-1.423-.346-1.227-.631" transform="translate(-652.397 -806.375)" fill="#f7b686"/>
            <path id="Trazado_997921" data-name="Trazado 997921" d="M711.487,1018.895v-4.99l73-.452-.1,5.442Z" transform="translate(-563.943 -803.29)" fill="#ce745f"/>
            <path id="Trazado_997922" data-name="Trazado 997922" d="M714.349,983.8c6.643-5.527,21.8-10.388,47.868-7.068,16.979,2.163,25.848,8.73,20.947,14.447-5.957,6.949-23.291,9.419-48.828,7.119-17.572-1.582-28.292-7.587-19.988-14.5" transform="translate(-563.944 -773.324)" fill="#ffac04"/>
            <path id="Trazado_997923" data-name="Trazado 997923" d="M714.349,960.625c6.643-5.527,21.8-10.388,47.868-7.068,16.979,2.162,25.848,8.73,20.947,14.446-5.957,6.949-23.291,9.418-48.828,7.119-17.572-1.582-28.292-7.587-19.988-14.5" transform="translate(-563.944 -754.955)" fill="#ffde9a"/>
            <path id="Trazado_997924" data-name="Trazado 997924" d="M770.191,979.427c-4.437,0-9.315-.238-14.608-.715-11.01-.992-18.587-3.975-19.775-7.786-.714-2.29.947-4.277,2.465-5.54l.362.434-.362-.434c3.565-2.967,14.71-9.5,41.141-6.137,10.284,1.31,17.624,4.594,19.156,8.571a4.414,4.414,0,0,1-.983,4.644c-2.607,3.041-7.609,5.116-14.867,6.168a88.253,88.253,0,0,1-12.53.8m-4.522-19.978a68.924,68.924,0,0,0-12.771,1.1c-7.536,1.427-11.719,3.89-13.9,5.706-1.823,1.517-2.533,2.976-2.109,4.335,1.033,3.315,8.411,6.061,18.8,7,21.565,1.943,36.141-.138,41.044-5.859a3.3,3.3,0,0,0,.787-3.5c-1.361-3.534-8.522-6.617-18.243-7.855a108.046,108.046,0,0,0-13.6-.921" transform="translate(-583.085 -759.581)" fill="#f7b686"/>
            <path id="Trazado_997925" data-name="Trazado 997925" d="M832.932,989.032l.5-.728c.182-.265-.286-.528-1.075-.617a33.82,33.82,0,0,1-4.864-.867c-.617-.168-.754-.459-.33-.682l.293-.154a4.058,4.058,0,0,1,2.391-.133,31.384,31.384,0,0,0,5.483.863c3.622.265,5.82-.407,6.491-1.381.648-.94-.207-1.516-3.63-2.3-4.734-1.064-9.34-2.227-8.315-3.713.893-1.3,4.245-2.425,10.3-2.048a1.975,1.975,0,0,0,1.521-.411l.55-.8a2.687,2.687,0,0,1,1.937-.4c.874.064,1.423.346,1.227.631l-.458.665c-.179.26.263.524,1.035.612a30.073,30.073,0,0,1,3.7.63c.68.165.843.475.382.707l-.291.147a4.072,4.072,0,0,1-2.321.134,29.211,29.211,0,0,0-4.7-.686c-3.929-.287-5.951.391-6.422,1.074-.612.888,2.079,1.175,6.095,2.114,4.761,1.1,7.384,2.355,6.773,3.9-.652,1.649-4.346,2.565-10.956,2.417a2.086,2.086,0,0,0-1.523.411l-.586.849a2.689,2.689,0,0,1-1.937.4l-.051,0c-.874-.064-1.423-.346-1.227-.63" transform="translate(-655.439 -773.324)" fill="#f7b686"/>
            <path id="Trazado_997926" data-name="Trazado 997926" d="M793.089,966.518v-4.99l73-.452-.1,5.442Z" transform="translate(-628.623 -761.775)" fill="#ce745f"/>
            <path id="Trazado_997927" data-name="Trazado 997927" d="M795.95,931.422c6.643-5.527,21.8-10.388,47.868-7.068,16.979,2.162,25.848,8.73,20.948,14.446-5.957,6.95-23.291,9.419-48.828,7.119-17.572-1.582-28.293-7.587-19.988-14.5" transform="translate(-628.623 -731.809)" fill="#ffac04"/>
            <path id="Trazado_997928" data-name="Trazado 997928" d="M795.95,908.248c6.643-5.527,21.8-10.388,47.868-7.068,16.979,2.162,25.848,8.73,20.948,14.447-5.957,6.949-23.291,9.418-48.828,7.119-17.572-1.583-28.293-7.587-19.988-14.5" transform="translate(-628.623 -713.44)" fill="#ffde9a"/>
            <path id="Trazado_997929" data-name="Trazado 997929" d="M851.792,927.05c-4.437,0-9.315-.238-14.608-.715-11.01-.991-18.587-3.975-19.775-7.786-.714-2.29.947-4.277,2.465-5.541,3.565-2.966,14.711-9.5,41.141-6.137,10.284,1.31,17.624,4.594,19.156,8.571a4.413,4.413,0,0,1-.983,4.644c-2.607,3.041-7.609,5.116-14.867,6.168a88.279,88.279,0,0,1-12.53.8m-4.522-19.977a68.922,68.922,0,0,0-12.771,1.1c-7.536,1.427-11.719,3.89-13.9,5.706-1.823,1.517-2.533,2.976-2.109,4.335,1.033,3.315,8.411,6.061,18.8,7,21.565,1.942,36.141-.138,41.044-5.859a3.3,3.3,0,0,0,.787-3.5c-1.361-3.534-8.522-6.617-18.243-7.855a108.089,108.089,0,0,0-13.6-.921" transform="translate(-647.764 -718.066)" fill="#f7b686"/>
            <path id="Trazado_997930" data-name="Trazado 997930" d="M738.362,931.969v-4.99l73-.452-.1,5.442Z" transform="translate(-585.245 -734.391)" fill="#ce745f"/>
            <path id="Trazado_997931" data-name="Trazado 997931" d="M741.223,896.873c6.643-5.527,21.8-10.388,47.868-7.068,16.979,2.163,25.849,8.73,20.948,14.447-5.958,6.949-23.291,9.419-48.828,7.118-17.572-1.582-28.293-7.587-19.988-14.5" transform="translate(-585.245 -704.424)" fill="#ffac04"/>
            <path id="Trazado_997932" data-name="Trazado 997932" d="M741.223,873.7c6.643-5.527,21.8-10.388,47.868-7.068,16.979,2.163,25.849,8.73,20.948,14.446-5.958,6.949-23.291,9.418-48.828,7.119-17.572-1.582-28.293-7.587-19.988-14.5" transform="translate(-585.245 -686.056)" fill="#ffde9a"/>
            <path id="Trazado_997933" data-name="Trazado 997933" d="M797.065,892.5c-4.437,0-9.315-.238-14.608-.715-11.01-.992-18.587-3.975-19.775-7.786-.714-2.29.947-4.277,2.466-5.54,3.565-2.967,14.712-9.5,41.141-6.137,10.284,1.31,17.624,4.594,19.156,8.571a4.414,4.414,0,0,1-.983,4.644c-2.607,3.041-7.609,5.116-14.866,6.168a88.22,88.22,0,0,1-12.53.8m-4.521-19.977a68.925,68.925,0,0,0-12.771,1.1c-7.536,1.427-11.719,3.89-13.9,5.706-1.823,1.517-2.533,2.976-2.109,4.335,1.033,3.315,8.411,6.061,18.8,7,21.564,1.943,36.141-.138,41.044-5.859a3.3,3.3,0,0,0,.787-3.5c-1.361-3.534-8.522-6.617-18.244-7.855a108.044,108.044,0,0,0-13.6-.921" transform="translate(-604.387 -690.682)" fill="#f7b686"/>
            <path id="Trazado_997934" data-name="Trazado 997934" d="M859.807,902.106l.5-.729c.183-.265-.286-.528-1.075-.617a33.794,33.794,0,0,1-4.865-.867c-.617-.168-.754-.459-.329-.682l.293-.154a4.055,4.055,0,0,1,2.391-.133,31.39,31.39,0,0,0,5.483.863c3.623.265,5.82-.407,6.492-1.381.648-.94-.207-1.516-3.63-2.3-4.734-1.064-9.34-2.227-8.315-3.713.893-1.3,4.245-2.425,10.3-2.048a1.978,1.978,0,0,0,1.521-.411l.55-.8a2.689,2.689,0,0,1,1.937-.4c.874.064,1.423.346,1.227.631l-.458.665c-.179.26.263.524,1.035.612a30.1,30.1,0,0,1,3.7.63c.68.165.843.475.382.707l-.291.147a4.073,4.073,0,0,1-2.321.134,29.214,29.214,0,0,0-4.7-.686c-3.929-.287-5.951.391-6.422,1.075-.613.889,2.079,1.175,6.095,2.114,4.761,1.1,7.384,2.355,6.773,3.9-.652,1.649-4.346,2.565-10.956,2.417a2.088,2.088,0,0,0-1.523.412l-.585.849a2.689,2.689,0,0,1-1.937.4l-.051,0c-.874-.064-1.423-.346-1.227-.63" transform="translate(-676.74 -704.424)" fill="#f7b686"/>
            <path id="Trazado_997935" data-name="Trazado 997935" d="M853.795,1103.056c0-15.9,7.564-32.85,31.986-32.85,15.9,0,29.521,13.569,31.121,29.392,1.945,19.235-9.725,30.905-32.716,33.282-15.82,1.636-30.391-9.942-30.391-29.824" transform="translate(-676.74 -848.274)" fill="#ffde9a"/>
            <path id="Trazado_997936" data-name="Trazado 997936" d="M896.614,1143.859a23.369,23.369,0,0,1-15.819-6.019c-5.375-4.847-8.334-12.072-8.334-20.342,0-5.485,1.041-13.334,6-19.578,4.861-6.12,12.285-9.223,22.066-9.223,13.631,0,25.889,11.562,27.326,25.773,1.7,16.78-8.458,27.169-28.593,29.251a25.673,25.673,0,0,1-2.646.138m3.912-53.432c-9.227,0-16.2,2.883-20.712,8.569-4.649,5.853-5.625,13.292-5.625,18.5,0,7.775,2.757,14.543,7.763,19.058A21.864,21.864,0,0,0,899.082,1142c9.548-.988,16.727-3.855,21.337-8.524,4.586-4.644,6.508-10.981,5.714-18.833-1.35-13.354-12.837-24.218-25.606-24.218" transform="translate(-691.535 -862.93)" fill="#f7b686"/>
            <path id="Trazado_997937" data-name="Trazado 997937" d="M961.064,1166.623l-.3-1.977a1.42,1.42,0,0,0-1.475-1.2,13.728,13.728,0,0,1-4.8-.617,1.411,1.411,0,0,1-.933-1.6l.088-.477a1.414,1.414,0,0,1,1.813-1.091,11.97,11.97,0,0,0,5.3.411c3.2-.491,4.33-2.866,3.925-5.51-.391-2.551-1.648-3.717-5.2-4.6-4.884-1.15-9.761-2.588-10.381-6.623-.54-3.517,1.081-7.4,6.367-8.383a1.282,1.282,0,0,0,.833-1.51l-.332-2.166a1.414,1.414,0,1,1,2.8-.429l.277,1.806a1.409,1.409,0,0,0,1.439,1.2,11.909,11.909,0,0,1,3.623.394,1.41,1.41,0,0,1,1,1.643l-.093.459a1.409,1.409,0,0,1-1.755,1.072,10.8,10.8,0,0,0-4.486-.218c-3.472.532-4.453,2.867-4.168,4.722.37,2.412,2.836,2.27,7.015,3.339,4.943,1.236,8.3,3.53,9.311,7.582,1.081,4.323-1.026,7.78-6.54,9.514a1.345,1.345,0,0,0-.835,1.511l.353,2.306a1.414,1.414,0,0,1-1.183,1.613l-.045.007a1.414,1.414,0,0,1-1.612-1.184" transform="translate(-752.202 -895.399)" fill="#f7b686"/>
            <path id="Trazado_997938" data-name="Trazado 997938" d="M1081.119,1095.88c-9.7,11.783-30.853,43.459-23.2,54.335s53.918,8.444,61.486,4.406-11.413-54.392-17.6-60.74-13.917-6.227-20.689,2" transform="translate(-837.24 -863.477)" fill="#8cbf62"/>
            <path id="Trazado_997939" data-name="Trazado 997939" d="M1169.734,1200.175l.4-1.748a1.274,1.274,0,0,0-.833-1.486,12.291,12.291,0,0,1-3.794-2.1,1.264,1.264,0,0,1-.25-1.639l.231-.368a1.268,1.268,0,0,1,1.871-.31,10.736,10.736,0,0,0,4.278,2.1c2.831.65,4.557-.956,5.094-3.294.518-2.255-.143-3.643-2.812-5.55-3.689-2.574-7.279-5.385-6.459-8.953.714-3.11,3.349-5.811,8.079-4.88.564.111,1.065-.422,1.194-.982l.44-1.915a1.268,1.268,0,1,1,2.471.567l-.366,1.6a1.264,1.264,0,0,0,.8,1.475,10.676,10.676,0,0,1,2.889,1.527,1.265,1.265,0,0,1,.29,1.7l-.229.351a1.263,1.263,0,0,1-1.817.313,9.683,9.683,0,0,0-3.666-1.666c-3.07-.7-4.659.917-5.036,2.557-.489,2.132,1.613,2.83,4.742,5.1,3.711,2.665,5.748,5.688,5.251,9.4-.529,3.959-3.429,6.144-8.6,5.765a1.207,1.207,0,0,0-1.2.983l-.468,2.038a1.268,1.268,0,0,1-1.52.952l-.04-.009a1.268,1.268,0,0,1-.952-1.519" transform="translate(-923.459 -925.834)" fill="#fff7e5"/>
            <path id="Trazado_997940" data-name="Trazado 997940" d="M1245.037,1035.18s-9.8,1.328-10.726,7.154,8.58,1.184,14.917,2.739,2.76-3.045,1.329-6.111-1.329-4.19-5.519-3.781" transform="translate(-978.297 -820.447)" fill="#8cbf62"/>
            <path id="Trazado_997941" data-name="Trazado 997941" d="M476.9,1356.1v-4.481l65.555-.406-.094,4.887Z" transform="translate(-378.002 -1071.009)" fill="#ce745f"/>
            <path id="Trazado_997942" data-name="Trazado 997942" d="M479.467,1324.586c5.965-4.963,19.573-9.328,42.985-6.347,15.246,1.942,23.212,7.839,18.811,12.973-5.349,6.24-20.915,8.458-43.847,6.392-15.779-1.421-25.406-6.813-17.949-13.019" transform="translate(-378.001 -1044.099)" fill="#ffac04"/>
            <path id="Trazado_997943" data-name="Trazado 997943" d="M479.467,1303.775c5.965-4.963,19.573-9.329,42.985-6.347,15.246,1.942,23.212,7.839,18.811,12.973-5.349,6.24-20.915,8.458-43.847,6.392-15.779-1.421-25.406-6.813-17.949-13.019" transform="translate(-378.001 -1027.604)" fill="#ffde9a"/>
            <path id="Trazado_997944" data-name="Trazado 997944" d="M529.614,1320.661c-3.984,0-8.365-.214-13.118-.642-9.887-.891-16.691-3.57-17.757-6.992-.641-2.057.85-3.841,2.214-4.975,3.2-2.664,13.21-8.533,36.945-5.511,9.235,1.176,15.826,4.125,17.2,7.7a3.963,3.963,0,0,1-.883,4.17c-2.341,2.731-6.833,4.595-13.35,5.539a79.243,79.243,0,0,1-11.251.715M501.6,1308.832c-1.637,1.362-2.274,2.672-1.894,3.893.927,2.977,7.553,5.443,16.879,6.283,19.364,1.744,32.454-.124,36.857-5.261a2.968,2.968,0,0,0,.707-3.144c-1.222-3.173-7.653-5.942-16.383-7.054-9.058-1.154-17.026-1.1-23.683.16-6.768,1.281-10.524,3.493-12.483,5.124" transform="translate(-395.192 -1031.76)" fill="#f7b686"/>
            <path id="Trazado_997945" data-name="Trazado 997945" d="M585.955,1329.286l.451-.655c.164-.238-.256-.474-.965-.553a30.321,30.321,0,0,1-4.368-.778c-.554-.151-.677-.412-.3-.612l.263-.138a3.642,3.642,0,0,1,2.147-.119,28.179,28.179,0,0,0,4.923.775c3.254.238,5.227-.366,5.829-1.24.582-.844-.186-1.361-3.259-2.069-4.251-.955-8.387-2-7.467-3.335.8-1.163,3.812-2.178,9.249-1.839a1.774,1.774,0,0,0,1.365-.37l.493-.716a2.416,2.416,0,0,1,1.74-.359c.784.057,1.278.311,1.1.566l-.412.6c-.16.233.236.471.929.55a27.02,27.02,0,0,1,3.326.565c.611.148.756.427.343.635l-.261.132a3.658,3.658,0,0,1-2.084.12,26.219,26.219,0,0,0-4.219-.616c-3.528-.258-5.344.351-5.766.965-.55.8,1.867,1.055,5.473,1.9,4.275.989,6.631,2.115,6.082,3.5-.585,1.481-3.9,2.3-9.838,2.171a1.875,1.875,0,0,0-1.367.37l-.526.763a2.414,2.414,0,0,1-1.739.359l-.046,0c-.784-.057-1.278-.311-1.1-.566" transform="translate(-460.164 -1044.1)" fill="#f7b686"/>
            <path id="Trazado_997946" data-name="Trazado 997946" d="M776.44,1416.031v-3.087l45.165-.28-.065,3.367Z" transform="translate(-615.427 -1119.715)" fill="#ce745f"/>
            <path id="Trazado_997947" data-name="Trazado 997947" d="M778.21,1394.317c4.11-3.42,13.485-6.427,29.615-4.373,10.5,1.338,15.992,5.4,12.96,8.938-3.686,4.3-14.41,5.827-30.209,4.4-10.872-.979-17.5-4.694-12.366-8.969" transform="translate(-615.427 -1101.175)" fill="#ffac04"/>
            <path id="Trazado_997948" data-name="Trazado 997948" d="M778.21,1379.979c4.11-3.42,13.485-6.427,29.615-4.372,10.5,1.338,15.992,5.4,12.96,8.938-3.686,4.3-14.41,5.827-30.209,4.4-10.872-.979-17.5-4.694-12.366-8.97" transform="translate(-615.427 -1089.811)" fill="#ffde9a"/>
            <path id="Trazado_997949" data-name="Trazado 997949" d="M812.667,1391.6c-2.718,0-5.7-.144-8.939-.435-6.811-.614-11.5-2.459-12.234-4.818-.243-.782-.177-2.012,1.526-3.428,2.205-1.835,9.1-5.879,25.453-3.8,6.362.811,10.9,2.842,11.851,5.3a2.73,2.73,0,0,1-.608,2.873c-2.426,2.83-8.36,4.3-17.049,4.3m-19.2-8.142c-1.128.939-1.567,1.841-1.3,2.682.639,2.051,5.2,3.75,11.629,4.329,13.341,1.2,22.36-.086,25.394-3.625a2.045,2.045,0,0,0,.487-2.167c-.842-2.186-5.273-4.094-11.287-4.86a53.022,53.022,0,0,0-16.317.11c-4.662.882-7.25,2.407-8.6,3.53" transform="translate(-627.276 -1092.673)" fill="#f7b686"/>
            <path id="Trazado_997950" data-name="Trazado 997950" d="M851.577,1397.555l.311-.451c.113-.164-.177-.327-.665-.381a20.944,20.944,0,0,1-3.009-.536c-.382-.1-.467-.284-.2-.422l.181-.095a2.507,2.507,0,0,1,1.479-.082,19.409,19.409,0,0,0,3.392.534c2.242.164,3.6-.252,4.016-.854.4-.582-.128-.938-2.246-1.426-2.929-.658-5.779-1.378-5.145-2.3.553-.8,2.627-1.5,6.372-1.267a1.222,1.222,0,0,0,.941-.255l.34-.494a1.665,1.665,0,0,1,1.2-.247c.54.04.88.214.759.39l-.284.412c-.111.161.163.324.64.379a18.63,18.63,0,0,1,2.291.39c.421.1.521.294.236.437l-.18.091a2.515,2.515,0,0,1-1.436.083,18.124,18.124,0,0,0-2.907-.424c-2.431-.177-3.681.242-3.973.665-.379.55,1.287.727,3.771,1.308,2.946.682,4.569,1.457,4.191,2.413-.4,1.02-2.689,1.587-6.778,1.5a1.291,1.291,0,0,0-.942.254l-.362.526a1.663,1.663,0,0,1-1.2.247l-.031,0c-.54-.039-.88-.214-.759-.39" transform="translate(-672.034 -1101.175)" fill="#f7b686"/>
            <g id="Grupo_1179165" data-name="Grupo 1179165" transform="translate(18.474 23.411)" opacity="0.6">
              <g id="Grupo_1179164" data-name="Grupo 1179164">
                <g id="Grupo_1179163" data-name="Grupo 1179163" clip-path="url(#clip-path-6)">
                  <path id="Trazado_997951" data-name="Trazado 997951" d="M60.845,121.349s-4.96-9.539-17.51-8.344S32.279,123.762,26.3,122.866s-14.343,0-16.136,5.976S.306,131.531.007,136.611s9.263,8.666,20.32,4.184,16.435,3.482,31.973,2.04S69.763,139.6,78.96,140.5s8.979-5.4,4.8-9.585-21.117-3.785-22.91-9.562" transform="translate(0 -112.901)" fill="#fff"/>
                </g>
              </g>
            </g>
            <g id="Grupo_1179168" data-name="Grupo 1179168" transform="translate(261.546 16.643)" opacity="0.6">
              <g id="Grupo_1179167" data-name="Grupo 1179167">
                <g id="Grupo_1179166" data-name="Grupo 1179166" clip-path="url(#clip-path-7)">
                  <path id="Trazado_997952" data-name="Trazado 997952" d="M1335.756,90.6s-6.075-11.684-21.447-10.22-13.542,13.176-20.862,12.078-17.568,0-19.764,7.32-12.078,3.294-12.444,9.516,11.346,10.614,24.888,5.124,20.13,4.265,39.162,2.5,21.39-3.963,32.655-2.864,11-6.615,5.874-11.739-25.866-4.636-28.062-11.713" transform="translate(-1261.23 -80.256)" fill="#fff"/>
                </g>
              </g>
            </g>
            <g id="Grupo_1179171" data-name="Grupo 1179171" transform="translate(54.556 66.635)" opacity="0.4">
              <g id="Grupo_1179170" data-name="Grupo 1179170">
                <g id="Grupo_1179169" data-name="Grupo 1179169" clip-path="url(#clip-path-8)">
                  <path id="Trazado_997953" data-name="Trazado 997953" d="M323.139,332.949s-7.856-13.607-22.228-11.371-.319,8.37-19.163,11.371-23,9.389-14.372,14.5,22.677-9.262,38.007-2.236,35.833,1.024,17.757-12.263" transform="translate(-263.081 -321.329)" fill="#fff"/>
                </g>
              </g>
            </g>
            <g id="Grupo_1179174" data-name="Grupo 1179174" transform="translate(188.483 -0.001)" opacity="0.4">
              <g id="Grupo_1179173" data-name="Grupo 1179173">
                <g id="Grupo_1179172" data-name="Grupo 1179172" clip-path="url(#clip-path-9)">
                  <path id="Trazado_997954" data-name="Trazado 997954" d="M962.93,10.456s-7.067-12.24-20-10.229-.287,7.529-17.238,10.229S905.011,18.9,912.769,23.5s20.4-8.332,34.189-2.011,32.233.921,15.973-11.031" transform="translate(-908.906 -0.003)" fill="#fff"/>
                </g>
              </g>
            </g>
            <path id="Trazado_997955" data-name="Trazado 997955" d="M286.536,1252.476s-2.977,7.217-1.368,7.9c2.454,1.041,9.59,1.951,6.926,4.289-1.529,1.342-8.733.475-10.767.475s-3.944.886-5.455-.475c-1.663-1.5,1.8-12.966,1.8-12.966a8.133,8.133,0,0,1,3.543.547c2.118,1.057,5.321.23,5.321.23" transform="translate(-218.306 -992.118)" fill="#2f1a31"/>
            <path id="Trazado_997956" data-name="Trazado 997956" d="M234.188,1252.476s-2.977,7.217-1.368,7.9c2.454,1.041,9.59,1.951,6.926,4.289-1.529,1.342-8.733.475-10.767.475s-3.943.886-5.455-.475c-1.663-1.5,1.8-12.966,1.8-12.966a8.134,8.134,0,0,1,3.543.547c2.118,1.057,5.321.23,5.321.23" transform="translate(-176.814 -992.118)" fill="#2f1a31"/>
            <path id="Trazado_997957" data-name="Trazado 997957" d="M486.683,806.495h0a.711.711,0,0,0,.982.208l5.078-3.3a.709.709,0,1,0-.773-1.189l-5.078,3.3a.711.711,0,0,0-.208.981" transform="translate(-385.667 -635.765)" fill="#f7b686"/>
            <path id="Trazado_997958" data-name="Trazado 997958" d="M481.911,797.659h0a.711.711,0,0,0,.982.208l5.678-3.691a.709.709,0,0,0-.773-1.19l-5.679,3.692a.711.711,0,0,0-.208.981" transform="translate(-381.885 -628.452)" fill="#f7b686"/>
            <path id="Trazado_997959" data-name="Trazado 997959" d="M464.571,800.2l.24.08a.86.86,0,0,0,1.085-.542l1.455-4.359a.86.86,0,0,0-.542-1.086l-.24-.08a.861.861,0,0,0-1.085.542l-1.456,4.359a.86.86,0,0,0,.542,1.085" transform="translate(-367.766 -629.478)" fill="#f7b686"/>
            <path id="Trazado_997960" data-name="Trazado 997960" d="M477.138,793.116h0a.711.711,0,0,0,.982.208l4.552-2.959a.709.709,0,0,0-.773-1.19l-4.552,2.959a.712.712,0,0,0-.208.982" transform="translate(-378.101 -625.431)" fill="#f7b686"/>
            <path id="Trazado_997961" data-name="Trazado 997961" d="M469.408,808.257s4.05-.184,5.723-2.529c.579-.812-2.458-5.214-3.567-5.078s-3.988,2.435-3.988,2.435Z" transform="translate(-370.613 -634.615)" fill="#f7b686"/>
            <path id="Trazado_997962" data-name="Trazado 997962" d="M491.4,815.139h0a.71.71,0,0,0,.979.207l4.543-2.953a.708.708,0,1,0-.772-1.187l-4.543,2.953a.71.71,0,0,0-.208.979" transform="translate(-389.408 -642.894)" fill="#f7b686"/>
            <path id="Trazado_997963" data-name="Trazado 997963" d="M332.059,806.678c-7.551,2.365-18.583,5.175-28.266,5.131a26.98,26.98,0,0,1-4.4-.241c-1.049-.156-2.516,1.515-2.8,3.306-.268,1.681.42,3.7,1.278,3.867a32.162,32.162,0,0,0,5.007.368c8.685.18,18.974-1.826,31.526-6.126Z" transform="translate(-235.037 -639.395)" fill="#f7b686"/>
            <path id="Trazado_997964" data-name="Trazado 997964" d="M202.472,1008.015c.029,1.283,6.973,1.792,15.562,1.493s15.451-1.626,15.422-2.909-6.9-2.955-15.492-2.656-15.521,2.789-15.492,4.072" transform="translate(-160.484 -795.725)" fill="#2f1a31"/>
            <path id="Trazado_997965" data-name="Trazado 997965" d="M230.363,822.391c-5.014-.181-10.118-.218-17.237-.637a24.629,24.629,0,0,0-4.372.69c-6.8.946-11.13,5.809-10.923,12.071l.949,28.8a49,49,0,0,1,30.992-1.1c-.755-12.735-.7-22.779-2.549-29.591,2.549-2.612,3.14-10.231,3.14-10.231" transform="translate(-156.8 -651.34)" fill="#fbe5ea"/>
            <path id="Trazado_997966" data-name="Trazado 997966" d="M250.531,771.475c1.956,1.718,5.522,2.568,7.111,1.788,1.981-.971,1-2.092.7-2.346a2.732,2.732,0,0,1-1.138-1.942l-.029-.2-.149-1.022-.281-1.923-.284-1.944-.941-6.443-1.538,6.867-.262,1.169-.368,1.648-.531,2.363c-.291,1.3-2.273,1.982-2.286,1.986" transform="translate(-198.577 -600.369)" fill="#f7b686"/>
            <path id="Trazado_997967" data-name="Trazado 997967" d="M264.116,799.18a5.713,5.713,0,0,0,3.823,1.647l-.15-1.022-.281-1.923Z" transform="translate(-209.345 -632.424)" fill="#56335b"/>
            <path id="Trazado_997968" data-name="Trazado 997968" d="M276.552,735.707s4.272.983,3.71,4.23-3.71-4.23-3.71-4.23" transform="translate(-219.202 -583.141)" fill="#2f1a31"/>
            <path id="Trazado_997969" data-name="Trazado 997969" d="M227.657,764.766s-6.254.875-8.932-3.77c-1.187-2.06-1.07-3.341-.389-4.791,3.347-7.13,9.321,8.561,9.321,8.561" transform="translate(-172.655 -597.916)" fill="#2f1a31"/>
            <path id="Trazado_997970" data-name="Trazado 997970" d="M248.036,741.467c-2.43-3.173-6.682-4-9.5-1.843s-3.128,6.475-.7,9.649,6.682,4,9.5,1.843,3.128-6.475.7-9.648" transform="translate(-187.222 -585.294)" fill="#f7b686"/>
            <path id="Trazado_997971" data-name="Trazado 997971" d="M263.811,767.092a.13.13,0,0,0-.17-.179,1.408,1.408,0,0,0-.874,1.489.131.131,0,0,0,.138.122c.072,0,.111-.067.122-.138a2.232,2.232,0,0,1,.724-1.237.129.129,0,0,0,.059-.057" transform="translate(-208.272 -607.866)" fill="#060633"/>
            <path id="Trazado_997972" data-name="Trazado 997972" d="M268.707,773.172a.429.429,0,1,0-.112-.686.5.5,0,0,0,.112.686" transform="translate(-212.822 -612.218)" fill="#060633"/>
            <path id="Trazado_997973" data-name="Trazado 997973" d="M282.5,753.738a.093.093,0,0,0,.028-.091.156.156,0,0,0-.131-.127.912.912,0,0,0-1.074.793.155.155,0,0,0,.088.159.1.1,0,0,0,.134-.055,1.366,1.366,0,0,1,.892-.66.085.085,0,0,0,.063-.019" transform="translate(-222.983 -597.252)" fill="#060633"/>
            <path id="Trazado_997974" data-name="Trazado 997974" d="M285.037,760.365c.121.286.387.447.594.36a.5.5,0,0,0,.158-.676c-.12-.286-.386-.448-.594-.36a.5.5,0,0,0-.158.676" transform="translate(-225.881 -602.131)" fill="#060633"/>
            <path id="Trazado_997975" data-name="Trazado 997975" d="M280.579,773.972a13.168,13.168,0,0,1-3.463,2.377,2.021,2.021,0,0,0,3,.139c1-.846.458-2.517.458-2.517" transform="translate(-219.649 -613.471)" fill="#fff"/>
            <path id="Trazado_997976" data-name="Trazado 997976" d="M232.127,725.012a2.622,2.622,0,0,1-2.01,2.525,2.974,2.974,0,0,1-2.515.045,2.377,2.377,0,0,1-1.364,2.167c-1.447.708-1.956.244-1.956.244a2.261,2.261,0,0,1-.508,2.382c-1.062,1,1.792,1.376-.154,2.9-1.406,1.1-3.132-2.435-4.773-4.017-2.24-2.162-.648-5.7,1.093-5.529,1.456.145,1.554-1.519,3.692-2.991,2.563-1.765,2.906,1.013,3.864.173,2.187-1.917,4.938-.492,4.631,2.1" transform="translate(-172.59 -572.295)" fill="#2f1a31"/>
            <path id="Trazado_997977" data-name="Trazado 997977" d="M238.856,781.515a1.256,1.256,0,1,0-1.341-1.308,1.329,1.329,0,0,0,1.341,1.308" transform="translate(-188.26 -617.472)" fill="#f7b686"/>
            <path id="Trazado_997978" data-name="Trazado 997978" d="M211.6,765.939a.136.136,0,0,1-.2-.13,1.831,1.831,0,0,1,1.184-1.53.135.135,0,0,1,.172.085.137.137,0,0,1-.084.173,1.559,1.559,0,0,0-1,1.3.136.136,0,0,1-.067.105" transform="translate(-167.558 -605.782)" fill="#2f1a31"/>
            <path id="Trazado_997979" data-name="Trazado 997979" d="M214.976,756.054a.136.136,0,0,1-.165-.023,2.4,2.4,0,0,1-.608-1.512.136.136,0,0,1,.271,0,2.16,2.16,0,0,0,.53,1.325.136.136,0,0,1-.029.213" transform="translate(-169.784 -597.944)" fill="#2f1a31"/>
            <path id="Trazado_997980" data-name="Trazado 997980" d="M262.894,716.871a.136.136,0,0,1-.184-.188,5,5,0,0,1,2.947-2.18.136.136,0,0,1,.159.108.134.134,0,0,1-.107.159,4.82,4.82,0,0,0-2.767,2.054.131.131,0,0,1-.048.047" transform="translate(-208.215 -566.332)" fill="#2f1a31"/>
            <path id="Trazado_997981" data-name="Trazado 997981" d="M232.583,732.141a.136.136,0,0,1-.2-.124,3.084,3.084,0,0,1,.4-1.3.136.136,0,1,1,.234.138,2.858,2.858,0,0,0-.367,1.172.136.136,0,0,1-.068.111" transform="translate(-184.19 -579.135)" fill="#2f1a31"/>
            <path id="Trazado_997982" data-name="Trazado 997982" d="M208.058,1015.478s-2.4,9.193,5.4,23.61c1.118,2.068-2.558,21.59-2.558,27.7,0,2.916,10.2,2.495,11.159-.292,2.235-8.455,9.67-21.576,6.422-32.073.076,0-.934-4.994-1.714-9.057a31.99,31.99,0,0,1-.82-4.951c.42-2.438,3.608-5.819,3.013-6.086-.641-.288-6.84-3.039-20.9,1.15" transform="translate(-164.636 -803.071)" fill="#402b16"/>
            <path id="Trazado_997983" data-name="Trazado 997983" d="M269.019,1012.963s-7.6,11.028,1.731,25.9c0,0-3.056,20.526-2.819,26.63.195,5.005,11.019,3.11,11.116,1.652,4.305-8.747,7.763-19.9,7.763-24.178s-1.494-12.214-2.408-16.249c-1.58-6.979-1.7-11.958-1.957-12.444-.518-.972-10.756-1.6-13.427-1.309" transform="translate(-210.919 -802.844)" fill="#402b16"/>
            <path id="Trazado_997984" data-name="Trazado 997984" d="M276.6,1145.249c.049-.164,4.884-16.464,6.421-21.332.947-3,.93-6.745-.048-11.138-.03-.136-.042-.221-.054-.284l-.21.04c.012.065.024.152.055.291.971,4.355.989,8.065.053,11.027-1.537,4.869-6.374,21.171-6.423,21.335Z" transform="translate(-219.074 -881.793)" fill="#020202"/>
            <path id="Trazado_997985" data-name="Trazado 997985" d="M297.427,1051.695c-.014-.076-1.378-7.716-2.208-10.938-.848-3.283.719-4.948.786-5.017l.156.151c-.016.016-1.547,1.653-.733,4.813.833,3.229,2.2,10.877,2.212,10.954Z" transform="translate(-233.799 -820.955)" fill="#020202"/>
            <path id="Trazado_997986" data-name="Trazado 997986" d="M436.1,618.164a23.253,23.253,0,1,0-42.842,6.987,19.857,19.857,0,0,1,2.362,14.07l-1.1,5.258,23.661,4.927,1.095-5.257a19.321,19.321,0,0,1,7.586-11.816,23.168,23.168,0,0,0,9.234-14.169" transform="translate(-309.186 -467.785)" fill="#fff7e5"/>
            <path id="Trazado_997987" data-name="Trazado 997987" d="M435.927,717.485l-.509-.206a59.47,59.47,0,0,0,3.221-13.387c.9-7.174.913-17.775-4.177-27.542l.487-.254c5.158,9.9,5.149,20.624,4.233,27.88a60.046,60.046,0,0,1-3.255,13.509" transform="translate(-344.367 -535.892)" fill="#2f1a31"/>
            <path id="Trazado_997988" data-name="Trazado 997988" d="M486.013,741.393a60.041,60.041,0,0,1,2.408-13.685c2.057-7.018,6.33-16.857,15.011-23.873l.345.427c-8.57,6.926-12.794,16.657-14.829,23.6a59.408,59.408,0,0,0-2.386,13.545Z" transform="translate(-385.227 -557.879)" fill="#2f1a31"/>
            <path id="Trazado_997989" data-name="Trazado 997989" d="M434.556,671.38c.4-.227.807-.461,1.214-.684l1.221-.668c.818-.438,1.634-.878,2.458-1.3l.188-.1.174.161q1.018.943,2.019,1.9l1,.958.995.967-.528-.107c.949-.407,1.892-.829,2.847-1.223l2.857-1.2.343-.144.258.268,2.108,2.182c.35.365.705.725,1.05,1.095l1.04,1.1-.533-.114,1.319-.492,1.324-.479,1.325-.477c.441-.162.887-.311,1.329-.466l.232-.081.14.171q.931,1.14,1.841,2.3c.608.771,1.21,1.548,1.8,2.337-.708-.683-1.4-1.378-2.091-2.078s-1.372-1.4-2.048-2.117l.372.09c-.43.188-.858.383-1.29.565l-1.294.555-1.3.552-1.3.539-.294.122-.239-.236-1.079-1.067c-.361-.354-.713-.718-1.069-1.076l-2.13-2.16.6.124-2.871,1.163c-.955.392-1.921.758-2.882,1.137l-.31.123-.218-.23-.956-1.006-.946-1.015q-.95-1.011-1.881-2.041l.362.064c-.852.364-1.712.713-2.57,1.064l-1.293.515c-.431.171-.867.333-1.3.5" transform="translate(-344.44 -529.974)" fill="#436e8e"/>
            <path id="Trazado_997990" data-name="Trazado 997990" d="M405.763,860.682l-5.021-1.046a10.618,10.618,0,0,1-8.23-12.56l3.364-16.155a1.442,1.442,0,0,1,1.705-1.118l22.988,4.787a1.442,1.442,0,0,1,1.118,1.706l-3.365,16.156a10.618,10.618,0,0,1-12.56,8.23" transform="translate(-310.937 -657.7)" fill="#92cfd9"/>
            <path id="Trazado_997991" data-name="Trazado 997991" d="M395.985,949.674h0a.712.712,0,0,0,.7.724l6.054.124a.709.709,0,0,0,.03-1.419l-6.055-.124a.712.712,0,0,0-.724.7" transform="translate(-313.868 -752.186)" fill="#f7b686"/>
            <path id="Trazado_997992" data-name="Trazado 997992" d="M396.166,940.918h0a.711.711,0,0,0,.694.724l6.772.139a.709.709,0,0,0,.029-1.418l-6.772-.139a.711.711,0,0,0-.724.7" transform="translate(-314.012 -745.246)" fill="#f7b686"/>
            <path id="Trazado_997993" data-name="Trazado 997993" d="M378.551,924.956l.153.2a.861.861,0,0,0,1.2.162l3.654-2.787a.86.86,0,0,0,.162-1.2l-.153-.2a.861.861,0,0,0-1.2-.162l-3.654,2.787a.861.861,0,0,0-.162,1.2" transform="translate(-299.911 -729.844)" fill="#f7b686"/>
            <path id="Trazado_997994" data-name="Trazado 997994" d="M396.345,932.162h0a.712.712,0,0,0,.695.724l5.428.111a.709.709,0,0,0,.029-1.418l-5.428-.112a.711.711,0,0,0-.724.695" transform="translate(-314.154 -738.306)" fill="#f7b686"/>
            <path id="Trazado_997995" data-name="Trazado 997995" d="M379.236,937.345s3.453,2.124,6.155,1.125c.935-.346.9-5.694-.1-6.2s-4.667-.228-4.667-.228Z" transform="translate(-300.592 -738.696)" fill="#f7b686"/>
            <path id="Trazado_997996" data-name="Trazado 997996" d="M395.782,958.375h0a.71.71,0,0,0,.693.722l5.417.111a.708.708,0,1,0,.029-1.416l-5.417-.111a.71.71,0,0,0-.723.693" transform="translate(-313.707 -759.084)" fill="#f7b686"/>
            <path id="Trazado_997997" data-name="Trazado 997997" d="M254.429,871.823c-7.574-2.288-18.279-6.166-26.262-11.644a27,27,0,0,1-3.506-2.674c-.78-.719-2.932-.162-4.176,1.159-1.167,1.239-1.732,3.294-1.117,3.917A32.175,32.175,0,0,0,223.3,865.7c7.082,5.032,16.719,9.155,29.517,12.655Z" transform="translate(-173.678 -679.431)" fill="#f7b686"/>
            <path id="Trazado_997998" data-name="Trazado 997998" d="M291.065,913.856a2.1,2.1,0,0,1-.748-.144,1.952,1.952,0,0,1-.906-.678.916.916,0,0,1,.578-1.505,2.072,2.072,0,0,1,2.032.779.916.916,0,0,1-.577,1.505,1.658,1.658,0,0,1-.38.043m-.7-2.076a1.375,1.375,0,0,0-.312.035.626.626,0,0,0-.4,1.051,1.78,1.78,0,0,0,1.723.661.626.626,0,0,0,.4-1.051,1.654,1.654,0,0,0-.769-.571,1.811,1.811,0,0,0-.642-.124" transform="translate(-229.224 -722.468)" fill="#e08b65"/>
            <path id="Trazado_997999" data-name="Trazado 997999" d="M1221.535,454.322s-6.166-.285-7.147-9.744c-1.009-9.723,10.143,0,10.143,0Z" transform="translate(-962.504 -348.959)" fill="#f7b686"/>
            <path id="Trazado_998000" data-name="Trazado 998000" d="M1241.618,358.519c-.375.148-6.616,1.839-9.38,11.251s6.513,1.992,6.513,1.992Z" transform="translate(-976.297 -284.172)" fill="#f7b686"/>
            <path id="Trazado_998001" data-name="Trazado 998001" d="M1283.283,983.839s-.084,3.383-2.374,4.337-8.921,1.815-6.443,3.99c1.422,1.248,8.123.441,10.015.441s3.669.824,5.075-.442c1.547-1.393,0-8.327,0-8.327a7.56,7.56,0,0,1-3.1.813,6.022,6.022,0,0,1-3.172-.812" transform="translate(-1009.743 -779.817)" fill="#2f1a31"/>
            <path id="Trazado_998002" data-name="Trazado 998002" d="M1410.043,983.835s-.085,3.383-2.374,4.337-8.921,1.815-6.443,3.99c1.422,1.248,8.124.441,10.016.441s3.669.825,5.075-.442c1.547-1.393,0-8.327,0-8.327a7.555,7.555,0,0,1-3.1.813,6.023,6.023,0,0,1-3.173-.812" transform="translate(-1110.216 -779.814)" fill="#2f1a31"/>
            <path id="Trazado_998003" data-name="Trazado 998003" d="M1236.99,536.662s-.423,14.159,4.1,41.323c3.263,19.61,7.114,39.37,9,48.844a7.39,7.39,0,0,0,6.9,6l1.815.073a6.2,6.2,0,0,0,6.35-6.721l-4.585-64.092L1259.443,541Z" transform="translate(-980.462 -425.373)" fill="#6c4826"/>
            <path id="Trazado_998004" data-name="Trazado 998004" d="M1272.422,569.04c-.208,1.724-9.953,1.514-21.884,0s-21.219-4.095-21.01-5.818,9.833-1.933,21.765-.423,21.338,4.514,21.13,6.237" transform="translate(-974.553 -445.29)" fill="#2f1a31"/>
            <path id="Trazado_998005" data-name="Trazado 998005" d="M1303.055,580.357l25.473,81.826a8.21,8.21,0,0,0,7.663,5.832l1.531.026a5.811,5.811,0,0,0,5.719-6.918l-13.934-76.886a2.531,2.531,0,0,0-1.758-1.895c-4.778-1.378-25.162-5.37-24.693-1.985" transform="translate(-1032.829 -458.955)" fill="#6c4826"/>
            <path id="Trazado_998006" data-name="Trazado 998006" d="M1268.451,334.73s-3.389-9.535-15.463-9.1-21.19,16.3-23.448,50.4c0,0,19.77-4.335,42.93,5.778,0,0,1.284-33.176-4.019-47.075" transform="translate(-974.565 -258.091)" fill="#ffac04"/>
            <path id="Trazado_998007" data-name="Trazado 998007" d="M1293.248,333.95l-8.553,5.475s-21.986,2.2-27.822,1.141-6.745-5.35-6.745-5.35a27.106,27.106,0,0,1,16.118-9.507,28.93,28.93,0,0,1,3.061-.285,30.054,30.054,0,0,1,5.341.117c10.439,1.126,18.6,8.41,18.6,8.41" transform="translate(-990.884 -257.885)" fill="#ffac04"/>
            <path id="Trazado_998008" data-name="Trazado 998008" d="M1309.778,663.085l-5.478-16.653a15.788,15.788,0,0,0-7.134-8.8l.213-.372a16.216,16.216,0,0,1,7.328,9.038l5.478,16.653Z" transform="translate(-1028.168 -505.11)" fill="#020202"/>
            <path id="Trazado_998009" data-name="Trazado 998009" d="M1293.815,279.5c-.063-.027-1.535-.66-1.806-1.837a2.188,2.188,0,0,1,.661-1.938c.259-.3.5-.564.715-.808,1.513-1.7,2.022-2.273,1.961-3.813l.14-.006c.064,1.6-.5,2.227-2,3.912-.218.245-.455.512-.714.807a2.059,2.059,0,0,0-.63,1.813c.255,1.107,1.71,1.733,1.724,1.739Z" transform="translate(-1024.047 -214.88)" fill="#e28569"/>
            <path id="Trazado_998010" data-name="Trazado 998010" d="M1297.758,271.111a7.123,7.123,0,0,1-1.878,4.709c-2,2.233-.589,4.349,1.716,3.749s2.662,2.27,5.656,1.221-5.494-9.68-5.494-9.68" transform="translate(-1026.389 -214.89)" fill="#e28569"/>
            <path id="Trazado_998011" data-name="Trazado 998011" d="M1333.771,278.442a3.339,3.339,0,0,1-2.721-1.991l-1.5-3.475-.434-1.009-2.553-5.93.443,6.145.266,3.689.076,1.052a1.679,1.679,0,0,1-1.385,1.769l-.015,0c-.454.739-1.082,2.241.793,2.837,2.2.7,5.766-1.033,7.045-3.088l-.019,0" transform="translate(-1050.606 -210.869)" fill="#f7b686"/>
            <path id="Trazado_998012" data-name="Trazado 998012" d="M1335.428,295.1c0,.034,0,.068-.006.1a3.9,3.9,0,0,1-2.266,2.906l-.013-.011-.266-3.689a3.148,3.148,0,0,1,2.111-.215.865.865,0,0,1,.44.907" transform="translate(-1056.473 -233.092)" fill="#2f1a31"/>
            <path id="Trazado_998013" data-name="Trazado 998013" d="M1306.717,243.945c.654-3.879,3.733-6.595,6.877-6.065s5.164,4.1,4.51,7.984-3.733,6.595-6.877,6.065-5.164-4.1-4.51-7.984" transform="translate(-1035.641 -188.499)" fill="#f7b686"/>
            <path id="Trazado_998014" data-name="Trazado 998014" d="M1349.156,271.329a1.419,1.419,0,0,1-2.038-.2,1.588,1.588,0,0,1,.673-2.035,1.419,1.419,0,0,1,2.038.2,1.587,1.587,0,0,1-.674,2.035" transform="translate(-1067.632 -213.032)" fill="#f7b686"/>
            <path id="Trazado_998015" data-name="Trazado 998015" d="M1316.163,291.434a12.532,12.532,0,0,0,4,.017,1.923,1.923,0,0,1-2.29,1.718c-1.237-.132-1.708-1.735-1.708-1.735" transform="translate(-1043.225 -230.999)" fill="#db6b49"/>
            <path id="Trazado_998016" data-name="Trazado 998016" d="M1316.163,291.434a2.581,2.581,0,0,0,1.5.65,4.616,4.616,0,0,0,2.494-.633,18.848,18.848,0,0,1-4-.017" transform="translate(-1043.225 -230.999)" fill="#fff"/>
            <path id="Trazado_998017" data-name="Trazado 998017" d="M1331.64,270.742a.131.131,0,0,1,.027-.248,1.422,1.422,0,0,1,1.614.657.132.132,0,0,1-.036.182.144.144,0,0,1-.183-.035,2.248,2.248,0,0,0-1.34-.547.132.132,0,0,1-.083-.009" transform="translate(-1055.432 -214.361)" fill="#060633"/>
            <path id="Trazado_998018" data-name="Trazado 998018" d="M1332.57,277.209c-.042.31-.259.537-.484.507s-.374-.307-.332-.618.259-.537.484-.507.374.307.331.618" transform="translate(-1055.578 -219.232)" fill="#060633"/>
            <path id="Trazado_998019" data-name="Trazado 998019" d="M1308.61,269.313a.131.131,0,0,1-.07-.239,1.422,1.422,0,0,1,1.742-.008.133.133,0,0,1,.036.182.144.144,0,0,1-.182.037,2.249,2.249,0,0,0-1.447.005.132.132,0,0,1-.08.023" transform="translate(-1037.138 -213.036)" fill="#060633"/>
            <path id="Trazado_998020" data-name="Trazado 998020" d="M1312.381,275.319a.509.509,0,0,1-.255.653c-.22.057-.463-.142-.542-.445a.509.509,0,0,1,.255-.653c.22-.057.463.142.542.445" transform="translate(-1039.576 -217.866)" fill="#060633"/>
            <path id="Trazado_998021" data-name="Trazado 998021" d="M1311.383,229.711s-.288,2.458,2.685,3.386,4.856,2.57,4.078,4.693-6.451,5.846-3.142,8.216,3.095-1.045,6.876.375,5.365-3.681,3.184-7.164.26-11.315-9.894-12.661-7.812,7.33-7.812,7.33,3.577-1.484,4.025-4.177" transform="translate(-1036.062 -179.464)" fill="#e28569"/>
            <path id="Trazado_998022" data-name="Trazado 998022" d="M1333.792,255.418a2.146,2.146,0,0,1-1.159-1.591c-.168-1.709,2.153-3.858,4.2-5.753.539-.5,1.048-.97,1.505-1.425a3.808,3.808,0,0,0,.977-4.356,4.439,4.439,0,0,0-4.526-2.4,5.861,5.861,0,0,1-4.084-1.084,3.778,3.778,0,0,1-1.091-1.273l.076-.035c.012.026,1.2,2.546,5.094,2.309a4.521,4.521,0,0,1,4.607,2.451,3.936,3.936,0,0,1-.995,4.449c-.458.456-.968.928-1.508,1.427-2.034,1.883-4.338,4.015-4.174,5.684a2.043,2.043,0,0,0,1.12,1.528Z" transform="translate(-1053.887 -188.25)" fill="#fff"/>
            <path id="Trazado_998023" data-name="Trazado 998023" d="M1416.249,365.7c.3.861-1.94,2.473-5,3.6s-5.774,1.343-6.071.482,1.94-2.473,5-3.6,5.774-1.343,6.071-.482" transform="translate(-1113.763 -289.446)" fill="#2f1a31"/>
            <path id="Trazado_998024" data-name="Trazado 998024" d="M1357.093,399.234l-.1-6.25a1.61,1.61,0,0,1,1.5-1.631c4.333-.31,7.366-1.654,9.028-4,2.307-3.263,2.064-8.331,1.421-11.846-.329-1.8.265-3,2.437-4.154a14.863,14.863,0,0,1,4.174-1.421,1.708,1.708,0,0,1,2.078,1.119,38.137,38.137,0,0,1,1.086,6.218c.547,6.163-.642,11.525-3.438,15.5-3.432,4.884-8.963,7.587-16.458,8.046a1.616,1.616,0,0,1-1.72-1.582" transform="translate(-1075.585 -293.188)" fill="#f7b686"/>
            <g id="Grupo_1179177" data-name="Grupo 1179177" transform="translate(296.174 93.944)" opacity="0.5">
              <g id="Grupo_1179176" data-name="Grupo 1179176">
                <g id="Grupo_1179175" data-name="Grupo 1179175" clip-path="url(#clip-path-10)">
                  <path id="Trazado_998025" data-name="Trazado 998025" d="M1429.476,457.024a1.246,1.246,0,0,1-.8-.264c-.681-.549-.607-1.775.165-2.734s1.954-1.292,2.636-.744.607,1.775-.165,2.734a2.5,2.5,0,0,1-1.84,1.008m1.208-3.588a2.108,2.108,0,0,0-1.512.853c-.616.765-.721,1.747-.228,2.144s1.43.085,2.046-.68.721-1.748.228-2.144a.835.835,0,0,0-.534-.173" transform="translate(-1428.213 -453.018)" fill="#e08b65"/>
                </g>
              </g>
            </g>
            <path id="Trazado_998026" data-name="Trazado 998026" d="M1269.6,576.36s-23.812-4.549-31.533-2.4l3.7,5.487,13.764.779Z" transform="translate(-981.323 -454.478)" fill="#6c4826"/>
            <path id="Trazado_998027" data-name="Trazado 998027" d="M1245.163,420l-20.526.008a1,1,0,0,1-.947-.678l-4.27-12.737a.992.992,0,0,1,.947-1.3l19.739-.007a2.088,2.088,0,0,1,1.982,1.419l4.022,12a.992.992,0,0,1-.946,1.3" transform="translate(-966.503 -321.241)" fill="#2f1a31"/>
            <path id="Trazado_998028" data-name="Trazado 998028" d="M1238.952,420.007l-20.526.008a1,1,0,0,1-.948-.678l-4.27-12.737a.992.992,0,0,1,.946-1.3l19.739-.007a2.087,2.087,0,0,1,1.982,1.419l4.022,12a.992.992,0,0,1-.947,1.3" transform="translate(-961.58 -321.243)" fill="#2f1a31"/>
            <path id="Trazado_998029" data-name="Trazado 998029" d="M1268.179,436.185c0-.484.558-.681,1.045-.681a1.394,1.394,0,0,1,1.278,1.208c-.005.731-.576.827-1.064.827a1.61,1.61,0,0,1-1.259-1.354" transform="translate(-1005.192 -345.193)" fill="#deebe9"/>
            <path id="Trazado_998030" data-name="Trazado 998030" d="M1318.59,411.481a35.926,35.926,0,0,0-1.671-4.987,2.782,2.782,0,0,0-1.443-1.388l.035-.128a2.851,2.851,0,0,1,1.524,1.451,35.136,35.136,0,0,1,1.683,5.018Z" transform="translate(-1042.681 -320.997)" fill="#436e8e"/>
            <path id="Trazado_998031" data-name="Trazado 998031" d="M1334.37,447.741l-1.6-4.777.126-.043,1.6,4.777Z" transform="translate(-1056.387 -351.072)" fill="#436e8e"/>
            <path id="Trazado_998032" data-name="Trazado 998032" d="M1213.337,425.466s-.34,2.674,1.922,2.928c2.882.324,6.833-2.257,5.01-2.489a19.792,19.792,0,0,0-3.992.1s6.031-.858,5.47-2.141-5.74-.47-5.74-.47,5.813-1.429,4.914-2.446-5.6-.31-5.6-.31,5.743-1.069,4.672-2.223-3.952.044-5.273.254c-1.249.2-1.555,1.126-1.321,2.4a4.064,4.064,0,0,0-.11,2.225c.134.3-.112.663-.111.9a8.938,8.938,0,0,0,.163,1.271" transform="translate(-961.577 -331.252)" fill="#f7b686"/>
            <path id="Trazado_998033" data-name="Trazado 998033" d="M1327.815,447.139s-1.521-4.605-4.127-5.733-6.786-.6-5.319.444a18.715,18.715,0,0,0,3.708,1.855s-4.871-1.513-4.732-.221,4.389,2.568,4.389,2.568-5.94-1.339-5.413-.16,5.047,2.163,5.047,2.163-5.577-1.024-4.932.33,4.614.817,4.753,2.109,1.131,6.379,4.771,6.43Z" transform="translate(-1043.324 -349.371)" fill="#f7b686"/>
            <path id="Trazado_998034" data-name="Trazado 998034" d="M1345.878,455.581c-.354-.744-1.739-.965-1.753-.967l.032-.207c.061.009,1.509.241,1.91,1.084Z" transform="translate(-1065.388 -360.176)" fill="#dd8964"/>
            <path id="Trazado_998035" data-name="Trazado 998035" d="M1344.6,467.114a3.536,3.536,0,0,0-2.117-1.183l.028-.208a3.687,3.687,0,0,1,2.256,1.265Z" transform="translate(-1064.085 -369.145)" fill="#dd8964"/>
            <path id="Trazado_998036" data-name="Trazado 998036" d="M1342.678,476.672c-.308-.821-1.954-1.081-1.971-1.083l.032-.207c.073.011,1.785.281,2.136,1.217Z" transform="translate(-1062.679 -376.801)" fill="#dd8964"/>
            <path id="Trazado_998037" data-name="Trazado 998037" d="M1220.509,467.406a1.879,1.879,0,0,1-1.15-.276l.134-.162c.529.439,2.25.134,2.87-.021l.05.2a9.12,9.12,0,0,1-1.9.255" transform="translate(-966.496 -370.116)" fill="#dd8964"/>
            <path id="Trazado_998038" data-name="Trazado 998038" d="M801.954,700.12c-.788,1.4-8.7,13.658-7.043,25.644l8.611-3.113,3.935-16.156Z" transform="translate(-629.887 -554.934)" fill="#f7b686"/>
            <path id="Trazado_998039" data-name="Trazado 998039" d="M859.96,647.908s-5.291-9.489-18.168-6.865-19.906,21.055-16.413,57.563c0,0,20.458-8.133,47.06-1.577,0,0-4.378-35.356-12.479-49.121" transform="translate(-653.51 -507.745)" fill="#92cfd9"/>
            <path id="Trazado_998040" data-name="Trazado 998040" d="M860.646,642.381l-9.052,9.036s-23.206,6.27-29.651,6.195a10.356,10.356,0,0,1-8.982-4.786,34.368,34.368,0,0,1,16.447-12.512,32.129,32.129,0,0,1,3.248-.964,33.131,33.131,0,0,1,5.75-.833c11.395-.678,22.241,3.864,22.241,3.864" transform="translate(-644.373 -506.051)" fill="#92cfd9"/>
            <path id="Trazado_998041" data-name="Trazado 998041" d="M1007.669,656.712c1.447,1.573-.784,3.291-3.284,5.786s-5.081,3.951-5.767,3.25.784-3.291,3.284-5.786,5.1-3.971,5.767-3.25" transform="translate(-791.397 -520.382)" fill="#2f1a31"/>
            <path id="Trazado_998042" data-name="Trazado 998042" d="M1005.06,674.352s-.135-1.8,2.133-4.109a13.778,13.778,0,0,1,4.256-2.8,1.323,1.323,0,0,1,1.76.742l.725,1.871-3.379,2.176Z" transform="translate(-796.636 -528.95)" fill="#f7b686"/>
            <path id="Trazado_998043" data-name="Trazado 998043" d="M888.372,838.349s27.925-15.133,37.935,1.375c7.409,12.22-3.728,23.6-45.041,22.445,0,0-4.083-1.912-3.088-11.832.394-3.93,10.195-11.988,10.195-11.988" transform="translate(-695.943 -659.476)" fill="#12263f"/>
            <path id="Trazado_998044" data-name="Trazado 998044" d="M746.07,828.767s-37.192-15.235-44.551-5.711c-8.458,10.946-.347,29.531,38.857,22.887l4.777-5.188Z" transform="translate(-553.641 -649.894)" fill="#12263f"/>
            <path id="Trazado_998045" data-name="Trazado 998045" d="M826.571,934.689s-7.591.3-11.462,2.2-1.8,6.532,6.055,6.408S828.426,942,828.426,942a10.938,10.938,0,0,1-1.855-7.313" transform="translate(-644.573 -740.86)" fill="#727997"/>
            <path id="Trazado_998046" data-name="Trazado 998046" d="M880.643,892.715l.091-.128c-4.337-3.095-3.171-11.042-3.064-11.71l28.19-10.26-.053-.147-28.275,10.291-.008.045c-.015.086-1.467,8.636,3.12,11.909" transform="translate(-695.365 -689.959)" fill="#020202"/>
            <path id="Trazado_998047" data-name="Trazado 998047" d="M886.521,713.363a9.075,9.075,0,0,1-5.647-1.715,8.128,8.128,0,0,1-2.971-7.873l2.732-1.588c.136-.75,5.408,2.036,5.4,2.033.024.008,2.516.729,11.157-3.687,6.015-3.074,9.047-7.436,9.268-13.337.167-4.448-1.816-6.946-2.284-8.029-.062-.144,2.907-3.121,2.822-3.424l2.226-1.131c-.072-.255,2.14-1.128,2.109-1.2l1.718,1.463a28.649,28.649,0,0,1,2.418,12.666c-.242,6.444-2.9,15.337-14.206,21.114-6.164,3.15-11,4.708-14.741,4.708" transform="translate(-695.75 -533.764)" fill="#f7b686"/>
            <path id="Trazado_998048" data-name="Trazado 998048" d="M795.358,801.751h-24.1a1.171,1.171,0,0,1-1.112-.8L765.139,786a1.165,1.165,0,0,1,1.112-1.531h23.176a2.451,2.451,0,0,1,2.327,1.667l4.717,14.086a1.165,1.165,0,0,1-1.112,1.531" transform="translate(-606.421 -621.79)" fill="#96b4e0"/>
            <path id="Trazado_998049" data-name="Trazado 998049" d="M788.063,801.751h-24.1a1.171,1.171,0,0,1-1.112-.8L757.843,786a1.165,1.165,0,0,1,1.112-1.531h23.176a2.451,2.451,0,0,1,2.327,1.667l4.717,14.086a1.165,1.165,0,0,1-1.112,1.531" transform="translate(-600.638 -621.79)" fill="#d2e1f1"/>
            <path id="Trazado_998050" data-name="Trazado 998050" d="M822.373,820.724c0-.568.655-.8,1.227-.8a1.638,1.638,0,0,1,1.5,1.419c-.006.859-.678.97-1.249.97a1.891,1.891,0,0,1-1.477-1.59" transform="translate(-651.834 -649.895)" fill="#deebe9"/>
            <path id="Trazado_998051" data-name="Trazado 998051" d="M820.508,857.619H787.53v2.114h33.664a.709.709,0,0,0,.709-.709v-.01a1.4,1.4,0,0,0-1.395-1.395" transform="translate(-624.217 -679.772)" fill="#d2e1f1"/>
            <path id="Trazado_998052" data-name="Trazado 998052" d="M881.574,791.741l.151-.04a41.257,41.257,0,0,0-1.974-5.892,3.344,3.344,0,0,0-1.789-1.7l-.042.151a3.263,3.263,0,0,1,1.694,1.629,42.178,42.178,0,0,1,1.96,5.857" transform="translate(-695.862 -621.502)" fill="#436e8e"/>
            <path id="Trazado_998053" data-name="Trazado 998053" d="M901.216,834.745v-.157c-.789,0-.986-.327-.988-.33l-1.872-5.6-.148.05,1.878,5.609c.014.029.237.424,1.13.424" transform="translate(-711.943 -656.82)" fill="#436e8e"/>
            <path id="Trazado_998054" data-name="Trazado 998054" d="M1020.892,788.107c-.59-.344-.573-1.45.037-2.518a2.8,2.8,0,0,1,1.488-1.356.847.847,0,0,1,.656.064c.59.344.573,1.45-.037,2.517a2.8,2.8,0,0,1-1.487,1.356,1.044,1.044,0,0,1-.268.037.762.762,0,0,1-.388-.1m1.606-3.571a2.528,2.528,0,0,0-1.3,1.209c-.507.886-.576,1.844-.152,2.092a.536.536,0,0,0,.418.031,2.526,2.526,0,0,0,1.3-1.209c.507-.886.576-1.844.152-2.091a.448.448,0,0,0-.23-.059.729.729,0,0,0-.188.027" transform="translate(-808.844 -621.575)" fill="#e08b65"/>
            <path id="Trazado_998055" data-name="Trazado 998055" d="M914.824,589.093c-1.273-.238-2.594-.573-3.246-1.593l-1.706-4-.5-1.165-2.919-6.853.447,7.09.269,4.256.085,1.347c.058.914-.473,1.167-1.061,2.032-.238.35-1.774,2.487.29,3.146,2.571.821,6.86-1.888,8.381-4.251-.014,0-.028,0-.042,0" transform="translate(-717.661 -456.14)" fill="#f7b686"/>
            <path id="Trazado_998056" data-name="Trazado 998056" d="M928.036,575.356s6.98-2.36,6.04-7.564-6.409,4.629-6.409,4.629l-.329,2.713Z" transform="translate(-735.032 -448.843)" fill="#2f1a31"/>
            <path id="Trazado_998057" data-name="Trazado 998057" d="M915.538,609.051c0,.039,0,.078-.009.117-.195,2.284-2.686,3.34-2.686,3.34l-.015-.013-.269-4.256a3.742,3.742,0,0,1,2.473-.237.989.989,0,0,1,.505,1.048" transform="translate(-723.319 -481.812)" fill="#2f1a31"/>
            <path id="Trazado_998058" data-name="Trazado 998058" d="M879.259,556.678c.614-4.12,3.861-7.066,7.254-6.58s5.645,4.221,5.031,8.342-3.862,7.066-7.254,6.58-5.645-4.221-5.032-8.342" transform="translate(-696.844 -435.981)" fill="#f7b686"/>
            <path id="Trazado_998059" data-name="Trazado 998059" d="M881.683,540.324s-2.054.394-2.895-1.151-1.329-2.863-4.882-2.768-6.393-2.033-6.208-3.935,2.14-2.5,3.906-1.576.045-1.088,2.106-2.209,4.415,2.139,6.393,2.033,7.948,1.8,6.694,7.094Z" transform="translate(-687.753 -418.865)" fill="#2f1a31"/>
            <path id="Trazado_998060" data-name="Trazado 998060" d="M931.345,584.331a1.277,1.277,0,0,1-1.783-.315,1.3,1.3,0,0,1,.524-1.75,1.277,1.277,0,0,1,1.783.315,1.3,1.3,0,0,1-.524,1.75" transform="translate(-736.668 -461.342)" fill="#f7b686"/>
            <path id="Trazado_998061" data-name="Trazado 998061" d="M881.23,546.283c1.207.568,3.538-.135,3.645-.168l-.068-.222c-.028.008-2.748.829-3.721.029-.374-.308-.52-.622-.38-.82s.528-.243.934,0a2.639,2.639,0,0,0,1.574.453l-.03-.23a2.464,2.464,0,0,1-1.424-.422.925.925,0,0,0-1.243.063c-.17.241-.148.665.422,1.133a1.38,1.38,0,0,0,.292.182" transform="translate(-697.847 -431.748)" fill="#fff"/>
            <path id="Trazado_998062" data-name="Trazado 998062" d="M909.68,537.369a3.636,3.636,0,0,0,1.3.353,14.261,14.261,0,0,0,1.659-.011,3.921,3.921,0,0,1,2.592.421l.138-.187a4.081,4.081,0,0,0-2.74-.465,14,14,0,0,1-1.633.011,4.769,4.769,0,0,1-3.116-1.886l-.221.071a5.088,5.088,0,0,0,2.018,1.694" transform="translate(-719.437 -424.535)" fill="#fff"/>
            <path id="Trazado_998063" data-name="Trazado 998063" d="M950.21,561.7c-.006-.277.156-.327.225-.335.547-.067.766,1.047.8,1.271v.04c-.052.289-.2.321-.283.315a.261.261,0,0,1-.092-.025,1.9,1.9,0,0,1-.654-1.265m.249-.1c-.015.013-.049.132.057.439a1.459,1.459,0,0,0,.449.727s.023-.018.042-.107c-.081-.452-.306-1.089-.547-1.058" transform="translate(-753.161 -444.948)" fill="#fff"/>
            <path id="Trazado_998064" data-name="Trazado 998064" d="M903.448,583.761a.126.126,0,0,1-.056-.1.127.127,0,0,1,.117-.135,1.35,1.35,0,0,1,1.436.847.128.128,0,0,1-.06.169.137.137,0,0,1-.168-.059,2.133,2.133,0,0,0-1.192-.7.124.124,0,0,1-.077-.02" transform="translate(-716.052 -462.512)" fill="#060633"/>
            <path id="Trazado_998065" data-name="Trazado 998065" d="M903.145,590.085c-.084.291-.322.478-.531.418a.489.489,0,0,1-.226-.635c.084-.291.322-.478.531-.418a.489.489,0,0,1,.226.635" transform="translate(-715.232 -467.206)" fill="#060633"/>
            <path id="Trazado_998066" data-name="Trazado 998066" d="M880.954,580.927a.09.09,0,0,1-.067-.064.154.154,0,0,1,.052-.171.879.879,0,0,1,1.281.161.151.151,0,0,1,0,.177.093.093,0,0,1-.139.018,1.309,1.309,0,0,0-1.064-.135.084.084,0,0,1-.062.014" transform="translate(-698.208 -460.106)" fill="#060633"/>
            <path id="Trazado_998067" data-name="Trazado 998067" d="M883.645,587.04c.032.3-.118.564-.335.589s-.418-.2-.45-.5.118-.564.335-.589.418.2.45.5" transform="translate(-699.774 -464.907)" fill="#060633"/>
            <path id="Trazado_998068" data-name="Trazado 998068" d="M893.2,608.1a2.818,2.818,0,0,0,2.933-.189.088.088,0,1,0-.1-.144,2.891,2.891,0,0,1-3.375-.2.088.088,0,1,0-.112.136,3.432,3.432,0,0,0,.655.4" transform="translate(-707.431 -481.558)" fill="#020202"/>
            <path id="Trazado_998069" data-name="Trazado 998069" d="M908.916,607.543a.087.087,0,0,0,.027.008.088.088,0,0,0,.1-.077,1.181,1.181,0,0,0-.268-.79.1.1,0,0,0-.126-.038.082.082,0,0,0-.036.114l.017.025a1,1,0,0,1,.237.668.088.088,0,0,0,.05.09" transform="translate(-720.18 -480.836)" fill="#020202"/>
            <path id="Trazado_998070" data-name="Trazado 998070" d="M909.622,651.568a11.177,11.177,0,0,0,9.79-6.494l-.362-.146a10.781,10.781,0,0,1-9.439,6.25Z" transform="translate(-720.981 -511.188)" fill="#cc6e58"/>
            <rect id="Rectángulo_455549" data-name="Rectángulo 455549" width="4.553" height="0.39" transform="matrix(0.312, -0.95, 0.95, 0.312, 173.334, 150.747)" fill="#cc6e58"/>
            <path id="Trazado_998071" data-name="Trazado 998071" d="M868.106,574.716a3.927,3.927,0,0,1-1.448-3.01c-.189-2.234.8-4.458,2.208-4.957a1.673,1.673,0,0,1,1.516.182,3.926,3.926,0,0,1,1.448,3.01c.189,2.234-.8,4.458-2.207,4.957a1.659,1.659,0,0,1-1.293-.057,1.952,1.952,0,0,1-.224-.124m.848-7.72c-1.3.462-2.214,2.565-2.034,4.688a3.674,3.674,0,0,0,1.328,2.811,1.421,1.421,0,0,0,1.286.155c1.3-.462,2.214-2.565,2.034-4.688a3.675,3.675,0,0,0-1.328-2.812,1.618,1.618,0,0,0-.19-.105,1.406,1.406,0,0,0-1.1-.05" transform="translate(-686.917 -449.139)" fill="#fff"/>
            <g id="Grupo_1179180" data-name="Grupo 1179180" transform="translate(186.359 117.635)" opacity="0.3">
              <g id="Grupo_1179179" data-name="Grupo 1179179">
                <g id="Grupo_1179178" data-name="Grupo 1179178" clip-path="url(#clip-path-11)">
                  <path id="Trazado_998072" data-name="Trazado 998072" d="M904.141,570.537c0,2.134-1.227,4.153-2.74,4.51s-2.741-1.084-2.741-3.218,1.226-4.153,2.74-4.51,2.741,1.084,2.741,3.218" transform="translate(-898.66 -567.265)" fill="#fff"/>
                </g>
              </g>
            </g>
            <g id="Grupo_1179183" data-name="Grupo 1179183" transform="translate(179.957 117.785)" opacity="0.3">
              <g id="Grupo_1179182" data-name="Grupo 1179182">
                <g id="Grupo_1179181" data-name="Grupo 1179181" clip-path="url(#clip-path-12)">
                  <path id="Trazado_998073" data-name="Trazado 998073" d="M872.762,571.184c0,2.144-1.114,4.222-2.486,4.641s-2.484-.978-2.484-3.121,1.114-4.221,2.486-4.641,2.485.978,2.484,3.121" transform="translate(-867.792 -567.988)" fill="#fff"/>
                </g>
              </g>
            </g>
            <path id="Trazado_998074" data-name="Trazado 998074" d="M897.922,572.47a3.879,3.879,0,0,1-1.245-3.077c-.01-2.282,1.335-4.447,3-4.825a2.125,2.125,0,0,1,1.848.422,3.878,3.878,0,0,1,1.245,3.077c.01,2.282-1.335,4.447-3,4.825a2.119,2.119,0,0,1-1.4-.14,2.29,2.29,0,0,1-.452-.283m1.812-7.646c-1.551.352-2.8,2.4-2.8,4.568a3.674,3.674,0,0,0,1.147,2.873,1.87,1.87,0,0,0,1.627.372c1.551-.353,2.8-2.4,2.8-4.568a3.675,3.675,0,0,0-1.146-2.873,2.029,2.029,0,0,0-.4-.249,1.865,1.865,0,0,0-1.229-.123" transform="translate(-710.729 -447.446)" fill="#fff"/>
            <path id="Trazado_998075" data-name="Trazado 998075" d="M888.846,584.236a.244.244,0,0,0,.216,0,2.165,2.165,0,0,1,1.773.075.244.244,0,0,0,.322-.125.247.247,0,0,0-.125-.323,2.645,2.645,0,0,0-2.194-.062.245.245,0,0,0,.008.439" transform="translate(-704.411 -462.573)" fill="#fff"/>
          </g>
        </g>
      </g>
    </g>
  </g>
</svg>
