<svg xmlns="http://www.w3.org/2000/svg" width="105" height="105" viewBox="0 0 105 105">
  <g id="Grupo_1179602" data-name="Grupo 1179602" transform="translate(-816.998 -3462.873)">
    <g id="Grupo_1179069" data-name="Grupo 1179069" transform="translate(637.33 2720.873)">
      <rect id="Rectángulo_402006" data-name="Rectángulo 402006" width="105" height="105" rx="10" transform="translate(179.668 742)" fill="#6c4826"/>
      <g id="Page-1" transform="translate(194.36 756.992)">
        <g id="_009---Pruning" data-name="009---Pruning" transform="translate(-0.007 -0.018)">
          <path id="Shape" d="M29.751,34.5A3.751,3.751,0,1,0,26,30.751,3.751,3.751,0,0,0,29.751,34.5Zm0-5a1.25,1.25,0,1,1-1.25,1.25A1.25,1.25,0,0,1,29.751,29.5Z" transform="translate(5.271 5.535)" fill="#ffac04"/>
          <path id="Shape-2" data-name="Shape" d="M2.052,51.024a14.431,14.431,0,0,1,5.2,1.913C6.266,62.466,6.066,70.256,6,73.533a2.437,2.437,0,0,0,2.5,2.5h2.5a2.5,2.5,0,0,0,2.5-2.5c0-1.651.113-4.614.313-8.453,1-1.5,4.239-2.5,6.14-2.864a1.258,1.258,0,0,0,.9-1.8,7.728,7.728,0,0,0-6.377-4.527,211.783,211.783,0,0,1,2.876-21.021,33.163,33.163,0,0,0,2.976,1.976A35.189,35.189,0,0,0,27.7,39.982a8.841,8.841,0,0,0,3.314,4.452v6.315a3.751,3.751,0,0,0-1.25,2.776V72.282a3.751,3.751,0,0,0,3.751,3.751h5a3.751,3.751,0,0,0,3.751-3.751V53.525a3.751,3.751,0,0,0-1.25-2.776V45.922l4.164,2.413a3.751,3.751,0,0,0,1.788,2.5l16.256,9.379a3.759,3.759,0,0,0,5.127-1.376l2.5-4.327a3.751,3.751,0,0,0-1.376-5.127L53.222,40.007a3.751,3.751,0,0,0-3.039-.3l-5.415-3.176a8.753,8.753,0,0,0-2.176-5.064,35.3,35.3,0,0,0,.925-7.953c0-9.441-4.814-20.008-11.254-20.008a1.25,1.25,0,0,0-1.25,1.25V28.6l-10.6-6.127c.363-1.25.738-2.426,1.15-3.614a13.63,13.63,0,0,1,5.952-.35,1.247,1.247,0,0,0,1.426-1.426,7.728,7.728,0,0,0-4.077-6.077c.338-.65.65-1.25,1.013-1.938A3.751,3.751,0,0,0,19.4,5.319c-.275.475-.538.963-.788,1.451C17.058,4.206,13.507.667,5.9,1a2.5,2.5,0,0,0-2.238,3.4,14.018,14.018,0,0,0,11.917,9.029c-.65,1.663-1.25,3.4-1.851,5.19l-3.376-1.951a1.252,1.252,0,0,0-1.713.463c-1.776,3.089-.488,7.378,2.363,11.379C9.755,33.9,8.83,39.394,8.13,44.634a7.816,7.816,0,0,0-7,4.577,1.268,1.268,0,0,0,.925,1.813Zm15.681,9.191a16.019,16.019,0,0,0-3.751,1.5c.075-1.038.15-2.138.238-3.276A5.165,5.165,0,0,1,17.733,60.2ZM32.889,31.866l.125-.088a6.249,6.249,0,1,1-3.089,6.965,6.415,6.415,0,0,1-.163-1.476A6.252,6.252,0,0,1,32.889,31.866Zm12.7,13.755-3.576-2a8.828,8.828,0,0,0,2.5-4.327L48.1,41.358Zm-5.827,26.66a1.25,1.25,0,0,1-1.25,1.25h-5a1.25,1.25,0,0,1-1.25-1.25V53.525a1.25,1.25,0,0,1,1.25-1.25h5a1.25,1.25,0,0,1,1.25,1.25ZM33.514,49.773V45.647a8.528,8.528,0,0,0,5,0v4.127Zm18.457-7.628,16.256,9.379a1.25,1.25,0,0,1,.45,1.713l-2.5,4.327a1.25,1.25,0,0,1-1.7.463L48.22,48.648a1.25,1.25,0,0,1-.463-1.713l2.5-4.327a1.376,1.376,0,0,1,.438-.45,1.376,1.376,0,0,1,1.275-.013ZM41.017,23.513a33.762,33.762,0,0,1-.613,6.252,8.653,8.653,0,0,0-4.389-1.25,8.841,8.841,0,0,0-2.5.375V6.232c3.952,1.426,7.5,9.279,7.5,17.282Zm-15.006-7.69a17.132,17.132,0,0,0-3.4.163c.375-.95.75-1.838,1.138-2.689A5,5,0,0,1,26.011,15.823ZM6,3.505c8.628-.4,10.767,4.8,11.179,6.165-.2.425-.388.875-.588,1.313A11.554,11.554,0,0,1,6,3.505Zm12.5,9.241c.35-.813.713-1.613,1.088-2.388v-.113c.588-1.25,1.25-2.5,1.888-3.626a1.25,1.25,0,0,1,1.163-.613,1.163,1.163,0,0,1,1.05.6,1.25,1.25,0,0,1,0,1.25C23.1,8.908,22.523,10,22.01,11.1a65.825,65.825,0,0,0-2.576,6.252.625.625,0,0,0,0,.163c-.425,1.25-.825,2.438-1.25,3.664l-2.213-1.25c.775-2.526,1.651-4.927,2.538-7.178Zm-8.128,6.84L30.026,30.916a8.753,8.753,0,0,0-2.764,6.352,32.3,32.3,0,0,1-5.665-2.5A28.411,28.411,0,0,1,13.307,27.5v-.075c-2.176-2.876-3.3-5.74-2.926-7.841Zm4.8,13.505a229.364,229.364,0,0,0-3.814,31.487c-.238,4.089-.363,7.24-.363,8.953H8.5a234.754,234.754,0,0,1,4.539-42.517C13.719,31.716,14.432,32.417,15.182,33.092ZM7.842,47.147c-.125,1.038-.238,2.063-.35,3.064a16.819,16.819,0,0,0-3.226-1.25A5.089,5.089,0,0,1,7.842,47.147Z" transform="translate(-0.993 -0.982)" fill="#ffac04"/>
        </g>
      </g>
    </g>
  </g>
</svg>
