<svg xmlns="http://www.w3.org/2000/svg" width="60" height="60" viewBox="0 0 60 60">
  <g id="Grupo_1179603" data-name="Grupo 1179603" transform="translate(-204.592 -3808.699)">
    <g id="Grupo_1179071" data-name="Grupo 1179071" transform="translate(24.924 -1712.301)">
      <rect id="Rectángulo_402006" data-name="Rectángulo 402006" width="60" height="60" rx="10" transform="translate(179.668 5521)" fill="#6c4826"/>
      <g id="Grupo_1179242" data-name="Grupo 1179242" transform="translate(160.456 5525.163)">
        <g id="Grupo_1179231" data-name="Grupo 1179231" transform="translate(25.999 0)">
          <g id="Grupo_1179230" data-name="Grupo 1179230" transform="translate(0)">
            <path id="Trazado_998311" data-name="Trazado 998311" d="M71.67,8.944A94.137,94.137,0,0,1,49.7.128a1.01,1.01,0,0,0-.985,0A91.56,91.56,0,0,1,26.755,8.944,1.009,1.009,0,0,0,26,9.921V21.063a31.228,31.228,0,0,0,10.262,23.38c5.022,4.657,10.846,7.232,12.951,7.232s7.93-2.575,12.951-7.232a31.228,31.228,0,0,0,10.262-23.38V9.921A1.01,1.01,0,0,0,71.67,8.944ZM60.791,42.962a32.931,32.931,0,0,1-7.262,5.119,13.012,13.012,0,0,1-4.317,1.575,13.01,13.01,0,0,1-4.317-1.575,32.938,32.938,0,0,1-7.262-5.119,29.254,29.254,0,0,1-9.616-21.9V10.7A93.414,93.414,0,0,0,49.212,2.163,96.347,96.347,0,0,0,70.407,10.7V21.063h0A29.254,29.254,0,0,1,60.791,42.962Z" transform="translate(-25.999 0)" fill="#ffac04"/>
          </g>
        </g>
        <g id="Grupo_1179233" data-name="Grupo 1179233" transform="translate(29.531 4.023)">
          <g id="Grupo_1179232" data-name="Grupo 1179232">
            <path id="Trazado_998312" data-name="Trazado 998312" d="M99.632,47.481a97.329,97.329,0,0,1-18.478-7.5,1.009,1.009,0,0,0-.948,0,96.17,96.17,0,0,1-18.479,7.5,1.009,1.009,0,0,0-.729.97V56.9a28.058,28.058,0,0,0,2.221,11.124,28.368,28.368,0,0,0,6.5,9.278,31.845,31.845,0,0,0,6.8,4.987A18.265,18.265,0,0,0,80.5,83.948a1.01,1.01,0,0,0,.366,0,18.266,18.266,0,0,0,3.977-1.657,31.857,31.857,0,0,0,6.8-4.987,28.366,28.366,0,0,0,6.5-9.278A28.058,28.058,0,0,0,100.36,56.9v-8.45A1.009,1.009,0,0,0,99.632,47.481ZM98.341,56.9a25.4,25.4,0,0,1-8.1,18.947,29.806,29.806,0,0,1-6.361,4.667,17.92,17.92,0,0,1-3.2,1.406,17.917,17.917,0,0,1-3.2-1.406,29.808,29.808,0,0,1-6.361-4.667,25.4,25.4,0,0,1-8.1-18.947V49.208a98.212,98.212,0,0,0,17.664-7.2,99.389,99.389,0,0,0,17.66,7.193v7.7Z" transform="translate(-60.998 -39.861)" fill="#ffac04"/>
          </g>
        </g>
        <g id="Grupo_1179235" data-name="Grupo 1179235" transform="translate(39.063 35.812)">
          <g id="Grupo_1179234" data-name="Grupo 1179234">
            <path id="Trazado_998313" data-name="Trazado 998313" d="M157.218,355.184l-.02-.022a1.009,1.009,0,0,0-1.5,1.356l.02.022a1.009,1.009,0,0,0,1.5-1.356Z" transform="translate(-155.443 -354.834)" fill="#ffac04"/>
          </g>
        </g>
        <g id="Grupo_1179237" data-name="Grupo 1179237" transform="translate(41.121 37.858)">
          <g id="Grupo_1179236" data-name="Grupo 1179236" transform="translate(0)">
            <path id="Trazado_998314" data-name="Trazado 998314" d="M180.987,377.991a26.3,26.3,0,0,1-3.479-2.629,1.009,1.009,0,1,0-1.345,1.5,28.314,28.314,0,0,0,3.747,2.831,1.009,1.009,0,1,0,1.077-1.707Z" transform="translate(-175.826 -375.106)" fill="#ffac04"/>
          </g>
        </g>
        <g id="Grupo_1179239" data-name="Grupo 1179239" transform="translate(41.709 12.44)">
          <g id="Grupo_1179238" data-name="Grupo 1179238" transform="translate(0)">
            <path id="Trazado_998315" data-name="Trazado 998315" d="M194.5,131.919V128.6a5.339,5.339,0,0,0-10.678,0v3.323a2.249,2.249,0,0,0-2.165,2.244v7.748a2.249,2.249,0,0,0,2.246,2.246h10.515a2.249,2.249,0,0,0,2.246-2.246v-7.748A2.249,2.249,0,0,0,194.5,131.919Zm-8.659-3.323a3.32,3.32,0,0,1,6.641,0v3.32h-6.641V128.6Zm8.806,13.315a.231.231,0,0,1-.228.228H183.9a.231.231,0,0,1-.228-.228v-7.748h0a.231.231,0,0,1,.228-.228h10.515a.231.231,0,0,1,.228.228Z" transform="translate(-181.653 -123.258)" fill="#ffac04"/>
          </g>
        </g>
        <g id="Grupo_1179241" data-name="Grupo 1179241" transform="translate(47.801 25.195)">
          <g id="Grupo_1179240" data-name="Grupo 1179240" transform="translate(0)">
            <path id="Trazado_998316" data-name="Trazado 998316" d="M243.429,249.64a1.409,1.409,0,0,0-1.009,2.395v.988a1.009,1.009,0,1,0,2.019,0v-.988a1.409,1.409,0,0,0-1.009-2.395Z" transform="translate(-242.018 -249.64)" fill="#ffac04"/>
          </g>
        </g>
      </g>
    </g>
  </g>
</svg>
