<svg xmlns="http://www.w3.org/2000/svg" width="105" height="105" viewBox="0 0 105 105">
  <g id="Grupo_1179598" data-name="Grupo 1179598" transform="translate(-179.998 -3462.873)">
    <g id="Grupo_1179597" data-name="Grupo 1179597">
      <g id="Grupo_1179068" data-name="Grupo 1179068" transform="translate(0.33 2720.873)">
        <rect id="Rectángulo_402006" data-name="Rectángulo 402006" width="105" height="105" rx="10" transform="translate(179.668 742)" fill="#6c4826"/>
        <g id="Grupo_1179229" data-name="Grupo 1179229" transform="translate(188.337 754.297)">
          <path id="Trazado_998307" data-name="Trazado 998307" d="M10.2,35.583A1.453,1.453,0,0,0,8.75,37.036V55.2A1.453,1.453,0,0,0,10.2,56.657h6.085A1.453,1.453,0,0,0,17.742,55.2v-.6h49.6v.6a1.452,1.452,0,0,0,1.453,1.453H74.88A1.452,1.452,0,0,0,76.333,55.2V37.036a1.452,1.452,0,0,0-1.453-1.453H68.793a1.452,1.452,0,0,0-1.453,1.453v.6H57.613a1.576,1.576,0,0,0-1.4,1.065c-.577,2.087-3.119,3.6-6.04,3.6a6.515,6.515,0,0,1-5.689-2.776,1.467,1.467,0,0,0-2.686.453,6.078,6.078,0,0,1-6.058,4.793,5.993,5.993,0,0,1-6.162-5.721,1.462,1.462,0,0,0-1.452-1.417H17.744v-.6a1.453,1.453,0,0,0-1.453-1.453ZM70.246,38.49h3.18V53.75h-3.18Zm-52.5,2.054h9.087A8.927,8.927,0,0,0,35.74,47.68,9.089,9.089,0,0,0,43.732,43a10.216,10.216,0,0,0,6.44,2.206c3.8,0,7.09-1.875,8.427-4.667h8.736V51.691H17.747ZM14.835,53.75H11.657V38.49h3.179Z" transform="translate(0 9.817)" fill="#ffac04"/>
          <path id="Trazado_998308" data-name="Trazado 998308" d="M61.617,20.587a7.322,7.322,0,0,0-7.641-6.646c-.25-.022-18.2,1.528-18.449,1.549a1.434,1.434,0,0,0-1.519-1.145,1.454,1.454,0,0,0-1.325,1.571l.108,1.264h0l.413,4.833.69,8.081a1.453,1.453,0,0,0,1.446,1.33,1.436,1.436,0,0,0,1.429-1.394l18.2-1.554a7.3,7.3,0,0,0,6.651-7.89ZM36.559,27.134l-.427-5-.32-3.751,13.742-1.173L38.377,26.979Zm6.713-.574,11.118-9.717a4.378,4.378,0,0,1,.328,8.741Z" transform="translate(10.849)" fill="#ffac04"/>
          <path id="Trazado_998309" data-name="Trazado 998309" d="M31.47,35.037a5.33,5.33,0,0,0,10.659,0c0-2.7-2.126-6.783-5.33-6.783s-5.33,4.083-5.33,6.783Zm7.752,0a2.422,2.422,0,1,1-4.844,0c0-1.666,1.379-3.876,2.421-3.876S39.222,33.37,39.222,35.037Z" transform="translate(10.301 6.494)" fill="#ffac04"/>
          <path id="Trazado_998310" data-name="Trazado 998310" d="M22.412,30.065a5.947,5.947,0,0,0,11.895,0c0-2.636-2.084-9.087-5.947-9.087s-5.947,6.45-5.947,9.087Zm8.988,0a3.041,3.041,0,0,1-6.081,0c0-2.311,1.9-6.18,3.041-6.18S31.4,27.755,31.4,30.065Z" transform="translate(6.194 3.195)" fill="#ffac04"/>
        </g>
      </g>
    </g>
  </g>
</svg>
