<svg xmlns="http://www.w3.org/2000/svg" width="69.757" height="72.607" viewBox="0 0 69.757 72.607">
  <g id="Grupo_1179599" data-name="Grupo 1179599" transform="translate(-730.243 -1300.917)">
    <path id="Trazado_998306" data-name="Trazado 998306" d="M94.218,54.366A6.357,6.357,0,0,0,83.241,50.2l-1.317,1.4A6.645,6.645,0,0,0,79.6,49.024a7.393,7.393,0,0,0-5.111-1.151,6.528,6.528,0,0,0-1.151.283A6.635,6.635,0,0,0,66.316,44.8a7.366,7.366,0,0,0-1.6.432c.03-.839.066-1.7.1-2.6a.827.827,0,0,0,.017-.163C64.875,39.19,68,35.808,71.09,33.5a5.336,5.336,0,0,0,3.973,1.856c2.318,0,4.052-1.769,5.738-3.49a12.842,12.842,0,0,1,4.635-3.506A.9.9,0,0,0,85.7,26.8a13.955,13.955,0,0,0-10.2-2.648,6.364,6.364,0,0,0-4.462,2.632,5.247,5.247,0,0,0-.86,5.158,27.1,27.1,0,0,0-2.333,1.934,20.446,20.446,0,0,0-2.831,3.2c.03-1.781.014-3.5-.1-5.092a7.494,7.494,0,0,0,3.045-8.942A9.233,9.233,0,0,0,63.1,17.283,20.743,20.743,0,0,0,47.5,15.974a.9.9,0,0,0-.268,1.564c2.376,1.882,3.721,4.759,5.023,7.54,1.853,3.96,3.768,8.057,8.676,8.057a7.461,7.461,0,0,0,2.221-.336c.154,3.057,0,6.577-.13,9.759-.056,1.315-.108,2.561-.142,3.766a6.5,6.5,0,0,0-1.017,1.058.921.921,0,0,0-.105.178c-.627,1.406-2.977,1.265-5.027.5a.894.894,0,0,0-.413-.051,10.865,10.865,0,0,0-7.32,3.747,5.11,5.11,0,0,0-1.1,2.581,3.447,3.447,0,0,0-1.485.438,21.868,21.868,0,0,0-8.537,7.915l-1.63-2.865a.905.905,0,0,0-1.234-.339L24.921,65.226a.9.9,0,0,0-.339,1.232l11.79,20.717a.905.905,0,0,0,.547.425.926.926,0,0,0,.24.032.9.9,0,0,0,.447-.119l10.089-5.741a.9.9,0,0,0,.339-1.232l-1.622-2.85c4.293,0,7.944.051,10.934.093,2.151.03,4.043.056,5.726.056,12.11,0,13.426-1.312,22.525-11.395,1.939-2.148,4.137-4.584,6.907-7.529a6.309,6.309,0,0,0,1.716-4.548ZM71.849,28.973A3.443,3.443,0,0,1,72.46,27.9a.848.848,0,0,0,.069-.095A4.716,4.716,0,0,1,75.8,25.933a9.114,9.114,0,0,1,1.512-.121,12.839,12.839,0,0,1,5.991,1.561,18.955,18.955,0,0,0-3.792,3.23c-2.123,2.166-3.527,3.457-5.566,2.74a3.4,3.4,0,0,1-1.357-.881,15.848,15.848,0,0,1,3.2-1.654.9.9,0,1,0-.581-1.711,17.351,17.351,0,0,0-3.468,1.767A3.4,3.4,0,0,1,71.849,28.973ZM60.927,31.325c-3.757,0-5.2-3.1-7.038-7.014a25.731,25.731,0,0,0-4.3-7.055,18.933,18.933,0,0,1,12.635,1.609,7.633,7.633,0,0,1,3.986,4.641,1.082,1.082,0,0,0,.035.113A5.689,5.689,0,0,1,64.7,29.887c-.47-3.346-1.544-5.83-3.786-6.592a.9.9,0,0,0-.581,1.711c1.6.542,2.352,2.859,2.672,5.923a5.676,5.676,0,0,1-2.079.395ZM56.3,49.828c3.319,1.172,6.057.619,7.052-1.43a4.983,4.983,0,0,1,3.239-1.809,4.754,4.754,0,0,1,5.381,3.037.9.9,0,0,0,1.338.526,3.873,3.873,0,0,1,1.448-.493,5.562,5.562,0,0,1,3.844.875,4.556,4.556,0,0,1,1.952,2.522l-4.76,5.06a6.373,6.373,0,0,0-5.957-4.105L49.727,54.3a3.6,3.6,0,0,1,.7-1.448A9.105,9.105,0,0,1,56.3,49.828ZM37.5,85.5,26.6,66.348,35.12,61.5,46.015,80.647Zm53.689-27.82c-2.784,2.959-5.084,5.508-6.933,7.556-4.994,5.533-7.5,8.311-10.752,9.613-3.278,1.312-7.573,1.252-16.131,1.13-3.233-.047-7.234-.1-11.987-.092L38.907,64.5a20.085,20.085,0,0,1,8.376-8.145,1.7,1.7,0,0,1,.841-.223l21.734-.315a4.548,4.548,0,1,1,0,9.1H59.172a.9.9,0,0,0,0,1.808H69.857a6.363,6.363,0,0,0,6.356-6.356c0-.017,0-.035,0-.051L84.56,51.44a4.549,4.549,0,0,1,6.625,6.235Z" transform="translate(705.779 1285.894)" fill="#384c27"/>
  </g>
</svg>
