<svg xmlns="http://www.w3.org/2000/svg" width="88.629" height="79.153" viewBox="0 0 88.629 79.153">
  <g id="Grupo_1179597" data-name="Grupo 1179597" transform="translate(13579.001 11909.576)">
    <g id="Grupo_1179258" data-name="Grupo 1179258" transform="translate(-13579.001 -11909.576)">
      <path id="Trazado_877432" data-name="Trazado 877432" d="M131.882,87.44H66.189A11.5,11.5,0,0,1,54.721,75.972V19.754A11.5,11.5,0,0,1,66.189,8.286h65.692A11.5,11.5,0,0,1,143.35,19.754V75.972A11.5,11.5,0,0,1,131.882,87.44" transform="translate(-54.72 -8.286)" fill="#6c4826"/>
      <g id="Grupo_1179257" data-name="Grupo 1179257" transform="translate(-8.538 8.992)">
        <g id="Grupo_1179250" data-name="Grupo 1179250" transform="translate(27.834 0)">
          <g id="Grupo_1179249" data-name="Grupo 1179249">
            <path id="Trazado_998361" data-name="Trazado 998361" d="M79.289.159a.237.237,0,0,0-.3-.146,27.2,27.2,0,0,1-4.881,1.123,17.318,17.318,0,0,1-5.927-.16A15.548,15.548,0,0,0,63.67.626a8.639,8.639,0,0,0-3.619,1.032,6.509,6.509,0,0,0-1.144.816,6.276,6.276,0,0,0-.92,1.032,6.626,6.626,0,0,0-.7,1.185,7.179,7.179,0,0,0-.432,1.332,9.2,9.2,0,0,0,0,3.654,11.8,11.8,0,0,0,.92,2.8A16.484,16.484,0,0,0,52.9,20.087a15.116,15.116,0,0,0-3.486-4.344,11.815,11.815,0,0,0,.886-2.789,9.2,9.2,0,0,0,0-3.654,7.206,7.206,0,0,0-.432-1.332,6.626,6.626,0,0,0-.7-1.185,6.277,6.277,0,0,0-.92-1.032A6.525,6.525,0,0,0,47.1,4.935,8.633,8.633,0,0,0,43.484,3.9a15.55,15.55,0,0,0-4.539.39,17.313,17.313,0,0,1-5.927.16,27.2,27.2,0,0,1-4.881-1.116.237.237,0,0,0-.293.146.229.229,0,0,0,0,.139,49.768,49.768,0,0,0,2.88,8.479,24.329,24.329,0,0,0,3.689,6.017h0a12.852,12.852,0,0,0,2.608,2.329,8.4,8.4,0,0,0,2.789,1.22,6.971,6.971,0,0,0,2.51.1,7.53,7.53,0,0,0,2.447-.809,8.8,8.8,0,0,0,.927-.572,9.687,9.687,0,0,0,.872-.7.237.237,0,0,0,0-.328h-.035A16.925,16.925,0,0,0,43.9,17.786c-.893-.439-1.792-.809-2.678-1.178a33.843,33.843,0,0,1-3.974-1.855,13.165,13.165,0,0,1-3.528-2.887,1.018,1.018,0,0,1,1.548-1.318c1.841,2.155,4.253,3.152,6.736,4.184,1,.418,2.015.837,3.005,1.325A19.521,19.521,0,0,1,47.4,17.451a13.7,13.7,0,0,1,3.675,4.881,19.439,19.439,0,0,0-9.567,4c.7,2.461,2.447,3.988,4.058,5.369,2.015,1.611,3.772,3.1,3.849,5.829.035,2.036-.955,3.256-2.057,4.6a8.659,8.659,0,0,0-1.994,3.486,12.507,12.507,0,0,0-.042,2.587c.077,1.959.16,4.232-.572,5.948A3.814,3.814,0,0,1,41.183,56.7a19.475,19.475,0,0,0,7.51,3.849,5.083,5.083,0,0,1,2.259-5c1.827-1.339,4.881-.432,8.046.516,2.343.7,4.783,1.395,6.38,1.178A19.565,19.565,0,0,0,73.048,39.4a19.514,19.514,0,0,0-6.108-5.167c-3.807-2.343-6.617-4.072-4.7-10.138a19.413,19.413,0,0,0-7.286-1.945,15.165,15.165,0,0,1,4.839-8.033,19.58,19.58,0,0,1,2.385-1.395c.99-.488,2-.906,3.005-1.325,2.482-1.032,4.881-2.029,6.736-4.184a1.018,1.018,0,0,1,1.548,1.318,13.174,13.174,0,0,1-3.528,2.887,33.843,33.843,0,0,1-3.974,1.855c-.893.37-1.785.739-2.678,1.178a16.876,16.876,0,0,0-2.629,1.576h-.035a.237.237,0,0,0,0,.328,9.656,9.656,0,0,0,.872.7,8.778,8.778,0,0,0,.927.565,7.516,7.516,0,0,0,2.447.809,6.971,6.971,0,0,0,2.51-.1,8.4,8.4,0,0,0,2.789-1.22,12.85,12.85,0,0,0,2.6-2.329,24.324,24.324,0,0,0,3.7-6.017A49.771,49.771,0,0,0,79.289.3.229.229,0,0,0,79.289.159Z" transform="translate(-27.834 0)" fill="#fff7e5"/>
          </g>
        </g>
        <g id="Grupo_1179252" data-name="Grupo 1179252" transform="translate(34.063 28.078)">
          <g id="Grupo_1179251" data-name="Grupo 1179251" transform="translate(0)">
            <path id="Trazado_998362" data-name="Trazado 998362" d="M76.393,170.555c0-1.576-1.395-2.74-2.9-4.044a13.831,13.831,0,0,1-4.456-5.439,19.523,19.523,0,0,0-1.464,25.394c2.754,1.123,3.919.7,4.358-.328a13.029,13.029,0,0,0,.377-4.881,13.254,13.254,0,0,1,.112-3.263,10.689,10.689,0,0,1,2.475-4.449h0A4.779,4.779,0,0,0,76.393,170.555Z" transform="translate(-63.569 -161.072)" fill="#fff7e5"/>
          </g>
        </g>
        <g id="Grupo_1179254" data-name="Grupo 1179254" transform="translate(51.103 57.338)">
          <g id="Grupo_1179253" data-name="Grupo 1179253" transform="translate(0)">
            <path id="Trazado_998363" data-name="Trazado 998363" d="M168.444,330.047c-2.58-.767-5.034-1.5-5.857-.9a2.908,2.908,0,0,0-1.053,3.486,19.789,19.789,0,0,0,2.245.125A19.46,19.46,0,0,0,171.931,331C170.794,330.745,169.623,330.4,168.444,330.047Z" transform="translate(-161.323 -328.927)" fill="#fff7e5"/>
          </g>
        </g>
        <g id="Grupo_1179256" data-name="Grupo 1179256" transform="translate(64.203 25.379)">
          <g id="Grupo_1179255" data-name="Grupo 1179255">
            <path id="Trazado_998364" data-name="Trazado 998364" d="M236.705,145.592h0c-.941,3.814,1.081,5.062,3.765,6.715a33.292,33.292,0,0,1,3.6,2.454A19.607,19.607,0,0,0,236.705,145.592Z" transform="translate(-236.471 -145.592)" fill="#fff7e5"/>
          </g>
        </g>
      </g>
    </g>
  </g>
</svg>
