<svg xmlns="http://www.w3.org/2000/svg" width="61.333" height="60.959" viewBox="0 0 61.333 60.959">
  <g id="Grupo_1179600" data-name="Grupo 1179600" transform="translate(13265 11891.576)">
    <g id="Grupo_1179261" data-name="Grupo 1179261" transform="translate(-868.5 -12.688)">
      <path id="Trazado_877428" data-name="Trazado 877428" d="M53.4,60.959H7.936C3.572,60.959,0,56.984,0,52.127V8.833C0,3.975,3.572,0,7.936,0H53.4c4.364,0,7.936,3.975,7.936,8.833V52.127c0,4.857-3.572,8.832-7.936,8.832" transform="translate(-12396.5 -11878.889)" fill="#92cfd9"/>
      <path id="Trazado_998365" data-name="Trazado 998365" d="M31.327,60.6h-.561a1.516,1.516,0,0,1-1.516-1.516,5.107,5.107,0,0,0-8.718-3.611,1.516,1.516,0,0,1-2.144,0l-3.263-3.263a1.516,1.516,0,0,1,0-2.144,5.109,5.109,0,0,0-3.611-8.718A1.516,1.516,0,0,1,10,39.836V35.222a1.516,1.516,0,0,1,1.516-1.516,5.109,5.109,0,0,0,3.611-8.718,1.516,1.516,0,0,1,0-2.144l3.263-3.263a1.516,1.516,0,0,1,2.144,0,5.109,5.109,0,0,0,8.718-3.611,1.516,1.516,0,0,1,1.516-1.516h.561a2.853,2.853,0,0,0-.164.955V28.052a9.668,9.668,0,0,0,0,18.953V59.648a2.853,2.853,0,0,0,.163.955ZM48.6,23.734h8.319a.938.938,0,0,0-.195-.275l-8.788-8.731a.94.94,0,0,0-.275-.192V22.8A.94.94,0,0,0,48.6,23.734ZM34.029,60.6a.957.957,0,0,1-.955-.955V15.41a.957.957,0,0,1,.955-.955H45.75V22.8A2.851,2.851,0,0,0,48.6,25.644H57V59.666a.94.94,0,0,1-.938.938Zm9.206-37.062h-5.43a.955.955,0,1,0,0,1.911h5.43a.955.955,0,1,0,0-1.911Zm6.879,6.9H37.8a.955.955,0,1,0,0,1.911h12.31a.955.955,0,0,0,0-1.911Zm0,6.9H37.8a.955.955,0,1,0,0,1.911h12.31a.955.955,0,0,0,0-1.911Zm0,6.9H37.8a.955.955,0,0,0,0,1.911h12.31a.955.955,0,0,0,0-1.911Zm0,6.9H37.8a.955.955,0,1,0,0,1.911h12.31a.955.955,0,0,0,0-1.911Z" transform="translate(-12400.167 -11885.938)" fill="#fff7e5" fill-rule="evenodd"/>
    </g>
  </g>
</svg>
