<svg xmlns="http://www.w3.org/2000/svg" width="105" height="105" viewBox="0 0 105 105">
  <g id="Grupo_1179595" data-name="Grupo 1179595" transform="translate(-285.711 -3956.295)">
    <g id="Grupo_1102227" data-name="Grupo 1102227" transform="translate(106.043 3214.295)">
      <rect id="Rectángulo_402006" data-name="Rectángulo 402006" width="105" height="105" rx="10" transform="translate(179.668 742)" fill="#6c4826"/>
      <g id="Grupo_1179112" data-name="Grupo 1179112" transform="translate(190.858 748.691)">
        <path id="Trazado_997621" data-name="Trazado 997621" d="M50.259,42.2H21.952a1.208,1.208,0,1,0,0,2.416H50.259a1.208,1.208,0,1,0,0-2.416Z" transform="translate(-4.007 -12.012)" fill="#ffac04"/>
        <path id="Trazado_997622" data-name="Trazado 997622" d="M50.259,55.29H21.952a1.208,1.208,0,0,0,0,2.416H50.259a1.208,1.208,0,1,0,0-2.416Z" transform="translate(-4.007 -16.068)" fill="#ffac04"/>
        <path id="Trazado_997623" data-name="Trazado 997623" d="M44.422,68.381H21.952a1.208,1.208,0,0,0,0,2.416h22.47a1.208,1.208,0,1,0,0-2.416Z" transform="translate(-4.007 -20.124)" fill="#ffac04"/>
        <path id="Trazado_997624" data-name="Trazado 997624" d="M44.422,81.472H21.952a1.208,1.208,0,0,0,0,2.416h22.47a1.208,1.208,0,1,0,0-2.416Z" transform="translate(-4.007 -24.18)" fill="#ffac04"/>
        <path id="Trazado_997625" data-name="Trazado 997625" d="M44.422,94.563H21.952a1.208,1.208,0,0,0,0,2.416h22.47a1.208,1.208,0,1,0,0-2.416Z" transform="translate(-4.007 -28.236)" fill="#ffac04"/>
        <path id="Trazado_997626" data-name="Trazado 997626" d="M44.422,107.653H21.952a1.208,1.208,0,0,0,0,2.416h22.47a1.208,1.208,0,1,0,0-2.416Z" transform="translate(-4.007 -32.292)" fill="#ffac04"/>
        <path id="Trazado_997627" data-name="Trazado 997627" d="M85.286,74.322l-6.369-16.1c.036-.038.075-.072.109-.112a3.906,3.906,0,0,0,.892-3.287,1.512,1.512,0,0,1,.721-1.578,3.927,3.927,0,0,0,.874-6.073,1.514,1.514,0,0,1-.248-1.717,3.925,3.925,0,0,0-2.549-5.584,1.514,1.514,0,0,1-1.137-1.311,3.924,3.924,0,0,0-5.163-3.319,1.51,1.51,0,0,1-1.665-.489,3.906,3.906,0,0,0-1.868-1.289V11.539A8.119,8.119,0,0,0,60.773,3.43h-33.9a1.2,1.2,0,0,0-.8.315c-.014.012-.03.019-.043.032l-12.247,12c-5.915,5.824-5.628,5.447-5.8,5.755a1.551,1.551,0,0,0-.144.369,1.242,1.242,0,0,0-.023.233V78.927a8.118,8.118,0,0,0,8.109,8.109H60.773a8.119,8.119,0,0,0,8.109-8.109V66l5.068,12.81a1.208,1.208,0,0,0,1.122.763,1.176,1.176,0,0,0,.13-.007,1.208,1.208,0,0,0,1.065-1.006l1.213-7.407,5.949,4.574a1.207,1.207,0,0,0,1.859-1.4Zm-12.1-36.8A1.51,1.51,0,0,1,75.176,38.8a3.934,3.934,0,0,0,2.954,3.407,1.511,1.511,0,0,1,.981,2.149,3.934,3.934,0,0,0,.642,4.464,1.511,1.511,0,0,1-.336,2.337,3.934,3.934,0,0,0-1.874,4.1A1.511,1.511,0,0,1,76,57.046a3.913,3.913,0,0,0-3.8,2.438,1.509,1.509,0,0,1-2.265.665,3.956,3.956,0,0,0-4.51,0,1.51,1.51,0,0,1-2.266-.665,3.938,3.938,0,0,0-3.8-2.439,1.459,1.459,0,0,1-1.2-.52,1.5,1.5,0,0,1-.345-1.264,3.934,3.934,0,0,0-1.874-4.1,1.509,1.509,0,0,1-.331-2.336,3.934,3.934,0,0,0,.642-4.465,1.51,1.51,0,0,1,.981-2.148A3.934,3.934,0,0,0,60.187,38.8a1.511,1.511,0,0,1,1.987-1.277A3.934,3.934,0,0,0,66.5,36.252a1.556,1.556,0,0,1,2.36,0h0a3.934,3.934,0,0,0,4.329,1.271ZM58.576,59.4c.683.126,1.87-.175,2.347,1a3.928,3.928,0,0,0,4.226,2.4L60.774,73.853l-.831-5.085A1.208,1.208,0,0,0,58.015,68l-4.082,3.139ZM16.249,16.741l9.417-9.223v13.41H11.975ZM60.773,84.621H15.919a5.7,5.7,0,0,1-5.694-5.694V23.345H26.874a1.208,1.208,0,0,0,1.208-1.208V5.846H60.773a5.7,5.7,0,0,1,5.694,5.694V33.464a3.9,3.9,0,0,0-1.854,1.283,1.518,1.518,0,0,1-1.665.489,3.926,3.926,0,0,0-5.164,3.318,1.518,1.518,0,0,1-1.137,1.311A3.924,3.924,0,0,0,54.1,45.449a1.518,1.518,0,0,1-.248,1.718,3.926,3.926,0,0,0,.875,6.073,1.513,1.513,0,0,1,.721,1.578,3.906,3.906,0,0,0,.892,3.287c.035.04.072.075.108.112l-6.369,16.1a1.207,1.207,0,0,0,1.859,1.4l5.949-4.573L59.1,78.553a1.208,1.208,0,0,0,1.062,1.006,1.19,1.19,0,0,0,.13.007,1.209,1.209,0,0,0,1.122-.763l5.054-12.772v12.9a5.7,5.7,0,0,1-5.694,5.694ZM77.348,68a1.208,1.208,0,0,0-1.928.759l-.833,5.086L70.214,62.8a3.908,3.908,0,0,0,1.7-.117c2.809-.824,2.12-3.327,3.987-3.22a4.056,4.056,0,0,0,.885-.066l4.646,11.748Z" fill="#ffac04"/>
        <path id="Trazado_997628" data-name="Trazado 997628" d="M83.424,64.962a7.686,7.686,0,1,0,7.686-7.686A7.686,7.686,0,0,0,83.424,64.962Zm12.956,0a5.27,5.27,0,1,1-5.27-5.27,5.27,5.27,0,0,1,5.27,5.27Z" transform="translate(-23.428 -16.683)" fill="#ffac04"/>
      </g>
    </g>
  </g>
</svg>
