<svg xmlns="http://www.w3.org/2000/svg" width="60" height="60" viewBox="0 0 60 60">
  <g id="Grupo_1179599" data-name="Grupo 1179599" transform="translate(-180.472 -5203.414)">
    <g id="Grupo_1179598" data-name="Grupo 1179598">
      <g id="Grupo_1102311" data-name="Grupo 1102311" transform="translate(0.804 -317.586)">
        <rect id="Rectángulo_402006" data-name="Rectángulo 402006" width="60" height="60" rx="10" transform="translate(179.668 5521)" fill="#6c4826"/>
        <g id="Grupo_1179188" data-name="Grupo 1179188" transform="translate(190.017 5503.762)">
          <circle id="Elipse_11841" data-name="Elipse 11841" cx="0.805" cy="0.805" r="0.805" transform="translate(19.813 52.647)" fill="#ffac04"/>
          <path id="Trazado_998076" data-name="Trazado 998076" d="M38.009,28.952H3.228A3.232,3.232,0,0,0,0,32.18V54.711a3.232,3.232,0,0,0,3.228,3.228H16.182l-.9,2.778a2.421,2.421,0,0,0,.4,4.807h9.869a2.421,2.421,0,0,0,.4-4.807l-.9-2.778H38.008a3.232,3.232,0,0,0,3.228-3.228V32.18A3.231,3.231,0,0,0,38.009,28.952ZM26.36,63.1a.808.808,0,0,1-.807.807H15.684a.807.807,0,1,1,0-1.614h9.869A.808.808,0,0,1,26.36,63.1Zm-2.11-2.421H16.987l.892-2.744h5.478Zm15.373-5.972a1.616,1.616,0,0,1-1.614,1.614H3.228a1.616,1.616,0,0,1-1.614-1.614V32.18a1.616,1.616,0,0,1,1.614-1.614H38.009a1.616,1.616,0,0,1,1.614,1.614V54.711Z" fill="#ffac04"/>
          <path id="Trazado_998077" data-name="Trazado 998077" d="M77.553,74.646H47.711a2.02,2.02,0,0,0-2.017,2.017V94.256a2.02,2.02,0,0,0,2.017,2.017h11.3a.807.807,0,1,0,0-1.614h-11.3a.4.4,0,0,1-.4-.4V76.663a.4.4,0,0,1,.4-.4H77.553a.4.4,0,0,1,.4.4V94.256a.4.4,0,0,1-.4.4h-11.3a.807.807,0,0,0,0,1.614h11.3a2.02,2.02,0,0,0,2.017-2.017V76.663A2.02,2.02,0,0,0,77.553,74.646Z" transform="translate(-42.014 -42.014)" fill="#ffac04"/>
          <path id="Trazado_998078" data-name="Trazado 998078" d="M102.339,119.189v-2.676a2.02,2.02,0,0,0-2.017-2.017H95.981a2.02,2.02,0,0,0-2.017,2.017v2.676a2.02,2.02,0,0,0,2.017,2.017h4.341A2.02,2.02,0,0,0,102.339,119.189Zm-1.614,0a.4.4,0,0,1-.4.4H95.981a.4.4,0,0,1-.4-.4v-2.676a.4.4,0,0,1,.4-.4h4.341a.4.4,0,0,1,.4.4Z" transform="translate(-86.396 -78.653)" fill="#ffac04"/>
          <path id="Trazado_998079" data-name="Trazado 998079" d="M325.942,193.437a.807.807,0,0,0-.571-.571l-5.924-1.587a.807.807,0,0,0-.988.988l1.587,5.924a.807.807,0,0,0,1.35.362l.457-.456,2.154,2.154a.807.807,0,0,0,1.141,0l2.283-2.283a.807.807,0,0,0,0-1.141l-2.154-2.153.457-.456A.807.807,0,0,0,325.942,193.437Zm-.224,3.96-1.141,1.141-2.154-2.154a.807.807,0,0,0-1.141,0l-.039.039-.864-3.224,3.224.864-.039.039a.807.807,0,0,0,0,1.141Z" transform="translate(-292.785 -149.228)" fill="#ffac04"/>
          <path id="Trazado_998080" data-name="Trazado 998080" d="M212.913,127.712h4.978a.807.807,0,0,0,0-1.614h-4.978a.807.807,0,1,0,0,1.614Z" transform="translate(-195.023 -89.322)" fill="#ffac04"/>
          <path id="Trazado_998081" data-name="Trazado 998081" d="M212.913,167.79h4.978a.807.807,0,0,0,0-1.614h-4.978a.807.807,0,1,0,0,1.614Z" transform="translate(-195.023 -126.172)" fill="#ffac04"/>
          <path id="Trazado_998082" data-name="Trazado 998082" d="M212.913,225.168h4.978a.807.807,0,0,0,0-1.614h-4.978a.807.807,0,1,0,0,1.614Z" transform="translate(-195.023 -178.929)" fill="#ffac04"/>
          <path id="Trazado_998083" data-name="Trazado 998083" d="M218.7,264.44a.807.807,0,0,0-.807-.807h-4.978a.807.807,0,1,0,0,1.614h4.978A.807.807,0,0,0,218.7,264.44Z" transform="translate(-195.023 -215.78)" fill="#ffac04"/>
          <path id="Trazado_998084" data-name="Trazado 998084" d="M104.3,216.294a3.356,3.356,0,1,0,3.356-3.356A3.359,3.359,0,0,0,104.3,216.294Zm5.1,0a1.742,1.742,0,1,1-1.742-1.742A1.744,1.744,0,0,1,109.393,216.294Z" transform="translate(-95.896 -169.168)" fill="#ffac04"/>
        </g>
      </g>
    </g>
  </g>
</svg>
