<svg xmlns="http://www.w3.org/2000/svg" xmlns:xlink="http://www.w3.org/1999/xlink" width="420" height="318.233" viewBox="0 0 420 318.233">
  <defs>
    <clipPath id="clip-path">
      <rect id="Rectángulo_455529" data-name="Rectángulo 455529" width="420" height="318.233" transform="translate(180.145 2659.089)" fill="#92cfd9"/>
    </clipPath>
    <clipPath id="clip-path-2">
      <rect id="Rectángulo_455528" data-name="Rectángulo 455528" width="420" height="420" transform="translate(-0.336 -0.336)" fill="none"/>
    </clipPath>
  </defs>
  <g id="Enmascarar_grupo_1098804" data-name="Enmascarar grupo 1098804" transform="translate(-180.145 -2659.089)" clip-path="url(#clip-path)">
    <g id="Grupo_1179090" data-name="Grupo 1179090" transform="translate(180 2590.336)">
      <rect id="Rectángulo_455527" data-name="Rectángulo 455527" width="420" height="420" transform="translate(-0.336 -0.336)" fill="#5e7c8c"/>
      <g id="Grupo_1179089" data-name="Grupo 1179089">
        <g id="Grupo_1179088" data-name="Grupo 1179088" clip-path="url(#clip-path-2)">
          <path id="Trazado_997377" data-name="Trazado 997377" d="M7.528,255.261c-.063-.127-.129-.253-.192-.379a13.41,13.41,0,0,1,7.477-18.628c2.253-.805,4.686-1,6.948-1.777a14.086,14.086,0,0,0,6.378-4.5c2.155-2.7,3.253-6.1,5.308-8.87,2.382-3.211,6.1-4.28,9.957-4.3,3.706-.024,8.473,3.009,11.8.241,3.037-2.532,1.613-7.966,4.409-10.76,3.835-3.831,11.965.505,15.165-3.87,1.129-1.544,1.1-3.622,1.7-5.437,1.354-4.059,7.211-6.193,11.1-6.124a16.742,16.742,0,0,1,10.417,4.206c2.607,2.236,5.286,5.377,8.677,4.831,1.621-.262,2.964-1.355,4.44-2.075a10.358,10.358,0,0,1,11.97,2.417c4.185,4.775,6.612,9.845,12.144,13.538a31.955,31.955,0,0,1,5.606,4.063c1.6,1.67,2.663,4.1,1.98,6.311-1.277,4.132-5.272,4.177-8.723,4.668-5.688.809-11.371,2.379-16.994,3.555-11.43,2.389-23,4.824-33.476,9.979-16.428,8.08-29.16,22.809-46.665,28.82-4.84,1.661-9.4,4.061-14.551,2.3C18.081,271.993,13.12,272.14,9.378,269c-2.882-2.415-4.387-6.809-2.526-10.077A4.917,4.917,0,0,0,7.9,256.458a3.06,3.06,0,0,0-.377-1.2" transform="translate(2.375 76.376)" fill="#7f823d"/>
          <path id="Trazado_997378" data-name="Trazado 997378" d="M225.186,219.917c-16.393.762-32.806,1.525-49.211,1.06-19.461-.552-38.967-2.827-58.344-.951-1.852.179-.963-1.026-1.627-1.9a10.841,10.841,0,0,0-2.013-2.032c-2.1-1.777-3.838-3.734-4.146-6.6-.395-3.676,2.26-7.61,5.93-8.05,2.842-.339,5.916,1.249,8.478-.029,2.516-1.256,3.223-4.677,5.585-6.2,1.98-1.28,4.546-.9,6.895-.7s5.105-.027,6.445-1.966a11.777,11.777,0,0,0,.949-2,10.857,10.857,0,0,1,7.751-6.045c5.07-1.018,7.568,4.936,11.959,3.967,1.946-.428,3.051-2.417,4.509-3.776a9.345,9.345,0,0,1,8.611-1.957,12.852,12.852,0,0,1,7.222,5.391c.941,1.4,1.8,3.083,3.411,3.605,2.8.909,5.168-2.261,7.985-3.115,3.3-1,6.631,1.327,9.147,3.687s5.276,5.077,8.726,5.046c3.813-.034,7.509-3.5,11.015-2,3.379,1.439,3.877,6.526,7.21,8.068,2.862,1.323,6.178-.664,9.318-.389a6.59,6.59,0,0,1,5.112,3.328c.386.7.693,1.523,1.4,1.892a6.6,6.6,0,0,0,1.736.346,4.024,4.024,0,0,1,2.837,3.374c.473,2.75-.14,6.256-3.3,6.855-3.614.683-7.621.33-11.308.521q-6.139.317-12.281.592" transform="translate(43.942 72.995)" fill="#7f823d"/>
          <path id="Trazado_997379" data-name="Trazado 997379" d="M142.39,125.106h-2.551l-3.587,108.306h9.726Z" transform="translate(54.526 50.066)" fill="#b7d4e2"/>
          <path id="Trazado_997380" data-name="Trazado 997380" d="M130.865,101.9l6.3,28.086a.663.663,0,0,0,.3.421l3.593,2.163a.662.662,0,0,1,.287.358l1.322,3.981a.663.663,0,0,0,.85.416l.556-.2a.662.662,0,0,0,.4-.846l-12.338-34.75a.662.662,0,0,0-1.27.367" transform="translate(52.364 40.456)" fill="#b7d4e2"/>
          <path id="Trazado_997381" data-name="Trazado 997381" d="M139.959,129.573h-.006a.131.131,0,0,1-.164-.087l-7.452-23.994a.134.134,0,0,1,.087-.165.132.132,0,0,1,.165.087l7.45,23.995a.131.131,0,0,1-.081.162" transform="translate(52.957 42.149)" fill="#82a0af"/>
          <path id="Trazado_997382" data-name="Trazado 997382" d="M175.059,138.024l-25.987-12.372a.661.661,0,0,0-.521-.021l-3.918,1.493a.656.656,0,0,1-.459.006l-3.949-1.416a.661.661,0,0,0-.851.412l-.188.56a.662.662,0,0,0,.417.839l34.96,11.725a.662.662,0,0,0,.5-1.225" transform="translate(55.686 50.258)" fill="#b7d4e2"/>
          <path id="Trazado_997383" data-name="Trazado 997383" d="M144.024,127V127a.133.133,0,0,1,.169-.076l23.481,8.939a.132.132,0,0,1,.077.169.13.13,0,0,1-.169.076L144.1,127.167a.13.13,0,0,1-.077-.164" transform="translate(57.634 50.789)" fill="#82a0af"/>
          <path id="Trazado_997384" data-name="Trazado 997384" d="M125.6,157.494,137.968,131.5a.673.673,0,0,1,.391-.344l3.984-1.312a.66.66,0,0,0,.358-.286l2.172-3.589a.664.664,0,0,1,.921-.217l.5.316a.662.662,0,0,1,.2.913L126.76,158.132a.662.662,0,0,1-1.157-.638" transform="translate(50.239 50.284)" fill="#b7d4e2"/>
          <path id="Trazado_997385" data-name="Trazado 997385" d="M140.637,129.483l0,0a.133.133,0,0,0-.181.049l-12.585,21.745a.134.134,0,0,0,.048.181.131.131,0,0,0,.179-.048l12.586-21.746a.134.134,0,0,0-.043-.178" transform="translate(51.164 51.809)" fill="#82a0af"/>
          <path id="Trazado_997386" data-name="Trazado 997386" d="M142.5,126.362a2.191,2.191,0,1,1-2.8-1.332,2.191,2.191,0,0,1,2.8,1.332" transform="translate(55.325 49.985)" fill="#b7d4e2"/>
          <path id="Trazado_997387" data-name="Trazado 997387" d="M141.535,126.4a1.4,1.4,0,1,1-1.791-.851,1.4,1.4,0,0,1,1.791.851" transform="translate(55.551 50.21)" fill="#82a0af"/>
          <path id="Trazado_997388" data-name="Trazado 997388" d="M197.108,104.817h-3.227l-4.538,137.015h12.3Z" transform="translate(75.772 41.946)" fill="#fff"/>
          <path id="Trazado_997389" data-name="Trazado 997389" d="M215.178,75.89l-20.686,29.965a.837.837,0,0,0-.132.645l1.075,5.195a.843.843,0,0,1-.085.574l-2.564,4.647a.838.838,0,0,0,.344,1.147l.66.346a.837.837,0,0,0,1.131-.351l21.687-41.3a.838.838,0,0,0-1.431-.865" transform="translate(77.108 30.226)" fill="#fff"/>
          <path id="Trazado_997390" data-name="Trazado 997390" d="M195.232,108.181l-.006,0a.168.168,0,0,1-.062-.228l15.893-27.526a.168.168,0,0,1,.227-.06.166.166,0,0,1,.062.227l-15.894,27.526a.165.165,0,0,1-.221.064" transform="translate(78.094 32.152)" fill="#b7d4e2"/>
          <path id="Trazado_997391" data-name="Trazado 997391" d="M213.353,147.9,202.531,113.13a.834.834,0,0,0-.427-.5l-4.752-2.359a.828.828,0,0,1-.4-.421l-2.076-4.885a.837.837,0,0,0-1.115-.435l-.681.305a.838.838,0,0,0-.42,1.108l19.127,42.549a.838.838,0,0,0,1.564-.592" transform="translate(77.071 41.801)" fill="#fff"/>
          <path id="Trazado_997392" data-name="Trazado 997392" d="M196.568,109.751l.006,0a.169.169,0,0,1,.217.092l11.857,29.491a.166.166,0,0,1-.091.216.168.168,0,0,1-.217-.092l-11.86-29.489a.167.167,0,0,1,.088-.214" transform="translate(78.624 43.915)" fill="#b7d4e2"/>
          <path id="Trazado_997393" data-name="Trazado 997393" d="M160.98,114.114l34.764-10.83a.839.839,0,0,1,.657.067l4.639,2.572a.835.835,0,0,0,.574.09l5.2-1.064a.836.836,0,0,1,.991.669l.134.734a.836.836,0,0,1-.672.975l-45.885,8.412a.838.838,0,0,1-.4-1.624" transform="translate(64.187 41.317)" fill="#fff"/>
          <path id="Trazado_997394" data-name="Trazado 997394" d="M197.129,105.392v-.007a.165.165,0,0,0-.2-.125l-31.009,6.98a.166.166,0,0,0,.073.325L197,105.584a.165.165,0,0,0,.127-.192" transform="translate(66.347 42.122)" fill="#b7d4e2"/>
          <path id="Trazado_997395" data-name="Trazado 997395" d="M196.645,107.48a2.771,2.771,0,1,1-1.165-3.741,2.772,2.772,0,0,1,1.165,3.741" transform="translate(76.603 41.387)" fill="#b7d4e2"/>
          <path id="Trazado_997396" data-name="Trazado 997396" d="M195.476,106.731a1.774,1.774,0,1,1-.746-2.394,1.773,1.773,0,0,1,.746,2.394" transform="translate(76.888 41.672)" fill="#82a0af"/>
          <path id="Trazado_997397" data-name="Trazado 997397" d="M45.349,130.858H41.77L36.738,282.781H50.381Z" transform="translate(14.702 52.368)" fill="#b7d4e2"/>
          <path id="Trazado_997398" data-name="Trazado 997398" d="M33.724,94.634l3.4,40.232a.926.926,0,0,0,.343.644l4.58,3.691a.928.928,0,0,1,.33.553l1.08,5.784a.93.93,0,0,0,1.1.739l.809-.169a.928.928,0,0,0,.721-1.1L35.558,94.366a.929.929,0,0,0-1.834.267" transform="translate(13.495 37.468)" fill="#b7d4e2"/>
          <path id="Trazado_997399" data-name="Trazado 997399" d="M41.061,134.85h-.007a.185.185,0,0,1-.213-.151L35.057,99.933a.188.188,0,0,1,.153-.211.184.184,0,0,1,.211.151L41.2,134.64a.183.183,0,0,1-.144.21" transform="translate(14.028 39.906)" fill="#82a0af"/>
          <path id="Trazado_997400" data-name="Trazado 997400" d="M88.3,153.209l-33.76-22.143a.924.924,0,0,0-.718-.13l-5.731,1.33a.934.934,0,0,1-.638-.081l-5.218-2.719a.926.926,0,0,0-1.26.412l-.368.739a.931.931,0,0,0,.42,1.246l46.353,22.955a.929.929,0,0,0,.921-1.609" transform="translate(16.21 51.768)" fill="#b7d4e2"/>
          <path id="Trazado_997401" data-name="Trazado 997401" d="M47.2,132.053l0-.007a.184.184,0,0,1,.249-.073l30.93,16.895a.188.188,0,0,1,.074.251.184.184,0,0,1-.251.073L47.276,132.3a.185.185,0,0,1-.077-.244" transform="translate(18.881 52.805)" fill="#82a0af"/>
          <path id="Trazado_997402" data-name="Trazado 997402" d="M17.536,169.844l22.136-33.765a.935.935,0,0,1,.609-.4l5.784-1.066a.933.933,0,0,0,.554-.329l3.7-4.574a.929.929,0,0,1,1.32-.125l.631.533a.928.928,0,0,1,.112,1.309L19.021,170.952a.928.928,0,0,1-1.486-1.108" transform="translate(6.957 51.769)" fill="#b7d4e2"/>
          <path id="Trazado_997403" data-name="Trazado 997403" d="M43.2,134.169l-.006,0a.183.183,0,0,0-.259.032L21.306,162.021a.184.184,0,1,0,.291.225L43.23,134.423a.184.184,0,0,0-.027-.253" transform="translate(8.511 53.675)" fill="#82a0af"/>
          <path id="Trazado_997404" data-name="Trazado 997404" d="M45.329,130.768a3.073,3.073,0,1,1-3.633-2.383,3.071,3.071,0,0,1,3.633,2.383" transform="translate(15.706 51.352)" fill="#b7d4e2"/>
          <path id="Trazado_997405" data-name="Trazado 997405" d="M43.929,130.677a1.966,1.966,0,1,1-2.326-1.525,1.966,1.966,0,0,1,2.326,1.525" transform="translate(16.022 51.668)" fill="#82a0af"/>
          <path id="Trazado_997406" data-name="Trazado 997406" d="M249.91,111.842h-3.744L240.9,270.775h14.273Z" transform="translate(96.405 44.758)" fill="#d9f1f9"/>
          <path id="Trazado_997407" data-name="Trazado 997407" d="M221.873,154.618l30.226-29.5a.972.972,0,0,0,.293-.706l-.067-6.154a.981.981,0,0,1,.227-.634L256.5,112.9a.972.972,0,0,0-.137-1.381l-.675-.543a.97.97,0,0,0-1.365.15l-33.891,42.185a.972.972,0,0,0,1.437,1.3" transform="translate(88.13 44.327)" fill="#d9f1f9"/>
          <path id="Trazado_997408" data-name="Trazado 997408" d="M249.275,117.3l.006.006a.193.193,0,0,1,.02.272l-24.226,27.794a.2.2,0,0,1-.273.018.193.193,0,0,1-.018-.272l24.226-27.794a.193.193,0,0,1,.266-.024" transform="translate(89.936 46.924)" fill="#82a0af"/>
          <path id="Trazado_997409" data-name="Trazado 997409" d="M236.218,74.738l4.573,41.989a.975.975,0,0,0,.374.666l4.884,3.743a.967.967,0,0,1,.36.57l1.276,6.022a.972.972,0,0,0,1.171.745l.843-.2a.973.973,0,0,0,.727-1.168l-12.294-52.7a.972.972,0,0,0-1.913.326" transform="translate(94.529 29.478)" fill="#d9f1f9"/>
          <path id="Trazado_997410" data-name="Trazado 997410" d="M244.914,116.606h-.008a.192.192,0,0,1-.225-.153l-6.93-36.213a.2.2,0,0,1,.154-.225.192.192,0,0,1,.225.153l6.93,36.213a.194.194,0,0,1-.146.224" transform="translate(95.143 32.02)" fill="#82a0af"/>
          <path id="Trazado_997411" data-name="Trazado 997411" d="M299.592,113.411,257.6,117.994a.972.972,0,0,1-.732-.223l-4.707-3.963a.976.976,0,0,0-.633-.228l-6.157.053a.971.971,0,0,1-.979-.983l.01-.865a.971.971,0,0,1,.983-.961l54.109.648a.972.972,0,0,1,.094,1.938" transform="translate(97.804 44.351)" fill="#d9f1f9"/>
          <path id="Trazado_997412" data-name="Trazado 997412" d="M251.412,113.364v.008a.192.192,0,0,0,.2.186l36.854-1.036a.2.2,0,0,0,.188-.2.19.19,0,0,0-.2-.186L251.6,113.173a.194.194,0,0,0-.188.19" transform="translate(100.611 44.876)" fill="#82a0af"/>
          <path id="Trazado_997413" data-name="Trazado 997413" d="M243.886,110.7a3.215,3.215,0,1,1,.493,4.52,3.216,3.216,0,0,1-.493-4.52" transform="translate(97.316 43.82)" fill="#82a0af"/>
          <path id="Trazado_997414" data-name="Trazado 997414" d="M244.457,111.1a2.058,2.058,0,1,1,.315,2.893,2.056,2.056,0,0,1-.315-2.893" transform="translate(97.647 44.151)" fill="#d9f1f9"/>
          <path id="Trazado_997415" data-name="Trazado 997415" d="M317.725,237.415v19.043a6.568,6.568,0,0,1-3.248-.14c-5.839-1.442-10.711-5.433-16.41-7.337-4.1-1.386-8.5-1.624-12.84-1.694a6.478,6.478,0,0,1-3.388-.686c-3.3-2.142-5.153-6.553-9-8.891-4.243-2.59-9.1-4.229-12.8-7.533s-5.881-9.213-3-13.246a6.529,6.529,0,0,1,1.246-1.316,7.3,7.3,0,0,1,5.517-1.6c2.282.322,4.243,1.722,6.343,2.674,5.013,2.3,6.343-1.3,10.627-2.506,4.075-1.134,6.441.784,9.171,3.29,2.674,2.45,4.243,4.551,6.987,5.769a12.394,12.394,0,0,0,3.08.854c4.481.7,9.311-.49,10.641,5.671.28,1.3.238,2.744.98,3.851.882,1.316,2.576,1.75,4,2.436a9.376,9.376,0,0,1,2.086,1.358" transform="translate(102.331 85.58)" fill="#7f823d"/>
          <path id="Trazado_997416" data-name="Trazado 997416" d="M420.056,254.658v87.05H0v-88.87q4.159-2.436,8.373-4.747a337.991,337.991,0,0,1,36.839-17.222c2.394-.952,4.775-1.876,7.183-2.772.518-.21,1.05-.406,1.582-.6.826-.308,1.652-.616,2.492-.91q3.633-1.323,7.295-2.576a1.376,1.376,0,0,1,.224-.07c13.26-4.551,26.744-8.457,40.409-11.93q7.141-1.827,14.338-3.5,3.843-.882,7.715-1.75c1.6-.35,3.206-.7,4.8-1.036q11.3-2.394,22.739-4.243c12.266-1.988,24.629-3.5,37.049-4.467,3.052-.252,6.119-.462,9.171-.63q6.994-.42,14.016-.6a444.232,444.232,0,0,1,51.065,4.3q6.028.861,12.014,1.862,9.22,1.554,18.356,3.458c2.114.434,4.229.9,6.343,1.358,12.07,2.688,24.153,5.559,36.013,8.919q6.532,1.848,12.98,3.921,4.852,1.554,9.619,3.248c3.767,1.344,7.477,2.744,11.159,4.243,17.292,7.015,32.862,17.222,48.278,27.57" transform="translate(0 78.348)" fill="#b3c148"/>
          <path id="Trazado_997417" data-name="Trazado 997417" d="M107.466,250.138c-.91.1-1.834.2-2.716.322-4.075.434-8.709.294-12.616,1.54-.392.126-.742.238-1.092.336-.014-.014-.014,0-.014,0a11.517,11.517,0,0,1-1.19.308,5.742,5.742,0,0,1-2.212.126c-1.3-.2-2.548-.924-4.369-2.478C68.219,237.411,50.73,228.211,32.29,222.065c2.912-1.162,5.825-2.282,8.765-3.374.826-.308,1.652-.616,2.492-.91,8.723,2.24,16.69,5.615,25.175,9.507,7.183,3.3,14.422,6.637,21.171,10.921a4.062,4.062,0,0,1,.406.266c3.29,2.1,6.3,4.537,9.423,6.9,2.156,1.61,4.9,5.083,7.743,4.761" transform="translate(12.922 87.152)" fill="#8a9149"/>
          <path id="Trazado_997418" data-name="Trazado 997418" d="M84.7,102.98H79.934l-6.7,202.325H91.4Z" transform="translate(29.307 41.211)" fill="#fff"/>
          <path id="Trazado_997419" data-name="Trazado 997419" d="M95.578,54.525,77.272,105.082a1.241,1.241,0,0,0,.056.972l3.485,7.015a1.242,1.242,0,0,1,.091.854l-1.918,7.6a1.237,1.237,0,0,0,.921,1.508l1.074.248a1.235,1.235,0,0,0,1.483-.927L97.946,55.224a1.237,1.237,0,0,0-2.368-.7" transform="translate(30.894 21.494)" fill="#fff"/>
          <path id="Trazado_997420" data-name="Trazado 997420" d="M80.206,107.351l-.01,0a.245.245,0,0,1-.172-.3L92.4,61.772a.245.245,0,0,1,.473.129L80.5,107.175a.244.244,0,0,1-.291.175" transform="translate(32.021 24.648)" fill="#82a0af"/>
          <path id="Trazado_997421" data-name="Trazado 997421" d="M123.839,155.727l-28.5-45.6a1.236,1.236,0,0,0-.8-.556l-7.67-1.586a1.228,1.228,0,0,1-.728-.454l-4.8-6.2a1.238,1.238,0,0,0-1.756-.2l-.857.692a1.238,1.238,0,0,0-.185,1.74l43.278,53.593a1.237,1.237,0,0,0,2.011-1.432" transform="translate(31.324 40.362)" fill="#fff"/>
          <path id="Trazado_997422" data-name="Trazado 997422" d="M85.652,107.389l.008-.006a.244.244,0,0,1,.343.05L114,145.1a.246.246,0,1,1-.395.294l-28-37.671a.246.246,0,0,1,.043-.337" transform="translate(34.24 42.954)" fill="#82a0af"/>
          <path id="Trazado_997423" data-name="Trazado 997423" d="M35.239,131.268l45.589-28.509a1.242,1.242,0,0,1,.962-.15l7.59,1.935a1.239,1.239,0,0,0,.853-.09l7.026-3.47a1.236,1.236,0,0,1,1.668.584l.468,1a1.236,1.236,0,0,1-.6,1.644L36.42,133.437a1.237,1.237,0,0,1-1.18-2.169" transform="translate(13.87 40.361)" fill="#fff"/>
          <path id="Trazado_997424" data-name="Trazado 997424" d="M84.07,104.277l0-.01a.246.246,0,0,0-.33-.1l-41.671,21.6a.246.246,0,0,0,.227.437l41.67-21.6a.245.245,0,0,0,.109-.322" transform="translate(16.781 41.674)" fill="#82a0af"/>
          <path id="Trazado_997425" data-name="Trazado 997425" d="M84.667,104.433A4.092,4.092,0,1,1,81.6,99.525a4.092,4.092,0,0,1,3.068,4.908" transform="translate(30.648 39.786)" fill="#b7d4e2"/>
          <path id="Trazado_997426" data-name="Trazado 997426" d="M82.81,103.68a2.619,2.619,0,1,1-1.963-3.141,2.618,2.618,0,0,1,1.963,3.141" transform="translate(31.07 40.207)" fill="#fff"/>
          <path id="Trazado_997427" data-name="Trazado 997427" d="M92.277,242.139c19.724-1.047,40.1,3.254,55.2,12.345-34.212,1.717-68.668-1.523-102.835.588,2.315-.143,5.636-2.4,7.8-3.129,4.763-1.612,9.338-3.489,14.117-5.083a98.25,98.25,0,0,1,25.719-4.721" transform="translate(17.866 96.839)" fill="#b3c148"/>
          <path id="Trazado_997428" data-name="Trazado 997428" d="M170.987,249.6c0,1.182-16.137,2.138-36.042,2.138S98.9,250.782,98.9,249.6s16.137-2.138,36.044-2.138,36.042.958,36.042,2.138" transform="translate(39.579 99.031)" fill="#8a9149"/>
          <path id="Trazado_997429" data-name="Trazado 997429" d="M107.741,250.895H106.38a.643.643,0,0,1-.643-.643v-5.637a.643.643,0,0,1,.643-.644h1.361a.643.643,0,0,1,.643.644v5.637a.643.643,0,0,1-.643.643" transform="translate(42.314 97.634)" fill="#82a0af"/>
          <path id="Trazado_997430" data-name="Trazado 997430" d="M146.135,250.895h-1.361a.644.644,0,0,1-.643-.643v-5.637a.644.644,0,0,1,.643-.644h1.361a.643.643,0,0,1,.643.644v5.637a.643.643,0,0,1-.643.643" transform="translate(57.679 97.634)" fill="#82a0af"/>
          <path id="Trazado_997431" data-name="Trazado 997431" d="M169.871,256.287h-61.65l-14.2-40.194h61.937Z" transform="translate(37.625 86.478)" fill="#23323d"/>
          <path id="Trazado_997432" data-name="Trazado 997432" d="M112.117,256.287h-.577L97.362,216.094h.58Z" transform="translate(38.963 86.478)" fill="#526980"/>
          <path id="Trazado_997433" data-name="Trazado 997433" d="M115.711,256.287h-.575l-14.156-40.194h.578Z" transform="translate(40.41 86.478)" fill="#526980"/>
          <path id="Trazado_997434" data-name="Trazado 997434" d="M119.3,256.287h-.575L104.6,216.094h.58Z" transform="translate(41.858 86.478)" fill="#526980"/>
          <path id="Trazado_997435" data-name="Trazado 997435" d="M127.04,256.287h-.575l-14.082-40.194h.578Z" transform="translate(44.974 86.478)" fill="#526980"/>
          <path id="Trazado_997436" data-name="Trazado 997436" d="M130.634,256.287h-.577L116,216.094h.58Z" transform="translate(46.421 86.478)" fill="#526980"/>
          <path id="Trazado_997437" data-name="Trazado 997437" d="M134.228,256.287h-.575l-14.035-40.194h.58Z" transform="translate(47.869 86.478)" fill="#526980"/>
          <path id="Trazado_997438" data-name="Trazado 997438" d="M141.963,256.287h-.577L127.4,216.094h.58Z" transform="translate(50.985 86.478)" fill="#526980"/>
          <path id="Trazado_997439" data-name="Trazado 997439" d="M145.557,256.287h-.575L131.02,216.094h.58Z" transform="translate(52.432 86.478)" fill="#526980"/>
          <path id="Trazado_997440" data-name="Trazado 997440" d="M149.151,256.287h-.577l-13.936-40.194h.578Z" transform="translate(53.88 86.478)" fill="#526980"/>
          <path id="Trazado_997441" data-name="Trazado 997441" d="M157.116,219.465H95.211l-.179-.507h61.909Z" transform="translate(38.03 87.624)" fill="#526980"/>
          <path id="Trazado_997442" data-name="Trazado 997442" d="M158.245,222.752H96.372l-.179-.507H158.07Z" transform="translate(38.495 88.939)" fill="#526980"/>
          <path id="Trazado_997443" data-name="Trazado 997443" d="M160.429,229.114H98.621l-.179-.507h61.813Z" transform="translate(39.395 91.485)" fill="#526980"/>
          <path id="Trazado_997444" data-name="Trazado 997444" d="M161.557,232.4H99.782l-.179-.507h61.779Z" transform="translate(39.86 92.801)" fill="#526980"/>
          <path id="Trazado_997445" data-name="Trazado 997445" d="M163.741,238.763H102.03l-.179-.507h61.716Z" transform="translate(40.759 95.347)" fill="#526980"/>
          <path id="Trazado_997446" data-name="Trazado 997446" d="M164.87,242.049H103.191l-.181-.507h61.684Z" transform="translate(41.223 96.662)" fill="#526980"/>
          <path id="Trazado_997447" data-name="Trazado 997447" d="M171.09,256.759l-.28-.84-1.148-3.3-.182-.5-1.414-4.089-.168-.5-1.246-3.6-.14-.42-.154-.42-9.437-27.29H92.47l1.428,4.033,12.8,36.209.28.8h64.142Zm-61.916-.77-1.288-3.641-.182-.5-1.442-4.089-.182-.5-1.148-3.262-.294-.84-1.526-4.3-.182-.518-1.442-4.089-.182-.5-1.5-4.271-.308-.84-1.162-3.29-.182-.518-1.442-4.089-.182-.5-.294-.868-.966-2.716h60.978l1.246,3.585.168.5,1.414,4.089.182.518,1.134,3.29.294.84,1.47,4.271.182.5,1.414,4.089.182.518,1.456,4.229.028.07.112.35.154.42.028.07,1.12,3.262.1.266.084.238.084.266,1.33,3.823.084.266.084.238.1.266,1.134,3.3.028.07Z" transform="translate(37.005 86.356)" fill="#82a0af"/>
          <path id="Trazado_997448" data-name="Trazado 997448" d="M123.077,256.287h-.961l-14.11-40.194h.965Z" transform="translate(43.223 86.478)" fill="#82a0af"/>
          <path id="Trazado_997449" data-name="Trazado 997449" d="M138.548,256.287h-.961l-14.009-40.194h.965Z" transform="translate(49.454 86.478)" fill="#82a0af"/>
          <path id="Trazado_997450" data-name="Trazado 997450" d="M162.854,236.176H101.115l-.3-.844h61.744Z" transform="translate(40.346 94.176)" fill="#82a0af"/>
          <path id="Trazado_997451" data-name="Trazado 997451" d="M159.293,225.8H97.45l-.3-.844H159Z" transform="translate(38.879 90.025)" fill="#82a0af"/>
          <path id="Trazado_997452" data-name="Trazado 997452" d="M224.361,249.6c0,1.182-16.137,2.138-36.042,2.138s-36.044-.956-36.044-2.138,16.137-2.138,36.044-2.138,36.042.958,36.042,2.138" transform="translate(60.938 99.031)" fill="#8a9149"/>
          <path id="Trazado_997453" data-name="Trazado 997453" d="M161.987,250.895h-1.361a.643.643,0,0,1-.643-.643v-5.637a.643.643,0,0,1,.643-.644h1.361a.643.643,0,0,1,.643.644v5.637a.643.643,0,0,1-.643.643" transform="translate(64.023 97.634)" fill="#82a0af"/>
          <path id="Trazado_997454" data-name="Trazado 997454" d="M200.381,250.895H199.02a.643.643,0,0,1-.643-.644v-5.636a.643.643,0,0,1,.643-.644h1.361a.643.643,0,0,1,.643.644v5.637a.643.643,0,0,1-.643.643" transform="translate(79.388 97.634)" fill="#82a0af"/>
          <path id="Trazado_997455" data-name="Trazado 997455" d="M224.117,256.287h-61.65l-14.2-40.194H210.2Z" transform="translate(59.334 86.478)" fill="#23323d"/>
          <path id="Trazado_997456" data-name="Trazado 997456" d="M166.363,256.287h-.575l-14.18-40.194h.578Z" transform="translate(60.671 86.478)" fill="#526980"/>
          <path id="Trazado_997457" data-name="Trazado 997457" d="M169.957,256.287h-.575l-14.156-40.194h.578Z" transform="translate(62.119 86.478)" fill="#526980"/>
          <path id="Trazado_997458" data-name="Trazado 997458" d="M173.551,256.287h-.577l-14.132-40.194h.58Z" transform="translate(63.566 86.478)" fill="#526980"/>
          <path id="Trazado_997459" data-name="Trazado 997459" d="M181.286,256.287h-.577l-14.08-40.194h.578Z" transform="translate(66.682 86.478)" fill="#526980"/>
          <path id="Trazado_997460" data-name="Trazado 997460" d="M184.88,256.287H184.3l-14.059-40.194h.58Z" transform="translate(68.13 86.478)" fill="#526980"/>
          <path id="Trazado_997461" data-name="Trazado 997461" d="M188.474,256.287H187.9l-14.035-40.194h.58Z" transform="translate(69.577 86.478)" fill="#526980"/>
          <path id="Trazado_997462" data-name="Trazado 997462" d="M196.209,256.287h-.575L181.65,216.094h.578Z" transform="translate(72.694 86.478)" fill="#526980"/>
          <path id="Trazado_997463" data-name="Trazado 997463" d="M199.8,256.287h-.576l-13.961-40.194h.58Z" transform="translate(74.141 86.478)" fill="#526980"/>
          <path id="Trazado_997464" data-name="Trazado 997464" d="M203.4,256.287h-.577l-13.936-40.194h.578Z" transform="translate(75.589 86.478)" fill="#526980"/>
          <path id="Trazado_997465" data-name="Trazado 997465" d="M211.362,219.465h-61.9l-.179-.507h61.909Z" transform="translate(59.739 87.624)" fill="#526980"/>
          <path id="Trazado_997466" data-name="Trazado 997466" d="M212.491,222.752H150.618l-.179-.507h61.877Z" transform="translate(60.203 88.939)" fill="#526980"/>
          <path id="Trazado_997467" data-name="Trazado 997467" d="M214.675,229.114H152.866l-.179-.507H214.5Z" transform="translate(61.103 91.485)" fill="#526980"/>
          <path id="Trazado_997468" data-name="Trazado 997468" d="M215.8,232.4H154.027l-.179-.507h61.78Z" transform="translate(61.568 92.801)" fill="#526980"/>
          <path id="Trazado_997469" data-name="Trazado 997469" d="M217.987,238.763H156.275l-.179-.507h61.716Z" transform="translate(62.467 95.347)" fill="#526980"/>
          <path id="Trazado_997470" data-name="Trazado 997470" d="M219.115,242.049h-61.68l-.178-.507H218.94Z" transform="translate(62.932 96.662)" fill="#526980"/>
          <path id="Trazado_997471" data-name="Trazado 997471" d="M225.344,256.759l-.294-.84-1.134-3.3-.182-.5-1.414-4.089-.168-.5-1.246-3.6-.154-.42-.14-.42-9.451-27.29H146.71l9.647,27.29.154.42.14.42,1.274,3.6.182.5,1.442,4.089.182.5,1.162,3.3.294.84.028.07h64.156Zm-61.93-.77-.028-.07-1.162-3.3-.1-.266-.084-.238-.084-.266-1.358-3.823-.1-.266-.084-.238-.084-.266-1.162-3.262-.014-.07L159,243.5l-.126-.35-.014-.07-1.5-4.229-.182-.518-1.442-4.089-.182-.5-1.512-4.271-.294-.84-1.162-3.29-.182-.518-1.442-4.089-.182-.5-1.26-3.585h60.964l1.246,3.585.168.5,1.414,4.089.182.518,1.134,3.29.294.84,1.484,4.271.168.5,1.414,4.089.182.518,1.47,4.229.014.07.126.35.154.42.014.07,1.134,3.262.1.266.07.238.1.266,1.33,3.823.084.266.084.238.1.266,1.134,3.3.028.07Z" transform="translate(58.711 86.356)" fill="#82a0af"/>
          <path id="Trazado_997472" data-name="Trazado 997472" d="M177.323,256.287h-.961l-14.11-40.194h.965Z" transform="translate(64.931 86.478)" fill="#82a0af"/>
          <path id="Trazado_997473" data-name="Trazado 997473" d="M192.794,256.287h-.961l-14.009-40.194h.965Z" transform="translate(71.163 86.478)" fill="#82a0af"/>
          <path id="Trazado_997474" data-name="Trazado 997474" d="M217.1,236.176H155.36l-.3-.844h61.745Z" transform="translate(62.054 94.176)" fill="#82a0af"/>
          <path id="Trazado_997475" data-name="Trazado 997475" d="M213.539,225.8H151.7l-.3-.844h61.849Z" transform="translate(60.587 90.025)" fill="#82a0af"/>
          <path id="Trazado_997476" data-name="Trazado 997476" d="M278.025,249.6c0,1.182-16.137,2.138-36.042,2.138s-36.044-.956-36.044-2.138,16.137-2.138,36.044-2.138,36.042.958,36.042,2.138" transform="translate(82.414 99.031)" fill="#8a9149"/>
          <path id="Trazado_997477" data-name="Trazado 997477" d="M216.233,250.895h-1.361a.644.644,0,0,1-.643-.643v-5.637a.644.644,0,0,1,.643-.644h1.361a.643.643,0,0,1,.643.644v5.637a.643.643,0,0,1-.643.643" transform="translate(85.731 97.634)" fill="#82a0af"/>
          <path id="Trazado_997478" data-name="Trazado 997478" d="M254.627,250.895h-1.361a.644.644,0,0,1-.643-.644v-5.636a.644.644,0,0,1,.643-.644h1.361a.643.643,0,0,1,.643.644v5.637a.643.643,0,0,1-.643.643" transform="translate(101.096 97.634)" fill="#82a0af"/>
          <path id="Trazado_997479" data-name="Trazado 997479" d="M278.363,256.287h-61.65l-14.2-40.194h61.937Z" transform="translate(81.042 86.478)" fill="#23323d"/>
          <path id="Trazado_997480" data-name="Trazado 997480" d="M220.609,256.287h-.576l-14.18-40.194h.578Z" transform="translate(82.38 86.478)" fill="#526980"/>
          <path id="Trazado_997481" data-name="Trazado 997481" d="M224.2,256.287h-.577l-14.155-40.194h.578Z" transform="translate(83.827 86.478)" fill="#526980"/>
          <path id="Trazado_997482" data-name="Trazado 997482" d="M227.8,256.287h-.576l-14.132-40.194h.578Z" transform="translate(85.275 86.478)" fill="#526980"/>
          <path id="Trazado_997483" data-name="Trazado 997483" d="M235.532,256.287h-.577l-14.08-40.194h.578Z" transform="translate(88.391 86.478)" fill="#526980"/>
          <path id="Trazado_997484" data-name="Trazado 997484" d="M239.125,256.287h-.576l-14.058-40.194h.578Z" transform="translate(89.838 86.478)" fill="#526980"/>
          <path id="Trazado_997485" data-name="Trazado 997485" d="M242.72,256.287h-.576l-14.035-40.194h.58Z" transform="translate(91.286 86.478)" fill="#526980"/>
          <path id="Trazado_997486" data-name="Trazado 997486" d="M250.455,256.287h-.575l-13.985-40.194h.58Z" transform="translate(94.402 86.478)" fill="#526980"/>
          <path id="Trazado_997487" data-name="Trazado 997487" d="M254.049,256.287h-.577l-13.96-40.194h.58Z" transform="translate(95.849 86.478)" fill="#526980"/>
          <path id="Trazado_997488" data-name="Trazado 997488" d="M257.643,256.287h-.577L243.13,216.094h.578Z" transform="translate(97.297 86.478)" fill="#526980"/>
          <path id="Trazado_997489" data-name="Trazado 997489" d="M265.608,219.465H203.7l-.179-.507h61.909Z" transform="translate(81.447 87.624)" fill="#526980"/>
          <path id="Trazado_997490" data-name="Trazado 997490" d="M266.737,222.752H204.864l-.179-.507h61.877Z" transform="translate(81.912 88.939)" fill="#526980"/>
          <path id="Trazado_997491" data-name="Trazado 997491" d="M268.921,229.114H207.112l-.179-.507h61.813Z" transform="translate(82.812 91.485)" fill="#526980"/>
          <path id="Trazado_997492" data-name="Trazado 997492" d="M270.049,232.4H208.273l-.179-.507h61.78Z" transform="translate(83.276 92.801)" fill="#526980"/>
          <path id="Trazado_997493" data-name="Trazado 997493" d="M272.233,238.763H210.521l-.179-.507h61.716Z" transform="translate(84.176 95.347)" fill="#526980"/>
          <path id="Trazado_997494" data-name="Trazado 997494" d="M273.362,242.049h-61.68l-.179-.507h61.684Z" transform="translate(84.64 96.662)" fill="#526980"/>
          <path id="Trazado_997495" data-name="Trazado 997495" d="M279.58,256.759l-.28-.84-1.148-3.3-.182-.5-1.414-4.089-.168-.5-1.246-3.6-.14-.42-.154-.42-4.8-13.9-4.635-13.386H200.96l9.647,27.29.154.42.14.42,1.274,3.6.182.5,1.442,4.089.182.5,1.162,3.3.294.84.028.07h64.142Zm-61.916-.77-.028-.07-1.162-3.3-.1-.266-.084-.238-.1-.266-1.344-3.823-.1-.266-.084-.238-.1-.266-1.148-3.262-.028-.07-.14-.42-.126-.35-.028-.07-1.5-4.229-.182-.518-1.442-4.089-.182-.5-1.5-4.271-.308-.84-1.162-3.29-.182-.518-1.442-4.089-.182-.5-1.26-3.585h60.978l1.246,3.585.168.5,1.414,4.089.182.518,1.134,3.29.2.546.1.294,1.484,4.271.168.5,1.414,4.089.182.518,1.47,4.229.014.07.126.35.154.42.014.07,1.134,3.262.1.266.07.238.1.266,1.33,3.823.084.266.084.238.1.266,1.134,3.3.028.07Z" transform="translate(80.421 86.356)" fill="#82a0af"/>
          <path id="Trazado_997496" data-name="Trazado 997496" d="M231.569,256.287h-.961L216.5,216.094h.965Z" transform="translate(86.64 86.478)" fill="#82a0af"/>
          <path id="Trazado_997497" data-name="Trazado 997497" d="M247.039,256.287h-.961l-14.007-40.194h.965Z" transform="translate(92.872 86.478)" fill="#82a0af"/>
          <path id="Trazado_997498" data-name="Trazado 997498" d="M271.346,236.176H209.607l-.3-.844h61.744Z" transform="translate(83.763 94.176)" fill="#82a0af"/>
          <path id="Trazado_997499" data-name="Trazado 997499" d="M267.785,225.8H205.942l-.3-.844h61.85Z" transform="translate(82.296 90.025)" fill="#82a0af"/>
          <path id="Trazado_997500" data-name="Trazado 997500" d="M194.982,268.942c0,1.18-16.137,2.138-36.042,2.138s-36.042-.958-36.042-2.138,16.136-2.137,36.042-2.137,36.042.958,36.042,2.137" transform="translate(49.182 106.772)" fill="#8a9149"/>
          <path id="Trazado_997501" data-name="Trazado 997501" d="M132.61,270.383h-1.361a.643.643,0,0,1-.643-.644V264.1a.643.643,0,0,1,.643-.644h1.361a.643.643,0,0,1,.643.644v5.637a.643.643,0,0,1-.643.643" transform="translate(52.267 105.433)" fill="#b7d4e2"/>
          <path id="Trazado_997502" data-name="Trazado 997502" d="M171,270.383h-1.361a.644.644,0,0,1-.643-.643V264.1a.644.644,0,0,1,.644-.644H171a.643.643,0,0,1,.643.644v5.637a.643.643,0,0,1-.643.643" transform="translate(67.631 105.433)" fill="#b7d4e2"/>
          <path id="Trazado_997503" data-name="Trazado 997503" d="M194.74,275.775h-61.65l-14.2-40.194h61.937Z" transform="translate(47.578 94.276)" fill="#23323d"/>
          <path id="Trazado_997504" data-name="Trazado 997504" d="M136.986,275.775h-.575l-14.18-40.194h.578Z" transform="translate(48.915 94.276)" fill="#82a0af"/>
          <path id="Trazado_997505" data-name="Trazado 997505" d="M140.579,275.775H140l-14.154-40.194h.578Z" transform="translate(50.363 94.276)" fill="#82a0af"/>
          <path id="Trazado_997506" data-name="Trazado 997506" d="M144.174,275.775H143.6l-14.132-40.194h.58Z" transform="translate(51.81 94.276)" fill="#82a0af"/>
          <path id="Trazado_997507" data-name="Trazado 997507" d="M151.909,275.775h-.577l-14.08-40.194h.578Z" transform="translate(54.926 94.276)" fill="#82a0af"/>
          <path id="Trazado_997508" data-name="Trazado 997508" d="M155.5,275.775h-.576l-14.059-40.194h.58Z" transform="translate(56.373 94.276)" fill="#82a0af"/>
          <path id="Trazado_997509" data-name="Trazado 997509" d="M159.1,275.775h-.575l-14.035-40.194h.58Z" transform="translate(57.821 94.276)" fill="#82a0af"/>
          <path id="Trazado_997510" data-name="Trazado 997510" d="M166.832,275.775h-.575l-13.985-40.194h.58Z" transform="translate(60.937 94.276)" fill="#82a0af"/>
          <path id="Trazado_997511" data-name="Trazado 997511" d="M170.426,275.775h-.575l-13.961-40.194h.58Z" transform="translate(62.385 94.276)" fill="#82a0af"/>
          <path id="Trazado_997512" data-name="Trazado 997512" d="M174.02,275.775h-.577l-13.936-40.194h.578Z" transform="translate(63.832 94.276)" fill="#82a0af"/>
          <path id="Trazado_997513" data-name="Trazado 997513" d="M181.985,238.953H120.08l-.179-.507H181.81Z" transform="translate(47.983 95.423)" fill="#82a0af"/>
          <path id="Trazado_997514" data-name="Trazado 997514" d="M183.114,242.239H121.241l-.179-.507h61.877Z" transform="translate(48.447 96.738)" fill="#82a0af"/>
          <path id="Trazado_997515" data-name="Trazado 997515" d="M185.3,248.6H123.489l-.179-.507h61.813Z" transform="translate(49.347 99.284)" fill="#82a0af"/>
          <path id="Trazado_997516" data-name="Trazado 997516" d="M186.426,251.889H124.649l-.178-.507h61.779Z" transform="translate(49.812 100.599)" fill="#82a0af"/>
          <path id="Trazado_997517" data-name="Trazado 997517" d="M188.61,258.251H126.9l-.179-.507h61.716Z" transform="translate(50.711 103.145)" fill="#82a0af"/>
          <path id="Trazado_997518" data-name="Trazado 997518" d="M189.739,261.537h-61.68l-.179-.507h61.684Z" transform="translate(51.176 104.461)" fill="#82a0af"/>
          <path id="Trazado_997519" data-name="Trazado 997519" d="M189.114,256.479l-1.372-3.963-1.2-3.486-.14-.42-.154-.42-1.26-3.641-.168-.5-1.414-4.089-.182-.5-1.12-3.262-.294-.84-.028-.07H117.34l.028.07.294.84,1.148,3.262.182.5,1.442,4.089.182.5,1.288,3.641.14.42.154.42,1.176,3.318,1.5,4.257,6.973,19.715h64.142Zm-55.069,19-1.288-3.64-.182-.5-1.442-4.089-.182-.518L129.8,263.48l-.294-.84-1.526-4.313-.168-.5-.434-1.2-1.022-2.884-.168-.5-.322-.9-1.162-3.3-.028-.07-.126-.35-.14-.42-.028-.07-1.176-3.3-.084-.266-.084-.238-.1-.266-1.344-3.823-.1-.266-.084-.238-.1-.266-1.148-3.262-.028-.07H181.1l.028.07,1.12,3.262.1.266.084.238.084.266,1.33,3.823.084.266.084.238.1.266,1.148,3.3.014.07.154.42.112.35.028.07,1.218,3.514.238.686.168.5.952,2.716.476,1.372.168.5,1.5,4.313.28.84,1.134,3.248.168.518,1.428,4.089.168.5,1.26,3.64Z" transform="translate(46.958 94.156)" fill="#b7d4e2"/>
          <path id="Trazado_997520" data-name="Trazado 997520" d="M147.946,275.775h-.961l-14.11-40.194h.965Z" transform="translate(53.175 94.276)" fill="#b7d4e2"/>
          <path id="Trazado_997521" data-name="Trazado 997521" d="M163.417,275.775h-.961l-14.009-40.194h.965Z" transform="translate(59.407 94.276)" fill="#b7d4e2"/>
          <path id="Trazado_997522" data-name="Trazado 997522" d="M187.723,255.664H125.985l-.3-.844H187.43Z" transform="translate(50.297 101.975)" fill="#b7d4e2"/>
          <path id="Trazado_997523" data-name="Trazado 997523" d="M184.162,245.291H122.319l-.3-.844h61.849Z" transform="translate(48.831 97.824)" fill="#b7d4e2"/>
          <path id="Trazado_997524" data-name="Trazado 997524" d="M248.357,268.942c0,1.18-16.137,2.138-36.042,2.138s-36.044-.958-36.044-2.138,16.137-2.137,36.044-2.137,36.042.958,36.042,2.137" transform="translate(70.541 106.772)" fill="#8a9149"/>
          <path id="Trazado_997525" data-name="Trazado 997525" d="M186.856,270.383h-1.361a.644.644,0,0,1-.643-.643V264.1a.644.644,0,0,1,.643-.644h1.361a.643.643,0,0,1,.643.644v5.637a.643.643,0,0,1-.643.643" transform="translate(73.975 105.433)" fill="#b7d4e2"/>
          <path id="Trazado_997526" data-name="Trazado 997526" d="M225.25,270.383h-1.361a.644.644,0,0,1-.643-.643V264.1a.644.644,0,0,1,.643-.644h1.361a.643.643,0,0,1,.643.644v5.637a.643.643,0,0,1-.643.643" transform="translate(89.34 105.433)" fill="#b7d4e2"/>
          <path id="Trazado_997527" data-name="Trazado 997527" d="M248.986,275.775h-61.65l-14.2-40.194h61.937Z" transform="translate(69.286 94.276)" fill="#23323d"/>
          <path id="Trazado_997528" data-name="Trazado 997528" d="M191.232,275.775h-.577l-14.178-40.194h.578Z" transform="translate(70.623 94.276)" fill="#82a0af"/>
          <path id="Trazado_997529" data-name="Trazado 997529" d="M194.825,275.775h-.577l-14.154-40.194h.578Z" transform="translate(72.071 94.276)" fill="#82a0af"/>
          <path id="Trazado_997530" data-name="Trazado 997530" d="M198.42,275.775h-.576l-14.133-40.194h.58Z" transform="translate(73.518 94.276)" fill="#82a0af"/>
          <path id="Trazado_997531" data-name="Trazado 997531" d="M206.155,275.775h-.577L191.5,235.581h.578Z" transform="translate(76.635 94.276)" fill="#82a0af"/>
          <path id="Trazado_997532" data-name="Trazado 997532" d="M209.749,275.775h-.575l-14.059-40.194h.58Z" transform="translate(78.082 94.276)" fill="#82a0af"/>
          <path id="Trazado_997533" data-name="Trazado 997533" d="M213.343,275.775h-.575l-14.035-40.194h.58Z" transform="translate(79.53 94.276)" fill="#82a0af"/>
          <path id="Trazado_997534" data-name="Trazado 997534" d="M221.078,275.775H220.5l-13.984-40.194h.58Z" transform="translate(82.645 94.276)" fill="#82a0af"/>
          <path id="Trazado_997535" data-name="Trazado 997535" d="M224.672,275.775h-.577l-13.96-40.194h.58Z" transform="translate(84.093 94.276)" fill="#82a0af"/>
          <path id="Trazado_997536" data-name="Trazado 997536" d="M228.266,275.775h-.575l-13.937-40.194h.578Z" transform="translate(85.541 94.276)" fill="#82a0af"/>
          <path id="Trazado_997537" data-name="Trazado 997537" d="M236.231,238.953H174.326l-.179-.507h61.909Z" transform="translate(69.691 95.423)" fill="#82a0af"/>
          <path id="Trazado_997538" data-name="Trazado 997538" d="M237.359,242.239H175.487l-.179-.507h61.877Z" transform="translate(70.155 96.738)" fill="#82a0af"/>
          <path id="Trazado_997539" data-name="Trazado 997539" d="M239.544,248.6H177.735l-.179-.507h61.813Z" transform="translate(71.055 99.284)" fill="#82a0af"/>
          <path id="Trazado_997540" data-name="Trazado 997540" d="M240.672,251.889H178.9l-.178-.507H240.5Z" transform="translate(71.52 100.599)" fill="#82a0af"/>
          <path id="Trazado_997541" data-name="Trazado 997541" d="M242.856,258.251H181.144l-.179-.507h61.716Z" transform="translate(72.42 103.145)" fill="#82a0af"/>
          <path id="Trazado_997542" data-name="Trazado 997542" d="M243.984,261.537H182.3l-.179-.507h61.684Z" transform="translate(72.884 104.461)" fill="#82a0af"/>
          <path id="Trazado_997543" data-name="Trazado 997543" d="M243.368,256.493l-1.386-4-1.19-3.458-.154-.42-.14-.42-1.26-3.641-.168-.5-1.414-4.089-.182-.5-1.134-3.262-.28-.84-.028-.07H171.58l.028.07.294.84,1.148,3.262.182.5,1.442,4.089.182.5,1.288,3.641.14.42.154.42,1.176,3.318,1.512,4.271,6.959,19.7h64.142Zm-55.083,18.987L187,271.839l-.168-.5-1.456-4.089-.182-.518-1.134-3.248-.308-.84-1.512-4.313-.182-.5-.42-1.2-1.022-2.884-.182-.5-.308-.9-1.176-3.3-.014-.07-.126-.35-.154-.42-.028-.07-1.162-3.3-.1-.266-.084-.238-.084-.266-1.358-3.823-.084-.266-.084-.238-.1-.266-1.148-3.262-.028-.07h60.964l.028.07,1.12,3.262.1.266.084.238.084.266,1.33,3.823.084.266.084.238.1.266,1.148,3.3.014.07.154.42.112.35.028.07,1.2,3.486.252.714.168.5.952,2.73.476,1.358.168.5,1.5,4.313.28.84,1.134,3.248.168.518,1.428,4.089.168.5,1.26,3.64Z" transform="translate(68.664 94.156)" fill="#b7d4e2"/>
          <path id="Trazado_997544" data-name="Trazado 997544" d="M202.192,275.775h-.961l-14.11-40.194h.965Z" transform="translate(74.883 94.276)" fill="#b7d4e2"/>
          <path id="Trazado_997545" data-name="Trazado 997545" d="M217.662,275.775H216.7l-14.007-40.194h.965Z" transform="translate(81.115 94.276)" fill="#b7d4e2"/>
          <path id="Trazado_997546" data-name="Trazado 997546" d="M241.969,255.664h-61.74l-.3-.844h61.745Z" transform="translate(72.006 101.975)" fill="#b7d4e2"/>
          <path id="Trazado_997547" data-name="Trazado 997547" d="M238.408,245.291H176.565l-.3-.844h61.849Z" transform="translate(70.539 97.824)" fill="#b7d4e2"/>
          <path id="Trazado_997548" data-name="Trazado 997548" d="M302.021,268.942c0,1.18-16.137,2.138-36.042,2.138s-36.044-.958-36.044-2.138,16.137-2.137,36.044-2.137,36.042.958,36.042,2.137" transform="translate(92.017 106.772)" fill="#8a9149"/>
          <path id="Trazado_997549" data-name="Trazado 997549" d="M241.1,270.383h-1.36a.644.644,0,0,1-.644-.643V264.1a.644.644,0,0,1,.644-.644h1.36a.643.643,0,0,1,.643.644v5.637a.643.643,0,0,1-.643.643" transform="translate(95.684 105.433)" fill="#b7d4e2"/>
          <path id="Trazado_997550" data-name="Trazado 997550" d="M279.5,270.383h-1.361a.643.643,0,0,1-.643-.644V264.1a.643.643,0,0,1,.643-.644H279.5a.643.643,0,0,1,.643.644v5.636a.643.643,0,0,1-.643.644" transform="translate(111.048 105.433)" fill="#b7d4e2"/>
          <path id="Trazado_997551" data-name="Trazado 997551" d="M303.231,275.775h-61.65l-14.2-40.194h61.937Z" transform="translate(90.994 94.276)" fill="#23323d"/>
          <path id="Trazado_997552" data-name="Trazado 997552" d="M245.478,275.775H244.9l-14.178-40.194h.578Z" transform="translate(92.332 94.276)" fill="#82a0af"/>
          <path id="Trazado_997553" data-name="Trazado 997553" d="M249.071,275.775H248.5L234.34,235.581h.578Z" transform="translate(93.779 94.276)" fill="#82a0af"/>
          <path id="Trazado_997554" data-name="Trazado 997554" d="M252.665,275.775h-.575l-14.132-40.194h.578Z" transform="translate(95.227 94.276)" fill="#82a0af"/>
          <path id="Trazado_997555" data-name="Trazado 997555" d="M260.4,275.775h-.576l-14.082-40.194h.578Z" transform="translate(98.343 94.276)" fill="#82a0af"/>
          <path id="Trazado_997556" data-name="Trazado 997556" d="M263.994,275.775h-.576l-14.058-40.194h.578Z" transform="translate(99.791 94.276)" fill="#82a0af"/>
          <path id="Trazado_997557" data-name="Trazado 997557" d="M267.588,275.775h-.577l-14.034-40.194h.58Z" transform="translate(101.238 94.276)" fill="#82a0af"/>
          <path id="Trazado_997558" data-name="Trazado 997558" d="M275.324,275.775h-.577l-13.984-40.194h.58Z" transform="translate(104.354 94.276)" fill="#82a0af"/>
          <path id="Trazado_997559" data-name="Trazado 997559" d="M278.918,275.775h-.576l-13.961-40.194h.58Z" transform="translate(105.801 94.276)" fill="#82a0af"/>
          <path id="Trazado_997560" data-name="Trazado 997560" d="M282.511,275.775h-.575L268,235.581h.578Z" transform="translate(107.249 94.276)" fill="#82a0af"/>
          <path id="Trazado_997561" data-name="Trazado 997561" d="M290.477,238.953H228.572l-.179-.507H290.3Z" transform="translate(91.4 95.423)" fill="#82a0af"/>
          <path id="Trazado_997562" data-name="Trazado 997562" d="M291.606,242.239H229.733l-.179-.507H291.43Z" transform="translate(91.864 96.738)" fill="#82a0af"/>
          <path id="Trazado_997563" data-name="Trazado 997563" d="M293.789,248.6H231.981l-.179-.507h61.813Z" transform="translate(92.764 99.284)" fill="#82a0af"/>
          <path id="Trazado_997564" data-name="Trazado 997564" d="M294.918,251.889H233.142l-.179-.507h61.78Z" transform="translate(93.228 100.599)" fill="#82a0af"/>
          <path id="Trazado_997565" data-name="Trazado 997565" d="M297.1,258.251H235.39l-.179-.507h61.716Z" transform="translate(94.128 103.145)" fill="#82a0af"/>
          <path id="Trazado_997566" data-name="Trazado 997566" d="M298.23,261.537H236.55l-.178-.507h61.682Z" transform="translate(94.593 104.461)" fill="#82a0af"/>
          <path id="Trazado_997567" data-name="Trazado 997567" d="M290.281,235.28H225.83l.028.07.294.84,1.148,3.262.182.5,1.442,4.089.182.5,1.288,3.641.14.42.154.42,1.176,3.318,1.512,4.271,6.959,19.7h64.143Zm-47.746,40.2-1.288-3.64-.182-.5-1.442-4.089-.182-.518-1.148-3.248-.294-.84-1.526-4.313-.168-.5-.434-1.218-1.022-2.87-.168-.5-.322-.9-1.162-3.3-.028-.07-.126-.35-.14-.42-.028-.07-1.176-3.3-.084-.266-.084-.238-.1-.266-1.344-3.823-.1-.266-.084-.238-.1-.266-1.148-3.262-.028-.07h60.978l1.246,3.6.168.5,1.414,4.089.182.5,1.148,3.3.28.84,1.484,4.271.168.5,1.428,4.089.168.5,1.5,4.313.28.84,1.134,3.248.168.518,1.428,4.089.168.5,1.26,3.64Z" transform="translate(90.374 94.156)" fill="#b7d4e2"/>
          <path id="Trazado_997568" data-name="Trazado 997568" d="M256.438,275.775h-.961l-14.11-40.194h.965Z" transform="translate(96.592 94.276)" fill="#b7d4e2"/>
          <path id="Trazado_997569" data-name="Trazado 997569" d="M271.908,275.775h-.961L256.94,235.581h.965Z" transform="translate(102.824 94.276)" fill="#b7d4e2"/>
          <path id="Trazado_997570" data-name="Trazado 997570" d="M296.215,255.664h-61.74l-.3-.844h61.745Z" transform="translate(93.714 101.975)" fill="#b7d4e2"/>
          <path id="Trazado_997571" data-name="Trazado 997571" d="M292.654,245.291H230.811l-.3-.844h61.849Z" transform="translate(92.248 97.824)" fill="#b7d4e2"/>
          <path id="Trazado_997572" data-name="Trazado 997572" d="M150.534,322.463H0V254.274c2.324-1.89,4.3-4.2,6.665-6.021a23.944,23.944,0,0,1,11.762-4.327c4.215-.378,8.849,1.05,11.173,4.593,1.806,2.744,2.31,6.693,5.293,8.079,2.73,1.26,5.825-.462,8.723-1.316a13.116,13.116,0,0,1,9.479.686,10.2,10.2,0,0,1,5.559,7.533c.2,1.456.028,2.954.266,4.425a8.144,8.144,0,0,0,7.659,6.553c2.478.042,4.817-1.078,7.155-1.89s5.069-1.274,7.225-.028c3.739,2.17,3.893,8.373,7.939,9.9,2.828,1.064,5.811-.826,8.429-2.352,4.747-2.772,11.482-2.016,15.7,1.428,2.7,2.212,3.024,4.131,3.206,7.309s1.344,6.889,4.369,8.429c2.786,1.428,6.133.532,9.255.616a11.952,11.952,0,0,1,7.463,2.674,8.8,8.8,0,0,1,3.136,7.127c-.112,1.54-.686,3.024-.672,4.565.056,3.977,3.865,6.749,7.421,8.513,1.092.546,2.24,1.092,3.332,1.694" transform="translate(0 97.592)" fill="#7f823d"/>
        </g>
      </g>
    </g>
  </g>
</svg>
