<svg xmlns="http://www.w3.org/2000/svg" width="122.457" height="108.336" viewBox="0 0 122.457 108.336">
  <g id="Grupo_1179595" data-name="Grupo 1179595" transform="translate(-896.733 -4396.442)">
    <g id="Grupo_1102263" data-name="Grupo 1102263" transform="translate(518.732 -2042.558)">
      <path id="Trazado_878350" data-name="Trazado 878350" d="M6.524,55.555C11.7,47.9,17.363,43.089,23.251,36.326c10.573-12.143,18-31,34.391-35.322C85.81-6.431,90.976,29.871,91.078,30.168c1.48,4.311,4.306,11.876,4.306,11.876a81.446,81.446,0,0,0,5.491,9.7c4.982,6.837,11.83,12.066,16.529,19.16,4.654,7.024,7.549,15.5,2.074,24.065-13.148,20.565-40.244-6.753-66.012,7.409C15.662,123.158-13.54,85.205,6.524,55.555" transform="translate(378 6439)" fill="#8cbf62"/>
      <g id="Grupo_1179152" data-name="Grupo 1179152" transform="translate(395.034 6447.936)">
        <g id="Grupo_1179150" data-name="Grupo 1179150" transform="translate(1.265 1.265)">
          <path id="Trazado_997752" data-name="Trazado 997752" d="M250.568,227.944s.1.258.24.6h5.126l-1.586-23.791-.2-.429-2.067-.931Z" transform="translate(-209.63 -170.402)" fill="#b5dcff"/>
          <path id="Trazado_997753" data-name="Trazado 997753" d="M235.214,202.736l.191-.32-1.381-.622-2.6,1.179-.267.449-1.586,23.792h4.01Z" transform="translate(-192.17 -169.073)" fill="#8bcaff"/>
          <path id="Trazado_997754" data-name="Trazado 997754" d="M248.95,381.294v11.642l.535,2.207a3.071,3.071,0,0,0,2.279-.4,9.151,9.151,0,0,1,4.11-1.418V381.294Z" transform="translate(-208.285 -318.341)" fill="#8bcaff"/>
          <path id="Trazado_997755" data-name="Trazado 997755" d="M227.259,381.294h-5.2v12.034a9.149,9.149,0,0,1,4.09,1.416,2.844,2.844,0,0,0,1.113.422V381.294Z" transform="translate(-185.92 -318.341)" fill="#60b9fe"/>
          <path id="Trazado_997756" data-name="Trazado 997756" d="M249.8,352.725l-.846.959v4.037h6.925v-5Z" transform="translate(-208.285 -294.584)" fill="#60b9fe"/>
          <path id="Trazado_997757" data-name="Trazado 997757" d="M222.056,352.725h5.2v5h-5.2Z" transform="translate(-185.92 -294.584)" fill="#1ca8ff"/>
          <path id="Trazado_997758" data-name="Trazado 997758" d="M248.443,9.374a2,2,0,0,0-1.986-1.855l-.547.867-1.477,23.635h6.136l.206-.219Z" transform="translate(-204.528 -7.518)" fill="#dbedff"/>
          <path id="Trazado_997759" data-name="Trazado 997759" d="M234.382,7.513a2.011,2.011,0,0,0-2.137,1.855L229.913,31.8l.189.219h4.28V7.513Z" transform="translate(-192.454 -7.511)" fill="#b5dcff"/>
          <circle id="Elipse_11837" data-name="Elipse 11837" cx="5.675" cy="5.675" r="5.675" transform="translate(36.176 22.202)" fill="#dbedff"/>
          <path id="Trazado_997760" data-name="Trazado 997760" d="M113.21,190.283l-.3.739a2,2,0,0,0,2.6.785l20.589-9.194v-.483l-2.558-4.312Z" transform="translate(-95.161 -149.133)" fill="#dbedff"/>
          <path id="Trazado_997761" data-name="Trazado 997761" d="M130.336,161.346l-.311-.243-18.257,13.233a2.012,2.012,0,0,0-.533,2.787l21.252-12.15Z" transform="translate(-93.481 -135.235)" fill="#b5dcff"/>
          <path id="Trazado_997762" data-name="Trazado 997762" d="M292.421,177.137h.644a2.013,2.013,0,0,0-.524-2.8L274.283,161.1l-.452.2-2.226,3.99Z" transform="translate(-227.124 -135.235)" fill="#dbedff"/>
          <path id="Trazado_997763" data-name="Trazado 997763" d="M284.6,195.4l-21.186-12.335-1.989,3.565v.346l20.589,9.194A2,2,0,0,0,284.6,195.4Z" transform="translate(-218.656 -153.501)" fill="#b5dcff"/>
          <circle id="Elipse_11838" data-name="Elipse 11838" cx="5.675" cy="5.675" r="5.675" transform="translate(36.176 22.202)" fill="#8479c2"/>
          <path id="Trazado_997764" data-name="Trazado 997764" d="M252.42,142.685c-.15-.087-.3-.164-.456-.235h-.957l-1.965,1.974-.758,2.64V149l1.095,2.47,1.376,1.123,1.21.159a5.674,5.674,0,0,0,.457-10.066Z" transform="translate(-207.73 -119.723)" fill="#8479c2"/>
          <path id="Trazado_997765" data-name="Trazado 997765" d="M229.893,149.924a5.674,5.674,0,0,1,.457-10.066,5.675,5.675,0,1,0,0,10.3C230.2,150.088,230.043,150.01,229.893,149.924Z" transform="translate(-186.116 -117.131)" fill="#6e60b8"/>
          <path id="Trazado_997766" data-name="Trazado 997766" d="M154.46,452.3c0-.027,0-.053-.007-.08a7.928,7.928,0,0,0-13.046-5.265,2.5,2.5,0,0,1-3.259.01,7.927,7.927,0,0,0-10.327,0,2.494,2.494,0,0,1-3.254,0,7.928,7.928,0,0,0-10.324,0,2.494,2.494,0,0,1-3.254,0,7.928,7.928,0,0,0-10.324,0,2.494,2.494,0,0,1-3.254,0,7.927,7.927,0,0,0-10.327,0,2.47,2.47,0,0,1-1.325.581l-1.194,1.125-.989,4.4.842,1.726.825.266h66.646A2.568,2.568,0,0,0,154.46,452.3Z" transform="translate(-70.763 -371.362)" fill="#a2e82d"/>
          <g id="Grupo_1179149" data-name="Grupo 1179149" transform="translate(0 73.692)">
            <path id="Trazado_997767" data-name="Trazado 997767" d="M20.772,452.3c0-.026,0-.053.007-.079a7.878,7.878,0,0,1,2.247-4.8,2.508,2.508,0,0,1-2.463-.469,7.928,7.928,0,0,0-13.047,5.266c0,.026,0,.053-.007.079a2.568,2.568,0,0,0,2.57,2.763H23.343A2.568,2.568,0,0,1,20.772,452.3Z" transform="translate(-7.5 -445.055)" fill="#98d829"/>
          </g>
        </g>
        <g id="Grupo_1179151" data-name="Grupo 1179151" transform="translate(0.002 0)">
          <path id="Trazado_997768" data-name="Trazado 997768" d="M336.143,53.678a5.129,5.129,0,0,0,2.56.688h6.617a1.263,1.263,0,0,0,0-2.526H338.7a2.6,2.6,0,1,1,2.344-3.748,1.263,1.263,0,0,0,2.271-1.106,5.131,5.131,0,1,0-7.177,6.692Z" transform="translate(-277.404 -36.675)"/>
          <path id="Trazado_997769" data-name="Trazado 997769" d="M370.616,121.821a1.263,1.263,0,0,0,1.263,1.263H382.62a1.263,1.263,0,0,0,0-2.526H371.879A1.263,1.263,0,0,0,370.616,121.821Z" transform="translate(-308.197 -100.253)"/>
          <path id="Trazado_997770" data-name="Trazado 997770" d="M40.759,95.463a5.129,5.129,0,0,0,2.56.688h6.617a1.263,1.263,0,1,0,0-2.526H43.321a2.6,2.6,0,1,1,2.344-3.748,1.263,1.263,0,0,0,2.271-1.106,5.131,5.131,0,1,0-7.177,6.692Z" transform="translate(-31.76 -71.422)"/>
          <path id="Trazado_997771" data-name="Trazado 997771" d="M75.283,163.6a1.263,1.263,0,0,0,1.263,1.263h10.74a1.263,1.263,0,1,0,0-2.526H76.546A1.263,1.263,0,0,0,75.283,163.6Z" transform="translate(-62.604 -134.999)"/>
          <path id="Trazado_997772" data-name="Trazado 997772" d="M319.315,281.231a2.605,2.605,0,0,1,3.015,1.372A1.263,1.263,0,0,0,324.6,281.5a5.131,5.131,0,1,0-4.617,7.381H326.6a1.263,1.263,0,0,0,0-2.526h-6.616a2.6,2.6,0,0,1-.67-5.121Z" transform="translate(-261.828 -231.689)"/>
          <path id="Trazado_997773" data-name="Trazado 997773" d="M353.212,357.6h10.741a1.263,1.263,0,0,0,0-2.526H353.212a1.263,1.263,0,0,0,0,2.526Z" transform="translate(-292.674 -295.269)"/>
          <path id="Trazado_997774" data-name="Trazado 997774" d="M86.212,82.008a9.249,9.249,0,0,0-8.5-8.292A9.156,9.156,0,0,0,71.086,75.9a1.233,1.233,0,0,1-1.614.011,9.191,9.191,0,0,0-11.973,0,1.228,1.228,0,0,1-1.608,0A9.188,9.188,0,0,0,50.118,73.7V60.646a1.263,1.263,0,0,0-.245-2.5H48.75l-.547-8.2a1.263,1.263,0,1,0-2.521.168l.536,8.037h-6.2l1.445-21.686.928-.414a7.035,7.035,0,0,0,1.454,0l.93.415.517,7.753a1.263,1.263,0,1,0,2.521-.168l-.428-6.42L64.1,45.091a3.336,3.336,0,0,0,3.318-5.747L49.457,26.322l-.006-.012-.029-.063a6.883,6.883,0,0,0-.691-1.185L46.436,2.991a3.336,3.336,0,0,0-6.636,0L37.5,25.059a6.882,6.882,0,0,0-.714,1.234l-.008.017-.006.012L18.811,39.344a3.336,3.336,0,0,0,3.318,5.747l16.723-7.468-1.368,20.52h-.972a1.263,1.263,0,0,0-.375,2.47V73.7a9.188,9.188,0,0,0-5.794,2.212,1.227,1.227,0,0,1-1.608,0,9.191,9.191,0,0,0-11.973,0,1.233,1.233,0,0,1-1.614-.011,9.153,9.153,0,0,0-6.628-2.185,9.249,9.249,0,0,0-8.5,8.292L.015,82.1a3.834,3.834,0,0,0,3.829,4.131H40.17a1.263,1.263,0,1,0,0-2.526H3.844a1.3,1.3,0,0,1-1.311-1.4l.006-.064A6.665,6.665,0,0,1,13.506,77.82a3.744,3.744,0,0,0,4.9.008,6.664,6.664,0,0,1,8.68,0,3.739,3.739,0,0,0,4.9,0,6.668,6.668,0,0,1,8.678,0,3.742,3.742,0,0,0,4.9,0h0a6.667,6.667,0,0,1,8.676,0,3.739,3.739,0,0,0,4.9,0,6.664,6.664,0,0,1,8.68,0,3.745,3.745,0,0,0,4.9-.008A6.665,6.665,0,0,1,83.7,82.242l.006.068a1.3,1.3,0,0,1-1.312,1.4H46.065a1.263,1.263,0,0,0,0,2.526H82.391A3.834,3.834,0,0,0,86.22,82.1ZM50.021,29.851,65.94,41.389a.81.81,0,0,1-.805,1.395L47.183,34.767a6.954,6.954,0,0,0,2.839-4.917Zm-7.709-26.6a.81.81,0,0,1,1.611,0l2.033,19.555a6.973,6.973,0,0,0-5.677,0Zm-3.58,25.41A4.41,4.41,0,0,1,43,24.732h0A4.413,4.413,0,0,1,47.527,29c0,.006,0,.012,0,.018a4.412,4.412,0,1,1-8.8-.359ZM21.1,42.784a.81.81,0,0,1-.806-1.395L36.212,29.851a6.969,6.969,0,0,0,2.839,4.917Zm26.493,31.2a9.307,9.307,0,0,0-3.67,1.921,1.227,1.227,0,0,1-1.608,0L42.3,75.9a9.306,9.306,0,0,0-3.636-1.9V65.666h8.928Zm0-10.849H38.664V60.67h8.928Z" transform="translate(-0.002 0)"/>
        </g>
      </g>
    </g>
  </g>
</svg>
