<svg xmlns="http://www.w3.org/2000/svg" width="73.437" height="85.567" viewBox="0 0 73.437 85.567">
  <g id="Grupo_1179600" data-name="Grupo 1179600" transform="translate(-736.562 -9553.599)">
    <g id="Grupo_1179201" data-name="Grupo 1179201" transform="translate(701.524 9553.599)">
      <g id="Grupo_1179190" data-name="Grupo 1179190" transform="translate(74.147 21.967)">
        <g id="Grupo_1179189" data-name="Grupo 1179189" transform="translate(0)">
          <path id="Trazado_998085" data-name="Trazado 998085" d="M287.828,159.167V128.51a1.636,1.636,0,0,0-1.731-1.61h-6.7a1.682,1.682,0,0,0-1.783,1.61v27.663a16.157,16.157,0,0,0-3.289.433V137.546a1.694,1.694,0,0,0-1.766-1.645h-6.7a1.668,1.668,0,0,0-1.748,1.645v25.845a16.992,16.992,0,0,0-3.151,9.936,17.164,17.164,0,1,0,26.866-14.16Zm-6.751-28.805h3.289v26.97a15.426,15.426,0,0,0-3.289-.9Zm-13.5,9h3.289V157.8a17.625,17.625,0,0,0-3.289,1.973Zm22.348,40.94a13.7,13.7,0,1,1-17.017-19.631,1.645,1.645,0,0,0,.571-.225,13.435,13.435,0,0,1,4.674-.831c.364,0,.71.017,1.073.052h.017a13.374,13.374,0,0,1,5.886,1.87A13.69,13.69,0,0,1,289.923,180.3Z" transform="translate(-260.962 -126.9)" fill="#384c27"/>
        </g>
      </g>
      <g id="Grupo_1179192" data-name="Grupo 1179192" transform="translate(85.711 56.364)">
        <g id="Grupo_1179191" data-name="Grupo 1179191">
          <path id="Trazado_998086" data-name="Trazado 998086" d="M333.388,336.229a2.19,2.19,0,1,1,2.164-2.2,1.736,1.736,0,0,0,1.731,1.731,1.755,1.755,0,0,0,1.766-1.731,5.654,5.654,0,0,0-3.583-5.263v-1.437a1.731,1.731,0,1,0-3.462,0v1.246a5.646,5.646,0,0,0-4.051,6.872,5.574,5.574,0,0,0,5.418,4.224,2.173,2.173,0,1,1-2.181,2.164,1.736,1.736,0,0,0-1.731-1.731,1.681,1.681,0,0,0-1.7,1.714v.017a5.668,5.668,0,0,0,4.224,5.453v.779a1.731,1.731,0,1,0,3.462,0v-.952a5.637,5.637,0,0,0-2.06-10.889Z" transform="translate(-327.761 -325.6)" fill="#384c27"/>
        </g>
      </g>
      <g id="Grupo_1179194" data-name="Grupo 1179194" transform="translate(50.12 44.818)">
        <g id="Grupo_1179193" data-name="Grupo 1179193">
          <path id="Trazado_998087" data-name="Trazado 998087" d="M130.645,258.9h-6.751a1.736,1.736,0,0,0-1.731,1.731v27.178a1.736,1.736,0,0,0,1.731,1.731h6.751a1.736,1.736,0,0,0,1.731-1.731V260.631A1.736,1.736,0,0,0,130.645,258.9Zm-1.731,27.351h-3.289V262.362h3.289Z" transform="translate(-122.163 -258.9)" fill="#384c27"/>
        </g>
      </g>
      <g id="Grupo_1179196" data-name="Grupo 1179196" transform="translate(63.796 40.836)">
        <g id="Grupo_1179195" data-name="Grupo 1179195" transform="translate(0)">
          <path id="Trazado_998088" data-name="Trazado 998088" d="M209.645,235.9h-6.751a1.736,1.736,0,0,0-1.731,1.731v31.333a1.736,1.736,0,0,0,1.731,1.731h6.751a1.736,1.736,0,0,0,1.731-1.731V237.631A1.736,1.736,0,0,0,209.645,235.9Zm-1.731,31.333h-3.289v-27.87h3.289Z" transform="translate(-201.163 -235.9)" fill="#384c27"/>
        </g>
      </g>
      <g id="Grupo_1179198" data-name="Grupo 1179198" transform="translate(36.444 59.705)">
        <g id="Grupo_1179197" data-name="Grupo 1179197" transform="translate(0)">
          <path id="Trazado_998089" data-name="Trazado 998089" d="M51.645,344.9H44.894a1.736,1.736,0,0,0-1.731,1.731v12.291a1.736,1.736,0,0,0,1.731,1.731h6.751a1.736,1.736,0,0,0,1.731-1.731V346.631A1.736,1.736,0,0,0,51.645,344.9Zm-1.731,12.464H46.625v-9h3.289Z" transform="translate(-43.163 -344.9)" fill="#384c27"/>
        </g>
      </g>
      <g id="Grupo_1179200" data-name="Grupo 1179200" transform="translate(35.038)">
        <g id="Grupo_1179199" data-name="Grupo 1179199" transform="translate(0)">
          <path id="Trazado_998090" data-name="Trazado 998090" d="M100.754,0,88.914.017a1.731,1.731,0,1,0-.035,3.462h.035l7.669-.017L77.8,22.175l-6.561-6.509a1.9,1.9,0,0,0-2.458,0L35.544,48.9A1.726,1.726,0,0,0,38,51.327L70.028,19.3l6.561,6.613a1.733,1.733,0,0,0,1.229.554,1.841,1.841,0,0,0,1.229-.554L99.023,5.92l-.017,7.7a1.732,1.732,0,1,0,3.462,0l.017-11.875A1.751,1.751,0,0,0,100.754,0Z" transform="translate(-35.038)" fill="#384c27"/>
        </g>
      </g>
    </g>
  </g>
</svg>
