<svg xmlns="http://www.w3.org/2000/svg" xmlns:xlink="http://www.w3.org/1999/xlink" width="420" height="338.588" viewBox="0 0 420 338.588">
  <defs>
    <clipPath id="clip-path">
      <rect id="Rectángulo_455517" data-name="Rectángulo 455517" width="420" height="338.588" transform="translate(0 0)" fill="#92cfd9"/>
    </clipPath>
    <clipPath id="clip-path-2">
      <rect id="Rectángulo_455516" data-name="Rectángulo 455516" width="420" height="446" transform="translate(0 0.419)" fill="none"/>
    </clipPath>
  </defs>
  <g id="Grupo_1179598" data-name="Grupo 1179598" transform="translate(-180.166 -780.089)">
    <g id="Enmascarar_grupo_1098803" data-name="Enmascarar grupo 1098803" transform="translate(180.166 780.089)" clip-path="url(#clip-path)">
      <g id="Grupo_1179077" data-name="Grupo 1179077" transform="translate(-0.48 -73.508)">
        <rect id="Rectángulo_455515" data-name="Rectángulo 455515" width="420" height="446" transform="translate(0 0.419)" fill="#5e7c8c"/>
        <g id="Grupo_1179076" data-name="Grupo 1179076" transform="translate(0 0)">
          <g id="Grupo_1179075" data-name="Grupo 1179075" clip-path="url(#clip-path-2)">
            <path id="Trazado_997181" data-name="Trazado 997181" d="M7.528,259.38c-.063-.136-.129-.27-.192-.4a15.31,15.31,0,0,1-.452-11.7,14.01,14.01,0,0,1,7.929-8.119c2.253-.857,4.686-1.061,6.948-1.89a14.129,14.129,0,0,0,6.378-4.785c2.155-2.868,3.253-6.489,5.308-9.438,2.382-3.416,6.1-4.554,9.957-4.579,3.706-.025,8.473,3.2,11.8.256,3.037-2.693,1.613-8.475,4.409-11.449,3.835-4.076,11.965.538,15.165-4.118,1.129-1.643,1.1-3.854,1.7-5.785,1.354-4.319,7.211-6.589,11.1-6.516a16.215,16.215,0,0,1,10.417,4.475c2.607,2.379,5.286,5.721,8.677,5.14,1.621-.279,2.964-1.442,4.44-2.208a9.923,9.923,0,0,1,11.97,2.571c4.185,5.08,6.612,10.474,12.144,14.4a32.109,32.109,0,0,1,5.606,4.323c1.6,1.777,2.663,4.362,1.98,6.714-1.277,4.4-5.272,4.444-8.723,4.967-5.688.861-11.371,2.531-16.994,3.782-11.43,2.541-23,5.132-33.476,10.617-16.428,8.6-29.16,24.268-46.665,30.663-4.84,1.767-9.4,4.32-14.551,2.449-4.321-1.57-9.282-1.414-13.025-4.751-2.882-2.57-4.387-7.245-2.526-10.722A5.409,5.409,0,0,0,7.9,260.654a3.406,3.406,0,0,0-.377-1.274" transform="translate(2.711 93.826)" fill="#7f823d"/>
            <path id="Trazado_997182" data-name="Trazado 997182" d="M225.186,222.317c-16.393.81-32.806,1.622-49.211,1.128-19.461-.587-38.967-3.008-58.344-1.012-1.852.191-.963-1.092-1.627-2.026a11.228,11.228,0,0,0-2.013-2.162c-2.1-1.891-3.838-3.973-4.146-7.026-.395-3.911,2.26-8.1,5.93-8.565,2.842-.36,5.916,1.329,8.478-.031,2.516-1.336,3.223-4.976,5.585-6.6,1.98-1.362,4.546-.959,6.895-.749s5.105-.028,6.445-2.092a12.9,12.9,0,0,0,.949-2.132,10.993,10.993,0,0,1,7.751-6.431c5.07-1.083,7.568,5.251,11.959,4.22,1.946-.456,3.051-2.571,4.509-4.018a8.931,8.931,0,0,1,8.611-2.083,12.956,12.956,0,0,1,7.222,5.736c.941,1.494,1.8,3.28,3.411,3.836,2.8.967,5.168-2.406,7.985-3.315,3.3-1.064,6.631,1.412,9.147,3.923s5.276,5.4,8.726,5.369c3.813-.036,7.509-3.723,11.015-2.132,3.379,1.531,3.877,6.944,7.21,8.584,2.862,1.408,6.178-.706,9.318-.414a6.58,6.58,0,0,1,5.112,3.541c.386.743.693,1.621,1.4,2.013a6.254,6.254,0,0,0,1.736.368,4.217,4.217,0,0,1,2.837,3.59c.473,2.926-.14,6.656-3.3,7.294-3.614.727-7.621.352-11.308.554-4.093.225-8.187.428-12.281.63" transform="translate(44.278 89.688)" fill="#7f823d"/>
            <path id="Trazado_997183" data-name="Trazado 997183" d="M142.39,125.106h-2.551l-3.587,115.233h9.726Z" transform="translate(54.862 61.628)" fill="#b7d4e2"/>
            <path id="Trazado_997184" data-name="Trazado 997184" d="M130.865,101.952l6.3,29.883a.7.7,0,0,0,.3.448l3.593,2.3a.7.7,0,0,1,.287.381l1.322,4.235a.654.654,0,0,0,.85.442l.556-.21a.717.717,0,0,0,.4-.9l-12.338-36.972a.652.652,0,0,0-.846-.428.714.714,0,0,0-.424.818" transform="translate(52.7 49.867)" fill="#b7d4e2"/>
            <path id="Trazado_997185" data-name="Trazado 997185" d="M139.959,131.124h-.006a.13.13,0,0,1-.164-.092L132.338,105.5a.144.144,0,0,1,.087-.176.131.131,0,0,1,.165.092l7.45,25.53a.142.142,0,0,1-.081.173" transform="translate(53.293 51.939)" fill="#82a0af"/>
            <path id="Trazado_997186" data-name="Trazado 997186" d="M175.059,138.82l-25.987-13.163a.624.624,0,0,0-.521-.022l-3.918,1.588a.62.62,0,0,1-.459.006l-3.949-1.506a.652.652,0,0,0-.851.438l-.188.6a.715.715,0,0,0,.417.892l34.96,12.475a.654.654,0,0,0,.839-.444.722.722,0,0,0-.343-.86" transform="translate(56.022 61.863)" fill="#b7d4e2"/>
            <path id="Trazado_997187" data-name="Trazado 997187" d="M144.024,127.009V127a.13.13,0,0,1,.169-.08l23.481,9.511a.143.143,0,0,1,.077.18.128.128,0,0,1-.169.08L144.1,127.184a.14.14,0,0,1-.077-.174" transform="translate(57.97 62.513)" fill="#82a0af"/>
            <path id="Trazado_997188" data-name="Trazado 997188" d="M125.6,159.53l12.365-27.654a.688.688,0,0,1,.391-.366l3.984-1.4a.669.669,0,0,0,.358-.3l2.172-3.818a.641.641,0,0,1,.921-.231l.5.337a.731.731,0,0,1,.2.971L126.76,160.21a.639.639,0,0,1-.913.219.731.731,0,0,1-.244-.9" transform="translate(50.575 61.895)" fill="#b7d4e2"/>
            <path id="Trazado_997189" data-name="Trazado 997189" d="M140.637,129.484l0,0a.129.129,0,0,0-.181.052l-12.585,23.136a.147.147,0,0,0,.048.192.127.127,0,0,0,.179-.051l12.586-23.137a.148.148,0,0,0-.043-.189" transform="translate(51.499 63.761)" fill="#82a0af"/>
            <path id="Trazado_997190" data-name="Trazado 997190" d="M142.5,126.455a2.373,2.373,0,0,1-1.332,2.977,2.16,2.16,0,0,1-2.8-1.417,2.373,2.373,0,0,1,1.332-2.977,2.16,2.16,0,0,1,2.8,1.417" transform="translate(55.661 61.528)" fill="#b7d4e2"/>
            <path id="Trazado_997191" data-name="Trazado 997191" d="M141.535,126.459a1.52,1.52,0,0,1-.853,1.905,1.381,1.381,0,0,1-1.789-.907,1.517,1.517,0,0,1,.851-1.9,1.382,1.382,0,0,1,1.791.906" transform="translate(55.886 61.804)" fill="#82a0af"/>
            <path id="Trazado_997192" data-name="Trazado 997192" d="M197.108,104.817h-3.227L189.343,250.6h12.3Z" transform="translate(76.108 51.691)" fill="#fff"/>
            <path id="Trazado_997193" data-name="Trazado 997193" d="M215.178,75.913,194.491,107.8a.937.937,0,0,0-.132.687l1.075,5.527a.947.947,0,0,1-.085.611l-2.564,4.944a.921.921,0,0,0,.344,1.22l.66.368a.813.813,0,0,0,1.131-.374l21.687-43.944a.92.92,0,0,0-.353-1.2.808.808,0,0,0-1.078.283" transform="translate(77.444 37.347)" fill="#fff"/>
            <path id="Trazado_997194" data-name="Trazado 997194" d="M195.232,109.961l-.006,0a.186.186,0,0,1-.062-.243l15.893-29.287a.163.163,0,0,1,.227-.064.182.182,0,0,1,.062.241l-15.894,29.287a.16.16,0,0,1-.221.069" transform="translate(78.43 39.704)" fill="#b7d4e2"/>
            <path id="Trazado_997195" data-name="Trazado 997195" d="M213.353,150.675l-10.822-36.99a.874.874,0,0,0-.427-.533l-4.752-2.51a.86.86,0,0,1-.4-.448l-2.076-5.2a.819.819,0,0,0-1.115-.463l-.681.325a.915.915,0,0,0-.42,1.178l19.127,45.27a.818.818,0,0,0,1.108.447.91.91,0,0,0,.456-1.077" transform="translate(77.407 51.513)" fill="#fff"/>
            <path id="Trazado_997196" data-name="Trazado 997196" d="M196.568,109.752l.006,0a.165.165,0,0,1,.217.1l11.857,31.377a.18.18,0,0,1-.091.229.164.164,0,0,1-.217-.1L196.48,109.98a.182.182,0,0,1,.088-.228" transform="translate(78.96 54.1)" fill="#b7d4e2"/>
            <path id="Trazado_997197" data-name="Trazado 997197" d="M160.98,114.809l34.764-11.523a.8.8,0,0,1,.657.072l4.639,2.737a.792.792,0,0,0,.574.1l5.2-1.132a.84.84,0,0,1,.991.712l.134.781a.887.887,0,0,1-.672,1.037l-45.885,8.95a.843.843,0,0,1-.975-.717.9.9,0,0,1,.574-1.012" transform="translate(64.523 50.922)" fill="#fff"/>
            <path id="Trazado_997198" data-name="Trazado 997198" d="M197.129,105.4v-.007a.165.165,0,0,0-.2-.133l-31.009,7.426a.179.179,0,0,0-.126.212.167.167,0,0,0,.2.134L197,105.6a.176.176,0,0,0,.127-.2" transform="translate(66.683 51.906)" fill="#b7d4e2"/>
            <path id="Trazado_997199" data-name="Trazado 997199" d="M196.645,107.74a2.692,2.692,0,0,1-3.743,1.239A3.044,3.044,0,0,1,191.737,105a2.691,2.691,0,0,1,3.743-1.239,3.043,3.043,0,0,1,1.165,3.981" transform="translate(76.939 51.007)" fill="#b7d4e2"/>
            <path id="Trazado_997200" data-name="Trazado 997200" d="M195.476,106.9a1.722,1.722,0,0,1-2.394.794,1.949,1.949,0,0,1-.746-2.549,1.721,1.721,0,0,1,2.394-.793,1.947,1.947,0,0,1,.746,2.547" transform="translate(77.224 51.356)" fill="#82a0af"/>
            <path id="Trazado_997201" data-name="Trazado 997201" d="M45.349,130.858H41.77L36.738,292.5H50.381Z" transform="translate(15.038 64.445)" fill="#b7d4e2"/>
            <path id="Trazado_997202" data-name="Trazado 997202" d="M33.724,94.7l3.4,42.8a1,1,0,0,0,.343.685l4.58,3.927a1,1,0,0,1,.33.588l1.08,6.154a.934.934,0,0,0,1.1.787l.809-.18a.988.988,0,0,0,.721-1.168L35.558,94.414a.93.93,0,0,0-1.1-.766.982.982,0,0,0-.736,1.05" transform="translate(13.83 46.211)" fill="#b7d4e2"/>
            <path id="Trazado_997203" data-name="Trazado 997203" d="M41.061,137.1h-.007a.187.187,0,0,1-.213-.161l-5.784-36.99a.2.2,0,0,1,.153-.225.185.185,0,0,1,.211.161l5.784,36.99a.194.194,0,0,1-.144.223" transform="translate(14.364 49.194)" fill="#82a0af"/>
            <path id="Trazado_997204" data-name="Trazado 997204" d="M88.3,154.735l-33.76-23.559a.878.878,0,0,0-.718-.139l-5.731,1.415a.884.884,0,0,1-.638-.086l-5.218-2.893a.9.9,0,0,0-1.26.438l-.368.787a1.021,1.021,0,0,0,.42,1.326l46.353,24.423A.9.9,0,0,0,88.618,156a1.026,1.026,0,0,0-.322-1.266" transform="translate(16.546 63.711)" fill="#b7d4e2"/>
            <path id="Trazado_997205" data-name="Trazado 997205" d="M47.2,132.06l0-.007a.178.178,0,0,1,.249-.077l30.93,17.975a.206.206,0,0,1,.074.267.179.179,0,0,1-.251.077l-30.93-17.975a.2.2,0,0,1-.077-.259" transform="translate(19.217 64.98)" fill="#82a0af"/>
            <path id="Trazado_997206" data-name="Trazado 997206" d="M17.536,172.433l22.136-35.925a.934.934,0,0,1,.609-.429l5.784-1.134a.924.924,0,0,0,.554-.35l3.7-4.867a.891.891,0,0,1,1.32-.133l.631.568a1.032,1.032,0,0,1,.112,1.393L19.021,173.612a.889.889,0,0,1-1.308.118,1.03,1.03,0,0,1-.178-1.3" transform="translate(7.292 63.712)" fill="#b7d4e2"/>
            <path id="Trazado_997207" data-name="Trazado 997207" d="M43.2,134.172l-.006,0a.176.176,0,0,0-.259.034L21.306,163.8a.207.207,0,0,0,.032.276.179.179,0,0,0,.259-.036l21.633-29.6a.2.2,0,0,0-.027-.27" transform="translate(8.847 66.045)" fill="#82a0af"/>
            <path id="Trazado_997208" data-name="Trazado 997208" d="M45.329,130.924a3.269,3.269,0,0,1-2.383,3.866,3.08,3.08,0,0,1-3.633-2.536,3.271,3.271,0,0,1,2.383-3.866,3.081,3.081,0,0,1,3.633,2.536" transform="translate(16.042 63.201)" fill="#b7d4e2"/>
            <path id="Trazado_997209" data-name="Trazado 997209" d="M43.929,130.777a2.093,2.093,0,0,1-1.525,2.474,1.972,1.972,0,0,1-2.326-1.622,2.092,2.092,0,0,1,1.525-2.474,1.973,1.973,0,0,1,2.326,1.622" transform="translate(16.358 63.589)" fill="#82a0af"/>
            <path id="Trazado_997210" data-name="Trazado 997210" d="M249.91,111.842h-3.744L240.9,280.94h14.273Z" transform="translate(96.741 55.132)" fill="#d9f1f9"/>
            <path id="Trazado_997211" data-name="Trazado 997211" d="M221.873,157.423,252.1,126.034a1.069,1.069,0,0,0,.293-.751l-.067-6.547a1.085,1.085,0,0,1,.227-.675l3.954-5.02a1.079,1.079,0,0,0-.137-1.469l-.675-.578a.931.931,0,0,0-1.365.159l-33.891,44.883a1.078,1.078,0,0,0,.15,1.452.928.928,0,0,0,1.287-.066" transform="translate(88.466 54.605)" fill="#d9f1f9"/>
            <path id="Trazado_997212" data-name="Trazado 997212" d="M249.275,117.3l.006.006a.214.214,0,0,1,.02.289l-24.226,29.571a.187.187,0,0,1-.273.019.214.214,0,0,1-.018-.289l24.226-29.571a.185.185,0,0,1,.266-.025" transform="translate(90.272 57.782)" fill="#82a0af"/>
            <path id="Trazado_997213" data-name="Trazado 997213" d="M236.218,74.807l4.573,44.674a1.055,1.055,0,0,0,.374.709l4.884,3.982a1.039,1.039,0,0,1,.36.606l1.276,6.407a.973.973,0,0,0,1.171.793l.843-.209a1.039,1.039,0,0,0,.727-1.242L238.13,74.46a.972.972,0,0,0-1.168-.772,1.031,1.031,0,0,0-.745,1.119" transform="translate(94.865 36.432)" fill="#d9f1f9"/>
            <path id="Trazado_997214" data-name="Trazado 997214" d="M244.914,118.946h-.008a.193.193,0,0,1-.225-.162l-6.93-38.529a.207.207,0,0,1,.154-.24.192.192,0,0,1,.225.162l6.93,38.529a.206.206,0,0,1-.146.238" transform="translate(95.479 39.543)" fill="#82a0af"/>
            <path id="Trazado_997215" data-name="Trazado 997215" d="M299.592,113.577,257.6,118.453a.932.932,0,0,1-.732-.237L252.165,114a.941.941,0,0,0-.633-.243l-6.157.057a1,1,0,0,1-.979-1.046l.01-.921a1,1,0,0,1,.983-1.022l54.109.69a1.04,1.04,0,0,1,.094,2.062" transform="translate(98.14 54.633)" fill="#d9f1f9"/>
            <path id="Trazado_997216" data-name="Trazado 997216" d="M251.412,113.442v.009a.2.2,0,0,0,.2.2l36.854-1.1a.2.2,0,0,0,.188-.212.2.2,0,0,0-.2-.2l-36.856,1.1a.2.2,0,0,0-.188.2" transform="translate(100.947 55.276)" fill="#82a0af"/>
            <path id="Trazado_997217" data-name="Trazado 997217" d="M243.886,110.778a3.087,3.087,0,0,1,4.52-.524,3.572,3.572,0,0,1,.493,4.809,3.086,3.086,0,0,1-4.52.524,3.571,3.571,0,0,1-.493-4.809" transform="translate(97.652 53.985)" fill="#82a0af"/>
            <path id="Trazado_997218" data-name="Trazado 997218" d="M244.457,111.145a1.974,1.974,0,0,1,2.893-.335,2.287,2.287,0,0,1,.315,3.078,1.976,1.976,0,0,1-2.893.335,2.287,2.287,0,0,1-.315-3.078" transform="translate(97.983 54.389)" fill="#d9f1f9"/>
            <path id="Trazado_997219" data-name="Trazado 997219" d="M317.725,238.922v20.261a6.188,6.188,0,0,1-3.248-.149c-5.839-1.534-10.711-5.78-16.41-7.806-4.1-1.475-8.5-1.728-12.84-1.8a6.151,6.151,0,0,1-3.388-.73c-3.3-2.279-5.153-6.972-9-9.46-4.243-2.756-9.1-4.5-12.8-8.015s-5.881-9.8-3-14.093a6.789,6.789,0,0,1,1.246-1.4,7,7,0,0,1,5.517-1.7c2.282.343,4.243,1.832,6.343,2.845,5.013,2.443,6.343-1.385,10.627-2.667,4.075-1.207,6.441.834,9.171,3.5,2.674,2.607,4.243,4.842,6.987,6.138a11.822,11.822,0,0,0,3.08.909c4.481.745,9.311-.521,10.641,6.033.28,1.385.238,2.92.98,4.1.882,1.4,2.576,1.862,4,2.592a9.339,9.339,0,0,1,2.086,1.445" transform="translate(102.667 105.09)" fill="#7f823d"/>
            <path id="Trazado_997220" data-name="Trazado 997220" d="M420.056,258.424v92.617H0V256.487q4.159-2.592,8.373-5.05a329.041,329.041,0,0,1,36.839-18.324c2.394-1.013,4.775-2,7.183-2.95.518-.223,1.05-.432,1.582-.641.826-.328,1.652-.655,2.492-.968q3.633-1.408,7.295-2.741a1.316,1.316,0,0,1,.224-.074c13.26-4.842,26.744-9,40.409-12.693q7.141-1.944,14.338-3.724,3.843-.939,7.715-1.862c1.6-.372,3.206-.745,4.8-1.1q11.3-2.547,22.739-4.514c12.266-2.115,24.629-3.724,37.049-4.752,3.052-.268,6.119-.492,9.171-.67q6.994-.447,14.016-.641a418.151,418.151,0,0,1,51.065,4.574q6.028.916,12.014,1.981,9.22,1.654,18.356,3.68c2.114.462,4.229.953,6.343,1.445,12.07,2.86,24.153,5.914,36.013,9.49q6.532,1.966,12.98,4.171,4.852,1.654,9.619,3.456c3.767,1.43,7.477,2.92,11.159,4.514,17.292,7.464,32.862,18.324,48.278,29.333" transform="translate(0.336 96.24)" fill="#b3c148"/>
            <path id="Trazado_997221" data-name="Trazado 997221" d="M107.466,252.208c-.91.1-1.834.209-2.716.343-4.075.462-8.709.313-12.616,1.639-.392.134-.742.253-1.092.358-.014-.015-.014,0-.014,0a10.956,10.956,0,0,1-1.19.328,5.406,5.406,0,0,1-2.212.134c-1.3-.209-2.548-.983-4.369-2.637A149.116,149.116,0,0,0,32.29,222.339c2.912-1.236,5.825-2.428,8.765-3.59.826-.328,1.652-.655,2.492-.968,8.723,2.384,16.69,5.974,25.175,10.115,7.183,3.516,14.422,7.061,21.171,11.62a4.049,4.049,0,0,1,.406.283c3.29,2.235,6.3,4.827,9.423,7.344,2.156,1.713,4.9,5.408,7.743,5.065" transform="translate(13.258 107.014)" fill="#8a9149"/>
            <path id="Trazado_997222" data-name="Trazado 997222" d="M84.7,102.98H79.934l-6.7,215.267H91.4Z" transform="translate(29.643 50.791)" fill="#fff"/>
            <path id="Trazado_997223" data-name="Trazado 997223" d="M95.578,54.577l-18.306,53.79a1.4,1.4,0,0,0,.056,1.034l3.485,7.464a1.4,1.4,0,0,1,.091.909l-1.918,8.083a1.323,1.323,0,0,0,.921,1.6l1.074.264a1.235,1.235,0,0,0,1.483-.986L97.946,55.321a1.319,1.319,0,0,0-.927-1.578,1.226,1.226,0,0,0-1.441.834" transform="translate(31.23 26.661)" fill="#fff"/>
            <path id="Trazado_997224" data-name="Trazado 997224" d="M80.206,110.277l-.01,0a.263.263,0,0,1-.172-.32L92.4,61.783a.244.244,0,0,1,.3-.183.262.262,0,0,1,.172.32L80.5,110.091a.243.243,0,0,1-.291.186" transform="translate(32.357 30.521)" fill="#82a0af"/>
            <path id="Trazado_997225" data-name="Trazado 997225" d="M123.839,159.236l-28.5-48.512a1.239,1.239,0,0,0-.8-.591l-7.67-1.688a1.22,1.22,0,0,1-.728-.483l-4.8-6.594a1.189,1.189,0,0,0-1.756-.217l-.857.736a1.376,1.376,0,0,0-.185,1.852l43.278,57.021a1.185,1.185,0,0,0,1.739.2,1.372,1.372,0,0,0,.272-1.721" transform="translate(31.66 49.753)" fill="#fff"/>
            <path id="Trazado_997226" data-name="Trazado 997226" d="M85.652,107.392l.008-.006a.235.235,0,0,1,.343.054l28,40.079a.277.277,0,0,1-.05.366.239.239,0,0,1-.344-.054l-28-40.08a.273.273,0,0,1,.043-.359" transform="translate(34.576 52.924)" fill="#82a0af"/>
            <path id="Trazado_997227" data-name="Trazado 997227" d="M35.239,133.213l45.589-30.333a1.179,1.179,0,0,1,.962-.159l7.59,2.059a1.172,1.172,0,0,0,.853-.1l7.026-3.692a1.2,1.2,0,0,1,1.668.621l.468,1.062a1.352,1.352,0,0,1-.6,1.749l-62.38,31.1a1.207,1.207,0,0,1-1.645-.633,1.364,1.364,0,0,1,.465-1.674" transform="translate(14.205 49.751)" fill="#fff"/>
            <path id="Trazado_997228" data-name="Trazado 997228" d="M84.07,104.286l0-.01a.239.239,0,0,0-.33-.11L42.065,127.148a.273.273,0,0,0-.105.353.24.24,0,0,0,.332.112l41.67-22.984a.269.269,0,0,0,.109-.343" transform="translate(17.117 51.358)" fill="#82a0af"/>
            <path id="Trazado_997229" data-name="Trazado 997229" d="M84.667,104.754a4.092,4.092,0,0,1-4.908,3.264,4.37,4.37,0,0,1-3.068-5.222A4.092,4.092,0,0,1,81.6,99.532a4.369,4.369,0,0,1,3.068,5.222" transform="translate(30.984 49.048)" fill="#b7d4e2"/>
            <path id="Trazado_997230" data-name="Trazado 997230" d="M82.81,103.885a2.618,2.618,0,0,1-3.141,2.089,2.8,2.8,0,0,1-1.963-3.341,2.618,2.618,0,0,1,3.141-2.089,2.8,2.8,0,0,1,1.963,3.342" transform="translate(31.406 49.563)" fill="#fff"/>
            <path id="Trazado_997231" data-name="Trazado 997231" d="M92.277,242.149c19.724-1.114,40.1,3.462,55.2,13.135-34.212,1.826-68.668-1.621-102.835.626,2.315-.152,5.636-2.55,7.8-3.33,4.763-1.715,9.338-3.712,14.117-5.408a92.994,92.994,0,0,1,25.719-5.023" transform="translate(18.202 118.868)" fill="#b3c148"/>
            <path id="Trazado_997232" data-name="Trazado 997232" d="M170.987,249.737c0,1.257-16.137,2.275-36.042,2.275S98.9,250.994,98.9,249.737s16.137-2.275,36.044-2.275,36.042,1.019,36.042,2.275" transform="translate(39.915 121.551)" fill="#8a9149"/>
            <path id="Trazado_997233" data-name="Trazado 997233" d="M107.741,251.338H106.38a.664.664,0,0,1-.643-.684v-6a.665.665,0,0,1,.643-.685h1.361a.665.665,0,0,1,.643.685v6a.664.664,0,0,1-.643.684" transform="translate(42.65 119.841)" fill="#82a0af"/>
            <path id="Trazado_997234" data-name="Trazado 997234" d="M146.135,251.338h-1.361a.665.665,0,0,1-.643-.684v-6a.666.666,0,0,1,.643-.685h1.361a.665.665,0,0,1,.643.685v6a.664.664,0,0,1-.643.684" transform="translate(58.015 119.841)" fill="#82a0af"/>
            <path id="Trazado_997235" data-name="Trazado 997235" d="M169.871,258.858h-61.65l-14.2-42.765h61.937Z" transform="translate(37.961 106.188)" fill="#23323d"/>
            <path id="Trazado_997236" data-name="Trazado 997236" d="M112.117,258.858h-.577L97.362,216.094h.58Z" transform="translate(39.299 106.188)" fill="#526980"/>
            <path id="Trazado_997237" data-name="Trazado 997237" d="M115.711,258.858h-.575l-14.156-42.765h.578Z" transform="translate(40.746 106.188)" fill="#526980"/>
            <path id="Trazado_997238" data-name="Trazado 997238" d="M119.3,258.858h-.575L104.6,216.094h.58Z" transform="translate(42.194 106.188)" fill="#526980"/>
            <path id="Trazado_997239" data-name="Trazado 997239" d="M127.04,258.858h-.575l-14.082-42.765h.578Z" transform="translate(45.31 106.188)" fill="#526980"/>
            <path id="Trazado_997240" data-name="Trazado 997240" d="M130.634,258.858h-.577L116,216.094h.58Z" transform="translate(46.757 106.188)" fill="#526980"/>
            <path id="Trazado_997241" data-name="Trazado 997241" d="M134.228,258.858h-.575l-14.035-42.765h.58Z" transform="translate(48.205 106.188)" fill="#526980"/>
            <path id="Trazado_997242" data-name="Trazado 997242" d="M141.963,258.858h-.577L127.4,216.094h.58Z" transform="translate(51.321 106.188)" fill="#526980"/>
            <path id="Trazado_997243" data-name="Trazado 997243" d="M145.557,258.858h-.575L131.02,216.094h.58Z" transform="translate(52.768 106.188)" fill="#526980"/>
            <path id="Trazado_997244" data-name="Trazado 997244" d="M149.151,258.858h-.577l-13.936-42.765h.578Z" transform="translate(54.216 106.188)" fill="#526980"/>
            <path id="Trazado_997245" data-name="Trazado 997245" d="M157.116,219.5H95.211l-.179-.539h61.909Z" transform="translate(38.366 107.591)" fill="#526980"/>
            <path id="Trazado_997246" data-name="Trazado 997246" d="M158.245,222.784H96.372l-.179-.539H158.07Z" transform="translate(38.831 109.201)" fill="#526980"/>
            <path id="Trazado_997247" data-name="Trazado 997247" d="M160.429,229.146H98.621l-.179-.539h61.813Z" transform="translate(39.731 112.317)" fill="#526980"/>
            <path id="Trazado_997248" data-name="Trazado 997248" d="M161.557,232.433H99.782l-.179-.539h61.779Z" transform="translate(40.196 113.926)" fill="#526980"/>
            <path id="Trazado_997249" data-name="Trazado 997249" d="M163.741,238.8H102.03l-.179-.539h61.716Z" transform="translate(41.095 117.042)" fill="#526980"/>
            <path id="Trazado_997250" data-name="Trazado 997250" d="M164.87,242.082H103.191l-.181-.539h61.684Z" transform="translate(41.559 118.652)" fill="#526980"/>
            <path id="Trazado_997251" data-name="Trazado 997251" d="M171.09,259.38l-.28-.894-1.148-3.516-.182-.536-1.414-4.35-.168-.536-1.246-3.829-.14-.447-.154-.447-9.437-29.035H92.47l1.428,4.29,12.8,38.525.28.849h64.142Zm-61.916-.819-1.288-3.873-.182-.536-1.442-4.35-.182-.536-1.148-3.471-.294-.894-1.526-4.574-.182-.551-1.442-4.35-.182-.536-1.5-4.544-.308-.894-1.162-3.5-.182-.551-1.442-4.35-.182-.536-.294-.924-.966-2.89h60.978l1.246,3.814.168.536,1.414,4.35.182.551,1.134,3.5.294.894,1.47,4.544.182.536,1.414,4.35.182.551,1.456,4.5.028.074.112.372.154.447.028.074,1.12,3.471.1.283.084.253.084.283,1.33,4.067.084.283.084.253.1.283,1.134,3.516.028.074Z" transform="translate(37.341 106.039)" fill="#82a0af"/>
            <path id="Trazado_997252" data-name="Trazado 997252" d="M123.077,258.858h-.961l-14.11-42.765h.965Z" transform="translate(43.559 106.188)" fill="#82a0af"/>
            <path id="Trazado_997253" data-name="Trazado 997253" d="M138.548,258.858h-.961l-14.009-42.765h.965Z" transform="translate(49.79 106.188)" fill="#82a0af"/>
            <path id="Trazado_997254" data-name="Trazado 997254" d="M162.854,236.23H101.115l-.3-.9h61.744Z" transform="translate(40.681 115.61)" fill="#82a0af"/>
            <path id="Trazado_997255" data-name="Trazado 997255" d="M159.293,225.857H97.45l-.3-.9H159Z" transform="translate(39.215 110.53)" fill="#82a0af"/>
            <path id="Trazado_997256" data-name="Trazado 997256" d="M224.361,249.737c0,1.257-16.137,2.275-36.042,2.275s-36.044-1.017-36.044-2.275,16.137-2.275,36.044-2.275,36.042,1.019,36.042,2.275" transform="translate(61.274 121.551)" fill="#8a9149"/>
            <path id="Trazado_997257" data-name="Trazado 997257" d="M161.987,251.338h-1.361a.664.664,0,0,1-.643-.684v-6a.665.665,0,0,1,.643-.685h1.361a.665.665,0,0,1,.643.685v6a.664.664,0,0,1-.643.684" transform="translate(64.359 119.841)" fill="#82a0af"/>
            <path id="Trazado_997258" data-name="Trazado 997258" d="M200.381,251.338H199.02a.665.665,0,0,1-.643-.685v-6a.665.665,0,0,1,.643-.685h1.361a.665.665,0,0,1,.643.685v6a.664.664,0,0,1-.643.684" transform="translate(79.724 119.841)" fill="#82a0af"/>
            <path id="Trazado_997259" data-name="Trazado 997259" d="M224.117,258.858h-61.65l-14.2-42.765H210.2Z" transform="translate(59.67 106.188)" fill="#23323d"/>
            <path id="Trazado_997260" data-name="Trazado 997260" d="M166.363,258.858h-.575l-14.18-42.765h.578Z" transform="translate(61.007 106.188)" fill="#526980"/>
            <path id="Trazado_997261" data-name="Trazado 997261" d="M169.957,258.858h-.575l-14.156-42.765h.578Z" transform="translate(62.455 106.188)" fill="#526980"/>
            <path id="Trazado_997262" data-name="Trazado 997262" d="M173.551,258.858h-.577l-14.132-42.765h.58Z" transform="translate(63.902 106.188)" fill="#526980"/>
            <path id="Trazado_997263" data-name="Trazado 997263" d="M181.286,258.858h-.577l-14.08-42.765h.578Z" transform="translate(67.018 106.188)" fill="#526980"/>
            <path id="Trazado_997264" data-name="Trazado 997264" d="M184.88,258.858H184.3l-14.059-42.765h.58Z" transform="translate(68.466 106.188)" fill="#526980"/>
            <path id="Trazado_997265" data-name="Trazado 997265" d="M188.474,258.858H187.9l-14.035-42.765h.58Z" transform="translate(69.913 106.188)" fill="#526980"/>
            <path id="Trazado_997266" data-name="Trazado 997266" d="M196.209,258.858h-.575L181.65,216.094h.578Z" transform="translate(73.029 106.188)" fill="#526980"/>
            <path id="Trazado_997267" data-name="Trazado 997267" d="M199.8,258.858h-.576l-13.961-42.765h.58Z" transform="translate(74.477 106.188)" fill="#526980"/>
            <path id="Trazado_997268" data-name="Trazado 997268" d="M203.4,258.858h-.577l-13.936-42.765h.578Z" transform="translate(75.925 106.188)" fill="#526980"/>
            <path id="Trazado_997269" data-name="Trazado 997269" d="M211.362,219.5h-61.9l-.179-.539h61.909Z" transform="translate(60.075 107.591)" fill="#526980"/>
            <path id="Trazado_997270" data-name="Trazado 997270" d="M212.491,222.784H150.618l-.179-.539h61.877Z" transform="translate(60.539 109.201)" fill="#526980"/>
            <path id="Trazado_997271" data-name="Trazado 997271" d="M214.675,229.146H152.866l-.179-.539H214.5Z" transform="translate(61.439 112.317)" fill="#526980"/>
            <path id="Trazado_997272" data-name="Trazado 997272" d="M215.8,232.433H154.027l-.179-.539h61.78Z" transform="translate(61.904 113.926)" fill="#526980"/>
            <path id="Trazado_997273" data-name="Trazado 997273" d="M217.987,238.8H156.275l-.179-.539h61.716Z" transform="translate(62.803 117.042)" fill="#526980"/>
            <path id="Trazado_997274" data-name="Trazado 997274" d="M219.115,242.082h-61.68l-.178-.539H218.94Z" transform="translate(63.268 118.652)" fill="#526980"/>
            <path id="Trazado_997275" data-name="Trazado 997275" d="M225.344,259.38l-.294-.894-1.134-3.516-.182-.536-1.414-4.35-.168-.536-1.246-3.829-.154-.447-.14-.447-9.451-29.035H146.71l9.647,29.035.154.447.14.447,1.274,3.829.182.536,1.442,4.35.182.536,1.162,3.516.294.894.028.074h64.156Zm-61.93-.819-.028-.074-1.162-3.516-.1-.283-.084-.253-.084-.283-1.358-4.067-.1-.283-.084-.253-.084-.283-1.162-3.471-.014-.074-.154-.447-.126-.372-.014-.074-1.5-4.5-.182-.551-1.442-4.35-.182-.536-1.512-4.544-.294-.894-1.162-3.5-.182-.551-1.442-4.35-.182-.536-1.26-3.814h60.964l1.246,3.814.168.536,1.414,4.35.182.551,1.134,3.5.294.894,1.484,4.544.168.536,1.414,4.35.182.551,1.47,4.5.014.074.126.372.154.447.014.074,1.134,3.471.1.283.07.253.1.283,1.33,4.067.084.283.084.253.1.283,1.134,3.516.028.074Z" transform="translate(59.047 106.039)" fill="#82a0af"/>
            <path id="Trazado_997276" data-name="Trazado 997276" d="M177.323,258.858h-.961l-14.11-42.765h.965Z" transform="translate(65.267 106.188)" fill="#82a0af"/>
            <path id="Trazado_997277" data-name="Trazado 997277" d="M192.794,258.858h-.961l-14.009-42.765h.965Z" transform="translate(71.499 106.188)" fill="#82a0af"/>
            <path id="Trazado_997278" data-name="Trazado 997278" d="M217.1,236.23H155.36l-.3-.9h61.745Z" transform="translate(62.39 115.61)" fill="#82a0af"/>
            <path id="Trazado_997279" data-name="Trazado 997279" d="M213.539,225.857H151.7l-.3-.9h61.849Z" transform="translate(60.923 110.53)" fill="#82a0af"/>
            <path id="Trazado_997280" data-name="Trazado 997280" d="M278.025,249.737c0,1.257-16.137,2.275-36.042,2.275s-36.044-1.017-36.044-2.275,16.137-2.275,36.044-2.275,36.042,1.019,36.042,2.275" transform="translate(82.75 121.551)" fill="#8a9149"/>
            <path id="Trazado_997281" data-name="Trazado 997281" d="M216.233,251.338h-1.361a.665.665,0,0,1-.643-.684v-6a.666.666,0,0,1,.643-.685h1.361a.665.665,0,0,1,.643.685v6a.664.664,0,0,1-.643.684" transform="translate(86.067 119.841)" fill="#82a0af"/>
            <path id="Trazado_997282" data-name="Trazado 997282" d="M254.627,251.338h-1.361a.666.666,0,0,1-.643-.685v-6a.666.666,0,0,1,.643-.685h1.361a.665.665,0,0,1,.643.685v6a.664.664,0,0,1-.643.684" transform="translate(101.432 119.841)" fill="#82a0af"/>
            <path id="Trazado_997283" data-name="Trazado 997283" d="M278.363,258.858h-61.65l-14.2-42.765h61.937Z" transform="translate(81.378 106.188)" fill="#23323d"/>
            <path id="Trazado_997284" data-name="Trazado 997284" d="M220.609,258.858h-.576l-14.18-42.765h.578Z" transform="translate(82.716 106.188)" fill="#526980"/>
            <path id="Trazado_997285" data-name="Trazado 997285" d="M224.2,258.858h-.577l-14.155-42.765h.578Z" transform="translate(84.163 106.188)" fill="#526980"/>
            <path id="Trazado_997286" data-name="Trazado 997286" d="M227.8,258.858h-.576l-14.132-42.765h.578Z" transform="translate(85.611 106.188)" fill="#526980"/>
            <path id="Trazado_997287" data-name="Trazado 997287" d="M235.532,258.858h-.577l-14.08-42.765h.578Z" transform="translate(88.727 106.188)" fill="#526980"/>
            <path id="Trazado_997288" data-name="Trazado 997288" d="M239.125,258.858h-.576l-14.058-42.765h.578Z" transform="translate(90.174 106.188)" fill="#526980"/>
            <path id="Trazado_997289" data-name="Trazado 997289" d="M242.72,258.858h-.576l-14.035-42.765h.58Z" transform="translate(91.622 106.188)" fill="#526980"/>
            <path id="Trazado_997290" data-name="Trazado 997290" d="M250.455,258.858h-.575l-13.985-42.765h.58Z" transform="translate(94.738 106.188)" fill="#526980"/>
            <path id="Trazado_997291" data-name="Trazado 997291" d="M254.049,258.858h-.577l-13.96-42.765h.58Z" transform="translate(96.185 106.188)" fill="#526980"/>
            <path id="Trazado_997292" data-name="Trazado 997292" d="M257.643,258.858h-.577L243.13,216.094h.578Z" transform="translate(97.633 106.188)" fill="#526980"/>
            <path id="Trazado_997293" data-name="Trazado 997293" d="M265.608,219.5H203.7l-.179-.539h61.909Z" transform="translate(81.783 107.591)" fill="#526980"/>
            <path id="Trazado_997294" data-name="Trazado 997294" d="M266.737,222.784H204.864l-.179-.539h61.877Z" transform="translate(82.248 109.201)" fill="#526980"/>
            <path id="Trazado_997295" data-name="Trazado 997295" d="M268.921,229.146H207.112l-.179-.539h61.813Z" transform="translate(83.148 112.317)" fill="#526980"/>
            <path id="Trazado_997296" data-name="Trazado 997296" d="M270.049,232.433H208.273l-.179-.539h61.78Z" transform="translate(83.612 113.926)" fill="#526980"/>
            <path id="Trazado_997297" data-name="Trazado 997297" d="M272.233,238.8H210.521l-.179-.539h61.716Z" transform="translate(84.512 117.042)" fill="#526980"/>
            <path id="Trazado_997298" data-name="Trazado 997298" d="M273.362,242.082h-61.68l-.179-.539h61.684Z" transform="translate(84.976 118.652)" fill="#526980"/>
            <path id="Trazado_997299" data-name="Trazado 997299" d="M279.58,259.38l-.28-.894-1.148-3.516-.182-.536-1.414-4.35-.168-.536-1.246-3.829-.14-.447-.154-.447-4.8-14.793-4.635-14.242H200.96l9.647,29.035.154.447.14.447,1.274,3.829.182.536,1.442,4.35.182.536,1.162,3.516.294.894.028.074h64.142Zm-61.916-.819-.028-.074-1.162-3.516-.1-.283-.084-.253-.1-.283-1.344-4.067-.1-.283-.084-.253-.1-.283-1.148-3.471-.028-.074-.14-.447-.126-.372-.028-.074-1.5-4.5-.182-.551-1.442-4.35-.182-.536-1.5-4.544-.308-.894-1.162-3.5-.182-.551-1.442-4.35-.182-.536-1.26-3.814h60.978l1.246,3.814.168.536,1.414,4.35.182.551,1.134,3.5.2.581.1.313,1.484,4.544.168.536,1.414,4.35.182.551,1.47,4.5.014.074.126.372.154.447.014.074,1.134,3.471.1.283.07.253.1.283,1.33,4.067.084.283.084.253.1.283,1.134,3.516.028.074Z" transform="translate(80.757 106.039)" fill="#82a0af"/>
            <path id="Trazado_997300" data-name="Trazado 997300" d="M231.569,258.858h-.961L216.5,216.094h.965Z" transform="translate(86.976 106.188)" fill="#82a0af"/>
            <path id="Trazado_997301" data-name="Trazado 997301" d="M247.039,258.858h-.961l-14.007-42.765h.965Z" transform="translate(93.208 106.188)" fill="#82a0af"/>
            <path id="Trazado_997302" data-name="Trazado 997302" d="M271.346,236.23H209.607l-.3-.9h61.744Z" transform="translate(84.098 115.61)" fill="#82a0af"/>
            <path id="Trazado_997303" data-name="Trazado 997303" d="M267.785,225.857H205.942l-.3-.9h61.85Z" transform="translate(82.632 110.53)" fill="#82a0af"/>
            <path id="Trazado_997304" data-name="Trazado 997304" d="M194.982,269.078c0,1.256-16.137,2.275-36.042,2.275s-36.042-1.019-36.042-2.275,16.136-2.273,36.042-2.273,36.042,1.019,36.042,2.273" transform="translate(49.518 131.024)" fill="#8a9149"/>
            <path id="Trazado_997305" data-name="Trazado 997305" d="M132.61,270.826h-1.361a.665.665,0,0,1-.643-.685v-6a.665.665,0,0,1,.643-.685h1.361a.665.665,0,0,1,.643.685v6a.664.664,0,0,1-.643.684" transform="translate(52.603 129.385)" fill="#b7d4e2"/>
            <path id="Trazado_997306" data-name="Trazado 997306" d="M171,270.826h-1.361a.665.665,0,0,1-.643-.684v-6a.666.666,0,0,1,.644-.685H171a.665.665,0,0,1,.643.685v6a.664.664,0,0,1-.643.684" transform="translate(67.967 129.385)" fill="#b7d4e2"/>
            <path id="Trazado_997307" data-name="Trazado 997307" d="M194.74,278.346h-61.65l-14.2-42.765h61.937Z" transform="translate(47.914 115.732)" fill="#23323d"/>
            <path id="Trazado_997308" data-name="Trazado 997308" d="M136.986,278.346h-.575l-14.18-42.765h.578Z" transform="translate(49.251 115.732)" fill="#82a0af"/>
            <path id="Trazado_997309" data-name="Trazado 997309" d="M140.579,278.346H140l-14.154-42.765h.578Z" transform="translate(50.698 115.732)" fill="#82a0af"/>
            <path id="Trazado_997310" data-name="Trazado 997310" d="M144.174,278.346H143.6l-14.132-42.765h.58Z" transform="translate(52.146 115.732)" fill="#82a0af"/>
            <path id="Trazado_997311" data-name="Trazado 997311" d="M151.909,278.346h-.577l-14.08-42.765h.578Z" transform="translate(55.262 115.732)" fill="#82a0af"/>
            <path id="Trazado_997312" data-name="Trazado 997312" d="M155.5,278.346h-.576l-14.059-42.765h.58Z" transform="translate(56.709 115.732)" fill="#82a0af"/>
            <path id="Trazado_997313" data-name="Trazado 997313" d="M159.1,278.346h-.575l-14.035-42.765h.58Z" transform="translate(58.157 115.732)" fill="#82a0af"/>
            <path id="Trazado_997314" data-name="Trazado 997314" d="M166.832,278.346h-.575l-13.985-42.765h.58Z" transform="translate(61.273 115.732)" fill="#82a0af"/>
            <path id="Trazado_997315" data-name="Trazado 997315" d="M170.426,278.346h-.575l-13.961-42.765h.58Z" transform="translate(62.72 115.732)" fill="#82a0af"/>
            <path id="Trazado_997316" data-name="Trazado 997316" d="M174.02,278.346h-.577l-13.936-42.765h.578Z" transform="translate(64.168 115.732)" fill="#82a0af"/>
            <path id="Trazado_997317" data-name="Trazado 997317" d="M181.985,238.985H120.08l-.179-.539H181.81Z" transform="translate(48.319 117.135)" fill="#82a0af"/>
            <path id="Trazado_997318" data-name="Trazado 997318" d="M183.114,242.272H121.241l-.179-.539h61.877Z" transform="translate(48.783 118.745)" fill="#82a0af"/>
            <path id="Trazado_997319" data-name="Trazado 997319" d="M185.3,248.634H123.489l-.179-.539h61.813Z" transform="translate(49.683 121.861)" fill="#82a0af"/>
            <path id="Trazado_997320" data-name="Trazado 997320" d="M186.426,251.921H124.649l-.178-.539h61.779Z" transform="translate(50.148 123.47)" fill="#82a0af"/>
            <path id="Trazado_997321" data-name="Trazado 997321" d="M188.61,258.283H126.9l-.179-.539h61.716Z" transform="translate(51.047 126.586)" fill="#82a0af"/>
            <path id="Trazado_997322" data-name="Trazado 997322" d="M189.739,261.57h-61.68l-.179-.539h61.684Z" transform="translate(51.512 128.196)" fill="#82a0af"/>
            <path id="Trazado_997323" data-name="Trazado 997323" d="M189.114,257.835l-1.372-4.216-1.2-3.709-.14-.447-.154-.447-1.26-3.873-.168-.536-1.414-4.35-.182-.536-1.12-3.471-.294-.894-.028-.074H117.34l.028.074.294.894,1.148,3.471.182.536,1.442,4.35.182.536,1.288,3.873.14.447.154.447,1.176,3.531,1.5,4.529,6.973,20.976h64.142Zm-55.069,20.216-1.288-3.873-.182-.536-1.442-4.35-.182-.551-1.148-3.456-.294-.894-1.526-4.588-.168-.536-.434-1.281-1.022-3.069-.168-.536-.322-.953-1.162-3.516-.028-.075-.126-.372-.14-.447-.028-.074-1.176-3.516-.084-.283-.084-.253-.1-.283-1.344-4.067-.1-.283-.084-.253-.1-.283-1.148-3.471-.028-.074H181.1l.028.074,1.12,3.471.1.283.084.253.084.283,1.33,4.067.084.283.084.253.1.283,1.148,3.516.014.074.154.447.112.372.028.075,1.218,3.739.238.73.168.536.952,2.89.476,1.46.168.536,1.5,4.588.28.894,1.134,3.456.168.551,1.428,4.35.168.536,1.26,3.873Z" transform="translate(47.294 115.585)" fill="#b7d4e2"/>
            <path id="Trazado_997324" data-name="Trazado 997324" d="M147.946,278.346h-.961l-14.11-42.765h.965Z" transform="translate(53.511 115.732)" fill="#b7d4e2"/>
            <path id="Trazado_997325" data-name="Trazado 997325" d="M163.417,278.346h-.961l-14.009-42.765h.965Z" transform="translate(59.743 115.732)" fill="#b7d4e2"/>
            <path id="Trazado_997326" data-name="Trazado 997326" d="M187.723,255.718H125.985l-.3-.9H187.43Z" transform="translate(50.633 125.154)" fill="#b7d4e2"/>
            <path id="Trazado_997327" data-name="Trazado 997327" d="M184.162,245.345H122.319l-.3-.9h61.849Z" transform="translate(49.167 120.074)" fill="#b7d4e2"/>
            <path id="Trazado_997328" data-name="Trazado 997328" d="M248.357,269.078c0,1.256-16.137,2.275-36.042,2.275s-36.044-1.019-36.044-2.275,16.137-2.273,36.044-2.273,36.042,1.019,36.042,2.273" transform="translate(70.877 131.024)" fill="#8a9149"/>
            <path id="Trazado_997329" data-name="Trazado 997329" d="M186.856,270.826h-1.361a.665.665,0,0,1-.643-.684v-6a.666.666,0,0,1,.643-.685h1.361a.665.665,0,0,1,.643.685v6a.664.664,0,0,1-.643.684" transform="translate(74.311 129.385)" fill="#b7d4e2"/>
            <path id="Trazado_997330" data-name="Trazado 997330" d="M225.25,270.826h-1.361a.665.665,0,0,1-.643-.684v-6a.666.666,0,0,1,.643-.685h1.361a.665.665,0,0,1,.643.685v6a.664.664,0,0,1-.643.684" transform="translate(89.676 129.385)" fill="#b7d4e2"/>
            <path id="Trazado_997331" data-name="Trazado 997331" d="M248.986,278.346h-61.65l-14.2-42.765h61.937Z" transform="translate(69.622 115.732)" fill="#23323d"/>
            <path id="Trazado_997332" data-name="Trazado 997332" d="M191.232,278.346h-.577l-14.178-42.765h.578Z" transform="translate(70.959 115.732)" fill="#82a0af"/>
            <path id="Trazado_997333" data-name="Trazado 997333" d="M194.825,278.346h-.577l-14.154-42.765h.578Z" transform="translate(72.407 115.732)" fill="#82a0af"/>
            <path id="Trazado_997334" data-name="Trazado 997334" d="M198.42,278.346h-.576l-14.133-42.765h.58Z" transform="translate(73.854 115.732)" fill="#82a0af"/>
            <path id="Trazado_997335" data-name="Trazado 997335" d="M206.155,278.346h-.577L191.5,235.581h.578Z" transform="translate(76.97 115.732)" fill="#82a0af"/>
            <path id="Trazado_997336" data-name="Trazado 997336" d="M209.749,278.346h-.575l-14.059-42.765h.58Z" transform="translate(78.418 115.732)" fill="#82a0af"/>
            <path id="Trazado_997337" data-name="Trazado 997337" d="M213.343,278.346h-.575l-14.035-42.765h.58Z" transform="translate(79.865 115.732)" fill="#82a0af"/>
            <path id="Trazado_997338" data-name="Trazado 997338" d="M221.078,278.346H220.5l-13.984-42.765h.58Z" transform="translate(82.981 115.732)" fill="#82a0af"/>
            <path id="Trazado_997339" data-name="Trazado 997339" d="M224.672,278.346h-.577l-13.96-42.765h.58Z" transform="translate(84.429 115.732)" fill="#82a0af"/>
            <path id="Trazado_997340" data-name="Trazado 997340" d="M228.266,278.346h-.575l-13.937-42.765h.578Z" transform="translate(85.877 115.732)" fill="#82a0af"/>
            <path id="Trazado_997341" data-name="Trazado 997341" d="M236.231,238.985H174.326l-.179-.539h61.909Z" transform="translate(70.027 117.135)" fill="#82a0af"/>
            <path id="Trazado_997342" data-name="Trazado 997342" d="M237.359,242.272H175.487l-.179-.539h61.877Z" transform="translate(70.491 118.745)" fill="#82a0af"/>
            <path id="Trazado_997343" data-name="Trazado 997343" d="M239.544,248.634H177.735l-.179-.539h61.813Z" transform="translate(71.391 121.861)" fill="#82a0af"/>
            <path id="Trazado_997344" data-name="Trazado 997344" d="M240.672,251.921H178.9l-.178-.539H240.5Z" transform="translate(71.856 123.47)" fill="#82a0af"/>
            <path id="Trazado_997345" data-name="Trazado 997345" d="M242.856,258.283H181.144l-.179-.539h61.716Z" transform="translate(72.756 126.586)" fill="#82a0af"/>
            <path id="Trazado_997346" data-name="Trazado 997346" d="M243.984,261.57H182.3l-.179-.539h61.684Z" transform="translate(73.22 128.196)" fill="#82a0af"/>
            <path id="Trazado_997347" data-name="Trazado 997347" d="M243.368,257.85l-1.386-4.261-1.19-3.68-.154-.447-.14-.447-1.26-3.873-.168-.536-1.414-4.35-.182-.536-1.134-3.471-.28-.894-.028-.074H171.58l.028.074.294.894,1.148,3.471.182.536,1.442,4.35.182.536,1.288,3.873.14.447.154.447,1.176,3.531,1.512,4.544,6.959,20.961h64.142Zm-55.083,20.2L187,274.177l-.168-.536-1.456-4.35-.182-.551-1.134-3.456-.308-.894-1.512-4.588-.182-.536-.42-1.281-1.022-3.069-.182-.536-.308-.953-1.176-3.516-.014-.075-.126-.372-.154-.447-.028-.074-1.162-3.516-.1-.283-.084-.253-.084-.283-1.358-4.067-.084-.283-.084-.253-.1-.283-1.148-3.471-.028-.074h60.964l.028.074,1.12,3.471.1.283.084.253.084.283,1.33,4.067.084.283.084.253.1.283,1.148,3.516.014.074.154.447.112.372.028.075,1.2,3.709.252.76.168.536.952,2.9.476,1.445.168.536,1.5,4.588.28.894,1.134,3.456.168.551,1.428,4.35.168.536,1.26,3.873Z" transform="translate(69 115.585)" fill="#b7d4e2"/>
            <path id="Trazado_997348" data-name="Trazado 997348" d="M202.192,278.346h-.961l-14.11-42.765h.965Z" transform="translate(75.219 115.732)" fill="#b7d4e2"/>
            <path id="Trazado_997349" data-name="Trazado 997349" d="M217.662,278.346H216.7l-14.007-42.765h.965Z" transform="translate(81.451 115.732)" fill="#b7d4e2"/>
            <path id="Trazado_997350" data-name="Trazado 997350" d="M241.969,255.718h-61.74l-.3-.9h61.745Z" transform="translate(72.342 125.154)" fill="#b7d4e2"/>
            <path id="Trazado_997351" data-name="Trazado 997351" d="M238.408,245.345H176.565l-.3-.9h61.849Z" transform="translate(70.875 120.074)" fill="#b7d4e2"/>
            <path id="Trazado_997352" data-name="Trazado 997352" d="M302.021,269.078c0,1.256-16.137,2.275-36.042,2.275s-36.044-1.019-36.044-2.275,16.137-2.273,36.044-2.273,36.042,1.019,36.042,2.273" transform="translate(92.353 131.024)" fill="#8a9149"/>
            <path id="Trazado_997353" data-name="Trazado 997353" d="M241.1,270.826h-1.36a.665.665,0,0,1-.644-.684v-6a.666.666,0,0,1,.644-.685h1.36a.665.665,0,0,1,.643.685v6a.664.664,0,0,1-.643.684" transform="translate(96.02 129.385)" fill="#b7d4e2"/>
            <path id="Trazado_997354" data-name="Trazado 997354" d="M279.5,270.826h-1.361a.665.665,0,0,1-.643-.685v-6a.665.665,0,0,1,.643-.685H279.5a.665.665,0,0,1,.643.685v6a.665.665,0,0,1-.643.685" transform="translate(111.384 129.385)" fill="#b7d4e2"/>
            <path id="Trazado_997355" data-name="Trazado 997355" d="M303.231,278.346h-61.65l-14.2-42.765h61.937Z" transform="translate(91.33 115.732)" fill="#23323d"/>
            <path id="Trazado_997356" data-name="Trazado 997356" d="M245.478,278.346H244.9l-14.178-42.765h.578Z" transform="translate(92.668 115.732)" fill="#82a0af"/>
            <path id="Trazado_997357" data-name="Trazado 997357" d="M249.071,278.346H248.5L234.34,235.581h.578Z" transform="translate(94.115 115.732)" fill="#82a0af"/>
            <path id="Trazado_997358" data-name="Trazado 997358" d="M252.665,278.346h-.575l-14.132-42.765h.578Z" transform="translate(95.563 115.732)" fill="#82a0af"/>
            <path id="Trazado_997359" data-name="Trazado 997359" d="M260.4,278.346h-.576l-14.082-42.765h.578Z" transform="translate(98.679 115.732)" fill="#82a0af"/>
            <path id="Trazado_997360" data-name="Trazado 997360" d="M263.994,278.346h-.576l-14.058-42.765h.578Z" transform="translate(100.127 115.732)" fill="#82a0af"/>
            <path id="Trazado_997361" data-name="Trazado 997361" d="M267.588,278.346h-.577l-14.034-42.765h.58Z" transform="translate(101.574 115.732)" fill="#82a0af"/>
            <path id="Trazado_997362" data-name="Trazado 997362" d="M275.324,278.346h-.577l-13.984-42.765h.58Z" transform="translate(104.69 115.732)" fill="#82a0af"/>
            <path id="Trazado_997363" data-name="Trazado 997363" d="M278.918,278.346h-.576l-13.961-42.765h.58Z" transform="translate(106.137 115.732)" fill="#82a0af"/>
            <path id="Trazado_997364" data-name="Trazado 997364" d="M282.511,278.346h-.575L268,235.581h.578Z" transform="translate(107.585 115.732)" fill="#82a0af"/>
            <path id="Trazado_997365" data-name="Trazado 997365" d="M290.477,238.985H228.572l-.179-.539H290.3Z" transform="translate(91.735 117.135)" fill="#82a0af"/>
            <path id="Trazado_997366" data-name="Trazado 997366" d="M291.606,242.272H229.733l-.179-.539H291.43Z" transform="translate(92.2 118.745)" fill="#82a0af"/>
            <path id="Trazado_997367" data-name="Trazado 997367" d="M293.789,248.634H231.981l-.179-.539h61.813Z" transform="translate(93.1 121.861)" fill="#82a0af"/>
            <path id="Trazado_997368" data-name="Trazado 997368" d="M294.918,251.921H233.142l-.179-.539h61.78Z" transform="translate(93.564 123.47)" fill="#82a0af"/>
            <path id="Trazado_997369" data-name="Trazado 997369" d="M297.1,258.283H235.39l-.179-.539h61.716Z" transform="translate(94.464 126.586)" fill="#82a0af"/>
            <path id="Trazado_997370" data-name="Trazado 997370" d="M298.23,261.57H236.55l-.178-.539h61.682Z" transform="translate(94.929 128.196)" fill="#82a0af"/>
            <path id="Trazado_997371" data-name="Trazado 997371" d="M290.281,235.28H225.83l.028.074.294.894,1.148,3.471.182.536,1.442,4.35.182.536,1.288,3.873.14.447.154.447,1.176,3.531,1.512,4.544,6.959,20.961h64.143Zm-47.746,42.771-1.288-3.873-.182-.536-1.442-4.35-.182-.551-1.148-3.456L238,264.39l-1.526-4.588-.168-.536-.434-1.3-1.022-3.054-.168-.536-.322-.953-1.162-3.516-.028-.075-.126-.372-.14-.447-.028-.074-1.176-3.516-.084-.283-.084-.253-.1-.283-1.344-4.067-.1-.283L229.9,240l-.1-.283-1.148-3.471-.028-.074h60.978L290.855,240l.168.536,1.414,4.35.182.536,1.148,3.516.28.894,1.484,4.544.168.536,1.428,4.35.168.536,1.5,4.588.28.894,1.134,3.456.168.551,1.428,4.35.168.536,1.26,3.873Z" transform="translate(90.71 115.585)" fill="#b7d4e2"/>
            <path id="Trazado_997372" data-name="Trazado 997372" d="M256.438,278.346h-.961l-14.11-42.765h.965Z" transform="translate(96.928 115.732)" fill="#b7d4e2"/>
            <path id="Trazado_997373" data-name="Trazado 997373" d="M271.908,278.346h-.961L256.94,235.581h.965Z" transform="translate(103.16 115.732)" fill="#b7d4e2"/>
            <path id="Trazado_997374" data-name="Trazado 997374" d="M296.215,255.718h-61.74l-.3-.9h61.745Z" transform="translate(94.05 125.154)" fill="#b7d4e2"/>
            <path id="Trazado_997375" data-name="Trazado 997375" d="M292.654,245.345H230.811l-.3-.9h61.849Z" transform="translate(92.584 120.074)" fill="#b7d4e2"/>
            <path id="Trazado_997376" data-name="Trazado 997376" d="M150.534,327.49H0V254.94c2.324-2.011,4.3-4.469,6.665-6.406a23.076,23.076,0,0,1,11.762-4.6c4.215-.4,8.849,1.117,11.173,4.886,1.806,2.92,2.31,7.121,5.293,8.6,2.73,1.341,5.825-.492,8.723-1.4a12.4,12.4,0,0,1,9.479.73,10.817,10.817,0,0,1,5.559,8.015c.2,1.549.028,3.143.266,4.708a8.315,8.315,0,0,0,7.659,6.972c2.478.045,4.817-1.147,7.155-2.011s5.069-1.356,7.225-.03c3.739,2.309,3.893,8.909,7.939,10.533,2.828,1.132,5.811-.879,8.429-2.5,4.747-2.95,11.482-2.145,15.7,1.52,2.7,2.354,3.024,4.395,3.206,7.776s1.344,7.33,4.369,8.968c2.786,1.52,6.133.566,9.255.655a11.52,11.52,0,0,1,7.463,2.845,9.635,9.635,0,0,1,3.136,7.583c-.112,1.639-.686,3.218-.672,4.857.056,4.231,3.865,7.181,7.421,9.058,1.092.581,2.24,1.162,3.332,1.8" transform="translate(0.336 119.791)" fill="#7f823d"/>
          </g>
        </g>
      </g>
    </g>
  </g>
</svg>
