<svg xmlns="http://www.w3.org/2000/svg" xmlns:xlink="http://www.w3.org/1999/xlink" width="60" height="60" viewBox="0 0 60 60">
  <defs>
    <clipPath id="clip-path">
      <rect id="Rectángulo_403318" data-name="Rectángulo 403318" width="47" height="47" transform="translate(186.668 5528)" fill="#ffac04" stroke="#ffac04" stroke-width="1"/>
    </clipPath>
  </defs>
  <g id="Grupo_1179598" data-name="Grupo 1179598" transform="translate(-704.925 -446)">
    <g id="Grupo_1102231" data-name="Grupo 1102231" transform="translate(525.257 -5075)">
      <rect id="Rectángulo_402006" data-name="Rectángulo 402006" width="60" height="60" rx="10" transform="translate(179.668 5521)" fill="#6c4826"/>
      <g id="Enmascarar_grupo_1098764" data-name="Enmascarar grupo 1098764" clip-path="url(#clip-path)">
        <g id="sostenible_1_" data-name="sostenible (1)" transform="translate(186.668 5528)">
          <path id="Trazado_877822" data-name="Trazado 877822" d="M36.664,22.028a13.384,13.384,0,0,1,.081,1.472,13.245,13.245,0,1,1-26.362-1.84" fill="none" stroke="#ffac04" stroke-miterlimit="10" stroke-width="1.38"/>
          <path id="Trazado_877823" data-name="Trazado 877823" d="M12.831,15.651a13.247,13.247,0,0,1,21.339,0" fill="none" stroke="#ffac04" stroke-miterlimit="10" stroke-width="1.38"/>
          <path id="Trazado_877824" data-name="Trazado 877824" d="M42.631,23.5a19.082,19.082,0,0,0-1.285-6.9l3.38-1.951-2.943-5.1L38.4,11.5A19.111,19.111,0,0,0,26.443,4.594V.69H20.557v3.9A19.111,19.111,0,0,0,8.6,11.5L5.217,9.546l-2.943,5.1L5.654,16.6a19.191,19.191,0,0,0,0,13.81l-3.38,1.951,2.943,5.1L8.6,35.5a19.112,19.112,0,0,0,11.955,6.906v3.9h5.886v-3.9A19.112,19.112,0,0,0,38.4,35.5l3.384,1.954,2.943-5.1L41.346,30.4A19.081,19.081,0,0,0,42.631,23.5Z" fill="none" stroke="#ffac04" stroke-miterlimit="10" stroke-width="1.38"/>
          <path id="Trazado_877825" data-name="Trazado 877825" d="M27.179,26.443A11.766,11.766,0,0,1,38.952,14.67,11.766,11.766,0,0,1,27.179,26.443" fill="none" stroke="#ffac04" stroke-miterlimit="10" stroke-width="1.38"/>
          <line id="Línea_4318" data-name="Línea 4318" y1="7.358" transform="translate(23.5 29.386)" fill="none" stroke="#ffac04" stroke-miterlimit="10" stroke-width="1.38"/>
          <line id="Línea_4319" data-name="Línea 4319" x1="10.301" y2="10.301" transform="translate(23.5 19.821)" fill="none" stroke="#ffac04" stroke-miterlimit="10" stroke-width="1.38"/>
          <line id="Línea_4320" data-name="Línea 4320" x2="10.301" y2="10.301" transform="translate(13.199 19.821)" fill="none" stroke="#ffac04" stroke-miterlimit="10" stroke-width="1.38"/>
          <path id="Trazado_877826" data-name="Trazado 877826" d="M16.568,18.313a11.733,11.733,0,0,1,3.253,8.13A11.766,11.766,0,0,1,8.048,14.67a11.722,11.722,0,0,1,7.509,2.7" fill="none" stroke="#ffac04" stroke-miterlimit="10" stroke-width="1.38"/>
          <g id="Grupo_1102062" data-name="Grupo 1102062">
            <line id="Línea_4321" data-name="Línea 4321" x2="1.38" transform="translate(24.19 20.557)" fill="none" stroke="#ffac04" stroke-miterlimit="10" stroke-width="1.38"/>
            <line id="Línea_4322" data-name="Línea 4322" x2="1.38" transform="translate(21.431 20.557)" fill="none" stroke="#ffac04" stroke-miterlimit="10" stroke-width="1.38"/>
          </g>
        </g>
      </g>
    </g>
  </g>
</svg>
