<svg xmlns="http://www.w3.org/2000/svg" width="90" height="90" viewBox="0 0 90 90">
  <g id="Grupo_1179597" data-name="Grupo 1179597" transform="translate(-333.782 -10050.881)">
    <g id="Grupo_1102703" data-name="Grupo 1102703" transform="translate(154.114 9308.881)">
      <rect id="Rectángulo_402006" data-name="Rectángulo 402006" width="90" height="90" rx="10" transform="translate(179.668 742)" fill="#6c4826"/>
      <g id="Grupo_1179209" data-name="Grupo 1179209" transform="translate(190.9 747.457)">
        <path id="Trazado_998281" data-name="Trazado 998281" d="M191.454,165.531a1.184,1.184,0,0,0-.426-.015,2.828,2.828,0,0,1-2.5-2.8,1.244,1.244,0,0,0-2.488,0,5.322,5.322,0,0,0,3.913,5.124v1.244a1.244,1.244,0,1,0,2.488,0v-1.169a5.312,5.312,0,0,0-1.088-10.511,2.824,2.824,0,1,1,2.824-2.824,1.244,1.244,0,0,0,2.488,0,5.322,5.322,0,0,0-4.224-5.2v-1.132a1.244,1.244,0,1,0-2.488,0v1.208a5.312,5.312,0,0,0,1.4,10.436,2.823,2.823,0,0,1,.1,5.643Zm0,0" transform="translate(-156.806 -124.142)" fill="#ffac04"/>
        <path id="Trazado_998282" data-name="Trazado 998282" d="M104.2,124.531a18.039,18.039,0,1,0,18.039-18.039A18.039,18.039,0,0,0,104.2,124.531Zm18.039-15.551a15.551,15.551,0,1,1-15.551,15.551A15.551,15.551,0,0,1,122.234,108.98Zm0,0" transform="translate(-87.689 -89.933)" fill="#ffac04"/>
        <path id="Trazado_998283" data-name="Trazado 998283" d="M58.716,331.313l-9.745,4.6a7.937,7.937,0,0,0-6.767-4.175l-9-.247a9.5,9.5,0,0,1-4.088-1.056l-.915-.474a16.146,16.146,0,0,0-14.955.016l.057-2.074a1.244,1.244,0,0,0-1.209-1.278l-9.864-.271a1.243,1.243,0,0,0-1.277,1.209l-.6,21.647a1.244,1.244,0,0,0,1.209,1.278l9.864.271h.034a1.244,1.244,0,0,0,1.244-1.21l.029-1.036,2.563-1.372a4.4,4.4,0,0,1,3.281-.359l15.3,4.295c.027.008.053.014.081.02a16.382,16.382,0,0,0,3.363.347,16.6,16.6,0,0,0,6.934-1.513,1.154,1.154,0,0,0,.154-.085L66.607,335.5a1.245,1.245,0,0,0,.408-1.657A6.284,6.284,0,0,0,58.716,331.313ZM2.882,348.038l.527-19.16,7.377.2-.527,19.161Zm40.262-.326a14.1,14.1,0,0,1-8.625.963l-15.262-4.284a6.878,6.878,0,0,0-5.128.561l-1.31.7.35-12.739a13.674,13.674,0,0,1,13.891-.741l.915.474a12.015,12.015,0,0,0,5.164,1.334l9,.247a5.456,5.456,0,0,1,5.185,4.348l-13.4-.37a1.244,1.244,0,0,0-.069,2.487l14.788.407h.035a1.244,1.244,0,0,0,1.243-1.21,7.9,7.9,0,0,0-.12-1.614l9.995-4.723.029-.014a3.8,3.8,0,0,1,4.3.6Zm0,0" transform="translate(0 -275.609)" fill="#ffac04"/>
        <path id="Trazado_998284" data-name="Trazado 998284" d="M214.691,13.062V1.244a1.244,1.244,0,1,0-2.488,0V13.062a1.244,1.244,0,1,0,2.488,0Zm0,0" transform="translate(-178.902)" fill="#ffac04"/>
        <path id="Trazado_998285" data-name="Trazado 998285" d="M274.691,46.842v-5.6a1.244,1.244,0,0,0-2.488,0v5.6a1.244,1.244,0,0,0,2.488,0Zm0,0" transform="translate(-229.572 -33.78)" fill="#ffac04"/>
        <path id="Trazado_998286" data-name="Trazado 998286" d="M154.691,46.842v-5.6a1.244,1.244,0,0,0-2.488,0v5.6a1.244,1.244,0,0,0,2.488,0Zm0,0" transform="translate(-128.232 -33.78)" fill="#ffac04"/>
      </g>
    </g>
  </g>
</svg>
