<svg xmlns="http://www.w3.org/2000/svg" width="90" height="90" viewBox="0 0 90 90">
  <g id="Grupo_1179598" data-name="Grupo 1179598" transform="translate(-753.782 -10050.881)">
    <g id="Grupo_1102704" data-name="Grupo 1102704" transform="translate(574.114 9308.881)">
      <rect id="Rectángulo_402006" data-name="Rectángulo 402006" width="90" height="90" rx="10" transform="translate(179.668 742)" fill="#6c4826"/>
      <path id="Trazado_998287" data-name="Trazado 998287" d="M24.133,40.991a4.558,4.558,0,0,1,3.83-4.339l-.028-1.19a1,1,0,0,1,2-.048l.03,1.263a5.566,5.566,0,0,1,3.264,1.915,1,1,0,0,1-1.675,1.1,4.181,4.181,0,0,0-2.575-1.136,2.666,2.666,0,0,0-2.844,2.433,2.666,2.666,0,0,0,2.844,2.433,4.662,4.662,0,0,1,4.849,4.437A4.558,4.558,0,0,1,30,52.2l.026,1.064a1,1,0,0,1-.978,1.026h-.025a1,1,0,0,1-1-.978L28,52.215a5.521,5.521,0,0,1-2.923-1.667,1,1,0,1,1,1.375-1.458,3.251,3.251,0,0,0,2.531,1.2,2.463,2.463,0,1,0,0-4.866,4.662,4.662,0,0,1-4.849-4.437Zm55.592,3.372A19.976,19.976,0,0,1,44.367,57.114a20.059,20.059,0,0,1-15.385,7.232A19.822,19.822,0,0,1,21.8,63.018v8.559h2.292a1,1,0,0,1,.659,1.757L17.706,79.48a1,1,0,0,1-1.317,0L9.342,73.334A1,1,0,0,1,10,71.577h2.292V55.352A19.982,19.982,0,0,1,44.367,31.611a19.986,19.986,0,0,1,22.554-5.9V17.149H64.629a1,1,0,0,1-.659-1.757l7.047-6.145a1,1,0,0,1,1.317,0l7.047,6.145a1,1,0,0,1-.659,1.757H76.431V33.374a19.877,19.877,0,0,1,3.294,10.989ZM67.3,15.145h.62a1,1,0,0,1,1,1v17.2h5.5v-17.2a1,1,0,0,1,1-1h.62l-4.373-3.814ZM21.421,73.581H20.8a1,1,0,0,1-1-1v-17.2H14.3v17.2a1,1,0,0,1-1,1h-.62l4.373,3.814ZM43.129,55.458a20,20,0,0,1-1.446-2.543,15.332,15.332,0,0,1-17.165,6.1,1,1,0,1,1,.584-1.917,13.326,13.326,0,0,0,15.647-6.515,19.989,19.989,0,0,1,0-12.431A13.308,13.308,0,0,0,16.9,49.951a1,1,0,1,1-1.818.843,15.314,15.314,0,0,1,22.1-19.36,15.362,15.362,0,0,1,4.5,4.377,20,20,0,0,1,1.446-2.543A17.981,17.981,0,0,0,13.424,53.379H20.8a1,1,0,0,1,1,1v6.47a17.816,17.816,0,0,0,7.179,1.491,18.047,18.047,0,0,0,14.147-6.885ZM77.721,44.363A17.885,17.885,0,0,0,75.3,35.347H67.923a1,1,0,0,1-1-1v-6.47a17.815,17.815,0,0,0-7.179-1.491,17.979,17.979,0,1,0,17.979,17.98Zm-4.082-6.431a1,1,0,0,0-1.819.843,13.288,13.288,0,1,1-8.2-7.143,1,1,0,1,0,.584-1.917,15.3,15.3,0,1,0,9.433,8.218Zm-9.048,9.929a4.662,4.662,0,0,0-4.849-4.437A2.666,2.666,0,0,1,56.9,40.991a2.666,2.666,0,0,1,2.844-2.433,4.181,4.181,0,0,1,2.575,1.136,1,1,0,1,0,1.675-1.1,5.566,5.566,0,0,0-3.264-1.915l-.03-1.263a1,1,0,0,0-2,.048l.028,1.19a4.558,4.558,0,0,0-3.83,4.339,4.662,4.662,0,0,0,4.849,4.437,2.463,2.463,0,1,1,0,4.866,3.251,3.251,0,0,1-2.531-1.2,1,1,0,1,0-1.376,1.458,5.52,5.52,0,0,0,2.923,1.667l.026,1.1a1,1,0,0,0,1,.978h.025a1,1,0,0,0,.978-1.026L60.763,52.2a4.558,4.558,0,0,0,3.827-4.338Z" transform="translate(180.306 742.637)" fill="#ffac04"/>
    </g>
  </g>
</svg>
