<svg xmlns="http://www.w3.org/2000/svg" width="90" height="90" viewBox="0 0 90 90">
  <g id="Grupo_1179599" data-name="Grupo 1179599" transform="translate(-1173.782 -10050.881)">
    <g id="Grupo_1102705" data-name="Grupo 1102705" transform="translate(994.114 9308.881)">
      <rect id="Rectángulo_402006" data-name="Rectángulo 402006" width="90" height="90" rx="10" transform="translate(179.668 742)" fill="#6c4826"/>
      <g id="Grupo_1179210" data-name="Grupo 1179210" transform="translate(194.394 756.726)">
        <path id="Trazado_998288" data-name="Trazado 998288" d="M47.277,14.055A10.05,10.05,0,0,0,32.514,5.918,14.774,14.774,0,0,0,6.945,20.2a12.546,12.546,0,0,0-4.439,3.663A12.3,12.3,0,0,0,0,31.338,12.431,12.431,0,0,0,12.417,43.755,12.275,12.275,0,0,0,20.1,41.083a12.392,12.392,0,0,0,15.932-.47,14.87,14.87,0,0,0,9.494,3.378,15.019,15.019,0,0,0,1.748-29.936ZM45.519,40.444a11.374,11.374,0,0,1-8.271-3.534A1.774,1.774,0,0,0,34.6,37a8.844,8.844,0,0,1-13.218.458,1.774,1.774,0,0,0-2.564,0,8.789,8.789,0,0,1-6.4,2.747A8.868,8.868,0,0,1,9.866,22.846,1.774,1.774,0,0,0,10.9,20.277,11.228,11.228,0,0,1,30.466,9.252l.05.088a1.689,1.689,0,0,0,2.539.473h0a6.647,6.647,0,0,1,4-1.532,6.511,6.511,0,0,1,6.7,6.5,6,6,0,0,1-.05.731,1.774,1.774,0,0,0,1.77,1.99h.057a11.471,11.471,0,1,1-.014,22.942Z" transform="translate(0 0)" fill="#ffac04"/>
        <path id="Trazado_998289" data-name="Trazado 998289" d="M362.7,210.759c-.426.005-.868.01-1.3.013.356-.489.779-1.08,1.278-1.792a6.62,6.62,0,0,0,1.092-2.276,4.576,4.576,0,0,0,.078-.648,3.556,3.556,0,0,0-7.045-.688,1.478,1.478,0,1,0,2.9.57.6.6,0,0,1,1.184.052l-.014.106a4.009,4.009,0,0,1-.619,1.189c-1.279,1.828-2.042,2.827-2.452,3.363-.531.7-.915,1.2-.674,1.983a1.529,1.529,0,0,0,.98,1,6.22,6.22,0,0,0,1.956.11c.633,0,1.491-.007,2.667-.022a1.478,1.478,0,1,0-.037-2.956Z" transform="translate(-314.589 -178.553)" fill="#ffac04"/>
        <path id="Trazado_998290" data-name="Trazado 998290" d="M236.891,122.5a7.391,7.391,0,1,0,7.391,7.391A7.4,7.4,0,0,0,236.891,122.5Zm0,11.826a4.435,4.435,0,1,1,4.435-4.435A4.44,4.44,0,0,1,236.891,134.326Z" transform="translate(-202.36 -108.014)" fill="#ffac04"/>
        <path id="Trazado_998291" data-name="Trazado 998291" d="M128.567,133a1.478,1.478,0,0,0-2.082.183,3.18,3.18,0,0,1-2.592,1.141,4.435,4.435,0,1,1,2.478-8.113,1.478,1.478,0,0,0,2.052-.4h0a1.478,1.478,0,0,0-.4-2.052,7.391,7.391,0,1,0-4.134,13.519,6.131,6.131,0,0,0,4.858-2.2,1.478,1.478,0,0,0-.183-2.082Z" transform="translate(-102.724 -108.015)" fill="#ffac04"/>
        <path id="Trazado_998292" data-name="Trazado 998292" d="M221.123,408.432a1.774,1.774,0,0,0-2.509,0l-.52.519v-5.178a1.774,1.774,0,0,0-3.548,0v5.178l-.52-.52a1.774,1.774,0,1,0-2.509,2.509l3.548,3.548a1.774,1.774,0,0,0,2.509,0l3.548-3.548A1.774,1.774,0,0,0,221.123,408.432Z" transform="translate(-186.047 -354.461)" fill="#ffac04"/>
        <path id="Trazado_998293" data-name="Trazado 998293" d="M361.123,408.432a1.774,1.774,0,0,0-2.509,0l-.52.519v-5.178a1.774,1.774,0,0,0-3.548,0v5.178l-.52-.52a1.774,1.774,0,0,0-2.509,2.509l3.548,3.548a1.774,1.774,0,0,0,2.509,0l3.548-3.548A1.774,1.774,0,0,0,361.123,408.432Z" transform="translate(-309.491 -354.461)" fill="#ffac04"/>
        <path id="Trazado_998294" data-name="Trazado 998294" d="M81.123,408.432a1.774,1.774,0,0,0-2.509,0l-.52.519v-5.178a1.774,1.774,0,0,0-3.548,0v5.178l-.52-.52a1.774,1.774,0,0,0-2.509,2.509l3.548,3.548a1.774,1.774,0,0,0,2.509,0l3.548-3.548A1.773,1.773,0,0,0,81.123,408.432Z" transform="translate(-62.603 -354.461)" fill="#ffac04"/>
      </g>
    </g>
  </g>
</svg>
