<svg xmlns="http://www.w3.org/2000/svg" width="60" height="60" viewBox="0 0 60 60">
  <g id="Grupo_1179597" data-name="Grupo 1179597" transform="translate(-704.711 -986)">
    <g id="Grupo_1102231" data-name="Grupo 1102231" transform="translate(525.043 -4535)">
      <rect id="Rectángulo_402006" data-name="Rectángulo 402006" width="60" height="60" rx="10" transform="translate(179.668 5521)" fill="#6c4826"/>
      <g id="_011---Completed-Task-List" data-name="011---Completed-Task-List" transform="translate(187.668 5528)">
        <path id="Shape" d="M35.149,22.368a12.7,12.7,0,0,0-1.6.111V7.054a2.4,2.4,0,0,0-.2-.959c-.008-.019-.02-.035-.029-.053a2.4,2.4,0,0,0-.474-.688L28.2.705a2.4,2.4,0,0,0-.69-.474C27.491.223,27.475.211,27.456.2A2.4,2.4,0,0,0,26.5,0H3.2A3.2,3.2,0,0,0,0,3.2v34.35a3.2,3.2,0,0,0,3.2,3.2H23.674A12.774,12.774,0,1,0,35.149,22.368ZM30.824,5.592H29.557a1.6,1.6,0,0,1-1.6-1.6V2.727ZM3.2,39.143a1.6,1.6,0,0,1-1.6-1.6V3.2A1.6,1.6,0,0,1,3.2,1.6H26.362v2.4a3.2,3.2,0,0,0,3.2,3.2h2.4v15.6a12.74,12.74,0,0,0-8.938,16.355Zm31.954,7.19A11.184,11.184,0,1,1,46.333,35.149,11.184,11.184,0,0,1,35.149,46.333Z" fill="#ffac04"/>
        <path id="Shape-2" data-name="Shape" d="M15.619,5.232,14.095,6.755A2.385,2.385,0,0,0,12.19,5.8H7.4A2.4,2.4,0,0,0,5,8.193v4.793a2.4,2.4,0,0,0,2.4,2.4H12.19a2.4,2.4,0,0,0,2.4-2.4V8.524l2.162-2.162a.8.8,0,1,0-1.13-1.13Zm-2.631,7.754a.8.8,0,0,1-.8.8H7.4a.8.8,0,0,1-.8-.8V8.193a.8.8,0,0,1,.8-.8H12.19a.794.794,0,0,1,.743.524l-2.341,2.341L9.559,9.226a.8.8,0,0,0-1.13,1.13l1.6,1.6a.8.8,0,0,0,1.13,0l1.832-1.832Z" transform="translate(-1.006 -1.003)" fill="#ffac04"/>
        <path id="Shape-3" data-name="Shape" d="M15.619,19.237,14.095,20.76A2.385,2.385,0,0,0,12.19,19.8H7.4A2.4,2.4,0,0,0,5,22.2v4.793a2.4,2.4,0,0,0,2.4,2.4H12.19a2.4,2.4,0,0,0,2.4-2.4V22.529l2.162-2.162a.8.8,0,0,0-1.13-1.13Zm-2.631,7.754a.8.8,0,0,1-.8.8H7.4a.8.8,0,0,1-.8-.8V22.2a.8.8,0,0,1,.8-.8H12.19a.794.794,0,0,1,.743.524l-2.341,2.341L9.559,23.231a.8.8,0,0,0-1.13,1.13l1.6,1.6a.8.8,0,0,0,1.13,0l1.832-1.832Z" transform="translate(-1.006 -3.824)" fill="#ffac04"/>
        <path id="Shape-4" data-name="Shape" d="M15.619,33.237,14.095,34.76A2.385,2.385,0,0,0,12.19,33.8H7.4A2.4,2.4,0,0,0,5,36.2v4.793a2.4,2.4,0,0,0,2.4,2.4H12.19a2.4,2.4,0,0,0,2.4-2.4V36.529l2.162-2.162a.8.8,0,0,0-1.13-1.13Zm-2.631,7.754a.8.8,0,0,1-.8.8H7.4a.8.8,0,0,1-.8-.8V36.2a.8.8,0,0,1,.8-.8H12.19a.794.794,0,0,1,.743.524l-2.341,2.341L9.559,37.231a.8.8,0,0,0-1.13,1.13l1.6,1.6a.8.8,0,0,0,1.13,0l1.832-1.832Z" transform="translate(-1.006 -6.641)" fill="#ffac04"/>
        <path id="Path" d="M47.82,36.127a.8.8,0,0,0-1.1.24L40.062,46.717l-1.7-1.7a.8.8,0,0,0-1.13,1.13l2.4,2.4a.8.8,0,0,0,.565.234.752.752,0,0,0,.085,0,.8.8,0,0,0,.587-.362l7.19-11.184a.8.8,0,0,0-.24-1.1Z" transform="translate(-7.445 -7.242)" fill="#ffac04"/>
        <path id="Path-2" data-name="Path" d="M22.8,9.6h5.592a.8.8,0,0,0,0-1.6H22.8a.8.8,0,1,0,0,1.6Z" transform="translate(-4.425 -1.609)" fill="#ffac04"/>
        <path id="Path-3" data-name="Path" d="M22.8,14.6h4.793a.8.8,0,1,0,0-1.6H22.8a.8.8,0,1,0,0,1.6Z" transform="translate(-4.425 -2.615)" fill="#ffac04"/>
        <path id="Path-4" data-name="Path" d="M22.8,23.6H33.184a.8.8,0,0,0,0-1.6H22.8a.8.8,0,1,0,0,1.6Z" transform="translate(-4.425 -4.425)" fill="#ffac04"/>
        <path id="Path-5" data-name="Path" d="M22.8,28.6h4.793a.8.8,0,1,0,0-1.6H22.8a.8.8,0,1,0,0,1.6Z" transform="translate(-4.425 -5.431)" fill="#ffac04"/>
        <path id="Path-6" data-name="Path" d="M25.2,36H22.8a.8.8,0,1,0,0,1.6h2.4a.8.8,0,1,0,0-1.6Z" transform="translate(-4.425 -7.242)" fill="#ffac04"/>
        <path id="Path-7" data-name="Path" d="M24.4,41H22.8a.8.8,0,1,0,0,1.6h1.6a.8.8,0,1,0,0-1.6Z" transform="translate(-4.425 -8.248)" fill="#ffac04"/>
      </g>
    </g>
  </g>
</svg>
