<svg xmlns="http://www.w3.org/2000/svg" width="85" height="85" viewBox="0 0 85 85">
  <g id="Grupo_1179600" data-name="Grupo 1179600" transform="translate(-600.02 -939.287)">
    <g id="Grupo_1102710" data-name="Grupo 1102710" transform="translate(420.352 -4581.713)">
      <rect id="Rectángulo_402006" data-name="Rectángulo 402006" width="85" height="85" rx="10" transform="translate(179.668 5521)" fill="#6c4826"/>
      <g id="Grupo_1179227" data-name="Grupo 1179227" transform="translate(190.142 5531.474)">
        <g id="Grupo_1179214" data-name="Grupo 1179214" transform="translate(0 0)">
          <g id="Grupo_1179213" data-name="Grupo 1179213" transform="translate(0 0)">
            <path id="Trazado_998301" data-name="Trazado 998301" d="M62.985,0H1.068A1.067,1.067,0,0,0,0,1.067H0V22.418H2.135V2.135H61.917V25.621H24.553v2.135H62.985a1.067,1.067,0,0,0,1.068-1.067h0V1.068A1.067,1.067,0,0,0,62.985,0Z" transform="translate(0 0)" fill="#ffac04"/>
          </g>
        </g>
        <g id="Grupo_1179216" data-name="Grupo 1179216" transform="translate(35.38 5.195)">
          <g id="Grupo_1179215" data-name="Grupo 1179215" transform="translate(0 0)">
            <rect id="Rectángulo_455557" data-name="Rectángulo 455557" width="20.962" height="2.515" fill="#ffac04"/>
          </g>
        </g>
        <g id="Grupo_1179218" data-name="Grupo 1179218" transform="translate(38.734 11.903)">
          <g id="Grupo_1179217" data-name="Grupo 1179217" transform="translate(0 0)">
            <rect id="Rectángulo_455558" data-name="Rectángulo 455558" width="20.962" height="1.677" fill="#ffac04"/>
          </g>
        </g>
        <g id="Grupo_1179220" data-name="Grupo 1179220" transform="translate(34.542 17.772)">
          <g id="Grupo_1179219" data-name="Grupo 1179219" transform="translate(0 0)">
            <rect id="Rectángulo_455559" data-name="Rectángulo 455559" width="20.962" height="2.515" fill="#ffac04"/>
          </g>
        </g>
        <g id="Grupo_1179222" data-name="Grupo 1179222" transform="translate(0 4.27)">
          <g id="Grupo_1179221" data-name="Grupo 1179221" transform="translate(0)">
            <path id="Trazado_998302" data-name="Trazado 998302" d="M34.076,36.934a3.445,3.445,0,0,0-4.5-1.858l-.09.039-8.656,4.49a5.279,5.279,0,0,0,.524-2.268,5.338,5.338,0,1,0-9.58,3.2h-.044A7.326,7.326,0,0,0,4.921,45.28L2.071,55.1a3.419,3.419,0,1,0,6.42,2.352L9.608,53.9v15.45A5.322,5.322,0,0,0,2.68,77.406,4.918,4.918,0,0,0,0,81.769v8.946a1.067,1.067,0,0,0,1.067,1.068H11.743a1.067,1.067,0,0,0,1.068-1.067h0V81.769A4.907,4.907,0,0,0,10.905,77.9h8.08a4.906,4.906,0,0,0-1.905,3.865v8.946a1.067,1.067,0,0,0,1.067,1.068H28.824a1.067,1.067,0,0,0,1.068-1.067h0V81.769a4.918,4.918,0,0,0-2.68-4.362,5.333,5.333,0,0,0-4.792-9.042V46.526l9.8-5.089A3.445,3.445,0,0,0,34.076,36.934Zm-18.063-2.8a3.2,3.2,0,1,1-3.2,3.2A3.2,3.2,0,0,1,16.013,34.135ZM6.405,70.392a3.2,3.2,0,1,1-3.2,3.2A3.2,3.2,0,0,1,6.405,70.392Zm4.27,19.255H2.135V81.769a2.8,2.8,0,0,1,2.8-2.8H7.878a2.8,2.8,0,0,1,2.8,2.8Zm17.081-7.878v7.878h-8.54V81.769a2.8,2.8,0,0,1,2.8-2.8h2.945A2.8,2.8,0,0,1,27.756,81.769Zm-4.27-11.377a3.2,3.2,0,1,1-3.2,3.2A3.206,3.206,0,0,1,23.486,70.392Zm8.637-31.677a1.373,1.373,0,0,1-.806.79L20.859,44.93a1.068,1.068,0,0,0-.576.948V69.352a5.266,5.266,0,0,0-1.661,6.417H17.081V57.621H14.946V75.769H11.269a5.288,5.288,0,0,0,.47-2.135h0V46.946a1.068,1.068,0,0,0-2.086-.32L6.469,56.769a1.284,1.284,0,0,1-1.781.71,1.31,1.31,0,0,1-.6-1.7l2.85-9.823a5.158,5.158,0,0,1,4.784-3.286h7.559a1.063,1.063,0,0,0,.492-.12l10.61-5.508a1.314,1.314,0,0,1,1.68.622A1.3,1.3,0,0,1,32.123,38.715Z" transform="translate(0 -32)" fill="#ffac04"/>
          </g>
        </g>
        <g id="Grupo_1179224" data-name="Grupo 1179224" transform="translate(34.161 40.516)">
          <g id="Grupo_1179223" data-name="Grupo 1179223">
            <path id="Trazado_998303" data-name="Trazado 998303" d="M266.13,312.779a5.338,5.338,0,1,0-7.548-.1l.1.1a4.918,4.918,0,0,0-2.68,4.362v8.946a1.067,1.067,0,0,0,1.067,1.068h10.676a1.067,1.067,0,0,0,1.068-1.067h0v-8.946A4.918,4.918,0,0,0,266.13,312.779Zm-3.725-7.014a3.2,3.2,0,1,1-3.2,3.2A3.2,3.2,0,0,1,262.405,305.765Zm4.27,19.255h-8.54v-7.878a2.8,2.8,0,0,1,2.8-2.8h2.945a2.8,2.8,0,0,1,2.8,2.8Z" transform="translate(-256 -303.618)" fill="#ffac04"/>
          </g>
        </g>
        <g id="Grupo_1179226" data-name="Grupo 1179226" transform="translate(51.242 40.516)">
          <g id="Grupo_1179225" data-name="Grupo 1179225">
            <path id="Trazado_998304" data-name="Trazado 998304" d="M394.13,312.779a5.338,5.338,0,1,0-7.548-.1l.1.1a4.918,4.918,0,0,0-2.68,4.362v8.946a1.067,1.067,0,0,0,1.067,1.068h10.676a1.067,1.067,0,0,0,1.068-1.067h0v-8.946A4.918,4.918,0,0,0,394.13,312.779Zm-3.725-7.014a3.2,3.2,0,1,1-3.2,3.2A3.2,3.2,0,0,1,390.405,305.765Zm4.27,19.255h-8.54v-7.878a2.8,2.8,0,0,1,2.8-2.8h2.945a2.8,2.8,0,0,1,2.8,2.8Z" transform="translate(-384 -303.618)" fill="#ffac04"/>
          </g>
        </g>
      </g>
    </g>
  </g>
</svg>
