<svg xmlns="http://www.w3.org/2000/svg" width="60" height="60" viewBox="0 0 60 60">
  <g id="Grupo_1179594" data-name="Grupo 1179594" transform="translate(-624.52 -2090)">
    <g id="Grupo_1102242" data-name="Grupo 1102242" transform="translate(444.852 -3431)">
      <rect id="Rectángulo_402006" data-name="Rectángulo 402006" width="60" height="60" rx="10" transform="translate(179.668 5521)" fill="#6c4826"/>
      <path id="Trazado_997579" data-name="Trazado 997579" d="M43.408,3.43H26.328a1.584,1.584,0,0,0-1.582,1.583V16.867a1.584,1.584,0,0,0,1.582,1.583h3.142l-.489,3.723a.7.7,0,0,0,1.114.659l5.967-4.382h7.343a1.584,1.584,0,0,0,1.582-1.583V5.014a1.583,1.583,0,0,0-1.58-1.584Zm.173,13.437a.177.177,0,0,1-.173.176H35.833a.7.7,0,0,0-.417.136l-4.824,3.542.378-2.883a.7.7,0,0,0-.7-.8H26.327a.177.177,0,0,1-.173-.176V5.014a.177.177,0,0,1,.173-.176H43.407a.177.177,0,0,1,.173.176V16.867Zm-5.093-7.48H36.7V6.141a.7.7,0,0,0-1.242-.453l-4.753,5.65a.7.7,0,0,0,.539,1.157H33.03v3.246a.7.7,0,0,0,.462.661.7.7,0,0,0,.241.042.7.7,0,0,0,.539-.251l4.753-5.65a.7.7,0,0,0-.538-1.157ZM34.439,13.81V11.79a.7.7,0,0,0-.7-.7H32.76L35.3,8.071v2.02a.7.7,0,0,0,.7.7h.975ZM28.23,28.422a6.838,6.838,0,0,0-5.1,2.28c-.409-.155-.825-.3-1.231-.445-.789-.278-1.6-.564-2.321-.9a2.574,2.574,0,0,1-1.52-2.384v-.5a6.748,6.748,0,0,0,2.551-4.019h.827a2.246,2.246,0,0,0,2.242-2.245V18.252c0-.033,0-.067,0-.1h0c0-.45.01-.891.018-1.316a10.951,10.951,0,0,0-.52-4.691c-.663-1.427-1.991-2.193-4.171-2.4l.712-.971a1.3,1.3,0,0,0,.1-1.385,1.325,1.325,0,0,0-1.189-.7H12.764a9.671,9.671,0,0,0-5.99,1.959,6.973,6.973,0,0,0-2.719,5.569v6A2.247,2.247,0,0,0,6.3,22.455h.826A6.752,6.752,0,0,0,9.715,26.5v.469a2.575,2.575,0,0,1-1.52,2.385c-.713.332-1.524.617-2.307.893C3.114,31.227-.03,32.333-.03,36.076V46.524a1.32,1.32,0,0,0,1.32,1.317H26.483A1.319,1.319,0,0,0,27.8,46.524V42.112c.142.009.284.015.427.015a6.852,6.852,0,0,0,0-13.7ZM18.4,30.3l-.455,3.677-2.525-2.369,2.077-2.144A3.98,3.98,0,0,0,18.4,30.3Zm-4.261,2.036,1.693,1.589-.841,2.088h-2.2l-.842-2.087,1.7-1.589h.492Zm-3.174-4.195a4.122,4.122,0,0,0,.15-.841,6.694,6.694,0,0,0,2.611.527h.292a6.7,6.7,0,0,0,2.649-.543,4.137,4.137,0,0,0,.151.855l-2.7,2.788h-.453Zm11.311-7.931a.836.836,0,0,1-.833.836h-.689V17.416h.689a.836.836,0,0,1,.833.836Zm-15.285.836H6.3a.837.837,0,0,1-.836-.836V18.252a.837.837,0,0,1,.836-.836h.687Zm.183-5.039H6.3a2.241,2.241,0,0,0-.836.162V14.212c0-3.975,3.762-6.119,7.3-6.119h5.7l-.7.953a1.282,1.282,0,0,0-.122,1.341,1.336,1.336,0,0,0,1.1.747c3.3.277,3.59,1.683,3.55,5.047a2.219,2.219,0,0,0-.859-.171h-.871a2.61,2.61,0,0,0-2.423-1.65h-.5a1.827,1.827,0,0,1-1.073-.324l-.85-.571h0a3.288,3.288,0,0,0-3.708,0l-.85.57a1.837,1.837,0,0,1-1.073.326h-.5A2.605,2.605,0,0,0,7.17,16.009ZM8.4,21.094v-4.13a1.2,1.2,0,0,1,1.2-1.2h.5a3.248,3.248,0,0,0,1.854-.563l.852-.571a1.877,1.877,0,0,1,2.144,0l.851.571a3.249,3.249,0,0,0,1.855.562h.5a1.2,1.2,0,0,1,1.2,1.2v4.13a5.325,5.325,0,0,1-2.326,4.4.715.715,0,0,0-.085.056,5.293,5.293,0,0,1-2.915.872h-.292a5.3,5.3,0,0,1-2.869-.842.661.661,0,0,0-.111-.071A5.328,5.328,0,0,1,8.4,21.094Zm1.888,8.373,2.078,2.143-1.714,1.607-.035.033-.777.729L9.379,30.3A4,4,0,0,0,10.283,29.467ZM9.806,45.245l.147,1.189H7.144v-4.49a.7.7,0,1,0-1.408,0v4.49H1.379V36.077c0-2.747,2.306-3.558,4.977-4.5.558-.2,1.13-.4,1.684-.622L8.6,35.525a.7.7,0,0,0,1.18.427l1.06-.993.784,1.942-1.811,8.1a.7.7,0,0,0-.011.239Zm6.6,1.189H11.371l-.153-1.24,1.737-7.772h1.863l1.739,7.771Zm9.991,0H22.038v-4.49a.7.7,0,1,0-1.408,0v4.49H17.821l.148-1.188A.716.716,0,0,0,17.958,45l-1.813-8.1.783-1.946,1.059.993a.7.7,0,0,0,1.18-.427l.564-4.567c.559.226,1.136.43,1.7.629.28.1.563.2.844.3a6.845,6.845,0,0,0,4.116,9.989v4.557Zm1.836-5.715a5.444,5.444,0,1,1,5.444-5.444A5.45,5.45,0,0,1,28.23,40.719Zm3.584-5.444a.7.7,0,0,1-.7.7H28.933v2.18a.7.7,0,1,1-1.408,0v-2.18H25.346a.7.7,0,1,1,0-1.408h2.18V32.393a.7.7,0,1,1,1.408,0V34.57h2.177A.7.7,0,0,1,31.815,35.275Z" transform="translate(187.549 5525.623)" fill="#ffac04"/>
    </g>
  </g>
</svg>
