<svg xmlns="http://www.w3.org/2000/svg" width="105" height="105" viewBox="0 0 105 105">
  <g id="Grupo_1179594" data-name="Grupo 1179594" transform="translate(-179.998 -2546.527)">
    <g id="Grupo_1102251" data-name="Grupo 1102251" transform="translate(0.33 1804.527)">
      <rect id="Rectángulo_402006" data-name="Rectángulo 402006" width="105" height="105" rx="10" transform="translate(179.668 742)" fill="#6c4826"/>
      <g id="Grupo_1179108" data-name="Grupo 1179108" transform="translate(191.092 753.186)">
        <path id="Trazado_997580" data-name="Trazado 997580" d="M10.486,82.293H68.092a5.486,5.486,0,0,0,5.486-5.486V9.6a5.486,5.486,0,0,0-5.486-5.486H52.623a2.734,2.734,0,0,0-2.362-1.372H45.414a1.573,1.573,0,0,1-1.1-.549,6.858,6.858,0,0,0-10.051,0,1.573,1.573,0,0,1-1.1.549H28.317a2.734,2.734,0,0,0-2.362,1.372H10.486A5.486,5.486,0,0,0,5,9.6V76.807a5.486,5.486,0,0,0,5.486,5.486ZM28.317,5.485h4.847a4.239,4.239,0,0,0,3.115-1.429,4.2,4.2,0,0,1,6.021,0,4.239,4.239,0,0,0,3.115,1.429h4.847v5.486H28.317Zm21.945,8.229a2.734,2.734,0,0,0,2.362-1.372H65.349v61.72H13.229V12.343H25.955a2.734,2.734,0,0,0,2.362,1.372ZM7.743,9.6a2.743,2.743,0,0,1,2.743-2.743H25.573V9.6H13.229a2.743,2.743,0,0,0-2.743,2.743v61.72a2.743,2.743,0,0,0,2.743,2.743H65.349a2.743,2.743,0,0,0,2.743-2.743V12.343A2.743,2.743,0,0,0,65.349,9.6H53V6.857H68.092A2.743,2.743,0,0,1,70.835,9.6V76.807a2.743,2.743,0,0,1-2.743,2.743H10.486a2.743,2.743,0,0,1-2.743-2.743Z" transform="translate(0)" fill="#ffac04"/>
        <path id="Trazado_997581" data-name="Trazado 997581" d="M20.341,19.26A1.371,1.371,0,1,0,18.4,21.2l1.372,1.371a1.372,1.372,0,0,0,1.939,0l8.229-8.229A1.371,1.371,0,1,0,28,12.4l-7.26,7.26Z" transform="translate(4.83 4.458)" fill="#ffac04"/>
        <path id="Trazado_997582" data-name="Trazado 997582" d="M14,16.115v8.229a4.115,4.115,0,0,0,4.115,4.115h8.229a4.115,4.115,0,0,0,4.115-4.115V21.6a1.372,1.372,0,0,0-2.743,0v2.743a1.372,1.372,0,0,1-1.372,1.372H18.115a1.372,1.372,0,0,1-1.372-1.372V16.115a1.372,1.372,0,0,1,1.372-1.372H23.6A1.372,1.372,0,0,0,23.6,12H18.115A4.115,4.115,0,0,0,14,16.115Z" transform="translate(3.344 4.458)" fill="#ffac04"/>
        <path id="Trazado_997583" data-name="Trazado 997583" d="M28,26.4l-7.26,7.26-.4-.4A1.371,1.371,0,1,0,18.4,35.2l1.372,1.371a1.372,1.372,0,0,0,1.939,0l8.229-8.229A1.371,1.371,0,1,0,28,26.4Z" transform="translate(4.83 9.66)" fill="#ffac04"/>
        <path id="Trazado_997584" data-name="Trazado 997584" d="M18.115,42.459h8.229a4.115,4.115,0,0,0,4.115-4.115V35.6a1.372,1.372,0,1,0-2.743,0v2.743a1.372,1.372,0,0,1-1.372,1.372H18.115a1.372,1.372,0,0,1-1.372-1.372V30.115a1.372,1.372,0,0,1,1.372-1.372H23.6A1.372,1.372,0,1,0,23.6,26H18.115A4.115,4.115,0,0,0,14,30.115v8.229A4.115,4.115,0,0,0,18.115,42.459Z" transform="translate(3.344 9.66)" fill="#ffac04"/>
        <path id="Trazado_997585" data-name="Trazado 997585" d="M28,40.4l-7.26,7.26-.4-.4A1.371,1.371,0,1,0,18.4,49.2l1.372,1.371a1.372,1.372,0,0,0,1.939,0l8.229-8.229A1.371,1.371,0,1,0,28,40.4Z" transform="translate(4.83 14.862)" fill="#ffac04"/>
        <path id="Trazado_997586" data-name="Trazado 997586" d="M29.087,48.229A1.372,1.372,0,0,0,27.716,49.6v2.743a1.372,1.372,0,0,1-1.372,1.372H18.115a1.372,1.372,0,0,1-1.372-1.372V44.115a1.372,1.372,0,0,1,1.372-1.372H23.6A1.372,1.372,0,0,0,23.6,40H18.115A4.115,4.115,0,0,0,14,44.115v8.229a4.115,4.115,0,0,0,4.115,4.115h8.229a4.115,4.115,0,0,0,4.115-4.115V49.6A1.372,1.372,0,0,0,29.087,48.229Z" transform="translate(3.344 14.862)" fill="#ffac04"/>
        <path id="Trazado_997587" data-name="Trazado 997587" d="M31.372,17.743h4.115a1.372,1.372,0,0,0,0-2.743H31.372a1.372,1.372,0,0,0,0,2.743Z" transform="translate(9.289 5.573)" fill="#ffac04"/>
        <path id="Trazado_997588" data-name="Trazado 997588" d="M31.372,21.743h19.2a1.372,1.372,0,1,0,0-2.743h-19.2a1.372,1.372,0,1,0,0,2.743Z" transform="translate(9.289 7.059)" fill="#ffac04"/>
        <path id="Trazado_997589" data-name="Trazado 997589" d="M31.372,31.743h4.115a1.372,1.372,0,0,0,0-2.743H31.372a1.372,1.372,0,1,0,0,2.743Z" transform="translate(9.289 10.774)" fill="#ffac04"/>
        <path id="Trazado_997590" data-name="Trazado 997590" d="M31.372,35.743h19.2a1.372,1.372,0,1,0,0-2.743h-19.2a1.372,1.372,0,0,0,0,2.743Z" transform="translate(9.289 12.261)" fill="#ffac04"/>
        <path id="Trazado_997591" data-name="Trazado 997591" d="M31.372,45.743h4.115a1.372,1.372,0,0,0,0-2.743H31.372a1.372,1.372,0,1,0,0,2.743Z" transform="translate(9.289 15.976)" fill="#ffac04"/>
        <path id="Trazado_997592" data-name="Trazado 997592" d="M31.372,49.743h19.2a1.372,1.372,0,1,0,0-2.743h-19.2a1.372,1.372,0,1,0,0,2.743Z" transform="translate(9.289 17.463)" fill="#ffac04"/>
        <path id="Trazado_997593" data-name="Trazado 997593" d="M32.091,4h-2.72a1.372,1.372,0,1,0,0,2.743h2.317c1.193,0,1.8-.461,1.8-1.372A1.394,1.394,0,0,0,32.091,4Z" transform="translate(8.546 1.485)" fill="#ffac04"/>
      </g>
    </g>
  </g>
</svg>
