<svg xmlns="http://www.w3.org/2000/svg" width="105" height="105" viewBox="0 0 105 105">
  <g id="Grupo_1179595" data-name="Grupo 1179595" transform="translate(-816.998 -2546.527)">
    <g id="Grupo_1102252" data-name="Grupo 1102252" transform="translate(637.33 1804.527)">
      <rect id="Rectángulo_402006" data-name="Rectángulo 402006" width="105" height="105" rx="10" transform="translate(179.668 742)" fill="#6c4826"/>
      <path id="Trazado_997594" data-name="Trazado 997594" d="M78.439,70.822l.838-1.066A.547.547,0,0,0,79.2,69.1a1.049,1.049,0,0,1-.118-.1l-3.915-3.092a.541.541,0,0,0-.873.1l-.747.945ZM26.956,82.1a1.053,1.053,0,1,1,0-2.107h.224a1.053,1.053,0,1,1,0,2.107Zm0-8.107a1.053,1.053,0,1,1,0-2.107h.224a1.053,1.053,0,1,1,0,2.107Zm0-8.107a1.053,1.053,0,1,1,0-2.107h.224a1.053,1.053,0,1,1,0,2.107Zm34.4-.481,1.016-1.287a2.615,2.615,0,0,1,3.648-.429l17.349,13.7a2.615,2.615,0,0,1,.429,3.647l-1.61,2.038L60.762,66.153l.593-.751ZM65.917,52.29H31.763a.308.308,0,0,0-.3.3v1.149a.308.308,0,0,0,.3.3H65.917a.308.308,0,0,0,.3-.3V52.594A.308.308,0,0,0,65.917,52.29ZM33.951,50.183H63.729a14.87,14.87,0,0,0-6.706-12.121v4.585a1.053,1.053,0,1,1-2.107,0V34.22L53.051,34.2V45.077a1.053,1.053,0,1,1-2.107,0l0-14.479a.135.135,0,0,0-.093-.03H46.834l-.1.028v14.48a1.053,1.053,0,1,1-2.107,0V34.2l-1.866.016v8.428a1.053,1.053,0,0,1-2.107,0V38.063a14.87,14.87,0,0,0-6.706,12.121Zm-2.188,0h.08a17,17,0,0,1,8.813-14.569V34.145a2.139,2.139,0,0,1,2.2-2.049h1.769V30.6a2.18,2.18,0,0,1,2.2-2.135h4.013a2.18,2.18,0,0,1,2.2,2.135v1.5H54.82a2.139,2.139,0,0,1,2.2,2.049v1.469a17,17,0,0,1,8.813,14.569,2.413,2.413,0,0,1,2.491,2.411c0,1.106.136,2.009-.707,2.853a2.4,2.4,0,0,1-1.7.707H31.763a2.416,2.416,0,0,1-2.411-2.411c0-1.106-.136-2.009.707-2.853A2.4,2.4,0,0,1,31.763,50.183Zm47.7,11.526,7.8-9.873a1.047,1.047,0,0,0,.211-.885,3.534,3.534,0,1,1,4.929,2.27c-1.338.633-1.873.016-2.447.77L79.79,66.867c-.887-.717-1.815-1.418-2.718-2.124l2.274-2.88a1.061,1.061,0,0,0,.122-.154ZM79.637,86V94.1a1.053,1.053,0,0,1-1.053,1.053H19.1A1.053,1.053,0,0,1,18.043,94.1V17.053A1.053,1.053,0,0,1,19.1,16H67a1.05,1.05,0,0,1,.751.315L79.329,27.888a1.05,1.05,0,0,1,.309.745V58.11l5.689-7.2a5.635,5.635,0,1,1,6,4.738L81.235,68.421a2.614,2.614,0,0,1-.344,2.68l-.807,1.021,4.584,3.62a4.7,4.7,0,0,1,.774,6.594L83.183,85.2a1.049,1.049,0,0,1-1.473.173l-.756-.6A5.145,5.145,0,0,1,79.637,86Zm-1.556-1.544a1.507,1.507,0,0,1-1.378-.029,1.037,1.037,0,0,0-.131-.1l-5.121-4.044a1.059,1.059,0,0,0-.155-.123l-10.11-7.984c-.414-.36-.848-.5-.842-1.386a2.789,2.789,0,0,1,.7-1.741L79.307,83.472a3.036,3.036,0,0,1-1.075.915A1.066,1.066,0,0,0,78.081,84.454ZM77.53,29.686V60.778l-2.294,2.9a2.621,2.621,0,0,0-2.447.859L71.9,65.66l-4.583-3.62a4.7,4.7,0,0,0-6.594.774l-.759.961H32.641a1.053,1.053,0,0,0,0,2.107h25.7a1.049,1.049,0,0,0,.3,1.266l.757.6a4.586,4.586,0,0,0-1,4.136H32.641a1.053,1.053,0,1,0,0,2.107H60.1l7.6,6H32.641a1.053,1.053,0,0,0,0,2.107H70.366l4.984,3.936a3.212,3.212,0,0,0,2.181.671v6.347H20.15V18.107h45.8V28.633A1.053,1.053,0,0,0,67,29.686H77.53ZM68.058,19.6v7.983h7.983Z" transform="translate(181.142 738.921)" fill="#ffac04" fill-rule="evenodd"/>
    </g>
  </g>
</svg>
