<svg xmlns="http://www.w3.org/2000/svg" xmlns:xlink="http://www.w3.org/1999/xlink" width="105" height="105" viewBox="0 0 105 105">
  <defs>
    <clipPath id="clip-path">
      <rect id="Rectángulo_47325" data-name="Rectángulo 47325" width="58.558" height="62.745" fill="#fff"/>
    </clipPath>
  </defs>
  <g id="Grupo_1179594" data-name="Grupo 1179594" transform="translate(-285.711 -3796.295)">
    <g id="Grupo_1098917" data-name="Grupo 1098917" transform="translate(-100.816 -2225.83)">
      <path id="Trazado_873216" data-name="Trazado 873216" d="M0,0H63.184V63.186H0Z" transform="translate(408.527 6040.213)" fill="none"/>
      <g id="Grupo_156261" data-name="Grupo 156261" transform="translate(411.017 6040.56)">
        <rect id="Rectángulo_47312" data-name="Rectángulo 47312" width="8.362" height="4.181" transform="translate(5.248 19.885)" fill="#fff"/>
        <path id="Trazado_198297" data-name="Trazado 198297" d="M10.008,59.838h8.357l-4.181,5.226Z" transform="translate(-4.758 -28.448)" fill="#fff"/>
        <g id="Grupo_156260" data-name="Grupo 156260" transform="translate(0 0)">
          <g id="Grupo_156259" data-name="Grupo 156259" clip-path="url(#clip-path)">
            <path id="Trazado_198298" data-name="Trazado 198298" d="M25.947,72.183A8.357,8.357,0,1,0,34.3,63.826a8.357,8.357,0,0,0-8.357,8.357m8.36,6.272a6.234,6.234,0,0,1-3.044-.792l3.548-4.434h5.675a6.275,6.275,0,0,1-6.179,5.224Zm6.182-7.318H35.354V66.006a6.281,6.281,0,0,1,5.133,5.132Zm-7.223-5.132v5.81l-3.628,4.535A6.257,6.257,0,0,1,33.266,66" transform="translate(-12.336 -30.344)" fill="#fff"/>
            <rect id="Rectángulo_47313" data-name="Rectángulo 47313" width="2.091" height="2.091" transform="translate(13.611 52.289)" fill="#fff"/>
            <rect id="Rectángulo_47314" data-name="Rectángulo 47314" width="12.544" height="2.091" transform="translate(17.793 52.289)" fill="#fff"/>
            <rect id="Rectángulo_47315" data-name="Rectángulo 47315" width="16.725" height="2.091" transform="translate(13.611 56.471)" fill="#fff"/>
            <rect id="Rectángulo_47316" data-name="Rectángulo 47316" width="2.091" height="2.091" transform="translate(36.607 52.289)" fill="#fff"/>
            <rect id="Rectángulo_47317" data-name="Rectángulo 47317" width="12.544" height="2.091" transform="translate(40.789 52.289)" fill="#fff"/>
            <rect id="Rectángulo_47318" data-name="Rectángulo 47318" width="16.725" height="2.091" transform="translate(36.607 56.471)" fill="#fff"/>
            <rect id="Rectángulo_47319" data-name="Rectángulo 47319" width="2.091" height="2.091" transform="translate(38.698 10.475)" fill="#fff"/>
            <rect id="Rectángulo_47320" data-name="Rectángulo 47320" width="10.453" height="2.091" transform="translate(42.88 10.475)" fill="#fff"/>
            <rect id="Rectángulo_47321" data-name="Rectángulo 47321" width="14.634" height="2.091" transform="translate(38.698 14.657)" fill="#fff"/>
            <rect id="Rectángulo_47322" data-name="Rectángulo 47322" width="2.091" height="2.091" transform="translate(38.698 21.974)" fill="#fff"/>
            <rect id="Rectángulo_47323" data-name="Rectángulo 47323" width="10.453" height="2.091" transform="translate(42.88 21.974)" fill="#fff"/>
            <rect id="Rectángulo_47324" data-name="Rectángulo 47324" width="14.634" height="2.091" transform="translate(38.698 26.156)" fill="#fff"/>
            <path id="Trazado_198299" data-name="Trazado 198299" d="M72.826,80.545H85.371A1.045,1.045,0,0,0,86.416,79.5V71.142A1.045,1.045,0,0,0,85.371,70.1H82.234V64.871a1.045,1.045,0,0,0-1.045-1.046H77.008a1.045,1.045,0,0,0-1.046,1.046V68H72.827a1.045,1.045,0,0,0-1.045,1.046V79.507a1.045,1.045,0,0,0,1.044,1.04m11.5-2.085H82.234V72.187h2.091Zm-6.27-12.546h2.091V78.461H78.055ZM73.874,70.1h2.09v8.357H73.873Z" transform="translate(-34.127 -30.344)" fill="#fff"/>
            <path id="Trazado_198300" data-name="Trazado 198300" d="M42.936,26.345H55.479A1.045,1.045,0,0,0,56.524,25.3V19.027a1.045,1.045,0,0,0-1.045-1.045H42.936a1.045,1.045,0,0,0-1.046,1.045V25.3a1.045,1.045,0,0,0,1.044,1.046Zm1.045-6.273H54.438v4.183H43.981Z" transform="translate(-19.916 -8.549)" fill="#fff"/>
            <path id="Trazado_198301" data-name="Trazado 198301" d="M42.936,48.269H55.479a1.045,1.045,0,0,0,1.045-1.045V40.953a1.045,1.045,0,0,0-1.045-1.046H42.936a1.045,1.045,0,0,0-1.046,1.046v6.271a1.045,1.045,0,0,0,1.046,1.045M43.981,42H54.438v4.181H43.981Z" transform="translate(-19.916 -18.972)" fill="#fff"/>
            <path id="Trazado_198302" data-name="Trazado 198302" d="M4.2,17.252V31.386a1.047,1.047,0,0,0,.229.654l3.951,4.942V61.7a1.046,1.046,0,0,0,1.046,1.045H57.515A1.045,1.045,0,0,0,58.56,61.7V5.254a1.045,1.045,0,0,0-1.045-1.046H17.252A9.408,9.408,0,1,0,4.2,17.252m8.358,5.776H6.3V20.934h6.266ZM9.432,34.944,7.425,32.433h4.017ZM6.3,25.118H8.387v5.227H6.3Zm6.273,5.227H10.478V25.118h2.091ZM56.472,6.3V60.658H10.478V36.982l3.951-4.94a1.047,1.047,0,0,0,.229-.653V17.252A9.353,9.353,0,0,0,18.291,6.3ZM9.433,2.117A7.318,7.318,0,0,1,13.1,15.765a1.045,1.045,0,0,0-.524.9v2.176h-2.1V13.007l2.83-2.832L11.831,8.7l-2.4,2.4-2.4-2.4L5.557,10.173,8.387,13v5.838H6.3V16.668a1.043,1.043,0,0,0-.523-.9A7.318,7.318,0,0,1,9.438,2.116Z" transform="translate(-0.002 -0.002)" fill="#fff"/>
          </g>
        </g>
      </g>
    </g>
    <g id="Grupo_1102226" data-name="Grupo 1102226" transform="translate(106.043 3054.295)">
      <rect id="Rectángulo_402006" data-name="Rectángulo 402006" width="105" height="105" rx="10" transform="translate(179.668 742)" fill="#6c4826"/>
      <g id="Grupo_1179111" data-name="Grupo 1179111" transform="translate(183.402 747.129)">
        <path id="Trazado_997613" data-name="Trazado 997613" d="M77.687,11.6h-10.3a4.3,4.3,0,0,0-4.037-2.867H60.484A1.434,1.434,0,0,1,59.05,7.3a4.322,4.322,0,0,0-4.3-4.3h-8.6a4.3,4.3,0,0,0-4.3,4.3,1.4,1.4,0,0,1-.44,1.022,1.375,1.375,0,0,1-.994.411H37.545A4.3,4.3,0,0,0,33.508,11.6h-10.3a2.867,2.867,0,0,0-2.867,2.867V43.215a15.762,15.762,0,0,0,0,31.4v8.672a2.867,2.867,0,0,0,2.867,2.867H77.687a2.867,2.867,0,0,0,2.867-2.867V14.469A2.867,2.867,0,0,0,77.687,11.6ZM28.943,72.952c.019-.01.036-.023.056-.033A15.775,15.775,0,0,0,30.691,71.9c.069-.047.143-.092.208-.143a15.731,15.731,0,0,0,1.481-1.2c.072-.066.143-.129.212-.195a15.691,15.691,0,0,0,1.279-1.361c.065-.076.128-.152.191-.231a15.716,15.716,0,0,0,1.077-1.512c.052-.083.1-.168.152-.252a15.844,15.844,0,0,0,.87-1.657c.036-.082.069-.165.1-.247a15.653,15.653,0,0,0,.651-1.8c.02-.07.036-.143.056-.212a15.788,15.788,0,0,0,.413-1.945,1.076,1.076,0,0,1,.014-.135,15.092,15.092,0,0,0,0-4.212,1.074,1.074,0,0,0-.014-.135,16.1,16.1,0,0,0-.413-1.948c-.02-.069-.036-.143-.056-.208a15.483,15.483,0,0,0-.652-1.806c-.034-.08-.066-.161-.1-.239a16.03,16.03,0,0,0-.875-1.667c-.049-.08-.1-.161-.143-.239a15.8,15.8,0,0,0-1.088-1.528c-.057-.072-.116-.143-.175-.212a15.658,15.658,0,0,0-1.29-1.378c-.063-.06-.128-.118-.192-.176a15.688,15.688,0,0,0-1.5-1.21c-.062-.044-.126-.086-.189-.129A15.748,15.748,0,0,0,29,44.9c-.02-.01-.036-.024-.056-.034V20.2h4.3a2.867,2.867,0,0,0,2.867,2.867H64.785A2.867,2.867,0,0,0,67.652,20.2h4.3V77.55H28.943Zm8.6-61.35h2.867a4.186,4.186,0,0,0,3.021-1.252A4.211,4.211,0,0,0,44.713,7.3a1.434,1.434,0,0,1,1.434-1.434h8.6a1.4,1.4,0,0,1,1.022.44,1.375,1.375,0,0,1,.411.994,4.3,4.3,0,0,0,4.3,4.3h2.867a1.434,1.434,0,0,1,1.434,1.434V20.2H36.112V13.036A1.434,1.434,0,0,1,37.545,11.6ZM23.209,14.469H33.244v2.867H27.51a1.434,1.434,0,0,0-1.434,1.434V43.75q-.4-.116-.811-.208c-.155-.036-.311-.07-.467-.1-.364-.07-.73-.126-1.1-.172-.126-.014-.251-.036-.378-.049-.037,0-.073-.011-.11-.014ZM8.872,58.912a12.917,12.917,0,0,1,12.9-12.9,12.662,12.662,0,0,1,5.161,1.085,12.891,12.891,0,0,1,0,23.639,12.657,12.657,0,0,1-5.161,1.081A12.917,12.917,0,0,1,8.872,58.912ZM77.687,83.284H23.209V74.618a.97.97,0,0,0,.11-.014c.129-.013.255-.034.383-.05.367-.044.73-.1,1.091-.169.159-.032.317-.067.476-.1q.407-.092.807-.206v4.909a1.434,1.434,0,0,0,1.434,1.434H73.386a1.434,1.434,0,0,0,1.434-1.434V18.77a1.434,1.434,0,0,0-1.434-1.434H67.652V14.469H77.687Z" fill="#ffac04"/>
        <path id="Trazado_997614" data-name="Trazado 997614" d="M36.434,9.867H39.3A1.434,1.434,0,1,0,39.3,7H36.434a1.434,1.434,0,0,0,0,2.867Z" transform="translate(12.581 1.735)" fill="#ffac04"/>
        <path id="Trazado_997615" data-name="Trazado 997615" d="M30.434,25.867H50.5A1.434,1.434,0,0,0,50.5,23H30.434a1.434,1.434,0,1,0,0,2.867Z" transform="translate(9.979 8.673)" fill="#ffac04"/>
        <path id="Trazado_997616" data-name="Trazado 997616" d="M56.107,29H27.434a1.434,1.434,0,0,0,0,2.867H56.107a1.434,1.434,0,0,0,0-2.867Z" transform="translate(8.678 11.275)" fill="#ffac04"/>
        <path id="Trazado_997617" data-name="Trazado 997617" d="M54.372,35H31.434a1.434,1.434,0,1,0,0,2.867H54.372a1.434,1.434,0,0,0,0-2.867Z" transform="translate(10.413 13.877)" fill="#ffac04"/>
        <path id="Trazado_997618" data-name="Trazado 997618" d="M53.938,41h-21.5a1.434,1.434,0,0,0,0,2.867h21.5a1.434,1.434,0,0,0,0-2.867Z" transform="translate(10.846 16.479)" fill="#ffac04"/>
        <path id="Trazado_997619" data-name="Trazado 997619" d="M54.372,47H31.434a1.434,1.434,0,1,0,0,2.867H54.372a1.434,1.434,0,0,0,0-2.867Z" transform="translate(10.413 19.081)" fill="#ffac04"/>
        <path id="Trazado_997620" data-name="Trazado 997620" d="M25.823,38.332a1.434,1.434,0,0,0-2.021.184l-6.165,7.4-3.191-3.191a1.434,1.434,0,1,0-2.027,2.027l4.3,4.3a1.424,1.424,0,0,0,1.016.42H17.8a1.444,1.444,0,0,0,1.038-.513l7.168-8.6a1.434,1.434,0,0,0-.184-2.023Z" transform="translate(2.606 15.177)" fill="#ffac04"/>
      </g>
    </g>
  </g>
</svg>
