<svg xmlns="http://www.w3.org/2000/svg" width="77.943" height="69.612" viewBox="0 0 77.943 69.612">
  <g id="Grupo_1179598" data-name="Grupo 1179598" transform="translate(13465 11900.576)">
    <g id="Grupo_1179259" data-name="Grupo 1179259" transform="translate(-1292.339 -22.471)">
      <path id="Trazado_877441" data-name="Trazado 877441" d="M171.07,69.973H113.3a10.115,10.115,0,0,1-10.086-10.086V10.447A10.114,10.114,0,0,1,113.3.361H171.07a10.115,10.115,0,0,1,10.086,10.086V59.887A10.116,10.116,0,0,1,171.07,69.973" transform="translate(-12275.874 -11878.467)" fill="#ffac04"/>
      <g id="Grupo_1179247" data-name="Grupo 1179247" transform="translate(-12158.579 -11867.883)">
        <path id="Trazado_998334" data-name="Trazado 998334" d="M171,401.653a3.4,3.4,0,0,0,3.4,3.4h9.723a3.4,3.4,0,0,0,3.4-3.4V400H171Z" transform="translate(-154.374 -361.11)" fill="#fff7e5"/>
        <path id="Trazado_998335" data-name="Trazado 998335" d="M203.917,484.917h4.861A2.917,2.917,0,0,0,211.695,482H201A2.917,2.917,0,0,0,203.917,484.917Z" transform="translate(-181.458 -435.137)" fill="#fff7e5"/>
        <path id="Trazado_998336" data-name="Trazado 998336" d="M456.375,160h-2.917a1.458,1.458,0,0,0,0,2.917h2.917a1.458,1.458,0,0,0,0-2.917Z" transform="translate(-408.054 -144.444)" fill="#fff7e5"/>
        <path id="Trazado_998337" data-name="Trazado 998337" d="M444.186,64.178l2.526-1.458a1.458,1.458,0,0,0-1.458-2.526l-2.526,1.458a1.458,1.458,0,0,0,1.458,2.526Z" transform="translate(-399.025 -54.165)" fill="#fff7e5"/>
        <path id="Trazado_998338" data-name="Trazado 998338" d="M446.712,246.652l-2.526-1.458a1.458,1.458,0,0,0-1.458,2.526l2.526,1.458a1.458,1.458,0,0,0,1.458-2.526Z" transform="translate(-399.025 -221.178)" fill="#fff7e5"/>
        <path id="Trazado_998339" data-name="Trazado 998339" d="M4.375,162.917a1.458,1.458,0,1,0,0-2.917H1.458a1.458,1.458,0,1,0,0,2.917Z" transform="translate(0 -144.444)" fill="#fff7e5"/>
        <path id="Trazado_998340" data-name="Trazado 998340" d="M18.732,61.652l-2.526-1.458a1.458,1.458,0,0,0-1.458,2.526l2.526,1.458a1.458,1.458,0,0,0,1.458-2.526Z" transform="translate(-12.655 -54.165)" fill="#fff7e5"/>
        <path id="Trazado_998341" data-name="Trazado 998341" d="M17.273,245.194l-2.526,1.458a1.458,1.458,0,1,0,1.458,2.526l2.526-1.458a1.458,1.458,0,0,0-1.458-2.526Z" transform="translate(-12.655 -221.178)" fill="#fff7e5"/>
        <path id="Trazado_998342" data-name="Trazado 998342" d="M275.861,220.486V220h-.486A4.38,4.38,0,0,0,271,224.375v.486h.486A4.38,4.38,0,0,0,275.861,220.486Z" transform="translate(-244.652 -198.61)" fill="#fff7e5"/>
        <path id="Trazado_998343" data-name="Trazado 998343" d="M241.272,96.557l-.344-.344-.344.344a4.38,4.38,0,0,0,0,6.187l.344.344.344-.344A4.38,4.38,0,0,0,241.272,96.557Z" transform="translate(-216.039 -86.859)" fill="#fff7e5"/>
        <path id="Trazado_998344" data-name="Trazado 998344" d="M191.486,220H191v.486a4.38,4.38,0,0,0,4.375,4.375h.486v-.486A4.38,4.38,0,0,0,191.486,220Z" transform="translate(-172.43 -198.61)" fill="#fff7e5"/>
        <path id="Trazado_998345" data-name="Trazado 998345" d="M98.014,0A17.005,17.005,0,0,0,86.736,29.741a8.968,8.968,0,0,1,3,6.233h6.819V29.168H96.07a7.3,7.3,0,0,1-7.292-7.292V19.931a1.458,1.458,0,0,1,1.458-1.458h1.945a7.254,7.254,0,0,1,4.375,1.462V18.9l-.948-.948a7.3,7.3,0,0,1,0-10.312l1.375-1.375a1.459,1.459,0,0,1,2.062,0l1.375,1.375a7.3,7.3,0,0,1,0,10.312l-.948.948v1.039a7.254,7.254,0,0,1,4.375-1.462h1.945a1.458,1.458,0,0,1,1.458,1.458v1.945a7.3,7.3,0,0,1-7.292,7.292h-.486v6.806h6.819a8.968,8.968,0,0,1,3-6.233A17.005,17.005,0,0,0,98.014,0Z" transform="translate(-73.125)" fill="#fff7e5"/>
      </g>
    </g>
  </g>
</svg>
