<svg xmlns="http://www.w3.org/2000/svg" width="70.019" height="62.534" viewBox="0 0 70.019 62.534">
  <g id="Grupo_1179599" data-name="Grupo 1179599" transform="translate(13361 11893.577)">
    <g id="Grupo_1179260" data-name="Grupo 1179260" transform="translate(-1300.814 -35.268)">
      <path id="Trazado_877437" data-name="Trazado 877437" d="M216.034,72.024h-51.9a9.088,9.088,0,0,1-9.06-9.06V18.549a9.088,9.088,0,0,1,9.06-9.06h51.9a9.088,9.088,0,0,1,9.06,9.06V62.964a9.088,9.088,0,0,1-9.06,9.06" transform="translate(-12215.262 -11867.799)" fill="#8cbf62"/>
      <g id="Grupo_1179248" data-name="Grupo 1179248" transform="translate(-12049.055 -11850.922)">
        <path id="Trazado_998346" data-name="Trazado 998346" d="M161.055,462.052h-3.592l-.5-2.052h-10.47l-.5,2.052H142.4a1.4,1.4,0,1,0,0,2.8h18.656a1.4,1.4,0,0,0,0-2.8Z" transform="translate(-127.848 -417.092)" fill="#fff7e5"/>
        <path id="Trazado_998347" data-name="Trazado 998347" d="M147.491,247.462h8.722V240h-7.79Z" transform="translate(-133.734 -217.613)" fill="#fff7e5"/>
        <path id="Trazado_998348" data-name="Trazado 998348" d="M143.746,350h-9.072l-.933,7.462h10Z" transform="translate(-121.266 -317.353)" fill="#fff7e5"/>
        <path id="Trazado_998349" data-name="Trazado 998349" d="M271,350v7.462h10L280.072,350Z" transform="translate(-245.722 -317.353)" fill="#fff7e5"/>
        <path id="Trazado_998350" data-name="Trazado 998350" d="M271,247.462h8.722L278.79,240H271Z" transform="translate(-245.722 -217.613)" fill="#fff7e5"/>
        <path id="Trazado_998351" data-name="Trazado 998351" d="M392.839,241.06a1.4,1.4,0,0,0-1.357-1.06h-6.739l.933,7.462h8.765Z" transform="translate(-348.854 -217.613)" fill="#fff7e5"/>
        <path id="Trazado_998352" data-name="Trazado 998352" d="M409.036,355.724,407.605,350h-9.114l.933,7.462h8.255A1.4,1.4,0,0,0,409.036,355.724Z" transform="translate(-361.321 -317.353)" fill="#fff7e5"/>
        <path id="Trazado_998353" data-name="Trazado 998353" d="M.042,355.724A1.4,1.4,0,0,0,1.4,357.462H9.655L10.588,350H1.473Z" transform="translate(0 -317.353)" fill="#fff7e5"/>
        <path id="Trazado_998354" data-name="Trazado 998354" d="M24.9,241.06l-1.6,6.4h8.765L32.993,240h-6.74A1.4,1.4,0,0,0,24.9,241.06Z" transform="translate(-21.123 -217.613)" fill="#fff7e5"/>
        <path id="Trazado_998355" data-name="Trazado 998355" d="M161.286,81.072a1.405,1.405,0,0,0,1.356,1.054H177.08a1.405,1.405,0,0,0,1.356-1.054,8.751,8.751,0,0,0,.286-2.211,8.861,8.861,0,1,0-17.723,0A8.753,8.753,0,0,0,161.286,81.072Z" transform="translate(-145.983 -63.471)" fill="#fff7e5"/>
        <path id="Trazado_998356" data-name="Trazado 998356" d="M382.485,152.8a1.4,1.4,0,0,0,0-2.8h-2.416a11.728,11.728,0,0,1,.084,1.4,11.441,11.441,0,0,1-.087,1.4Z" transform="translate(-344.614 -136.008)" fill="#fff7e5"/>
        <path id="Trazado_998357" data-name="Trazado 998357" d="M94.815,150H92.4a1.4,1.4,0,0,0,0,2.8h2.419a11.434,11.434,0,0,1-.087-1.4A11.725,11.725,0,0,1,94.815,150Z" transform="translate(-82.512 -136.008)" fill="#fff7e5"/>
        <path id="Trazado_998358" data-name="Trazado 998358" d="M243.8,3.815V1.4a1.4,1.4,0,1,0-2.8,0V3.815a11.663,11.663,0,0,1,2.8,0Z" transform="translate(-218.52)" fill="#fff7e5"/>
        <path id="Trazado_998359" data-name="Trazado 998359" d="M335.086,48.034l1.712-1.712a1.4,1.4,0,1,0-1.979-1.979l-1.712,1.712A11.761,11.761,0,0,1,335.086,48.034Z" transform="translate(-302.036 -39.835)" fill="#fff7e5"/>
        <path id="Trazado_998360" data-name="Trazado 998360" d="M137.055,48.034a11.761,11.761,0,0,1,1.979-1.979l-1.712-1.712a1.4,1.4,0,0,0-1.979,1.979Z" transform="translate(-122.347 -39.835)" fill="#fff7e5"/>
      </g>
    </g>
  </g>
</svg>
