<svg xmlns="http://www.w3.org/2000/svg" xmlns:xlink="http://www.w3.org/1999/xlink" width="53" height="53" viewBox="0 0 53 53">
  <defs>
    <clipPath id="clip-path">
      <rect id="Rectángulo_402006" data-name="Rectángulo 402006" width="40" height="40" transform="translate(179.668 832)" fill="#6c4826"/>
    </clipPath>
  </defs>
  <g id="Grupo_1179594" data-name="Grupo 1179594" transform="translate(-180 -2361)">
    <g id="Grupo_1102248" data-name="Grupo 1102248" transform="translate(-1.668 1535)">
      <rect id="Rectángulo_403235" data-name="Rectángulo 403235" width="53" height="53" rx="10" transform="translate(181.668 826)" fill="#c4b5a8"/>
      <g id="Enmascarar_grupo_1098763" data-name="Enmascarar grupo 1098763" transform="translate(9)" clip-path="url(#clip-path)">
        <g id="sostenible" transform="translate(179.668 832)">
          <path id="Trazado_877663" data-name="Trazado 877663" d="M36.282,20a16.24,16.24,0,0,0-1.094-5.876l2.876-1.661-2.5-4.339L32.68,9.787A16.265,16.265,0,0,0,22.5,3.91V.587H17.5V3.91A16.265,16.265,0,0,0,7.32,9.787L4.44,8.124l-2.5,4.339,2.876,1.661a16.333,16.333,0,0,0,0,11.753L1.935,27.537l2.5,4.339,2.88-1.663A16.265,16.265,0,0,0,17.5,36.09v3.323H22.5V36.09A16.265,16.265,0,0,0,32.68,30.213l2.88,1.663,2.5-4.339-2.876-1.661A16.24,16.24,0,0,0,36.282,20ZM20,31.272A11.272,11.272,0,1,1,31.272,20,11.272,11.272,0,0,1,20,31.272Z" fill="#6c4826"/>
          <path id="Trazado_877664" data-name="Trazado 877664" d="M31.2,18.748A11.391,11.391,0,0,1,31.272,20,11.272,11.272,0,1,1,8.836,18.434" fill="none" stroke="#000" stroke-miterlimit="10" stroke-width="1.174"/>
          <path id="Trazado_877665" data-name="Trazado 877665" d="M10.92,13.32a11.274,11.274,0,0,1,18.16,0" fill="none" stroke="#000" stroke-miterlimit="10" stroke-width="1.174"/>
          <path id="Trazado_877666" data-name="Trazado 877666" d="M8.539,29.231,7.7,28.187l-1.16.67-1.524.88L4.074,28.11l1.52-.878,1.162-.67-.485-1.251a14.771,14.771,0,0,1,0-10.622l.485-1.251-1.162-.67-1.52-.878.939-1.627,1.524.88,1.16.67.841-1.043a14.668,14.668,0,0,1,9.195-5.312l1.327-.205V.587H17.5V3.91A16.264,16.264,0,0,0,7.321,9.787L4.441,8.124l-2.5,4.338,2.876,1.661a16.335,16.335,0,0,0,0,11.753L1.936,27.537l2.5,4.338,2.88-1.663A16.264,16.264,0,0,0,17.5,36.09v3.323h1.566V34.748l-1.327-.205A14.668,14.668,0,0,1,8.539,29.231Z" fill="#402b16"/>
          <path id="Trazado_877667" data-name="Trazado 877667" d="M36.282,20a16.24,16.24,0,0,0-1.094-5.876l2.876-1.661-2.5-4.339L32.68,9.787A16.265,16.265,0,0,0,22.5,3.91V.587H17.5V3.91A16.265,16.265,0,0,0,7.32,9.787L4.44,8.124l-2.5,4.339,2.876,1.661a16.333,16.333,0,0,0,0,11.753L1.935,27.537l2.5,4.339,2.88-1.663A16.265,16.265,0,0,0,17.5,36.09v3.323H22.5V36.09A16.265,16.265,0,0,0,32.68,30.213l2.88,1.663,2.5-4.339-2.876-1.661A16.24,16.24,0,0,0,36.282,20Z" fill="none" stroke="#000" stroke-miterlimit="10" stroke-width="1.174"/>
          <path id="Trazado_877668" data-name="Trazado 877668" d="M23.131,22.5a10.014,10.014,0,0,1,10.02-10.02A10.014,10.014,0,0,1,23.131,22.5" fill="#8cbf62"/>
          <path id="Trazado_877669" data-name="Trazado 877669" d="M23.131,22.5a10.014,10.014,0,0,1,10.02-10.02A10.014,10.014,0,0,1,23.131,22.5" fill="none" stroke="#000" stroke-miterlimit="10" stroke-width="1.174"/>
          <line id="Línea_4313" data-name="Línea 4313" y1="6.262" transform="translate(20 25.01)" fill="none" stroke="#000" stroke-miterlimit="10" stroke-width="1.174"/>
          <line id="Línea_4314" data-name="Línea 4314" x1="8.767" y2="8.767" transform="translate(20 16.869)" fill="none" stroke="#000" stroke-miterlimit="10" stroke-width="1.174"/>
          <path id="Trazado_877670" data-name="Trazado 877670" d="M16.869,22.5a10.014,10.014,0,0,0-10.02-10.02A10.014,10.014,0,0,0,16.869,22.5" fill="#8cbf62"/>
          <path id="Trazado_877671" data-name="Trazado 877671" d="M8.013,12.553a10.155,10.155,0,0,0-1.163-.067A10.014,10.014,0,0,0,16.869,22.5a10.139,10.139,0,0,0-.067-1.163A10.015,10.015,0,0,1,8.013,12.553Z" fill="#384c27"/>
          <line id="Línea_4315" data-name="Línea 4315" x2="8.767" y2="8.767" transform="translate(11.233 16.869)" fill="none" stroke="#000" stroke-miterlimit="10" stroke-width="1.174"/>
          <path id="Trazado_877672" data-name="Trazado 877672" d="M14.1,15.586A9.985,9.985,0,0,1,16.869,22.5a10.014,10.014,0,0,1-10.02-10.02,9.976,9.976,0,0,1,6.391,2.3" fill="none" stroke="#000" stroke-miterlimit="10" stroke-width="1.174"/>
          <g id="Grupo_1101868" data-name="Grupo 1101868">
            <line id="Línea_4316" data-name="Línea 4316" x2="1.174" transform="translate(20.587 17.495)" fill="none" stroke="#000" stroke-miterlimit="10" stroke-width="1.174"/>
            <line id="Línea_4317" data-name="Línea 4317" x2="1.174" transform="translate(18.239 17.495)" fill="none" stroke="#000" stroke-miterlimit="10" stroke-width="1.174"/>
          </g>
        </g>
      </g>
    </g>
  </g>
</svg>
